<svg width="120" height="135" viewBox="0 0 120 135" fill="none" xmlns="http://www.w3.org/2000/svg">
<path d="M60 134.4C93.1371 134.4 120 107.537 120 74.4C120 41.2629 93.1371 14.4 60 14.4C26.8629 14.4 0 41.2629 0 74.4C0 107.537 26.8629 134.4 60 134.4Z" fill="white"/>
<mask id="mask0" mask-type="alpha" maskUnits="userSpaceOnUse" x="0" y="14" width="120" height="121">
<path d="M60 134.4C93.1371 134.4 120 107.537 120 74.4C120 41.2629 93.1371 14.4 60 14.4C26.8629 14.4 0 41.2629 0 74.4C0 107.537 26.8629 134.4 60 134.4Z" fill="white"/>
</mask>
<g mask="url(#mask0)">
<path d="M41.4002 116.1C41.4002 116.1 34.9002 127.5 35.1002 135.1H82.0002C82.0002 135.1 85.2002 118.6 79.8002 111.2C74.3002 103.8 41.4002 116.1 41.4002 116.1Z" fill="#FF710F"/>
</g>
<path d="M36.7998 45.1C36.4998 44.5 28.2998 25.8 28.2998 25.8C28.2998 25.8 31.7998 22.2 34.7998 24.1L42.0998 43.1L36.7998 45.1Z" fill="#F2F2F2"/>
<path d="M29.6001 47.1C29.3001 46.5 21.1001 27.8 21.1001 27.8C21.1001 27.8 24.6001 24.2 27.6001 26.1L34.9001 45.1L29.6001 47.1Z" fill="#F2F2F2"/>
<path d="M22.8999 49.5C22.5999 48.9 14.3999 30.2 14.3999 30.2C14.3999 30.2 17.8999 26.6 20.8999 28.5L28.1999 47.5L22.8999 49.5Z" fill="#F2F2F2"/>
<path d="M34.2001 81.6L49.0001 84.7L54.6001 81.5L63.9001 84.7L75.3001 78.9L76.0001 75.1C76.0001 75.1 81.0001 77.3 83.2001 75.1L84.8001 63.2L92.7001 53.9L78.0001 36.3L65.0001 32.7L40.0001 30.3C40.0001 30.3 20.8001 38.3 19.7001 44.6C18.6001 50.9 34.2001 81.6 34.2001 81.6Z" fill="#20B3ED"/>
<path d="M68.2 68.3L49.5 78.1L45.2 76.5C44.9 78.8 42.5 82 41.5 83.2L49 84.8L49.5 84.5L54.6 81.6L63.9 84.8L75.3 79L76 75.2L76.7 67.8L68.2 68.3Z" fill="#CECECE"/>
<path d="M15.7002 51.5C15.4002 50.9 7.2002 32.2 7.2002 32.2C7.2002 32.2 10.7002 28.6 13.7002 30.5L21.0002 49.5L15.7002 51.5Z" fill="#F2F2F2"/>
<path d="M39.2998 25V31.6C39.2998 31.6 44.1998 35.2 54.1998 35C64.1998 34.8 68.5998 33.6 70.2998 32.3V25.6L39.2998 25Z" fill="#FF710F"/>
<path d="M39.3002 25L39.4002 31.6V31.5C39.9002 31.9 40.5002 32.2 41.1002 32.4C41.7002 32.7 42.3002 32.9 42.9002 33.1C44.1002 33.5 45.4002 33.9 46.7002 34.1C48.0002 34.4 49.3002 34.5 50.6002 34.6H51.6002C51.9002 34.6 52.3002 34.6 52.6002 34.6H53.6002H54.1002H54.6002C55.3002 34.6 55.9002 34.6 56.6002 34.5L57.6002 34.4L58.6002 34.3C59.3002 34.3 59.9002 34.2 60.6002 34.1C61.3002 34 61.9002 34 62.6002 33.9C63.9002 33.7 65.2002 33.5 66.5002 33.2L67.0002 33.1L67.5002 33L67.7002 32.9L67.9002 32.8C68.0002 32.7 68.2002 32.7 68.4002 32.6C69.0002 32.4 69.6002 32.1 70.1002 31.7L70.0002 32.2V25.5L70.3002 25.8L62.6002 25.6C60.0002 25.5 57.5002 25.5 54.9002 25.4L51.0002 25.3L47.1002 25.2L39.3002 25ZM39.3002 25H47.0002H50.9002H54.8002C57.4002 25 60.0002 25 62.6002 25.1L70.4002 25.2H70.7002V25.5V32.2V32.3L70.6002 32.4C70.0002 32.8 69.4002 33.1 68.8002 33.4C68.6002 33.5 68.5002 33.5 68.3002 33.6L68.1002 33.7L67.9002 33.8L67.4002 33.9L66.6002 34C65.3002 34.3 64.0002 34.5 62.6002 34.7C61.9002 34.8 61.3002 34.8 60.6002 34.9C60.0002 35 59.3002 35 58.6002 35L57.6002 35.1H56.6002C55.9002 35.1 55.3002 35.1 54.6002 35.2H54.1002H53.6002H52.6002C52.3002 35.2 51.9002 35.2 51.6002 35.2L50.6002 35.1C49.3002 35 47.9002 34.8 46.6002 34.5C45.3002 34.2 44.0002 33.9 42.7002 33.4C42.1002 33.2 41.5002 32.9 40.9002 32.6C40.3002 32.3 39.7002 32 39.2002 31.6V31.5L39.3002 25Z" fill="black"/>
<path d="M62.0002 34.6H61.7002V29.6C61.7002 29.2 61.7002 28.8 61.8002 28.5L62.1002 28.6C62.0002 29 62.0002 29.3 62.0002 29.7V34.6Z" fill="black"/>
<path d="M63.0002 34.4H62.7002V29.4C62.7002 29 62.7002 28.6 62.8002 28.3L63.1002 28.4C63.0002 28.7 63.0002 29.1 63.0002 29.4V34.4Z" fill="black"/>
<path d="M64.0002 34.2999H63.7002V29.2999C63.7002 28.8999 63.7002 28.5 63.8002 28.2L64.1002 28.2999C64.0002 28.5999 64.0002 28.9999 64.0002 29.2999V34.2999Z" fill="black"/>
<path d="M65.0998 34.1H64.7998V29.1C64.7998 28.7 64.7998 28.3 64.8998 28L65.1998 28.1C65.0998 28.5 65.0998 28.8 65.0998 29.2V34.1Z" fill="black"/>
<path d="M66.0998 33.7H65.7998V28.7C65.7998 28.3 65.7998 27.9 65.8998 27.6L66.1998 27.7C66.0998 28.1 66.0998 28.4 66.0998 28.8V33.7Z" fill="black"/>
<path d="M67.0998 33.6H66.7998V28.6C66.7998 28.2 66.7998 27.8 66.8998 27.5L67.1998 27.6C67.0998 28 67.0998 28.3 67.0998 28.7V33.6Z" fill="black"/>
<path d="M68.1999 33.2999H67.8999V28.2999C67.8999 27.8999 67.8999 27.5 67.9999 27.2L68.2999 27.2999C68.1999 27.6999 68.1999 28 68.1999 28.4V33.2999Z" fill="black"/>
<path d="M69.1999 32.9H68.8999V27.9C68.8999 27.5 68.8999 27.1 68.9999 26.8L69.2999 26.9C69.1999 27.3 69.1999 27.6 69.1999 28V32.9Z" fill="black"/>
<path d="M49.5998 34.9H49.2998V29.9C49.2998 29.5 49.2998 29.1 49.3998 28.8L49.6998 28.9C49.5998 29.3 49.5998 29.6 49.5998 30V34.9Z" fill="black"/>
<path d="M50.6999 34.9H50.3999V29.9C50.3999 29.5 50.3999 29.1 50.4999 28.8L50.7999 28.9C50.6999 29.3 50.6999 29.6 50.6999 30V34.9Z" fill="black"/>
<path d="M51.6999 34.9H51.3999V29.9C51.3999 29.5 51.3999 29.1 51.4999 28.8L51.7999 28.9C51.6999 29.3 51.6999 29.6 51.6999 30V34.9Z" fill="black"/>
<path d="M52.6999 34.9H52.3999V29.9C52.3999 29.5 52.3999 29.1 52.4999 28.8L52.7999 28.9C52.6999 29.3 52.6999 29.6 52.6999 30V34.9Z" fill="black"/>
<path d="M53.8 34.9H53.5V29.9C53.5 29.5 53.5 29.1 53.6 28.8L53.9 28.9C53.8 29.3 53.8 29.6 53.8 30V34.9Z" fill="black"/>
<path d="M54.8 34.9H54.5V29.9C54.5 29.5 54.5 29.1 54.6 28.8L54.9 28.9C54.8 29.3 54.8 29.6 54.8 30V34.9Z" fill="black"/>
<path d="M55.8 34.9H55.5V29.9C55.5 29.5 55.5 29.1 55.6 28.8L55.9 28.9C55.8 29.3 55.8 29.6 55.8 30V34.9Z" fill="black"/>
<path d="M56.8 34.9H56.5V29.9C56.5 29.5 56.5 29.1 56.6 28.8L56.9 28.9C56.8 29.3 56.8 29.6 56.8 30V34.9Z" fill="black"/>
<path d="M57.9001 34.7H57.6001V29.7C57.6001 29.3 57.6001 28.9 57.7001 28.6L58.0001 28.7C57.9001 29.1 57.9001 29.4 57.9001 29.8V34.7Z" fill="black"/>
<path d="M58.9001 34.7H58.6001V29.7C58.6001 29.3 58.6001 28.9 58.7001 28.6L59.0001 28.7C58.9001 29.1 58.9001 29.4 58.9001 29.8V34.7Z" fill="black"/>
<path d="M59.9001 34.7H59.6001V29.7C59.6001 29.3 59.6001 28.9 59.7001 28.6L60.0001 28.7C59.9001 29.1 59.9001 29.4 59.9001 29.8V34.7Z" fill="black"/>
<path d="M61.0002 34.7H60.7002V29.7C60.7002 29.3 60.7002 28.9 60.8002 28.6L61.1002 28.7C61.0002 29 60.9002 29.4 61.0002 29.7V34.7Z" fill="black"/>
<path d="M48.5001 34.6H48.2001V29.6C48.2001 29.2 48.2001 28.9 48.1001 28.5L48.4001 28.4C48.5001 28.8 48.5001 29.2 48.5001 29.5V34.6Z" fill="black"/>
<path d="M47.5001 34.4H47.2001V29.4C47.2001 29 47.2001 28.6999 47.1001 28.2999L47.4001 28.2C47.5001 28.6 47.5001 28.9999 47.5001 29.2999V34.4Z" fill="black"/>
<path d="M46.4 34.3H46.1V29.3C46.1 28.9 46.1 28.6 46 28.2L46.3 28.1C46.4 28.5 46.4 28.9 46.4 29.2V34.3Z" fill="black"/>
<path d="M45.4 34.1H45.1V29.1C45.1 28.7 45.1 28.4 45 28L45.3 27.9C45.4 28.3 45.4 28.7 45.4 29V34.1Z" fill="black"/>
<path d="M44.4 33.7H44.1V28.7C44.1 28.3 44.1 28 44 27.6L44.3 27.5C44.4 27.9 44.4 28.3 44.4 28.6V33.7Z" fill="black"/>
<path d="M43.4 33.4H43.1V28.4C43.1 28 43.1 27.6999 43 27.2999L43.3 27.2C43.4 27.6 43.4 27.9999 43.4 28.2999V33.4Z" fill="black"/>
<path d="M42.2999 33H41.9999V28C41.9999 27.6 41.9999 27.3 41.8999 26.9L42.1999 26.8C42.2999 27.2 42.2999 27.6 42.2999 27.9V33Z" fill="black"/>
<path d="M41.2999 32.7H40.9999V27.7C40.9999 27.3 40.9999 27 40.8999 26.6L41.1999 26.5C41.2999 26.9 41.2999 27.3 41.2999 27.6V32.7Z" fill="black"/>
<path d="M54.9998 29.7999C64.1998 29.7999 71.6998 27.7 71.6998 25C71.6998 22.4 64.1998 20.2 54.9998 20.2C45.7998 20.2 38.2998 22.4 38.2998 25C38.2998 27.6 45.7998 29.7999 54.9998 29.7999Z" fill="#FF710F"/>
<path d="M71.8002 25C71.8002 25.4 71.6002 25.8 71.4002 26.1C71.2002 26.4 70.9002 26.7 70.6002 26.9C70.0002 27.3 69.3002 27.7 68.6002 28C67.2002 28.6 65.7002 29 64.2002 29.3C61.2002 29.9 58.2002 30.1 55.1002 30.1C53.6002 30.1 52.1002 30 50.5002 29.8C49.7002 29.7 49.0002 29.6 48.2002 29.5C47.4002 29.4 46.7002 29.3 45.9002 29.1C44.4002 28.8 42.9002 28.5 41.5002 27.9C41.2002 27.8 40.8002 27.6 40.5002 27.4C40.2002 27.2 39.8002 27.1 39.5002 26.8C39.2002 26.6 38.9002 26.3 38.6002 26C38.4002 25.7 38.2002 25.3 38.2002 24.9C38.2002 24.5 38.4002 24.1 38.6002 23.8C38.8002 23.5 39.1002 23.2 39.5002 23C40.1002 22.5 40.8002 22.2 41.6002 21.9C43.0002 21.3 44.5002 21 46.0002 20.7C49.0002 20.1 52.1002 19.9 55.1002 19.9C58.1002 19.9 61.2002 20.1 64.2002 20.8C65.7002 21.1 67.2002 21.5 68.6002 22.1C69.3002 22.4 70.0002 22.7 70.6002 23.2C70.9002 23.4 71.2002 23.7 71.4002 24C71.6002 24.2 71.8002 24.6 71.8002 25ZM71.7002 25C71.7002 24.6 71.5002 24.3 71.3002 24C71.1002 23.7 70.8002 23.5 70.5002 23.3C70.2002 23.1 69.9002 22.9 69.5002 22.7C69.2002 22.5 68.8002 22.4 68.5002 22.3C67.1002 21.8 65.6002 21.5 64.1002 21.2C62.6002 21 61.1002 20.8 59.6002 20.7C58.1002 20.6 56.6002 20.5 55.1002 20.6C53.6002 20.6 52.1002 20.7 50.6002 20.8C49.8002 20.9 49.1002 20.9 48.3002 21C47.5002 21.1 46.8002 21.2 46.1002 21.3C45.4002 21.4 44.6002 21.6 43.9002 21.8C43.2002 22 42.4002 22.2 41.8002 22.5C41.5002 22.6 41.1002 22.8 40.8002 22.9C40.5002 23.1 40.1002 23.2 39.8002 23.4C39.5002 23.6 39.2002 23.8 39.0002 24.1C38.8002 24.4 38.6002 24.7 38.6002 25C38.6002 25.3 38.7002 25.7 39.0002 26C39.2002 26.3 39.5002 26.5 39.8002 26.7C40.4002 27.1 41.1002 27.5 41.8002 27.7C43.2002 28.2 44.7002 28.6 46.2002 28.9C47.7002 29.2 49.2002 29.3 50.7002 29.4C52.2002 29.5 53.7002 29.5 55.2002 29.5C58.2002 29.5 61.2002 29.3 64.2002 28.8C65.7002 28.6 67.2002 28.2 68.6002 27.7C68.9002 27.6 69.3002 27.4 69.6002 27.3C69.9002 27.1 70.3002 27 70.6002 26.7C70.9002 26.5 71.2002 26.2 71.4002 26C71.5002 25.7 71.7002 25.4 71.7002 25Z" fill="black"/>
<path d="M84.5998 53.7C84.5998 53.7 86.7998 59.6 91.4998 56.3C96.1998 53 111.2 39.5 111.2 39.5L115.6 45.3L93.4998 61.3C93.4998 61.3 84.5998 65 81.2998 56.3L84.5998 53.7Z" fill="#CECECE"/>
<path d="M115.6 45.6C116.6 45 116.4 43.1 115.3 41.4C114.2 39.7 112.5 38.8 111.5 39.5C110.5 40.1 110.7 42 111.8 43.7C113 45.4 114.7 46.3 115.6 45.6Z" fill="black"/>
<path d="M78.4001 56.7C78.4001 56.7 80.6001 62.6 85.3001 59.3C90.0001 56 105 42.5 105 42.5L109.4 48.3L87.3001 64.3C87.3001 64.3 78.4001 68 75.1001 59.3L78.4001 56.7Z" fill="#F2F2F2"/>
<path d="M109.5 48.7C110.5 48.1 110.3 46.2 109.2 44.5C108.1 42.8 106.4 41.9 105.4 42.6C104.4 43.3 104.6 45.1 105.7 46.8C106.8 48.5 108.5 49.3 109.5 48.7Z" fill="black"/>
<path d="M72.1999 59.8C72.1999 59.8 74.3999 65.7 79.0999 62.4C83.7999 59.1 98.7999 45.6 98.7999 45.6L103.2 51.4L81.0999 67.4C81.0999 67.4 72.1999 71.1 68.8999 62.4L72.1999 59.8Z" fill="#CECECE"/>
<path d="M103.3 51.8C104.3 51.2 104.1 49.3 103 47.6C101.9 45.9 100.2 45 99.1999 45.7C98.1999 46.3 98.3999 48.2 99.4999 49.9C100.6 51.5 102.3 52.4 103.3 51.8Z" fill="black"/>
<path d="M66.0998 62.9C66.0998 62.9 68.2998 68.7999 72.9998 65.5C77.6998 62.2 92.6998 48.7 92.6998 48.7L97.0998 54.5L74.9998 70.5C74.9998 70.5 66.0998 74.2 62.7998 65.5L66.0998 62.9Z" fill="#F2F2F2"/>
<path d="M97.1002 54.8C98.1002 54.2 97.9002 52.3 96.8002 50.6C95.7002 48.9 94.0002 48 93.0002 48.7C92.0002 49.3 92.2002 51.2 93.3002 52.9C94.5002 54.6 96.2002 55.5 97.1002 54.8Z" fill="black"/>
<path d="M53.1001 52C54.1001 53.6 55.6001 55.7 57.2001 57.4C59.2001 59.4 62.2001 59.9 64.8001 58.9L86.4001 49.9C90.4001 48.2 91.9001 43.3 89.5001 39.7C89.5001 39.6 89.4001 39.6 89.4001 39.5C86.8001 35.9 82.0001 34.6 78.0001 36.3L55.8001 45.7C55.8001 45.7 55.8001 45.7 55.7001 45.7C52.9001 46.3 51.6001 49.5 53.1001 52Z" fill="#FF710F"/>
<path d="M62.1001 59.6C60.2001 59.6 58.4001 58.9 57.1001 57.5C55.4001 55.8 53.9001 53.6 52.9001 52.1C52.1001 50.9 52.0001 49.4 52.6001 48C53.2001 46.7 54.3001 45.7 55.7001 45.3L77.9001 36C82.1001 34.2 87.1001 35.6 89.7001 39.3C89.8001 39.4 89.8001 39.4 89.8001 39.5C91.0001 41.3 91.3001 43.5 90.7001 45.5C90.1001 47.6 88.6001 49.2 86.6001 50.1L65.0001 59.1C64.0001 59.4 63.0001 59.6 62.1001 59.6ZM53.4001 51.8C54.3001 53.3 55.8001 55.4 57.5001 57.1C59.4001 59 62.3001 59.5 64.8001 58.5L86.4001 49.5C88.3001 48.7 89.7001 47.2 90.2001 45.3C90.8001 43.4 90.5001 41.4 89.4001 39.8C89.4001 39.7 89.3001 39.7 89.3001 39.6C86.8001 36.1 82.2001 34.8 78.2001 36.5L56.0001 45.9H55.9001C54.7001 46.2 53.7001 47.1 53.2001 48.2C52.6001 49.4 52.7001 50.7 53.4001 51.8Z" fill="black"/>
<path d="M60.4998 59.2999L59.7998 58.9C59.8998 58.7 63.1998 53.2999 67.5998 51.7999C71.7998 50.4 89.9998 42.2 90.1998 42.2L90.4998 42.9C89.6998 43.2 72.0998 51.0999 67.7998 52.5999C63.7998 53.9999 60.5998 59.2999 60.4998 59.2999Z" fill="#CECECE"/>
<path d="M58.5999 58.3L57.8999 57.9C57.9999 57.7 61.0999 52.2 65.4999 50.7C69.6999 49.3 89.5999 40.5 89.7999 40.4L90.0999 41.1C89.2999 41.5 69.9999 50 65.6999 51.4C61.6999 52.8 58.5999 58.2 58.5999 58.3Z" fill="#CECECE"/>
<path d="M56.9998 56.9L56.2998 56.5C56.3998 56.3 59.4998 50.9 63.8998 49.4C68.0998 48 86.6998 39.8 86.7998 39.8L87.0998 40.5C86.2998 40.8 68.3998 48.7 64.0998 50.2C60.0998 51.5 57.0998 56.8 56.9998 56.9Z" fill="#CECECE"/>
<path d="M55.5999 55.3L54.8999 54.9C54.9999 54.7 58.3999 49 62.7999 47.5C66.9999 46.1 85.5999 37.9 85.6999 37.9L85.9999 38.6C85.1999 38.9 67.2999 46.8 62.9999 48.3C58.9999 49.7 55.5999 55.3 55.5999 55.3Z" fill="#CECECE"/>
<path d="M54.5999 53.7L53.8999 53.3C53.9999 53.1 57.2999 47.5 61.6999 46C65.8999 44.6 84.4999 36.4 84.5999 36.4L84.8999 37.1C84.0999 37.4 66.1999 45.3 61.8999 46.8C57.7999 48.2 54.5999 53.6 54.5999 53.7Z" fill="#CECECE"/>
<path d="M53.4998 52.1L52.7998 51.7C52.8998 51.5 56.1998 46.2 60.5998 44.7C64.7998 43.3 82.6998 35.3 82.8998 35.3L83.1998 36C82.4998 36.3 65.0998 44 60.7998 45.5C56.7998 46.8 53.5998 52 53.4998 52.1Z" fill="#CECECE"/>
<path d="M62.1001 59.6C60.2001 59.6 58.4001 58.9 57.1001 57.5C55.4001 55.8 53.9001 53.6 52.9001 52.1C52.1001 50.9 52.0001 49.4 52.6001 48C53.2001 46.7 54.3001 45.7 55.7001 45.3L77.9001 36C82.1001 34.2 87.1001 35.6 89.7001 39.3C89.8001 39.4 89.8001 39.4 89.8001 39.5C91.0001 41.3 91.3001 43.5 90.7001 45.5C90.1001 47.6 88.6001 49.2 86.6001 50.1L65.0001 59.1C64.0001 59.4 63.0001 59.6 62.1001 59.6ZM53.4001 51.8C54.3001 53.3 55.8001 55.4 57.5001 57.1C59.4001 59 62.3001 59.5 64.8001 58.5L86.4001 49.5C88.3001 48.7 89.7001 47.2 90.2001 45.3C90.8001 43.4 90.5001 41.4 89.4001 39.8C89.4001 39.7 89.3001 39.7 89.3001 39.6C86.8001 36.1 82.2001 34.8 78.2001 36.5L56.0001 45.9H55.9001C54.7001 46.2 53.7001 47.1 53.2001 48.2C52.6001 49.4 52.7001 50.7 53.4001 51.8Z" fill="black"/>
<path d="M83.8001 35.4L83.3001 36C82.3001 37.3 82.3001 39.2 83.2001 40.5C83.5001 41 84.0001 41.3 84.6001 41.5C86.7001 42.1 88.2001 41.2 88.2001 41.2L83.8001 35.4Z" fill="#CECECE"/>
<path d="M88.2999 41.1C89.2999 40.3 89.0999 38.4 87.8999 36.8C86.6999 35.2 84.7999 34.6 83.7999 35.4C82.7999 36.2 82.9999 38.1 84.1999 39.7C85.3999 41.3 87.1999 41.9 88.2999 41.1Z" fill="#F2F2F2"/>
<path d="M33.7 85.5C31.3 85.5 27.4 84.1 23.7 76C20.7 69.2999 13.9 54 13.8 53.9L13.5 53.2999L18.4 50.2L30.4 54.4C30.8 54.5 32.3 54.7 33.8 55.9C35.4 57.1 37.4 59.4 37.6 63.7999C37.9 70.2999 38.5 76.5999 38.7 78.6999C38.8 79.3999 38.8 79.4999 38.8 79.5999C38.8 81.7999 37.6 85.1999 34.1 85.5999C34.1 85.5 33.9 85.5 33.7 85.5ZM15.5 53.7999C16.8 56.6999 22.5 69.4 25.1 75.4C27.7 81.2 31 84.2999 34.1 84.0999C36.8 83.7999 37.5 81.0999 37.5 79.5999C37.5 79.4999 37.5 79.2 37.4 78.8C37.2 76.7 36.6 70.4 36.3 63.7999C35.9 56.4999 30.5 55.7999 30.3 55.7999H30.2H30.1L18.7 51.7999L15.5 53.7999Z" fill="black"/>
<path d="M32.6 69.1C35.4 68.5 36.9 64.9 36.1 61.1C35.3 57.3 32.4 54.7 29.6 55.3C26.8 55.9 25.3 59.5 26.1 63.3C26.9 67 29.9 69.7 32.6 69.1Z" fill="#EFEFEF"/>
<path d="M19.3998 60.6C22.1998 60 23.6998 56.4 22.8998 52.6C22.0998 48.8 19.1998 46.2 16.3998 46.8C13.5998 47.4 12.0998 51 12.8998 54.8C13.7998 58.6 16.6998 61.2 19.3998 60.6Z" fill="#CECECE"/>
<path d="M33.1002 85.9C35.9002 85.3 37.3002 81.3 36.4002 77C35.5002 72.7 32.5002 69.7 29.7002 70.3C26.9002 70.9 25.5002 74.9 26.4002 79.2C27.4002 83.5 30.4002 86.5 33.1002 85.9Z" fill="#CECECE"/>
<path d="M32.3999 84.3C34.5999 83.8 35.6999 80.7 34.9999 77.4C34.2999 74 31.8999 71.7 29.7999 72.1C27.5999 72.6 26.4999 75.7 27.1999 79C27.8999 82.4 30.2999 84.8 32.3999 84.3Z" fill="#F2F2F2"/>
<path d="M31.6999 68.2C34.0999 67.7 35.4999 64.6 34.6999 61.2C33.8999 57.8 31.3999 55.6 28.9999 56.1C26.5999 56.6 25.1999 59.7 25.9999 63.1C26.7999 66.4 29.2999 68.7 31.6999 68.2Z" fill="#CECECE"/>
<path d="M14.6 50L15 49.7L16 50.9L16.5 50.6L15.9 48.6H16.3L17.2 50.5H17.6V48.6H18.2V50.6L18.7 50.9L19.5 49.4L20 49.7L19.4 51.4L19.7 51.9L21.2 51.2L21.4 51.9L20 52.9L20.3 53.7H22V54.4H20.4V54.9L22 56.3L21.7 56.8L20.1 55.4L19.9 56L21.1 57.9L20.5 58.3L19.4 56.2L18.9 56.5L19.3 58.7L18.8 58.9L18 57L17.6 57.1L17.5 59.4L17 59.3V57.2L16 56.8C16 56.8 14.4 55.1 14.7 52.7L14 52.3L14.2 51.8L14.9 52L15.3 51.3L14.6 50Z" fill="#F2F2F2"/>
<path d="M14.5999 50L14.9999 49.7L15.9999 50.9L16.4999 50.6L15.8999 48.6V48.5H15.9999H16.3999L17.2999 50.4H17.6999V50.5V48.6V48.5H17.7999H18.3999H18.4999V48.6C18.4999 49.3 18.4999 49.9 18.4999 50.6V50.5L18.9999 50.8H18.8999L19.7999 49.3V49.2L20.2999 49.5L19.6999 51.2L19.9999 51.7H19.8999L21.4999 51L21.6999 51.7L19.9999 53L20.2999 53.8C20.8999 53.8 21.3999 53.8 21.9999 53.8V54.5H20.3999V55L21.9999 56.4L21.6999 56.9L20.0999 55.6H20.1999L19.9999 56.1L21.1999 58L20.5999 58.4H20.4999V58.3L19.3999 56.2H19.4999L18.9999 56.6V56.5L19.3999 58.7V58.8H19.2999L18.8999 59H18.7999V58.9L17.9999 57H18.0999L17.6999 57.1L17.7999 57L17.6999 59.3V59.4H17.5999L16.9999 59.3H16.8999V59.2V57.1V57.2L15.8999 56.8C15.5999 56.5 15.3999 56.2 15.2999 55.9C15.0999 55.6 14.9999 55.2 14.7999 54.9C14.6999 54.7 14.6999 54.5 14.6999 54.4C14.6999 54.2 14.5999 54 14.5999 53.8C14.4999 53.4 14.5999 53.1 14.5999 52.7L13.8999 52.3L14.0999 51.8L14.7999 52L15.1999 51.3L14.5999 50ZM14.5999 50L15.1999 51.2L14.7999 51.9L14.0999 51.7L13.8999 52.2L14.5999 52.6C14.5999 53 14.4999 53.3 14.5999 53.7C14.5999 53.9 14.6999 54.1 14.6999 54.2C14.7999 54.4 14.7999 54.6 14.7999 54.7C14.8999 55 15.0999 55.4 15.2999 55.7C15.4999 56 15.6999 56.3 15.8999 56.6L16.8999 57V59.1L16.9999 59.2L17.4999 59.3L17.3999 59.4L17.4999 57.1V57H17.5999L17.9999 56.9H18.0999V57L18.8999 58.9H18.7999L19.2999 58.7V58.8L18.8999 56.6L19.3999 56.3H19.4999V56.4L20.5999 58.5H20.4999L21.0999 58.1V58.2L19.8999 56.3L19.9999 55.7V55.6L20.0999 55.7L21.5999 57.1H21.4999L21.7999 56.6V56.7L20.2999 55V54.5H21.8999V53.8C21.2999 53.8 20.7999 53.8 20.1999 53.8L19.8999 53L21.3999 52.1L21.1999 51.4H21.2999L19.6999 52.1L19.3999 51.6L19.9999 49.9V50L19.4999 49.7H19.5999L18.5999 51V51.1H18.4999L17.9999 50.8L18.0999 50.7C18.0999 50 18.0999 49.4 18.0999 48.7L18.1999 48.8H17.5999L17.6999 48.7V50.6H17.2999L16.3999 48.7H15.9999V48.6L16.5999 50.6L15.9999 50.9L14.9999 49.7L14.5999 50Z" fill="black"/>
<path d="M31.1002 67C33.0002 66.6 34.0002 64.2 33.5002 61.5C32.9002 58.9 30.9002 57.1 29.1002 57.5C27.2002 57.9 26.2002 60.3 26.7002 63C27.3002 65.6 29.3002 67.4 31.1002 67Z" fill="#F2F2F2"/>
<path d="M33.5002 61.5C33.6002 62 33.7002 62.6 33.7002 63.1C33.7002 63.6 33.6002 64.2 33.5002 64.7C33.3002 65.2 33.1002 65.7 32.7002 66.2C32.3002 66.6 31.8002 66.9 31.2002 67C30.6002 67.1 30.0002 67 29.5002 66.8C29.0002 66.6 28.5002 66.2 28.2002 65.8C27.4002 65 27.0002 64 26.7002 62.9C26.4002 61.8 26.4002 60.7 26.8002 59.6C27.0002 59.1 27.3002 58.6 27.6002 58.1C27.9002 57.6 28.5002 57.4 29.1002 57.2C29.7002 57.1 30.3002 57.2 30.8002 57.4C31.3002 57.6 31.8002 58 32.2002 58.4C32.6002 58.8 32.9002 59.3 33.1002 59.8C33.2002 60.5 33.4002 61 33.5002 61.5ZM33.5002 61.5C33.3002 60.4 32.7002 59.4 32.0002 58.7C31.6002 58.3 31.2002 58 30.7002 57.8C30.2002 57.6 29.7002 57.5 29.2002 57.7C28.7002 57.8 28.2002 58.1 27.9002 58.5C27.5002 58.9 27.3002 59.4 27.1002 59.8C26.7002 60.8 26.7002 61.9 26.9002 63C27.1002 64.1 27.6002 65.1 28.3002 65.9C28.7002 66.3 29.1002 66.6 29.6002 66.8C30.1002 67 30.6002 67 31.2002 66.9C31.7002 66.8 32.2002 66.5 32.5002 66.1C32.9002 65.7 33.1002 65.2 33.3002 64.8C33.7002 63.7 33.7002 62.6 33.5002 61.5Z" fill="black"/>
<path d="M17.9002 56.5C19.0002 56.3 19.5002 54.9 19.2002 53.4C18.9002 51.9 17.8002 50.9 16.7002 51.2C15.6002 51.5 15.1002 52.7999 15.4002 54.2999C15.8002 55.6999 16.9002 56.7 17.9002 56.5Z" fill="#F2F2F2"/>
<path d="M19.3 53.4C19.4 54 19.5 54.6 19.3 55.2C19.2 55.5 19.1 55.8 18.8 56C18.6 56.2 18.3 56.4 18 56.5C17.7 56.6 17.3 56.5 17 56.4C16.7 56.3 16.5 56.1 16.2 55.8C15.8 55.3 15.5 54.8 15.3 54.2C15.2 53.6 15.1 52.9 15.3 52.3C15.4 52 15.6 51.7 15.8 51.5C16 51.3 16.3 51.1 16.7 51C17 50.9 17.4 51 17.7 51.1C18 51.2 18.3 51.4 18.5 51.7C18.9 52.2 19.2 52.8 19.3 53.4ZM19.3 53.4C19.2 52.8 18.9 52.3 18.4 51.8C18.2 51.6 17.9 51.4 17.7 51.3C17.4 51.2 17.1 51.2 16.9 51.2C16.3 51.3 15.9 51.8 15.7 52.3C15.5 52.8 15.5 53.5 15.6 54.1C15.7 54.7 16 55.3 16.4 55.7C16.8 56.1 17.4 56.4 18 56.2C18.3 56.1 18.5 56 18.7 55.8C18.9 55.6 19.1 55.3 19.2 55.1C19.3 54.6 19.4 54 19.3 53.4Z" fill="black"/>
<path d="M29.1 66.8C30.6 66.5 31.4 64.6 31 62.5C30.6 60.4 29 59 27.5 59.4C26 59.7 25.2 61.6 25.6 63.7C26.1 65.7 27.6 67.1 29.1 66.8Z" fill="black"/>
<path d="M29.1001 60.8C29.2001 60.8 29.3001 60.7 29.3001 60.6C29.3001 60.5 29.2001 60.4 29.1001 60.4C29.0001 60.4 28.9001 60.5 28.9001 60.6C28.8001 60.7 28.9001 60.8 29.1001 60.8Z" fill="#474747"/>
<path d="M29.9002 61.8C30.0002 61.8 30.1002 61.7 30.1002 61.6C30.1002 61.5 30.0002 61.4 29.9002 61.4C29.8002 61.4 29.7002 61.5 29.7002 61.6C29.7002 61.7 29.8002 61.8 29.9002 61.8Z" fill="#474747"/>
<path d="M30.2998 63.3C30.3998 63.3 30.4998 63.2 30.4998 63.1C30.4998 63 30.3998 62.9 30.2998 62.9C30.1998 62.9 30.0998 63 30.0998 63.1C29.9998 63.2 30.0998 63.3 30.2998 63.3Z" fill="#474747"/>
<path d="M30.2 64.9C30.3 64.9 30.4 64.8 30.4 64.7C30.4 64.6 30.3 64.5 30.2 64.5C30.1 64.5 30 64.6 30 64.7C30 64.8 30 64.9 30.2 64.9Z" fill="#474747"/>
<path d="M29.7 66C29.8 66 29.9 65.9 29.9 65.8C29.9 65.7 29.8 65.6 29.7 65.6C29.6 65.6 29.5 65.7 29.5 65.8C29.5 65.9 29.6 66 29.7 66Z" fill="#474747"/>
<path d="M28.6001 66.5C28.7001 66.5 28.8001 66.4 28.8001 66.3C28.8001 66.2 28.7001 66.1 28.6001 66.1C28.5001 66.1 28.4001 66.2 28.4001 66.3C28.3001 66.4 28.4001 66.5 28.6001 66.5Z" fill="#474747"/>
<path d="M27.5999 66C27.6999 66 27.7999 65.9 27.7999 65.8C27.7999 65.7 27.6999 65.6 27.5999 65.6C27.4999 65.6 27.3999 65.7 27.3999 65.8C27.3999 65.9 27.4999 66 27.5999 66Z" fill="#474747"/>
<path d="M26.9002 65.1C27.0002 65.1 27.1002 65 27.1002 64.9C27.1002 64.8 27.0002 64.7 26.9002 64.7C26.8002 64.7 26.7002 64.8 26.7002 64.9C26.7002 65 26.8002 65.1 26.9002 65.1Z" fill="#474747"/>
<path d="M26.4002 63.8C26.5002 63.8 26.6002 63.7 26.6002 63.6C26.6002 63.5 26.5002 63.4 26.4002 63.4C26.3002 63.4 26.2002 63.5 26.2002 63.6C26.2002 63.7 26.3002 63.8 26.4002 63.8Z" fill="#474747"/>
<path d="M26.2 62.5C26.3 62.5 26.4 62.4 26.4 62.3C26.4 62.2 26.3 62.1 26.2 62.1C26.1 62.1 26 62.2 26 62.3C26 62.4 26.1 62.5 26.2 62.5Z" fill="#474747"/>
<path d="M26.6999 61.2C26.7999 61.2 26.8999 61.1 26.8999 61C26.8999 60.9 26.7999 60.8 26.6999 60.8C26.5999 60.8 26.4999 60.9 26.4999 61C26.3999 61.1 26.5999 61.2 26.6999 61.2Z" fill="#474747"/>
<path d="M27.6999 60.5C27.7999 60.5 27.8999 60.4 27.8999 60.3C27.8999 60.2 27.7999 60.1 27.6999 60.1C27.5999 60.1 27.4999 60.2 27.4999 60.3C27.3999 60.3 27.5999 60.5 27.6999 60.5Z" fill="#474747"/>
<path d="M58.7998 62.8C60.4998 65.8 64.3998 66.7 67.1998 64.9L88.1998 51.5C87.4998 51.1 86.5998 51 85.7998 51.4L58.7998 62.8Z" fill="black"/>
<path d="M44.2002 53.5L55.7002 69.4L62.9002 65.6L46.3002 50.8L44.2002 53.5Z" fill="#CECECE"/>
<path d="M46.8002 51.9C47.4002 51.9 47.9002 51.3999 47.9002 50.7999C47.9002 50.1999 47.4002 49.7 46.8002 49.7C46.2002 49.7 45.7002 50.1999 45.7002 50.7999C45.7002 51.3999 46.2002 51.9 46.8002 51.9Z" fill="#CECECE"/>
<path d="M47.8 50.8C47.8 51.1 47.7 51.4 47.6 51.6C47.5 51.7 47.4 51.8 47.2 51.9C47.1 52 46.9 52 46.7 52C46.4 52 46.1 51.8 45.9 51.6C45.7 51.4 45.6 51.1 45.5 50.8C45.5 50.7 45.5 50.5 45.5 50.3C45.6 50.1 45.6 50 45.7 49.9C45.9 49.7 46.3 49.5 46.6 49.5C46.8 49.5 46.9 49.5 47.1 49.6C47.2 49.7 47.4 49.8 47.5 49.9C47.8 50.3 47.8 50.6 47.8 50.8ZM47.8 50.8C47.8 50.7 47.8 50.5 47.7 50.4C47.6 50.3 47.5 50.2 47.4 50.1C47.3 50 47.2 50 47.1 50C47 50 46.9 49.9 46.8 50C46.6 50 46.4 50.1 46.2 50.2C46 50.4 45.9 50.6 45.9 50.8C45.9 51.1 46 51.3 46.2 51.5C46.3 51.6 46.4 51.6 46.5 51.7C46.6 51.7 46.8 51.7 46.9 51.7C47.1 51.7 47.4 51.6 47.6 51.5C47.7 51.4 47.8 51.3 47.9 51.2C47.8 51.1 47.8 51 47.8 50.8Z" fill="black"/>
<path d="M44.1 54.6C44.7 54.6 45.2 54.1 45.2 53.5C45.2 52.9 44.7 52.4 44.1 52.4C43.5 52.4 43 52.9 43 53.5C43.1 54.1 43.6 54.6 44.1 54.6Z" fill="#CECECE"/>
<path d="M45.3 53.5C45.3 53.8 45.2 54.0999 45.1 54.2999C45 54.3999 44.9 54.4999 44.7 54.5999C44.6 54.6999 44.4 54.7 44.2 54.7C43.9 54.7 43.6 54.4999 43.4 54.2999C43.2 54.0999 43.1 53.8 43 53.5C43 53.4 43 53.2 43 53C43.1 52.8 43.1 52.6999 43.2 52.5999C43.4 52.3999 43.8 52.2 44.1 52.2C44.3 52.2 44.4 52.1999 44.6 52.2999C44.7 52.3999 44.9 52.4999 45 52.5999C45.2 52.8999 45.2 53.2 45.3 53.5ZM45.2 53.5C45.2 53.4 45.2 53.1999 45.1 53.0999C45 52.9999 44.9 52.8999 44.8 52.7999C44.7 52.6999 44.6 52.7 44.5 52.7C44.4 52.7 44.3 52.6 44.2 52.7C44 52.7 43.8 52.8 43.6 52.9C43.4 53.1 43.3 53.3 43.3 53.5C43.3 53.8 43.4 54 43.6 54.2C43.7 54.3 43.8 54.3 43.9 54.4C44 54.4 44.2 54.4 44.3 54.4C44.5 54.4 44.8 54.3 45 54.2C45.1 54.1 45.2 54 45.3 53.9C45.2 53.8 45.2 53.6 45.2 53.5Z" fill="black"/>
<path d="M55.7001 70.4C56.3001 70.4 56.8001 69.9 56.8001 69.3C56.8001 68.7 56.3001 68.2 55.7001 68.2C55.1001 68.2 54.6001 68.7 54.6001 69.3C54.6001 69.9 55.1001 70.4 55.7001 70.4Z" fill="#CECECE"/>
<path d="M56.8 69.4C56.8 69.7 56.7 70 56.6 70.2C56.5 70.3 56.4 70.4 56.2 70.5C56.1 70.6 55.9 70.6 55.7 70.6C55.4 70.6 55.1 70.4 54.9 70.2C54.7 70 54.6 69.7 54.5 69.4C54.5 69.3 54.5 69.1 54.5 68.9C54.6 68.7 54.6 68.6 54.7 68.5C54.9 68.3 55.3 68.1 55.6 68.1C55.8 68.1 55.9 68.1 56.1 68.2C56.2 68.3 56.4 68.4 56.5 68.5C56.7 68.8 56.8 69.1 56.8 69.4ZM56.7 69.4C56.7 69.3 56.7 69.1 56.6 69C56.5 68.9 56.4 68.8 56.3 68.7C56.2 68.6 56.1 68.6 56 68.6C55.9 68.6 55.8 68.5 55.7 68.6C55.5 68.6 55.3 68.7 55.1 68.8C54.9 69 54.8 69.2 54.8 69.4C54.8 69.7 54.9 69.9 55.1 70.1C55.2 70.2 55.3 70.2 55.4 70.3C55.5 70.3 55.7 70.3 55.8 70.3C56 70.3 56.3 70.2 56.5 70.1C56.6 70 56.7 69.9 56.8 69.8C56.7 69.6 56.7 69.5 56.7 69.4Z" fill="black"/>
<path d="M62.8998 66.7C63.4998 66.7 63.9998 66.2 63.9998 65.6C63.9998 65 63.4998 64.5 62.8998 64.5C62.2998 64.5 61.7998 65 61.7998 65.6C61.7998 66.2 62.2998 66.7 62.8998 66.7Z" fill="#CECECE"/>
<path d="M64.0002 65.6C64.0002 65.9 63.9002 66.2 63.8002 66.4C63.7002 66.5 63.6002 66.6 63.4002 66.7C63.3002 66.8 63.1002 66.8 62.9002 66.8C62.6002 66.8 62.3002 66.6 62.1002 66.4C61.9002 66.2 61.8002 65.9 61.7002 65.6C61.7002 65.5 61.7002 65.3 61.7002 65.1C61.8002 64.9 61.8002 64.8 61.9002 64.7C62.1002 64.5 62.5002 64.3 62.8002 64.3C63.0002 64.3 63.1002 64.3 63.3002 64.4C63.4002 64.5 63.6002 64.6 63.7002 64.7C63.9002 65 64.0002 65.3 64.0002 65.6ZM63.9002 65.6C63.9002 65.5 63.9002 65.3 63.8002 65.2C63.7002 65.1 63.6002 65 63.5002 64.9C63.4002 64.8 63.3002 64.8 63.2002 64.8C63.1002 64.8 63.0002 64.7 62.9002 64.8C62.7002 64.8 62.5002 64.9 62.3002 65C62.1002 65.2 62.0002 65.4 62.0002 65.6C62.0002 65.9 62.1002 66.1 62.3002 66.3C62.4002 66.4 62.5002 66.4 62.6002 66.5C62.7002 66.5 62.9002 66.5 63.0002 66.5C63.2002 66.5 63.5002 66.4 63.7002 66.3C63.8002 66.2 63.9002 66.1 64.0002 66C63.9002 65.9 63.9002 65.7 63.9002 65.6Z" fill="black"/>
<path d="M41.8998 46.9C42.4998 46.9 42.9998 46.3999 42.9998 45.7999C42.9998 45.1999 42.4998 44.7 41.8998 44.7C41.2998 44.7 40.7998 45.1999 40.7998 45.7999C40.7998 46.3999 41.2998 46.9 41.8998 46.9Z" fill="#CECECE"/>
<path d="M33.6 44.8C34.2 44.8 34.7 44.3 34.7 43.7C34.7 43.1 34.2 42.6 33.6 42.6C33 42.6 32.5 43.1 32.5 43.7C32.6 44.4 33.1 44.8 33.6 44.8Z" fill="#CECECE"/>
<path d="M26.3998 42.8C26.9998 42.8 27.4998 42.3 27.4998 41.7C27.4998 41.1 26.9998 40.6 26.3998 40.6C25.7998 40.6 25.2998 41.1 25.2998 41.7C25.3998 42.3 25.8998 42.8 26.3998 42.8Z" fill="#CECECE"/>
<path d="M39.5001 5.30001C39.5001 5.30001 17.8001 12.8 36.0001 64.4L74.9001 45C74.9001 45 65.4001 4.50001 48.2001 5.30001C48.1001 5.30001 41.7001 4.00001 39.5001 5.30001Z" fill="black"/>
<path d="M74.5001 61.5C74.5001 61.5 78.4001 58.9 80.3001 63.1C81.6001 66 87.7001 74.4 91.5001 79.5C93.4001 82 93.8001 85.3 92.7001 88.2C91.8001 90.6 91.5001 93.3 91.4001 94.6C90.8001 99.6 90.7001 106.4 84.2001 114.3C84.2001 114.3 82.4001 118 78.1001 118.1C74.5001 118.1 71.2001 120.4 70.1001 123.9C68.9001 127.7 71.7001 127.9 76.9001 130C77.3001 128.5 79.1001 126.9 85.1001 124.3C91.1001 121.6 92.2001 116.1 92.2001 116.1C92.2001 116.1 102.3 92.8 103.8 88.1C105.3 83.4 105 83.9 103.4 80.3C102.1 77.4 90.8001 57.2 86.4001 49.4C84.7001 46.4 82.2001 43.9 79.0001 42.3C76.9001 41.2 74.4001 40.5 72.1001 41.2C66.4001 42.9 59.8001 43.9 60.7001 44.5C61.7001 45 74.5001 61.5 74.5001 61.5Z" fill="white"/>
<path d="M74.5 61.5L74.7 61.4C74.8 61.4 74.8 61.3 74.9 61.3C75 61.2 75.2 61.2 75.4 61.1C75.7 61 76 60.9 76.4 60.8C77.1 60.7 77.8 60.7 78.4 61C79 61.3 79.6 61.7 79.9 62.3C80.1 62.6 80.3 62.9 80.4 63.2C80.5 63.5 80.7 63.8 80.9 64.1C81.6 65.3 82.3 66.4 83 67.5C83.7 68.6 84.5 69.7 85.3 70.8C86.8 73 88.4 75.1 90 77.3L91.2 78.9C91.4 79.2 91.6 79.4 91.8 79.7C91.9 79.7999 92 80 92.1 80.1L92.4 80.5C93.1 81.7 93.5 83 93.6 84.4C93.7 85.8 93.5 87.1 93.1 88.4C92.6 89.6 92.4 90.9 92.1 92.2C92 92.7999 91.9 93.5 91.8 94.2C91.7 94.9 91.6 95.5 91.6 96.2C91.5 97.5 91.3 98.7999 91.1 100.2C90.7 102.8 89.9 105.5 88.8 107.9C87.7 110.3 86.2 112.6 84.5 114.7C84.2 115.3 83.8 115.7 83.4 116.2C83 116.7 82.5 117 82 117.4C81.5 117.8 80.9 118 80.4 118.2C79.8 118.4 79.2 118.5 78.6 118.5H78.1C78 118.5 77.8 118.5 77.7 118.5C77.4 118.5 77.1 118.5 76.8 118.6C76.2 118.7 75.7 118.8 75.1 119.1C74 119.5 73 120.2 72.2 121C71.4 121.8 70.7 122.8 70.3 123.9C70.1 124.4 69.9 125 69.9 125.6C69.9 125.9 69.9 126.2 70 126.4C70.1 126.7 70.2 126.9 70.5 127.1C70.9 127.5 71.4 127.8 71.9 128.1C72.4 128.3 73 128.6 73.5 128.8C74.6 129.2 75.7 129.6 76.8 130.1L76.7 130.2C76.8 129.7 77.1 129.3 77.3 129C77.6 128.6 77.9 128.3 78.3 128C79 127.4 79.8 127 80.5 126.5C82.1 125.6 83.7 124.9 85.3 124.1C86.9 123.3 88.3 122.2 89.4 120.8C90 120.1 90.4 119.4 90.9 118.6C91.3 117.8 91.6 117 91.8 116.1C93.8 111.3 95.9 106.5 97.9 101.7C98.9 99.2999 99.9 96.9 100.9 94.5C101.4 93.3 101.9 92.1 102.3 90.9C102.5 90.3 102.8 89.7 103 89.1L103.3 88.2L103.6 87.3C103.8 86.7 104 86.1 104.1 85.4C104.2 84.8 104.3 84.2 104.2 83.6C104.1 83 103.8 82.4 103.5 81.8C103.2 81.2 103 80.6 102.7 80C102.1 78.8 101.5 77.7 100.9 76.5L99 73.1L91.4 59.4L87.6 52.6L86.6 50.9C86.3 50.3 86 49.8 85.6 49.2C85.3 48.7 84.9 48.1 84.5 47.6C84.1 47.1 83.7 46.6 83.3 46.1C81.5 44.2 79.3 42.8 76.9 41.9C75.7 41.5 74.4 41.2 73.2 41.3C72.9 41.3 72.6 41.4 72.3 41.5C72 41.6 71.7 41.7 71.4 41.8C70.8 42 70.1 42.2 69.5 42.3C68.2 42.6 66.9 42.9 65.7 43.2C64.4 43.5 63.1 43.8 61.9 44.1C61.6 44.2 61.3 44.3 61 44.4C60.9 44.4 60.9 44.5 60.8 44.5V44.4L60.9 44.5C61 44.6 61 44.6 61.1 44.7C61.6 45.2 62 45.7 62.4 46.2C63.2 47.2 64 48.2 64.9 49.3C66.5 51.3 68.1 53.4 69.7 55.5L72.1 58.6L73.3 60.2L73.9 61L74.2 61.4L74.3 61.6L74.4 61.7L74.5 61.5ZM74.5 61.6L69.6 55.5L64.7 49.4C63.9 48.4 63.1 47.4 62.2 46.4C61.8 45.9 61.3 45.4 60.9 44.9C60.8 44.8 60.8 44.8 60.7 44.7L60.6 44.6C60.6 44.6 60.5 44.6 60.5 44.5C60.5 44.5 60.4 44.4 60.5 44.3C60.5 44.2 60.5 44.2 60.6 44.1C60.6 44 60.7 44 60.7 44C60.8 43.9 60.9 43.9 60.9 43.9C61.2 43.8 61.5 43.7 61.9 43.6C63.2 43.2 64.5 42.9 65.7 42.6C67 42.3 68.2 42 69.5 41.6C70.1 41.4 70.8 41.3 71.4 41.1C71.7 41 72 40.9 72.4 40.8C72.7 40.7 73.1 40.7 73.4 40.6C74.8 40.5 76.1 40.7 77.4 41.2C79.9 42.1 82.2 43.6 84 45.5C84.9 46.5 85.7 47.5 86.4 48.7C86.8 49.3 87 49.8 87.4 50.4L88.4 52.1L92.2 58.9L96 65.6999C97.3 67.9999 98.5 70.3 99.8 72.6L101.7 76.1C102.3 77.3 102.9 78.4 103.5 79.6C103.8 80.2 104 80.8 104.3 81.4C104.6 82 104.9 82.6 105 83.3C105.1 83.7 105.1 84 105.1 84.4C105.1 84.8 105 85.1 104.9 85.4C104.8 86 104.5 86.7 104.3 87.3L104 88.2L103.7 89.1C103.5 89.7 103.2 90.3 103 90.9C102.5 92.1 102 93.3 101.5 94.5C100.5 96.9 99.5 99.2999 98.5 101.7C96.5 106.5 94.4 111.3 92.3 116.1C92.1 117 91.7 117.8 91.3 118.6C90.9 119.4 90.4 120.2 89.8 120.8C88.7 122.2 87.2 123.3 85.6 124.1C84 124.8 82.4 125.6 80.8 126.5C80 126.9 79.3 127.4 78.6 128C78.3 128.3 77.9 128.6 77.7 128.9C77.4 129.2 77.2 129.6 77.1 130V130.1H77C75.9 129.6 74.8 129.2 73.7 128.8C73.1 128.6 72.6 128.4 72 128.1C71.5 127.8 70.9 127.5 70.5 127.1C70.3 126.9 70.1 126.6 70 126.3C69.9 126 69.8 125.7 69.8 125.4C69.8 124.8 69.9 124.2 70.2 123.6C70.6 122.5 71.2 121.4 72.1 120.5C72.9 119.6 74 118.9 75.1 118.5C75.7 118.3 76.2 118.1 76.8 118C77.1 117.9 77.4 117.9 77.7 117.9C77.8 117.9 78 117.9 78.2 117.9H78.6C79.2 117.9 79.7 117.8 80.3 117.6C80.8 117.4 81.4 117.1 81.8 116.8C82.3 116.5 82.7 116.1 83.1 115.7C83.5 115.3 83.8 114.8 84.1 114.3C85.8 112.2 87.2 110 88.3 107.6C88.8 106.4 89.3 105.2 89.7 103.9C90.1 102.6 90.3 101.3 90.6 100C90.8 98.7 91 97.4 91.1 96.1C91.2 95.4 91.3 94.8 91.3 94.1C91.4 93.4 91.5 92.8 91.6 92.1C91.8 90.8 92.1 89.5 92.6 88.2C93.1 87 93.2 85.7 93.1 84.4C93 83.1 92.6 81.7999 92 80.7L91.8 80.3C91.7 80.2 91.6 80 91.5 79.9C91.3 79.6 91.1 79.4 90.9 79.1L89.7 77.5C88.1 75.3 86.6 73.2 85.1 71C84.4 69.9 83.6 68.7999 82.9 67.6999C82.2 66.5999 81.5 65.4 80.8 64.3C80.6 64 80.5 63.7 80.3 63.4C80.2 63.1 80 62.8 79.8 62.5C79.4 62 78.9 61.5 78.3 61.2C77.7 60.9 77 60.9 76.4 61C76.1 61.1 75.8 61.1 75.4 61.3C75.3 61.4 75.1 61.4 74.9 61.5C74.8 61.5 74.8 61.6 74.7 61.6L74.6 61.7H74.5V61.6C74.6 61.6 74.5 61.6 74.5 61.6Z" fill="black"/>
<path d="M48.0001 39.6C48.0001 39.6 50.4001 46 42.8001 52.8L40.1001 54.7C40.1001 54.7 47.4001 70.1 45.9001 86.4C44.4001 102.7 43.5001 116.4 43.5001 116.4L79.6001 109.9C79.6001 109.9 80.4001 66 76.9001 59.4C73.4001 52.8 60.6001 45.2 60.6001 36.5C60.7001 30.8 48.0001 39.6 48.0001 39.6Z" fill="white"/>
<path d="M43.3999 116.7V116.4C43.3999 116.3 44.3999 102.5 45.7999 86.4C47.1999 70.4 39.9999 55 39.9999 54.8L39.8999 54.6L42.6999 52.6C49.9999 45.9 47.7999 39.7 47.7999 39.6L47.6999 39.5L47.7999 39.4C48.1999 39.2 56.8999 33.1 59.7999 34.6C60.3999 34.9 60.7999 35.6 60.7999 36.5C60.7999 41.8 65.8999 46.9 70.2999 51.4C73.0999 54.2 75.6999 56.8 76.9999 59.3C80.4999 65.9 79.6999 108.1 79.6999 109.9V110.1H79.4999L43.3999 116.7ZM40.3999 54.8C41.0999 56.5 47.5999 71.2 46.1999 86.4C44.8999 101.3 43.9999 114.1 43.7999 116.1L79.3999 109.7C79.3999 106.7 79.9999 65.7 76.6999 59.5C75.3999 57.1 72.7999 54.5 70.0999 51.7C65.5999 47.2 60.3999 42 60.3999 36.5C60.3999 35.7 60.1999 35.2 59.6999 34.9C57.1999 33.6 49.2999 38.8 48.1999 39.6C48.4999 40.6 49.7999 46.6 42.8999 52.9L40.3999 54.8Z" fill="black"/>
<path d="M64.7001 43.2L62.8001 43.5C62.8001 43.5 76.5001 62.2999 67.6001 65C57.6001 68 43.9001 51.7999 43.9001 51.7999L37.6001 56.2999C37.6001 56.2999 45.5001 109.5 41.5001 116.1C37.5001 122.7 79.8001 111.2 79.8001 111.2C79.8001 111.2 84.8001 70.2 79.8001 61.2C77.1001 56.4 71.2001 50.0999 68.3001 46.0999C66.8001 44.2999 66.9001 43.7 64.7001 43.2Z" fill="#55C6FF"/>
<path d="M35.8999 56.8C35.8999 56.8 41.6999 53.2 47.4999 67.3C49.2999 71.6 50.4998 76.2 51.0998 80.8L53.2999 97.7C53.2999 97.7 59.3998 100 79.0998 84.8C79.0998 84.8 80.0998 82.8 79.0998 78.9C78.0998 75.1 82.1999 70.2 84.7999 70C87.3999 69.8 87.8999 70.1 87.9999 71.1C87.9999 71.1 90.3999 71.5 90.3999 73C90.3999 73 92.5998 73.2 92.5998 75.3C92.5998 75.3 95.2999 75.5 93.7999 78.2C93.7999 78.2 90.7999 81.4 90.0998 85.1C90.0998 85.1 89.3998 87.8 85.5998 90.5C81.6998 93.2 68.8998 105.6 59.9999 110C56.4999 111.7 54.4999 112.8 53.3999 113.6C51.1999 115 48.2999 115 46.2999 113.4C45.4999 112.8 44.7999 111.9 44.2999 110.7C42.3999 105.8 32.8999 85.2 32.3999 67.4C32.3999 67.3 32.1999 59.2 35.8999 56.8Z" fill="white"/>
<path d="M35.9 56.8C36.8 56.3 37.9 56.3 38.9 56.5C39.9 56.7 40.8 57.3 41.6 57.9C42.4 58.5 43.1 59.2999 43.7 60.0999C44.3 60.8999 44.9 61.7999 45.4 62.5999C47.4 66.0999 48.9 69.9 50 73.8C50.5 75.7 51 77.6999 51.3 79.6999C51.6 81.6999 51.9 83.6999 52.1 85.6999L52.9 91.6999L53.7 97.6999L53.5 97.4C53.5 97.4 53.6 97.4 53.7 97.4C53.8 97.4 53.8 97.4 53.9 97.4H54.1H54.3C54.6 97.4 54.9 97.4 55.2 97.4C55.8 97.3 56.4 97.2999 56.9 97.0999L57.3 97C57.4 97 57.6 96.9 57.7 96.9L58.6 96.6999C59.2 96.4999 59.7 96.2999 60.3 96.0999L62 95.4C62.6 95.2 63.1 94.8999 63.6 94.5999C64.2 94.3999 64.7 94 65.2 93.8C65.7 93.5 66.3 93.2 66.8 92.9C68.9 91.7 71 90.4 73 89L74.5 88L75.2 87.5C75.4 87.2999 75.7 87.1 75.9 87L78.8 84.8L78.7 84.9C78.9 84.5 79 84.0999 79 83.6999C79.1 83.2999 79.1 82.8 79.1 82.4C79.1 81.5 79 80.6 78.8 79.8L78.7 79.1999L78.6 78.9V78.5999C78.6 78.0999 78.6 77.6999 78.6 77.1999C78.7 76.2999 79 75.3999 79.5 74.5999C79.9 73.7999 80.4 73.1 81 72.4C81.6 71.7 82.3 71.0999 83.1 70.6999C83.5 70.4999 83.9 70.2999 84.4 70.1999C84.9 70.1999 85.3 70.0999 85.8 70.0999C86.3 70.0999 86.7 70.0999 87.2 70.1999C87.4 70.2999 87.7 70.3999 87.8 70.6999C87.9 70.8999 88 71.2 88 71.4V71.1999C88.3 71.2999 88.5 71.3 88.8 71.4C89.1 71.5 89.3 71.6 89.6 71.8C89.8 72 90.1 72.1 90.2 72.4C90.4 72.6 90.5 72.8999 90.5 73.1999L90.4 73.0999C90.7 73.0999 91 73.2 91.3 73.4C91.6 73.5 91.8 73.7 92.1 73.9C92.2 74 92.3 74.1 92.4 74.3C92.5 74.4 92.6 74.5999 92.6 74.6999C92.7 74.9999 92.7 75.2999 92.8 75.5999L92.7 75.4C93.1 75.4 93.4 75.4999 93.7 75.6999C94 75.8999 94.3 76.1 94.4 76.5C94.5 76.9 94.5 77.1999 94.4 77.5999C94.3 77.8999 94.2 78.2 94 78.5C93.6 79 93.2 79.5 92.8 80C92.4 80.5 92.1 81.0999 91.8 81.6999C91.5 82.2999 91.2 82.9 91 83.5C90.8 84.1 90.6 84.7 90.5 85.3C90.4 85.6 90.3 85.8999 90.1 86.1999C90 86.4999 89.8 86.7 89.6 87C89.3 87.5 88.9 88 88.5 88.5C87.7 89.4 86.8 90.2 85.8 90.9L85.1 91.4C84.9 91.6 84.6 91.7999 84.4 92C83.9 92.4 83.5 92.7999 83 93.0999C82.1 93.8999 81.2 94.7 80.3 95.4C78.5 97 76.7 98.5 74.9 100.1C73.1 101.6 71.2 103.1 69.3 104.6C67.4 106 65.5 107.5 63.4 108.7L62.6 109.2C62.4 109.3 62.1 109.5 61.8 109.7C61.3 110 60.7 110.3 60.2 110.5C59.1 111 58.1 111.6 57 112.1C56 112.7 54.9 113.2 53.9 113.9C53.8 114 53.6 114.1 53.5 114.1C53.4 114.2 53.2 114.3 53.1 114.3C53 114.4 52.8 114.4 52.7 114.5L52.5 114.6L52.3 114.7C51.7 114.9 51.1 115 50.4 115C49.1 115 47.8 114.7 46.7 114C46.2 113.6 45.7 113.2 45.2 112.8C44.8 112.3 44.5 111.8 44.2 111.2C44.1 111.1 44.1 110.9 44 110.8L43.8 110.4L43.5 109.6L42.8 107.9L41.5 104.6C40.6 102.4 39.8 100.2 39 97.9C37.4 93.4 36 88.8999 34.9 84.1999C33.8 79.5999 32.9 74.8999 32.6 70.0999L32.5 68.3V67.4C32.5 67.1 32.5 66.8 32.5 66.5C32.5 65.3 32.6 64.1 32.9 62.9C33.1 61.7 33.4 60.6 33.9 59.5C34.1 59 34.4 58.4 34.8 57.9C35 57.5 35.4 57.1 35.9 56.8ZM36 56.8C35 57.4 34.3 58.5 33.8 59.5C33.3 60.6 33 61.7 32.8 62.9C32.6 64.1 32.5 65.3 32.5 66.4C32.5 66.7 32.5 67 32.5 67.3L32.6 68.1999L32.7 70C33.1 74.7 34.1 79.4 35.3 84C36.5 88.5999 38 93.0999 39.6 97.5L40.2 99.1999L40.8 100.9C41.2 102 41.7 103.1 42.1 104.2L43.5 107.5L44.2 109.2L44.5 110L44.7 110.4C44.8 110.5 44.8 110.7 44.9 110.8C45.4 111.8 46.1 112.7 47 113.3C47.9 113.9 49.1 114.2 50.2 114.1C50.8 114.1 51.3 114 51.8 113.8L52 113.7L52.2 113.6C52.3 113.6 52.4 113.5 52.6 113.4C52.7 113.3 52.8 113.3 53 113.2C53.1 113.1 53.2 113.1 53.4 113C54.4 112.3 55.5 111.8 56.5 111.2C57.6 110.6 58.6 110.1 59.7 109.6C60.2 109.3 60.7 109 61.3 108.8C61.6 108.7 61.8 108.5 62.1 108.4L62.9 107.9C64.9 106.7 66.9 105.3 68.7 103.8C72.5 100.9 76.1 97.8 79.7 94.8C80.6 94 81.5 93.2 82.4 92.5C82.9 92.0999 83.3 91.7 83.8 91.4C84 91.2 84.3 91 84.5 90.8L85.2 90.3C86.2 89.6 87.1 88.9 87.9 88C88.3 87.6 88.6 87.0999 89 86.5999C89.2 86.3999 89.3 86.1 89.4 85.9C89.5 85.7 89.6 85.3999 89.7 85.0999C89.8 84.3999 90 83.7999 90.3 83.1999C90.5 82.5999 90.8 82 91.2 81.4C91.5 80.8 91.9 80.2999 92.3 79.6999C92.7 79.1999 93.1 78.5999 93.6 78.0999C93.7 77.7999 93.9 77.5 94 77.3C94.1 77 94.1 76.7 94 76.4C93.9 76.1 93.7 75.9 93.4 75.8C93.2 75.7 92.8 75.6 92.5 75.5H92.4V75.4C92.4 75.1 92.4 74.7999 92.3 74.5999C92.3 74.4999 92.2 74.3999 92.1 74.1999C92 74.0999 91.9 74 91.9 73.9C91.7 73.7 91.5 73.5 91.2 73.4C91 73.3 90.7 73.1999 90.4 73.1999H90.3V73.0999C90.3 72.8999 90.2 72.6 90.1 72.4C90 72.2 89.8 72 89.6 71.9C89.4 71.8 89.1 71.7 88.9 71.5C88.7 71.4 88.4 71.3 88.1 71.3H88V71.1999C88 70.9999 87.9 70.7999 87.9 70.5999C87.9 70.3999 87.7 70.3 87.4 70.3C87 70.2 86.5 70.1999 86.1 70.1999C85.7 70.1999 85.2 70.2 84.8 70.3C84.4 70.3 84 70.4999 83.6 70.6999C82.8 71.0999 82.2 71.7 81.6 72.4C81 73.1 80.5 73.7999 80.1 74.5999C79.7 75.3999 79.4 76.1999 79.3 77.0999C79.2 77.4999 79.2 78 79.3 78.4V78.6999L79.4 79L79.6 79.6999C79.8 80.5999 79.9 81.5 79.9 82.4C79.9 82.9 79.9 83.2999 79.8 83.6999C79.7 84.1999 79.6 84.6 79.4 85L76.5 87.1999C76.3 87.3999 76 87.6 75.8 87.8L75.1 88.3L73.6 89.4C71.6 90.8 69.5 92.1 67.4 93.4C65.3 94.6 63.1 95.7999 60.8 96.6999C60.2 96.8999 59.6 97.1 59.1 97.3L58.2 97.5999C58.1 97.5999 57.9 97.6999 57.7 97.6999L57 97.8C56.4 97.9 55.8 98 55.1 98.0999C54.8 98.0999 54.5 98.0999 54.1 98.0999H53.9H53.7C53.6 98.0999 53.5 98.0999 53.5 98.0999C53.4 98.0999 53.3 98.0999 53.2 98H52.9V97.8L52.1 91.8L51.4 85.8L51 82.8C50.9 81.8 50.8 80.8 50.6 79.8C50.3 77.8 50 75.9 49.5 73.9C49 72 48.4 69.9999 47.7 68.1999C47 66.2999 46.2 64.5 45.2 62.7C44.7 61.8 44.2 61 43.6 60.2C43 59.4 42.3 58.6 41.5 58C40.7 57.4 39.8 56.7999 38.9 56.5999C38.4 56.4999 37.9 56.4 37.4 56.5C36.9 56.5 36.4 56.6 36 56.8Z" fill="black"/>
<path d="M29.8002 51L29.5002 49.6C29.5002 49.6 34.0002 44.1 40.7002 46C40.7002 46 42.9002 47.8 44.8002 51.7C46.7002 55.6 50.1002 58 51.9002 58.6C53.7002 59.2 94.1002 76.9 94.1002 76.9C94.1002 76.9 98.5002 80.1 94.2002 83.1C94.2002 83.1 92.5002 84.9 89.3002 83C86.2002 81.1 49.0002 63.3 49.0002 63.3C49.0002 63.3 47.2002 62.6 43.8002 63.3C41.2002 63.9 38.5002 64.2 35.8002 64.3H35.0002L35.7002 58.4C35.7002 58.4 29.4002 55.8 29.5002 52.6V51.6L35.6002 51.7L36.0002 52.4C36.0002 52.4 37.1002 52.1 37.1002 51.5C36.9002 51.1 29.8002 51 29.8002 51Z" fill="white"/>
<path d="M29.7998 51L29.4998 49.6C30.1998 48.8 30.9998 48.1 31.7998 47.5C32.6998 46.9 33.5998 46.4 34.5998 46.1C35.0998 45.9 35.5998 45.8 36.0998 45.7C36.5998 45.6 37.0998 45.5 37.6998 45.5C38.7998 45.5 39.7998 45.6 40.7998 45.9C41.2998 46.4 41.7998 46.8 42.1998 47.3C42.5998 47.8 42.9998 48.3 43.3998 48.9C43.7998 49.4 44.0998 50 44.4998 50.6C44.6998 50.9 44.7998 51.2 44.9998 51.5L45.4998 52.4C46.0998 53.5 46.8998 54.6 47.7998 55.5C48.6998 56.4 49.6998 57.3 50.7998 57.9C51.0998 58.1 51.3998 58.2 51.6998 58.3C51.7998 58.4 51.9998 58.4 52.0998 58.5L52.5998 58.7C53.1998 58.9 53.7998 59.2 54.4998 59.4C55.6998 59.9 56.8998 60.4 58.0998 61L65.3998 64.1L79.8998 70.5L87.0998 73.7C89.4998 74.8 91.8998 75.8 94.2998 76.9C94.7998 77.3 95.2998 77.8 95.5998 78.3C95.9998 78.8 96.1998 79.5 96.2998 80.1C96.2998 80.8 96.1998 81.4 95.7998 82C95.3998 82.5 94.8998 83 94.3998 83.4C93.5998 84.2 92.3998 84.3 91.2998 84.1C90.7998 84 90.2998 83.8 89.7998 83.6L88.3998 82.9C86.4998 81.9 84.6998 81 82.7998 80.1L71.4998 74.7L48.8998 63.6C48.7998 63.6 48.6998 63.5 48.4998 63.5C48.3998 63.5 48.1998 63.4 48.0998 63.4C47.7998 63.4 47.4998 63.3 47.1998 63.3C46.5998 63.3 46.0998 63.3 45.4998 63.3C44.8998 63.4 44.3998 63.4 43.7998 63.6C43.1998 63.7 42.5998 63.8 42.0998 63.9C40.8998 64.1 39.6998 64.3 38.5998 64.4C37.3998 64.5 36.1998 64.6 34.9998 64.6H34.6998V64.3L35.3998 58.4L35.5998 58.7C34.7998 58.4 34.0998 58 33.3998 57.6C32.6998 57.2 31.9998 56.7 31.2998 56.2C30.6998 55.6 30.0998 55 29.6998 54.3C29.4998 53.9 29.3998 53.5 29.2998 53C29.2998 52.8 29.2998 52.6 29.2998 52.4V51.8V51.6H29.4998L35.5998 51.7H35.6998V51.8L36.0998 52.6L35.8998 52.5C36.1998 52.4 36.5998 52.3 36.7998 52C36.7998 51.9 36.8998 51.9 36.8998 51.8V51.7C36.7998 51.6 36.5998 51.6 36.3998 51.5C35.6998 51.4 34.9998 51.3 34.1998 51.2C33.4998 51.1 32.6998 51.1 31.9998 51.1L30.9998 51H30.4998H30.1998H29.9998C29.7998 51 29.7998 51 29.7998 51ZM29.7998 51C29.7998 50.9 29.7998 51 29.7998 51H29.8998H29.9998H30.2998H30.7998H31.8998C32.5998 51 33.3998 51 34.0998 51.1C34.7998 51.1 35.5998 51.2 36.2998 51.3C36.4998 51.3 36.6998 51.4 36.8998 51.5C36.8998 51.5 36.9998 51.6 36.9998 51.7C36.9998 51.8 36.9998 51.8 36.9998 51.9C36.9998 52 36.8998 52.1 36.8998 52.2C36.7998 52.4 36.5998 52.5 36.3998 52.6C36.1998 52.7 35.9998 52.8 35.8998 52.8H35.7998V52.7L35.3998 52L35.4998 52.1H29.3998L29.5998 51.9V52.5C29.5998 52.7 29.5998 52.9 29.5998 53.1C29.5998 53.5 29.6998 53.8 29.8998 54.2C30.2998 54.9 30.7998 55.5 31.4998 56C32.0998 56.5 32.7998 57 33.4998 57.4C34.1998 57.8 34.9998 58.2 35.6998 58.5L35.8998 58.6V58.8L35.1998 64.7L34.8998 64.4C36.0998 64.4 37.2998 64.3 38.3998 64.2C39.5998 64.1 40.6998 63.9 41.8998 63.7C42.4998 63.6 43.0998 63.5 43.5998 63.4C44.1998 63.3 44.7998 63.2 45.3998 63.1C45.9998 63 46.5998 63 47.1998 63C47.4998 63 47.7998 63 48.0998 63.1C48.1998 63.1 48.3998 63.1 48.5998 63.2C48.7998 63.2 48.8998 63.3 49.0998 63.3C52.8998 65.1 56.5998 66.9 60.3998 68.7L71.6998 74.2C75.3998 76 79.1998 77.9 82.8998 79.7C84.7998 80.6 86.5998 81.6 88.4998 82.6L89.8998 83.4C90.3998 83.6 90.7998 83.8 91.2998 83.9C91.7998 84 92.2998 84 92.7998 83.9C92.9998 83.9 93.2998 83.8 93.4998 83.7C93.6998 83.6 93.8998 83.5 94.0998 83.3C94.5998 82.9 95.0998 82.5 95.3998 82C95.7998 81.5 95.8998 80.9 95.8998 80.3C95.8998 79.7 95.5998 79.1 95.2998 78.6C94.8998 78.1 94.4998 77.6 93.9998 77.2C91.5998 76.1 89.1998 75.1 86.7998 74L79.4998 70.9L64.9998 64.7L50.3998 58.5C49.1998 57.8 48.1998 56.9 47.2998 56C46.3998 55 45.5998 54 44.8998 52.8L44.3998 51.9C44.2998 51.6 44.0998 51.3 43.8998 51C43.5998 50.4 43.2998 49.9 42.8998 49.3C42.4998 48.8 42.1998 48.2 41.6998 47.7C41.2998 47.2 40.7998 46.7 40.3998 46.3H40.4998C39.4998 46 38.4998 45.9 37.4998 45.9C36.4998 45.9 35.4998 46.1 34.4998 46.4C33.4998 46.7 32.5998 47.2 31.7998 47.8C30.8998 48.4 30.1998 49 29.4998 49.8L29.7998 51Z" fill="black"/>
<path d="M92.4002 81.8C93.8002 81.5 94.8002 80.4 94.5002 79.4C94.3002 78.3 93.0002 77.7 91.6002 78C90.2002 78.3 89.2002 79.4 89.5002 80.4C89.7002 81.4 91.0002 82 92.4002 81.8Z" fill="white"/>
<path d="M94.4999 79.3C94.5999 79.9 94.3999 80.5 93.9999 81.1C93.5999 81.6 92.9999 81.9 92.2999 82C91.6999 82.1 90.9999 81.9 90.3999 81.7C90.0999 81.6 89.7999 81.4 89.5999 81.2C89.3999 81 89.1999 80.7 89.0999 80.4C88.9999 80.1 88.9999 79.7 89.0999 79.4C89.1999 79.1 89.3999 78.8 89.5999 78.6C90.0999 78.1 90.6999 77.8 91.2999 77.7C91.5999 77.6 91.9999 77.6 92.2999 77.7C92.5999 77.7 92.8999 77.8 93.1999 78C93.9999 78.2 94.3999 78.7 94.4999 79.3ZM94.4999 79.3C94.3999 79 94.2999 78.8 94.0999 78.6C93.8999 78.4 93.5999 78.3 93.3999 78.2C93.0999 78.1 92.8999 78.1 92.5999 78.1C92.2999 78.1 92.0999 78.1 91.7999 78.2C91.2999 78.3 90.7999 78.5 90.3999 78.9C89.9999 79.3 89.6999 79.7 89.7999 80.3C89.7999 80.6 89.8999 80.8 90.0999 81C90.2999 81.2 90.4999 81.4 90.7999 81.5C91.2999 81.7 91.8999 81.6 92.4999 81.5C92.9999 81.4 93.4999 81.1 93.9999 80.8C94.1999 80.6 94.3999 80.4 94.5999 80.2C94.4999 79.9 94.4999 79.6 94.4999 79.3Z" fill="black"/>
<path d="M50.7999 62.5C50.5999 62.4 50.3999 62.2 50.2999 62C50.0999 61.8 49.9999 61.6 49.8999 61.4C49.8999 61.3 49.8999 61.2 49.8999 61C49.8999 60.9 49.9999 60.8 50.0999 60.7C50.2999 60.6 50.4999 60.5 50.7999 60.4C50.8999 60.4 50.9999 60.4 51.1999 60.3C51.2999 60.3 51.3999 60.3 51.5999 60.3C51.7999 60.3 52.0999 60.4 52.2999 60.4C52.7999 60.5 53.1999 60.6 53.6999 60.8C55.4999 61.4 57.2999 62.1 59.0999 62.7C62.6999 64.1 66.1999 65.6 69.6999 67.1C71.3999 67.9 73.1999 68.7 74.8999 69.5L80.0999 71.9L82.6999 73.1L85.2999 74.3C86.9999 75.1 88.7999 75.9 90.5999 76.6L90.9999 76.8L90.5999 77C90.1999 77.1 89.8999 77.3 89.5999 77.5C89.2999 77.7 88.9999 78 88.7999 78.2C88.5999 78.5 88.3999 78.8 88.3999 79.2C88.3999 79.6 88.3999 79.9 88.5999 80.2L88.7999 80.8L88.1999 80.6C85.0999 79.2 81.8999 77.7 78.7999 76.2L74.0999 74C72.4999 73.3 70.9999 72.5 69.3999 71.7C66.2999 70.2 63.1999 68.7 60.0999 67.1L55.4999 64.8L53.1999 63.7L50.7999 62.5ZM50.7999 62.5L53.1999 63.6L55.5999 64.7L60.2999 66.9C63.4999 68.3 66.5999 69.8 69.6999 71.2C71.2999 71.9 72.7999 72.7 74.3999 73.4L79.0999 75.7C82.1999 77.2 85.2999 78.7 88.3999 80.2L88.0999 80.5C87.9999 80.1 87.8999 79.7 87.8999 79.2C87.8999 78.8 88.0999 78.4 88.3999 78C88.6999 77.7 88.9999 77.4 89.2999 77.2C89.6999 77 89.9999 76.8 90.3999 76.7V77C88.6999 76.2 86.8999 75.4 85.1999 74.6L82.5999 73.4L79.9999 72.2C78.2999 71.4 76.4999 70.7 74.6999 69.9L69.3999 67.7C65.8999 66.2 62.2999 64.7 58.7999 63.2C56.9999 62.5 55.2999 61.7 53.4999 61.1C52.9999 60.9 52.5999 60.8 52.0999 60.6C51.8999 60.5 51.5999 60.5 51.3999 60.4C51.2999 60.4 51.1999 60.4 51.0999 60.4C50.9999 60.4 50.8999 60.4 50.6999 60.5C50.4999 60.5 50.1999 60.6 50.0999 60.7C49.9999 60.8 49.8999 60.9 49.8999 61C49.8999 61.1 49.8999 61.2 49.8999 61.3C49.9999 61.5 50.0999 61.7 50.2999 61.9C50.4999 62.2 50.6999 62.3 50.7999 62.5Z" fill="black"/>
<path d="M47.4999 67.3C49.2999 71.6 50.4999 76.2 51.0999 80.8L53.2999 97.7C53.2999 97.7 59.3999 100 79.0999 84.8C79.0999 84.8 80.0999 82.8 79.0999 78.9C78.0999 75.1 82.1999 70.2 84.7999 70C87.3999 69.8 87.8999 70.1 87.9999 71.1C87.9999 71.1 90.3999 71.5 90.3999 73C90.3999 73 92.5999 73.2 92.5999 75.3C92.5999 75.3 95.2999 75.5 93.7999 78.2C93.7999 78.2 90.7999 81.4 90.0999 85.1C90.0999 85.1 89.3999 87.8 85.5999 90.5C81.6999 93.2 68.8999 105.6 59.9999 110C56.4999 111.7 54.4999 112.8 53.3999 113.6C51.1999 115 48.2999 115 46.2999 113.4C45.4999 112.8 44.7999 111.9 44.2999 110.7C42.3999 105.8 32.8999 85.2 32.3999 67.4" fill="white"/>
<path d="M47.5999 67.3C48.5999 69.7 49.4999 72.1 50.0999 74.7C50.3999 76 50.6999 77.2 50.9999 78.5C51.1999 79.8 51.3999 81.1 51.5999 82.3L52.6999 90L53.6999 97.7L53.4999 97.4C53.4999 97.4 53.5999 97.4 53.6999 97.4C53.7999 97.4 53.7999 97.4 53.8999 97.4H54.0999H54.2999C54.5999 97.4 54.8999 97.4 55.1999 97.4C55.7999 97.3 56.3999 97.2 56.8999 97.1L57.2999 97C57.3999 97 57.5999 96.9 57.6999 96.9L58.5999 96.6C59.1999 96.4 59.6999 96.2 60.2999 96C62.4999 95.1 64.6999 94 66.7999 92.8C68.8999 91.6 70.9999 90.3 72.9999 88.9L74.4999 87.9L75.1999 87.4C75.3999 87.2 75.6999 87 75.8999 86.9L78.7999 84.7L78.6999 84.8C78.7999 84.6 78.7999 84.4 78.8999 84.2C78.9999 84 78.9999 83.8 78.9999 83.6C79.0999 83.2 79.0999 82.8 79.0999 82.3C79.0999 81.4 78.9999 80.6 78.7999 79.7V79L78.6999 78.7V78.3C78.6999 77.8 78.6999 77.4 78.6999 76.9C78.7999 76 79.1999 75.1 79.5999 74.3C79.9999 73.5 80.4999 72.7 81.0999 72.1C81.6999 71.4 82.3999 70.8 83.1999 70.4C83.5999 70.2 83.9999 70 84.4999 69.9C84.9999 69.9 85.3999 69.8 85.8999 69.8C86.3999 69.8 86.7999 69.8 87.2999 69.9C87.4999 70 87.7999 70.1 87.8999 70.4C87.9999 70.6 88.0999 70.9 88.0999 71.1H87.9999C88.2999 71.2 88.4999 71.2 88.7999 71.3C89.0999 71.4 89.2999 71.5 89.5999 71.7C89.7999 71.9 90.0999 72 90.1999 72.3C90.3999 72.5 90.3999 72.8 90.4999 73.1L90.2999 73C90.5999 73 90.8999 73.1 91.1999 73.3C91.4999 73.5 91.6999 73.6 91.9999 73.8C92.0999 73.9 92.1999 74 92.2999 74.2C92.3999 74.3 92.4999 74.5 92.4999 74.6C92.5999 74.9 92.5999 75.2 92.6999 75.5L92.5999 75.4C92.9999 75.4 93.2999 75.5 93.5999 75.7C93.8999 75.9 94.1999 76.1 94.2999 76.5C94.3999 76.9 94.3999 77.2 94.2999 77.6C94.1999 77.9 94.0999 78.2 93.8999 78.5C93.4999 79 93.0999 79.5 92.6999 80C92.2999 80.5 91.9999 81.1 91.6999 81.7C91.3999 82.3 91.0999 82.9 90.8999 83.5C90.6999 84.1 90.4999 84.7 90.3999 85.4C90.1999 86 89.9999 86.4 89.6999 86.9C89.3999 87.4 89.0999 87.8 88.6999 88.2C87.9999 89 87.1999 89.8 86.2999 90.5L85.5999 91L84.9999 91.5C84.5999 91.8 84.1999 92.2 83.7999 92.5C82.9999 93.2 82.1999 93.9 81.3999 94.6C78.1999 97.4 74.8999 100.2 71.5999 102.9C69.8999 104.2 68.1999 105.6 66.3999 106.8C64.5999 108 62.7999 109.2 60.8999 110.2C60.3999 110.5 59.8999 110.7 59.4999 110.9L58.0999 111.6C57.0999 112.1 56.1999 112.6 55.2999 113.1C54.7999 113.4 54.3999 113.6 53.8999 113.9C53.3999 114.2 52.8999 114.5 52.3999 114.6C51.2999 115 50.0999 115.1 48.9999 114.8C47.8999 114.6 46.7999 114 45.8999 113.3C45.4999 112.9 45.0999 112.5 44.7999 112C44.6999 111.8 44.4999 111.5 44.3999 111.3C44.2999 111.1 44.1999 110.8 44.0999 110.5C43.2999 108.5 42.4999 106.6 41.6999 104.5C40.0999 100.5 38.6999 96.5 37.3999 92.4C36.0999 88.3 34.9999 84.2 34.1999 80L33.8999 78.4L33.7999 77.6C33.7999 77.3 33.6999 77.1 33.6999 76.8L32.9999 75.3L32.8999 74.5L32.7999 74.1V73.7C32.6999 72.6 32.5999 71.6 32.4999 70.5L32.3999 67.3H32.4999C32.6999 71.6 33.3999 75.8 34.2999 80C35.1999 84.2 36.3999 88.3 37.7999 92.3C39.0999 96.4 40.6999 100.3 42.2999 104.3C43.0999 106.3 43.8999 108.2 44.6999 110.2C44.7999 110.4 44.8999 110.7 44.9999 110.9C45.0999 111.1 45.1999 111.3 45.3999 111.6C45.6999 112 45.9999 112.4 46.3999 112.7C47.0999 113.4 48.0999 113.8 48.9999 114C49.9999 114.2 50.9999 114.1 51.9999 113.8C52.4999 113.6 52.8999 113.4 53.3999 113.2C53.8999 112.9 54.2999 112.6 54.7999 112.4C55.6999 111.9 56.6999 111.3 57.6999 110.8L59.0999 110.1C59.5999 109.9 60.0999 109.6 60.4999 109.4C62.3999 108.4 64.1999 107.3 65.8999 106.1C67.6999 104.9 69.3999 103.6 70.9999 102.3C74.2999 99.6 77.5999 96.9 80.8999 94.1C81.6999 93.4 82.4999 92.7 83.3999 92C83.7999 91.7 84.2999 91.3 84.6999 91L85.3999 90.5L85.9999 90C86.8999 89.4 87.5999 88.7 88.2999 87.9C88.5999 87.5 88.8999 87.1 89.1999 86.6C89.4999 86.2 89.6999 85.7 89.8999 85.2C89.9999 84.5 90.1999 83.9 90.4999 83.3C90.6999 82.7 90.9999 82.1 91.3999 81.5C91.6999 80.9 92.0999 80.4 92.4999 79.8C92.8999 79.3 93.2999 78.7 93.7999 78.2C93.9999 77.9 94.0999 77.6 94.1999 77.4C94.2999 77.2 94.2999 76.8 94.1999 76.5C94.0999 76.2 93.8999 76 93.5999 75.9C93.2999 75.8 92.9999 75.7 92.6999 75.6H92.5999V75.5C92.5999 75.2 92.5999 74.9 92.4999 74.7C92.4999 74.6 92.3999 74.5 92.2999 74.3C92.1999 74.2 92.0999 74.1 91.9999 74C91.7999 73.8 91.5999 73.6 91.2999 73.5C91.0999 73.4 90.7999 73.3 90.4999 73.3H90.3999V73.2C90.3999 73 90.2999 72.7 90.1999 72.5C90.0999 72.3 89.8999 72.1 89.5999 72C89.3999 71.9 89.0999 71.8 88.8999 71.6C88.6999 71.5 88.3999 71.4 88.0999 71.4H87.9999V71.3C87.9999 71.1 87.8999 70.9 87.8999 70.7C87.7999 70.5 87.5999 70.4 87.3999 70.4C86.9999 70.3 86.4999 70.3 86.0999 70.3C85.6999 70.3 85.1999 70.3 84.7999 70.4C84.3999 70.5 83.9999 70.6 83.5999 70.8C82.7999 71.2 82.1999 71.8 81.5999 72.5C80.9999 73.2 80.4999 73.9 80.0999 74.7C79.6999 75.5 79.3999 76.3 79.2999 77.2C79.1999 77.6 79.1999 78.1 79.2999 78.5V78.8L79.3999 79.1L79.5999 79.8C79.7999 80.7 79.8999 81.6 79.8999 82.5C79.8999 83 79.8999 83.4 79.7999 83.9C79.7999 84.1 79.6999 84.4 79.6999 84.6C79.5999 84.8 79.5999 85 79.4999 85.3L76.5999 87.5C76.3999 87.7 76.0999 87.9 75.8999 88.1L75.1999 88.6L73.6999 89.7C71.6999 91.1 69.5999 92.4 67.4999 93.7C65.3999 94.9 63.1999 96.1 60.8999 97C60.2999 97.2 59.6999 97.4 59.1999 97.6L58.2999 97.9C58.1999 97.9 57.9999 98 57.7999 98L57.2999 98.1C56.6999 98.2 56.0999 98.3 55.3999 98.4C55.0999 98.4 54.7999 98.4 54.3999 98.4H54.1999H53.9999C53.8999 98.4 53.7999 98.4 53.7999 98.4C53.6999 98.4 53.5999 98.4 53.4999 98.3L52.8999 98V97.8L51.8999 90.1L50.9999 82.4C50.8999 81.1 50.6999 79.8 50.4999 78.6C50.2999 77.3 49.9999 76.1 49.7999 74.8C49.1999 72.3 48.3999 69.8 47.4999 67.4L47.5999 67.3Z" fill="black"/>
<path d="M40.3 36.2C42.5 39.7 44.9 42.1 48.6 44C50.7 45.1 53.1 46.1 55.4 45.7C58.2 45.1 59.5 44.4 60.5 41.8C61.2 40 61.9 37.5 62 36.7C62.1 35.9 62.1 35.1 62.1 34.3C62.1 30.3 61.9 29.5 61.3 26.2C59.4 16 52.1 10.3 42.1 14.6C33.8 18.1 36.4 29.9 40.3 36.2Z" fill="white"/>
<path d="M54.0998 46C52.0998 46 50.0998 45.1 48.3998 44.2C44.8998 42.4 42.3998 40 40.0998 36.3C37.4998 32 35.3998 25.1 36.9998 19.9C37.7998 17.3 39.4998 15.4 41.9998 14.4C46.4998 12.5 50.6998 12.5 54.0998 14.3C57.8998 16.3 60.3998 20.5 61.3998 26C61.4998 26.5 61.5998 26.9 61.5998 27.3C61.9998 29.7 62.1998 30.7 62.1998 34.1C62.1998 34.2 62.1998 34.4 62.1998 34.5C62.1998 35.2 62.1998 35.8 62.0998 36.5C61.9998 37.4 61.2998 39.8 60.5998 41.7C59.5998 44.5 58.0998 45.2 55.3998 45.8C54.9998 45.9 54.4998 46 54.0998 46ZM48.4998 13.4C46.4998 13.4 44.3998 13.9 42.1998 14.8C39.7998 15.8 38.1998 17.6 37.3998 20.1C35.7998 25.2 37.8998 31.9 40.4998 36.1C42.7998 39.7 45.1998 42.1 48.6998 43.9C50.6998 44.9 52.9998 46 55.2998 45.5C57.9998 45 59.1998 44.3 60.1998 41.7C60.8998 39.9 61.5998 37.5 61.6998 36.6C61.7998 36 61.7998 35.3 61.7998 34.7C61.7998 34.6 61.7998 34.4 61.7998 34.3C61.7998 30.9 61.5998 29.9 61.1998 27.5C61.0998 27.1 61.0998 26.7 60.9998 26.2C60.0998 20.8 57.5998 16.8 53.8998 14.8C52.2998 13.8 50.4998 13.4 48.4998 13.4Z" fill="black"/>
<path d="M33.1001 24.8C33.1001 24.8 34.5001 10.6 45.2001 7.8C45.2001 7.8 55.4001 9.5 58.3001 18.2C58.3001 18.2 58.1001 11.9 52.9001 7.5C45.0001 0.8 37.0001 9.9 37.0001 9.9C37.0001 9.9 30.3001 15.8 33.1001 24.8Z" fill="#FF710F"/>
<path d="M49.0998 4.5C49.3998 4.5 59.2998 4 59.2998 4C59.2998 4 54.4998 7.6 51.9998 7.5C49.4998 7.4 47.5998 5.2 48.0998 5.3C48.5998 5.3 49.0998 4.5 49.0998 4.5Z" fill="#FF710F"/>
<path d="M49.1 4.5C50.1 4.4 51.1 4.3 52.2 4.2C53.2 4.1 54.2 4.1 55.3 4C56.3 4 57.4 4 58.4 3.9H59.2H59.3C59.3 3.9 59.3 3.8 59.4 4C59.3 4.1 59.3 4.1 59.2 4.1L58.9 4.3C58.5 4.6 58.1 4.9 57.7 5.2C56.8 5.8 56 6.3 55 6.8C54.8 7 54.5 7 54.3 7.2C54.1 7.3 53.8 7.4 53.6 7.5L53.2 7.6C53.1 7.6 52.9 7.7 52.8 7.7C52.6 7.8 52.3 7.8 52 7.8C50.9 7.7 49.9 7.3 49.1 6.7C48.9 6.5 48.7 6.4 48.5 6.2C48.4 6.1 48.3 6 48.2 5.9C48.1 5.8 48 5.7 48 5.5V5.4C48 5.3 48.1 5.3 48.2 5.3H48.3H48.4C48.5 5.3 48.6 5.2 48.7 5.2C48.8 4.9 48.9 4.7 49.1 4.5ZM49.1 4.5C49 4.7 48.8 5 48.6 5.1C48.5 5.2 48.4 5.3 48.2 5.3H48.1H48C48 5.4 48.1 5.5 48.2 5.6C48.3 5.7 48.4 5.8 48.5 5.8C48.8 6 49 6.2 49.2 6.3C50 6.9 51 7.2 52 7.3C52.5 7.3 53 7.2 53.4 7.1C53.6 7 53.9 6.9 54.1 6.9C54.3 6.8 54.6 6.7 54.8 6.6C55.7 6.2 56.6 5.7 57.5 5.2C57.9 4.9 58.4 4.7 58.8 4.4C58.9 4.2 59 4.1 59.1 4L59.2 3.9C59.3 4.1 59.2 4 59.2 4H59.1C58.9 4 58.6 4 58.3 4C57.3 4.1 56.3 4.2 55.2 4.3C54.2 4.4 53.2 4.4 52.1 4.4C51.2 4.5 50.2 4.6 49.1 4.5Z" fill="black"/>
<path d="M39.4999 0.599977C39.4999 0.0999773 40.6999 1.29998 42.8999 1.09998C45.0999 0.899977 48.0999 1.79998 48.0999 3.79998C48.0999 5.79998 39.3999 6.59998 39.4999 0.599977Z" fill="#FF710F"/>
<path d="M39.5 0.6C39.5 0.5 39.5 0.5 39.5 0.6C39.5 0.5 39.6 0.5 39.6 0.5C39.7 0.5 39.7 0.5 39.8 0.5C39.9 0.5 40 0.6 40.1 0.6C40.3 0.7 40.5 0.7 40.7 0.8C41.1 0.9 41.6 1 42 1C42.2 1 42.4 1 42.7 1C42.9 1 43.2 0.9 43.4 0.9C43.9 0.9 44.3 0.9 44.8 1C45.7 1.2 46.6 1.6 47.3 2.2C47.7 2.5 47.9 2.9 48 3.4C48 3.5 48 3.6 48.1 3.8C48.1 3.9 48.1 4 48.1 4.2C48 4.4 47.9 4.6 47.7 4.8C47.3 5.1 46.9 5.3 46.4 5.4C46 5.4 45.5 5.4 45 5.5C44.1 5.5 43.1 5.4 42.2 5.1C41.8 4.9 41.3 4.7 41 4.4C40.6 4.1 40.3 3.7 40.1 3.3C39.6 2.4 39.5 1.5 39.5 0.6ZM39.5 0.6C39.5 1.5 39.8 2.4 40.3 3.1C40.8 3.8 41.6 4.3 42.4 4.6C43.2 4.9 44.1 5.1 45 5C45.4 5 45.9 4.9 46.3 4.9C46.7 4.8 47.2 4.7 47.5 4.4C47.7 4.3 47.8 4.1 47.9 3.9C48 3.7 47.9 3.5 47.9 3.3C47.8 2.9 47.5 2.5 47.2 2.2C46.9 1.9 46.5 1.7 46 1.6C45.6 1.5 45.1 1.4 44.7 1.3C44.3 1.2 43.8 1.2 43.4 1.2C43.2 1.2 43 1.2 42.7 1.2C42.5 1.2 42.2 1.2 42 1.2C41.5 1.2 41.1 1.1 40.6 0.9C40.4 0.8 40.2 0.7 40 0.7C39.9 0.7 39.8 0.6 39.7 0.6C39.6 0.6 39.6 0.6 39.5 0.6C39.5 0.5 39.5 0.5 39.5 0.6Z" fill="black"/>
<path d="M43.9999 6.89999C43.9999 6.89999 43.8999 3.39999 47.0999 3.19999C50.3999 2.89999 51.9999 5.99999 48.5999 6.89999C45.1999 7.79999 43.9999 6.89999 43.9999 6.89999Z" fill="#FF710F"/>
<path d="M44 6.9C44 6.8 44 6.8 44 6.8V6.7C44 6.6 44 6.5 44 6.4V6.1C44 6 44 5.9 44 5.8C44 5.6 44 5.4 44.1 5.2C44.1 5 44.2 4.8 44.3 4.7C44.6 4 45.2 3.4 46 3.1C46.1 3.1 46.3 3 46.5 3C46.7 3 46.9 3 47.1 3C47.5 3 47.8 3.1 48.2 3.1C48.9 3.2 49.6 3.5 50.2 4C50.5 4.3 50.7 4.6 50.8 5.1C50.8 5.3 50.8 5.6 50.7 5.8C50.6 6 50.5 6.2 50.4 6.4C49.8 7 49 7.3 48.3 7.4C47.6 7.5 46.8 7.6 46.1 7.6C45.7 7.6 45.4 7.5 45 7.4C44.8 7.4 44.6 7.3 44.5 7.2C44.4 7.2 44.3 7.1 44.3 7.1L44.2 7L44 6.9ZM44.1 6.9H44.2H44.3C44.4 6.9 44.5 6.9 44.5 6.9C44.7 6.9 44.9 6.9 45 6.9C45.4 6.9 45.7 6.9 46 6.8C46.7 6.7 47.4 6.6 48 6.4C48.4 6.3 48.6 6.2 49 6.1C49.3 6 49.6 5.8 49.7 5.6C49.9 5.4 50 5.2 50 4.9C50 4.8 50 4.6 49.9 4.5C49.9 4.4 49.8 4.2 49.7 4.1C49.5 3.8 49.3 3.6 49 3.5C48.7 3.3 48.4 3.2 48 3.2C47.6 3.2 47.3 3.2 47 3.3C46.8 3.3 46.7 3.4 46.5 3.4C46.4 3.5 46.2 3.5 46.1 3.6C45.5 3.9 45.1 4.3 44.7 4.8C44.5 5.1 44.4 5.4 44.3 5.7C44.2 5.9 44.2 6 44.1 6.2C44.1 6.3 44 6.4 44 6.4V6.5C44.1 6.8 44.1 6.9 44.1 6.9Z" fill="black"/>
<path d="M50.1 25.5C50.4 26.1 50.6 26.7 50.8 27.3L51.5 29.1C51.7 29.7 52 30.3 52.3 30.8C52.6 31.4 52.9 31.9 53.3 32.4L53.4 32.6L53.3 32.8C53.1 33 52.9 33.3 52.6 33.5C52.4 33.7 52.1 33.9 51.8 34.1C51.5 34.3 51.2 34.4 50.8 34.5C50.6 34.5 50.4 34.5 50.3 34.4C50.2 34.3 50.1 34.2 50 34C50.1 34.1 50.2 34.2 50.4 34.2C50.5 34.2 50.7 34.2 50.8 34.2C51.1 34.1 51.3 34 51.6 33.8C51.8 33.6 52.1 33.4 52.3 33.2C52.5 33 52.7 32.7 52.9 32.5V32.9C52.4 32.4 52.1 31.8 51.8 31.2C51.5 30.6 51.3 30 51.1 29.4C50.9 28.8 50.7 28.2 50.5 27.6C50.3 26.8 50.2 26.1 50.1 25.5Z" fill="black"/>
<path d="M51.7998 22.5C51.9998 22 52.1998 21.6 52.4998 21.2C52.7998 20.8 53.1998 20.5 53.5998 20.2C53.9998 19.9 54.4998 19.7 55.0998 19.6C55.3998 19.6 55.6998 19.6 55.8998 19.7C56.1998 19.8 56.3998 19.9 56.5998 20.2C56.0998 20.2 55.6998 20.3 55.2998 20.4C54.8998 20.6 54.5998 20.8 54.1998 21L52.9998 21.8C52.6998 22.1 52.1998 22.3 51.7998 22.5Z" fill="black"/>
<path d="M46.8002 24.8C46.2002 24.9 45.6002 25 44.9002 25.2C44.3002 25.3 43.7002 25.4 43.2002 25.5C42.6002 25.6 42.1002 25.8 41.6002 26C41.1002 26.2 40.6002 26.5 40.2002 27C40.2002 26.3 40.6002 25.7 41.2002 25.3C41.7002 24.9 42.4002 24.6 43.0002 24.5C43.6002 24.4 44.3002 24.3 45.0002 24.4C45.5002 24.4 46.2002 24.5 46.8002 24.8Z" fill="black"/>
<path d="M53 25.5H53.1H53.2C53.3 25.5 53.4 25.5 53.4 25.6C53.6 25.6 53.8 25.7 53.9 25.7C54.3 25.7 54.6 25.8 54.9 25.7C55.2 25.7 55.6 25.6 55.9 25.5C56.2 25.4 56.5 25.3 56.8 25C57 24.6 57.1 24.2 57.2 23.7L57.3 23.9C56.9 23.9 56.5 23.9 56.1 23.9C55.7 23.9 55.3 24 54.9 24.1C54.5 24.2 54.2 24.4 53.8 24.6C53.6 24.7 53.5 24.8 53.3 24.9C53.2 25 53.1 25 53.1 25.1L53 25.2C53.1 25.5 53 25.5 53 25.5ZM53 25.5L53.1 25.4C53.1 25.3 53.2 25.2999 53.2 25.2999C53.3 25.1999 53.3 25.1 53.4 25C53.5 24.8 53.7 24.7 53.9 24.5C54.2 24.2 54.6 24 55 23.9C55.4 23.8 55.9 23.7 56.3 23.7C56.7 23.7 57.2 23.6999 57.6 23.7999H57.7L57.6 24C57.4 24.4 57.2 24.8 57.1 25.2C56.8 25.4 56.5 25.6999 56.2 25.7999C55.9 25.9999 55.5 26.1 55.1 26.1C54.7 26.1 54.4 26.1 54 26C53.8 26 53.6 25.8999 53.5 25.7999C53.4 25.7999 53.3 25.7 53.3 25.7L53.2 25.6L53 25.5C53 25.6 53 25.5 53 25.5Z" fill="black"/>
<path d="M55.4 25.7999C55.9 25.7999 56.3 25.4 56.3 25C56.3 24.6 55.9 24.2 55.4 24.2C54.9 24.2 54.5 24.6 54.5 25C54.6 25.4 55 25.7999 55.4 25.7999Z" fill="black"/>
<path d="M47.6002 27.8V28L47.5002 28.1C47.5002 28.2 47.4002 28.2 47.3002 28.3C47.2002 28.4 47.1002 28.6 46.9002 28.7C46.6002 28.9 46.3002 29.2 46.0002 29.3C45.7002 29.5 45.3002 29.5 44.9002 29.5C44.5002 29.5 44.2002 29.4 43.8002 29.4C43.5002 29.1 43.1002 28.8 42.8002 28.6L42.7002 28.5L42.8002 28.4C43.1002 28.1 43.5002 27.9 43.9002 27.7C44.3002 27.5 44.7002 27.4 45.1002 27.3C45.5002 27.2 46.0002 27.2 46.4002 27.3C46.6002 27.3 46.8002 27.4 47.0002 27.5C47.1002 27.5 47.2002 27.6 47.3002 27.6L47.4002 27.7L47.6002 27.8ZM47.6002 27.9C47.5002 27.9 47.5002 27.9 47.5002 27.9H47.4002C47.3002 27.9 47.2002 27.9 47.1002 27.8C46.9002 27.8 46.7002 27.7 46.5002 27.7C46.1002 27.7 45.7002 27.7 45.3002 27.8C44.9002 27.9 44.5002 28 44.2002 28.1C43.8002 28.2 43.5002 28.4 43.1002 28.6V28.4C43.4002 28.7 43.7002 29 44.0002 29.3C44.3002 29.4 44.7002 29.4 45.0002 29.3C45.3002 29.2 45.7002 29.1 46.0002 29C46.3002 28.9 46.6002 28.7 46.9002 28.5C47.0002 28.4 47.2002 28.3 47.3002 28.2C47.4002 28.1 47.4002 28.1 47.5002 28L47.6002 27.9C47.6002 27.8 47.6002 27.9 47.6002 27.9Z" fill="black"/>
<path d="M45.9998 28.5C45.9998 28.1 45.6998 27.7 45.1998 27.7C44.6998 27.7 44.2998 28 44.2998 28.4C44.2998 28.8 44.5998 29.2 45.0998 29.2C45.5998 29.3 45.9998 28.9 45.9998 28.5Z" fill="black"/>
<path d="M55.3999 37.6L55.2999 37.7L55.0999 37.8C54.9999 37.9 54.8999 38 54.6999 38C54.4999 38.1 54.1999 38.3 53.8999 38.4C53.3999 38.6 52.7999 38.8 52.1999 39C51.8999 39.1 51.5999 39.1 51.2999 39.1C50.9999 39.1 50.6999 39.1 50.3999 39C50.2999 39 50.2999 38.9 50.1999 38.9L50.0999 38.8L49.9999 38.7C49.9999 38.7 49.9999 38.6 49.8999 38.6C49.8999 38.6 49.8999 38.6 49.9999 38.6C49.9999 38.6 49.9999 38.6 49.9999 38.5V38.6C50.0999 38.8 50.2999 39.1 50.4999 39.3C50.6999 39.5 50.8999 39.7 51.0999 39.9C51.2999 40.1 51.4999 40.3 51.6999 40.4C51.7999 40.5 51.8999 40.5 51.9999 40.5C51.9999 40.5 52.0999 40.5 52.1999 40.4C52.3999 40.3 52.5999 40.1 52.7999 39.9C53.1999 39.5 53.5999 39.1 53.9999 38.7L54.5999 38.1L54.8999 37.8L55.0999 37.7L55.3999 37.6ZM55.4999 37.6V37.7V37.8C55.4999 37.9 55.3999 37.9 55.3999 38C55.2999 38.1 55.2999 38.2 55.1999 38.4C55.0999 38.6 54.8999 38.9 54.6999 39.1C54.2999 39.6 53.9999 40 53.5999 40.4C53.3999 40.6 53.0999 40.8 52.8999 41C52.7999 41 52.7999 41.1 52.6999 41.1C52.5999 41.1 52.4999 41.2 52.2999 41.1C52.0999 41.1 51.8999 41 51.7999 40.9C51.4999 40.7 51.2999 40.5 51.1999 40.2C50.9999 40 50.8999 39.7 50.6999 39.5C50.5999 39.3 50.3999 39 50.1999 38.8C50.1999 38.8 50.1999 38.7 50.0999 38.7C50.0999 38.7 50.0999 38.7 50.0999 38.6C50.0999 38.6 50.0999 38.6 50.0999 38.5C50.0999 38.5 50.0999 38.5 50.0999 38.4C50.0999 38.4 50.0999 38.4 50.1999 38.4L50.2999 38.5C50.2999 38.5 50.2999 38.5 50.3999 38.6C50.3999 38.6 50.3999 38.6 50.4999 38.6C50.5999 38.6 50.5999 38.6 50.6999 38.7C50.8999 38.7 51.1999 38.7 51.4999 38.6C51.7999 38.5 51.9999 38.5 52.2999 38.4C52.7999 38.3 53.3999 38.1 53.8999 37.9L54.6999 37.7L55.0999 37.6L55.2999 37.5H55.3999H55.4999V37.6C55.3999 37.5 55.4999 37.5 55.4999 37.6Z" fill="#FF710F"/>
</svg>
