<svg width="127" height="130" viewBox="0 0 127 130" fill="none" xmlns="http://www.w3.org/2000/svg">
<g clip-path="url(#clip0)">
<path d="M59.7081 130C92.7943 130 119.616 103.178 119.616 70.0922C119.616 37.006 92.7943 10.1843 59.7081 10.1843C26.6219 10.1843 -0.199707 37.006 -0.199707 70.0922C-0.199707 103.178 26.6219 130 59.7081 130Z" fill="white"/>
<mask id="mask0" mask-type="alpha" maskUnits="userSpaceOnUse" x="-1" y="10" width="121" height="120">
<path d="M59.7081 130C92.7943 130 119.616 103.178 119.616 70.0922C119.616 37.006 92.7943 10.1843 59.7081 10.1843C26.6219 10.1843 -0.199707 37.006 -0.199707 70.0922C-0.199707 103.178 26.6219 130 59.7081 130Z" fill="white"/>
</mask>
<g mask="url(#mask0)">
<path d="M68.9938 132.995C69.1935 131.897 69.1935 130.799 69.0936 129.8C68.7941 124.409 68.195 119.117 67.2964 113.925C67.1966 113.326 67.0967 112.627 66.6973 112.128C65.8986 111.029 64.301 110.83 62.9032 110.83C58.1105 110.73 53.4178 110.33 48.725 109.631C46.5284 109.332 44.4316 108.833 42.235 108.533C39.8387 108.134 39.639 108.433 38.4408 110.63C34.9462 116.92 32.45 126.006 34.2473 133.095H68.9938V132.995Z" fill="#FF710F"/>
</g>
<path d="M63.0029 57.1121C63.8017 58.1106 64.4008 59.3088 65.1996 60.3072C66.8969 62.6037 69.0936 64.3011 71.39 65.9985C77.3808 70.6912 83.3716 75.384 89.4622 80.0768C89.7618 76.9816 86.7664 75.8833 85.7679 72.8879C84.5698 69.2934 87.8647 56.4132 87.8647 52.6191C87.9645 45.4301 86.4668 45.2304 87.5651 38.1413C87.9645 35.2458 88.8631 31.851 91.559 30.7527C93.1565 30.1536 94.9538 30.4532 96.5513 31.0522C97.5498 31.4516 98.5483 31.851 99.2472 32.5499C99.9461 33.3487 100.345 34.447 100.046 35.4455C99.6466 36.5438 98.4484 37.1429 97.7495 38.0415C97.2502 38.6406 96.9507 39.4393 96.6512 40.2381C95.1535 44.1321 93.5559 48.2258 93.3562 52.4194C93.2564 54.3164 93.4561 56.3134 93.6558 58.2105C93.9553 61.7051 94.2549 65.1997 94.4545 68.5945C94.7541 75.1843 94.4545 81.7742 93.4561 88.2642C93.3562 88.6636 93.3562 89.063 93.0567 89.3625C92.7572 89.6621 92.4576 89.7619 92.0582 89.8618C88.8631 90.5607 85.6681 89.1628 82.7725 87.5653C74.1857 82.8725 66.5974 76.1828 60.8063 68.1951C59.2088 65.9985 57.7111 63.702 56.8125 61.2058C56.3132 59.7081 52.2195 52.3195 54.0167 51.3211C55.9138 50.3226 62.0045 55.8141 63.0029 57.1121Z" fill="white"/>
<path d="M63.0032 57.1121C63.9019 58.3103 64.6008 59.6083 65.4994 60.7066C66.398 61.9048 67.4963 62.9032 68.5946 63.8018C69.6929 64.7005 70.8911 65.5991 72.0893 66.4977L75.5839 69.1935L82.5731 74.4854C84.8696 76.2826 87.2659 77.98 89.5624 79.7773L88.9633 80.0768V79.7773V79.5776C88.9633 79.4777 88.9633 79.4777 88.9633 79.3779C88.9633 79.278 88.9633 79.1782 88.9633 79.0783L88.8635 78.679C88.7636 78.2796 88.5639 77.8802 88.2644 77.4808C87.7651 76.682 87.0662 75.9831 86.4671 75.1843C86.1676 74.7849 85.8681 74.3856 85.6684 73.8863C85.5685 73.6866 85.4687 73.3871 85.3688 73.1874C85.269 72.8879 85.1691 72.6882 85.1691 72.3886C85.0693 71.8894 85.0693 71.3902 85.0693 70.8909C85.0693 70.3917 85.0693 69.8925 85.1691 69.3932C85.269 67.3963 85.5685 65.3994 85.9679 63.5023C86.2674 61.5054 86.6668 59.6083 86.9664 57.6114C87.1661 56.6129 87.2659 55.6144 87.4656 54.7158C87.5655 54.2166 87.5655 53.7174 87.6653 53.318C87.6653 53.1183 87.6653 52.8187 87.6653 52.619V51.9201C87.6653 49.9232 87.4656 48.0261 87.2659 46.0292C87.1661 45.0307 87.0662 44.0323 87.0662 43.0338C87.0662 42.0353 87.1661 41.0369 87.2659 40.0384C87.3658 39.5392 87.3658 39.0399 87.4656 38.5407C87.5655 38.0415 87.6653 37.5422 87.7651 37.043C87.9648 36.0445 88.1645 35.0461 88.5639 34.1475C88.7636 33.6482 88.9633 33.2488 89.2628 32.8495C89.3627 32.7496 89.3627 32.6498 89.4625 32.5499C89.5624 32.4501 89.5624 32.3502 89.6622 32.2504L89.9618 31.9508L90.2613 31.6513L90.3612 31.5515L90.5608 31.4516C90.6607 31.3518 90.7605 31.2519 90.8604 31.2519C91.0601 31.1521 91.2598 30.9524 91.5593 30.8525C91.9587 30.6528 92.5578 30.4531 93.057 30.4531C93.5562 30.3533 94.0555 30.3533 94.5547 30.4531C95.0539 30.553 95.5532 30.6528 96.0524 30.7527C96.5516 30.8525 97.0509 31.0522 97.4502 31.2519C97.9495 31.4516 98.3489 31.6513 98.8481 31.9508C99.2475 32.2504 99.6469 32.5499 100.046 32.9493C100.446 33.3487 100.645 33.8479 100.745 34.3472C100.845 34.8464 100.845 35.4455 100.645 35.9447C100.446 36.4439 100.046 36.8433 99.7467 37.1429C99.3473 37.5422 98.9479 37.7419 98.6484 38.1413C98.3489 38.4409 98.0493 38.8402 97.8496 39.3395C97.6499 39.7389 97.4503 40.2381 97.2506 40.6375L96.7513 42.0353C96.0524 43.9324 95.4533 45.7296 94.9541 47.6267C94.4549 49.5238 94.1553 51.4209 94.1553 53.4178C94.1553 55.4147 94.355 57.3118 94.5547 59.3088C94.7544 61.3057 94.9541 63.2028 95.0539 65.1997C95.2536 67.1966 95.3535 69.1935 95.3535 71.1905C95.4533 73.1874 95.3535 75.1843 95.3535 77.1813C95.2536 79.1782 95.1538 81.1751 95.0539 83.172C94.9541 84.1705 94.8542 85.169 94.7544 86.1674L94.5547 87.6651L94.4549 88.3641C94.4549 88.6636 94.355 88.8633 94.355 89.1628C94.2552 89.4624 94.2552 89.7619 94.0555 90.0614C93.8558 90.361 93.5562 90.5607 93.2567 90.6605C92.9572 90.7604 92.7575 90.8602 92.4579 90.8602L92.0585 90.9601H91.6592C90.6607 91.0599 89.5624 90.9601 88.5639 90.7604C87.5655 90.5607 86.567 90.1613 85.6684 89.7619C84.7698 89.3625 83.8711 88.8633 82.9725 88.4639C79.4779 86.5668 76.183 84.2704 73.0877 81.7742C72.2889 81.1751 71.59 80.4762 70.7913 79.8771L69.6929 78.8786C69.2936 78.5791 68.994 78.1797 68.5946 77.8802C67.1968 76.4823 65.7989 75.0845 64.5009 73.4869C63.2029 71.9892 62.0048 70.3917 60.9065 68.7942C59.8082 67.1966 58.7098 65.4992 57.8112 63.702C57.6115 63.3026 57.4118 62.8034 57.2121 62.3041C57.1123 62.1045 57.0125 61.8049 56.9126 61.6052C56.8128 61.4055 56.7129 61.2058 56.6131 60.9063C56.2137 60.0077 55.8143 59.1091 55.4149 58.2104C55.0155 57.3118 54.6161 56.4132 54.3166 55.4147C54.1169 54.9155 54.0171 54.4163 53.9172 54.0169C53.8174 53.7174 53.8174 53.5177 53.8174 53.318C53.8174 53.0184 53.8174 52.8187 53.8174 52.5192C53.9172 52.2197 54.0171 52.02 54.2168 51.8203C54.4164 51.7204 54.716 51.6206 55.0155 51.6206C55.5148 51.6206 56.014 51.8203 56.5132 52.02C57.4118 52.4193 58.2106 53.0184 59.0094 53.5177C59.8082 54.1167 60.6069 54.7158 61.3059 55.4147C61.7052 55.7143 62.0048 56.1137 62.4042 56.4132C62.4042 56.3134 62.7037 56.7127 63.0032 57.1121ZM62.9034 57.1121C62.6039 56.7127 62.2045 56.4132 61.9049 56.0138C61.6054 55.6144 61.206 55.3149 60.8066 55.0154C60.1077 54.4163 59.3089 53.7174 58.5101 53.2181C57.7114 52.619 56.9126 52.1198 56.014 51.7204C55.6146 51.5207 55.1154 51.321 54.6161 51.321C54.4164 51.321 54.1169 51.321 53.9172 51.5207C53.7175 51.6206 53.6177 51.8203 53.6177 52.02C53.6177 52.2197 53.6177 52.5192 53.6177 52.7189C53.6177 52.9186 53.7175 53.2181 53.7175 53.4178C53.8174 53.917 54.0171 54.3164 54.1169 54.8157C54.4164 55.7143 54.8158 56.6129 55.2152 57.5115C55.6146 58.4101 56.1138 59.3088 56.5132 60.2074C56.6131 60.4071 56.7129 60.6068 56.8128 60.9063C56.9126 61.2058 57.0125 61.4055 57.1123 61.6052C57.312 62.0046 57.5117 62.5038 57.7114 62.9032C58.61 64.7005 59.7083 66.298 60.8066 67.8955C62.0048 69.4931 63.2029 70.9908 64.5009 72.4885C67.0969 75.384 69.9925 78.0799 72.9879 80.576C75.9833 83.0722 79.2782 85.169 82.673 87.066C83.5716 87.5653 84.3704 87.9647 85.269 88.3641C86.1676 88.7634 87.0662 89.063 87.9648 89.2627C88.8635 89.4624 89.8619 89.5622 90.7605 89.4624H91.0601L91.3596 89.3625C91.5593 89.3625 91.759 89.2627 91.9587 89.1628C92.1584 89.063 92.2582 88.9631 92.3581 88.8633C92.4579 88.7634 92.4579 88.5637 92.5578 88.3641C92.5578 88.1644 92.6576 87.8648 92.6576 87.6651L92.7575 86.9662L92.9572 85.4685C93.057 84.47 93.1569 83.4716 93.2567 82.4731C93.4564 80.4762 93.5562 78.5791 93.6561 76.5822C93.7559 72.6882 93.7559 68.6943 93.4564 64.8003C93.3565 62.8034 93.1568 60.9063 93.057 58.9094C92.8573 56.9124 92.7575 54.9155 92.7575 52.9186C92.8573 50.9217 93.1569 48.9247 93.7559 47.0276C94.2552 45.1306 94.9541 43.2335 95.653 41.4362L96.1522 40.0384C96.3519 39.5392 96.5516 39.1398 96.7513 38.6405C96.951 38.2412 97.2506 37.7419 97.6499 37.3425C97.9495 36.9432 98.3489 36.6436 98.7483 36.3441C99.0478 36.0445 99.4472 35.6452 99.6469 35.2458C99.8466 34.8464 99.8466 34.3472 99.7467 33.9478C99.6469 33.5484 99.4472 33.0492 99.1476 32.6498C98.8481 32.2504 98.4487 31.9508 98.0493 31.7511C97.6499 31.4516 97.1507 31.3518 96.7513 31.1521C96.3519 30.9524 95.8527 30.8525 95.3535 30.6528C94.4549 30.3533 93.4564 30.2535 92.4579 30.3533C91.9587 30.4531 91.5593 30.553 91.0601 30.7527C90.8604 30.8525 90.6607 30.9524 90.461 31.1521C90.3612 31.2519 90.2613 31.3518 90.1615 31.3518L90.0616 31.4516L89.9618 31.5515V31.9508L89.7621 32.2504C89.6622 32.3502 89.5624 32.4501 89.5624 32.5499C89.4625 32.6498 89.4625 32.7496 89.3627 32.8495C89.0632 33.2488 88.8635 33.7481 88.7636 34.1475C88.0647 35.9447 87.7651 37.9416 87.5655 39.9386C87.4656 40.937 87.3658 41.9355 87.4656 42.9339C87.4656 43.9324 87.5655 44.9309 87.7651 45.8295C87.865 46.828 88.0647 47.8264 88.1645 48.8249C88.2644 49.3241 88.2644 49.8233 88.2644 50.3226C88.2644 50.8218 88.3642 51.321 88.3642 51.8203V52.5192C88.3642 52.8187 88.3642 53.0184 88.3642 53.318C88.3642 53.8172 88.2644 54.3164 88.1645 54.8157C88.0647 55.8141 87.865 56.8126 87.7651 57.8111C87.4656 59.808 87.0662 61.7051 86.7667 63.702C86.4671 65.6989 86.1676 67.596 86.0678 69.5929C86.0678 70.0922 85.9679 70.5914 86.0678 70.9908C86.0678 71.49 86.0678 71.9892 86.1676 72.3886C86.1676 72.5883 86.2675 72.788 86.3673 72.9877C86.4671 73.1874 86.567 73.3871 86.6668 73.5868C86.8665 73.9862 87.0662 74.3856 87.3658 74.7849C87.9648 75.5837 88.6638 76.2826 89.163 77.0814C89.4625 77.4808 89.6622 77.98 89.8619 78.5791L89.9618 78.9785C89.9618 79.0783 89.9618 79.278 89.9618 79.3779C89.9618 79.4777 89.9618 79.4777 89.9618 79.5776V79.7773V80.1767V80.8756L89.3627 80.3763C87.0662 78.5791 84.7698 76.682 82.4733 74.8848L75.5839 69.3932L72.1891 66.5975C71.0908 65.6989 69.8926 64.8003 68.7943 63.8018C67.696 62.8034 66.5977 61.8049 65.6991 60.6068C64.6008 59.6083 63.802 58.3103 62.9034 57.1121Z" fill="black"/>
<path opacity="0.45" d="M82.5728 27.5576L115.822 39.1398L82.5728 43.533V27.5576Z" fill="url(#paint0_linear)"/>
<path d="M55.4147 52.3195C54.8157 64.0015 69.6928 72.0891 69.3932 83.7711C69.2934 86.7665 68.1951 89.662 67.1966 92.5576C65.0998 98.8479 65.8986 101.544 65.5991 108.233C65.5991 109.232 65 110.43 64.3011 111.129C63.6022 111.928 62.404 112.028 61.4055 112.028C56.7128 112.227 52.4194 111.528 47.7266 111.329C44.5315 111.229 42.235 108.833 43.0338 105.737C43.7327 103.041 42.1352 104.14 41.9355 101.344C41.6359 97.9493 40.5376 94.6544 39.5392 91.3594C37.043 83.0722 35.5453 74.4854 35.1459 65.7988C35.0461 63.6021 35.0461 61.2058 35.8449 59.1091C37.043 55.914 39.9386 53.8172 41.9355 51.1213C45.4301 46.6283 45.8295 32.5499 50.5223 29.3548C53.4178 27.3579 69.5929 34.8464 65 37.9416C61.7051 40.1382 60.1075 42.8341 58.7097 44.4316C56.8126 46.7281 55.5146 49.3241 55.4147 52.3195Z" fill="white"/>
<path d="M59.6083 112.327C57.3118 112.327 55.1152 112.128 52.8187 111.928C51.1213 111.728 49.4239 111.628 47.6267 111.528C45.8295 111.429 44.2319 110.73 43.3333 109.432C42.5345 108.333 42.3348 106.935 42.7342 105.538C43.0338 104.24 42.8341 103.94 42.5345 103.541C42.235 103.141 41.7358 102.642 41.6359 101.244C41.4362 98.3487 40.5376 95.6528 39.639 92.8571C39.4393 92.3579 39.3395 91.8587 39.1398 91.3594C36.6436 83.0722 35.1459 74.4854 34.7465 65.7988C34.6467 63.6021 34.6467 61.2058 35.4454 59.0092C36.2442 56.8126 37.8418 55.1152 39.4393 53.4178C40.1382 52.619 40.937 51.8203 41.6359 50.9217C43.1336 49.0246 44.0322 45.2304 45.0307 41.2366C46.2289 36.1444 47.5269 30.8525 50.3226 28.9554C51.8203 27.957 56.3133 29.1551 59.9078 30.9524C61.3057 31.6513 65.8986 34.0476 66.0983 36.3441C66.0983 37.043 65.7987 37.5422 65.0998 38.0415C62.6037 39.7389 61.106 41.6359 59.9078 43.2335C59.6083 43.7327 59.2089 44.1321 58.9093 44.5315C56.9124 46.828 55.8141 49.424 55.7143 52.1198C55.4147 57.9109 59.109 62.9032 62.6037 67.7957C66.1981 72.6882 69.7926 77.6805 69.5929 83.5714C69.4931 86.1674 68.6943 88.6636 67.7957 91.1598C67.596 91.5591 67.4961 92.0584 67.3963 92.4578C65.8986 97.0507 65.8986 99.7465 65.8986 103.441C65.8986 104.739 65.8986 106.237 65.7987 108.034C65.7987 109.032 65.1997 110.23 64.4009 111.129C63.6021 111.928 62.404 112.128 61.3057 112.128C60.8064 112.327 60.2074 112.327 59.6083 112.327ZM51.9201 29.3548C51.321 29.3548 50.9216 29.4547 50.6221 29.6544C48.1259 31.3518 46.8279 36.5438 45.6298 41.5361C44.6313 45.5299 43.7327 49.3241 42.1352 51.4209C41.4362 52.3195 40.6375 53.1183 39.9385 53.917C38.341 55.6144 36.8433 57.212 36.0445 59.3088C35.2458 61.4055 35.2458 63.702 35.3456 65.7988C35.745 74.3856 37.2427 82.9724 39.7388 91.2596C39.9385 91.7588 40.0384 92.2581 40.2381 92.7573C41.1367 95.4532 41.9355 98.3487 42.235 101.244C42.3348 102.442 42.6344 102.842 42.9339 103.141C43.4332 103.74 43.6328 104.14 43.2335 105.637C42.9339 106.935 43.0338 108.034 43.7327 109.032C44.5315 110.131 45.9293 110.829 47.6267 110.829C49.4239 110.929 51.1213 111.029 52.8187 111.229C55.7143 111.528 58.4101 111.728 61.3057 111.628C62.3041 111.628 63.4024 111.429 64.0015 110.829C64.7004 110.031 65.1997 109.032 65.1997 108.134C65.2995 106.436 65.2995 104.939 65.2995 103.541C65.2995 99.7465 65.2995 97.0507 66.7972 92.3579C66.8971 91.9585 67.0968 91.4593 67.1966 91.0599C67.9954 88.6636 68.7941 86.1674 68.894 83.6713C69.0937 77.98 65.4992 72.9877 62.0046 68.1951C58.4101 63.3026 54.7158 58.2104 55.0153 52.2197H55.3149H55.0153C55.1152 49.424 56.3133 46.7281 58.3103 44.2319C58.6098 43.8326 59.0092 43.4332 59.3087 42.9339C60.5069 41.3364 62.1044 39.3395 64.7004 37.6421C65.1997 37.3425 65.3994 36.9432 65.3994 36.4439C65.2995 35.1459 63.003 33.2488 59.6083 31.5515C56.6129 30.2535 53.6175 29.3548 51.9201 29.3548Z" fill="black"/>
<path d="M59.908 68.3948C59.2091 67.2965 58.7099 66.0983 58.2106 65C55.9142 60.2074 52.0202 56.2135 47.4272 53.7174C46.0294 52.9186 44.4318 52.3195 42.8343 52.7189C41.9357 52.9186 41.1369 53.5177 40.3381 54.0169C39.2398 54.8157 38.1415 55.7143 37.2429 56.7128C35.0463 59.3088 34.3473 62.8034 34.1476 66.1982C33.6484 72.4885 34.3473 78.9785 36.1446 85.0692C36.3443 85.7681 38.7406 96.5515 39.3397 96.9509C39.9387 97.4501 39.8389 83.9708 40.2383 83.3718C36.8435 77.1813 35.1461 73.3871 35.9449 66.4977C36.2444 64.0016 36.7437 61.6053 37.842 59.4086C39.0401 57.212 40.9372 55.4148 43.3335 54.8157C46.2291 54.1168 49.2245 55.4148 51.4211 57.3119C53.6177 59.3088 55.1154 61.9048 56.5132 64.401C58.3105 67.596 60.2076 70.7911 62.0048 74.086C62.7037 75.3841 63.5025 76.7819 64.8005 77.5807C65.9986 78.3794 68.4948 79.0784 68.8942 77.5807C69.3934 75.9831 68.5947 73.1874 66.4979 73.0876C63.802 72.788 61.4057 70.6913 59.908 68.3948Z" fill="#55C6FF"/>
<path d="M55.2152 51.4209C59.5086 56.0138 63.0032 65.9985 67.7959 72.788C69.7928 75.5837 72.5885 78.0799 72.888 81.4747C73.0877 83.5714 72.1891 85.5684 71.4902 87.5653C68.6945 94.9539 67.1968 100.545 66.9971 108.433C66.9971 109.631 66.8972 111.029 66.0985 111.928C65.3995 112.727 64.3012 113.026 63.2029 113.326C56.9126 114.724 50.9218 114.724 44.6315 113.426C43.1338 113.126 41.6361 112.727 40.5378 111.728C38.0416 109.532 37.8419 105.637 38.2413 102.243C38.8404 97.1505 39.9387 93.9555 38.0416 89.1628C32.4502 75.384 35.4456 57.9109 37.5424 60.2074C40.6376 63.6022 42.4349 74.6851 45.1307 76.083C47.3273 77.2811 47.9264 80.0768 49.7237 81.7742C54.716 86.5668 63.802 80.0768 64.2014 73.8863C64.4011 70.192 59.908 66.5976 58.2106 63.6022C56.1138 59.6083 54.3166 55.7143 55.2152 51.4209Z" fill="#55C6FF"/>
<path d="M92.2579 52.7189C92.2579 52.8187 92.3577 53.0184 92.4576 53.1183C92.5574 53.2181 92.7571 53.2181 92.857 53.1183C103.441 51.2212 114.224 50.1229 124.908 49.1244C124.608 45.4301 124.309 41.7358 124.109 38.0415C124.109 37.7419 102.243 39.639 100.146 39.8387C98.049 40.0384 91.559 39.5392 90.7602 41.8356C90.3608 43.0338 91.1596 45.3302 91.3593 46.5284C91.6588 48.5253 91.9583 50.6221 92.2579 52.7189Z" fill="#55C6FF"/>
<path d="M92.2582 52.7189C92.2582 52.9186 92.358 53.1183 92.4578 53.1183C92.6575 53.2181 92.7574 53.1183 92.9571 53.1183L93.9555 52.9186L95.9525 52.5192C97.3503 52.2197 98.6483 52.02 100.046 51.8203C102.742 51.321 105.538 50.9217 108.234 50.5223C111.029 50.1229 113.725 49.9232 116.521 49.6237C119.317 49.424 122.012 49.2243 124.808 48.9247L124.708 49.0246C124.509 46.7281 124.409 44.3318 124.209 42.0353L123.909 38.5407V38.1413V38.0415C123.909 38.0415 123.909 37.9416 123.909 38.1413C124.009 38.2412 124.009 38.2412 124.009 38.2412C123.909 38.2412 123.909 38.2412 123.81 38.2412C123.51 38.2412 123.211 38.2412 122.911 38.2412C122.312 38.2412 121.713 38.341 121.214 38.341L107.235 39.5392L100.246 40.1382C99.6468 40.2381 99.0477 40.2381 98.4486 40.2381C97.8496 40.2381 97.2505 40.2381 96.7512 40.2381C95.5531 40.2381 94.4548 40.3379 93.3565 40.5376C93.0569 40.6375 92.8572 40.6375 92.5577 40.7373C92.2582 40.8372 92.0585 40.937 91.7589 41.0369C91.5592 41.1367 91.3595 41.3364 91.1598 41.5361C90.9602 41.7358 90.9602 41.9355 90.8603 42.235C90.7605 42.7343 90.8603 43.3333 90.9602 43.9324C91.06 44.5315 91.1598 45.1306 91.2597 45.6298C91.3595 45.9293 91.3595 46.2289 91.4594 46.5284L91.5592 47.427C91.6591 48.0261 91.7589 48.6252 91.7589 49.2243C91.9586 50.4224 92.1583 51.5207 92.2582 52.7189ZM92.1583 52.7189C91.9586 51.5207 91.8588 50.4224 91.5592 49.2243C91.4594 48.6252 91.3595 48.0261 91.2597 47.5269L91.06 46.6283C90.9602 46.3287 90.9602 46.0292 90.8603 45.7296C90.6606 45.1306 90.5608 44.6313 90.4609 44.0323C90.3611 43.4332 90.2612 42.8341 90.2612 42.235C90.2612 41.9355 90.3611 41.5361 90.5608 41.2366C90.7605 40.937 91.06 40.7373 91.2597 40.5376C91.5592 40.3379 91.8588 40.2381 92.1583 40.1382C92.4579 40.0384 92.7574 39.9386 93.0569 39.8387C94.2551 39.5392 95.4532 39.4393 96.5515 39.4393C97.1506 39.4393 97.7497 39.4393 98.3488 39.3395C98.9479 39.3395 99.5469 39.3395 100.046 39.2396C101.244 39.1398 102.343 39.0399 103.541 38.9401C104.739 38.8402 105.837 38.7404 107.035 38.6405C111.728 38.2412 116.321 37.9416 121.014 37.6421C121.613 37.6421 122.212 37.5422 122.811 37.5422C123.111 37.5422 123.41 37.5422 123.71 37.5422C123.81 37.5422 123.909 37.5422 123.909 37.5422C123.909 37.5422 123.909 37.5422 124.009 37.5422C124.009 37.5422 124.009 37.5422 124.109 37.6421C124.109 37.7419 124.109 37.6421 124.109 37.7419V37.8418V38.2412L124.309 41.7358C124.509 44.0323 124.608 46.4286 124.808 48.725V48.8249H124.708C121.913 49.1244 119.217 49.424 116.521 49.8233C113.725 50.2227 111.029 50.5223 108.333 50.8218C105.538 51.1214 102.842 51.4209 100.146 51.7204L98.0492 52.02C97.3503 52.1198 96.6514 52.2197 95.9525 52.3195C95.2535 52.4194 94.5546 52.5192 93.8557 52.619L92.8572 52.8187C92.6575 52.8187 92.5577 52.9186 92.358 52.8187C92.2582 52.8187 92.1583 52.7189 92.1583 52.619C92.2582 52.9186 92.2582 52.8187 92.1583 52.7189Z" fill="black"/>
<path d="M41.0367 56.0138C39.3393 57.1121 38.1412 58.8095 37.5421 60.7066C36.2441 65 37.9415 69.7926 40.7372 73.2873C43.5329 76.8817 47.2272 79.4777 50.622 82.4731C58.5098 89.4624 64.5006 98.4485 72.688 105.038C73.7863 105.937 75.0843 106.736 76.4822 106.536C77.6803 106.237 78.579 105.138 79.2779 104.14C85.8678 94.255 89.1627 82.4731 93.9553 71.6897C95.1535 68.9939 96.4515 66.298 98.3485 64.1014C100.046 62.1045 102.243 60.6068 104.439 59.2089C108.633 56.7128 113.126 54.3164 117.719 52.9186C118.717 52.6191 119.816 52.7189 120.614 52.02C121.613 51.1214 120.415 49.6237 119.316 50.2227C115.023 52.4194 111.528 51.5207 105.637 54.2166C104.539 54.7158 103.64 52.8187 104.539 51.9201C105.837 50.5223 107.135 49.1244 108.433 47.8264C106.835 46.828 104.739 47.9263 103.541 49.3241C102.342 50.722 101.344 52.4194 99.7464 53.4178C98.3486 54.2166 96.751 54.2166 95.3532 55.0154C93.6558 55.914 92.6573 57.7112 91.7587 59.3088C85.9676 69.8925 80.2764 80.3764 74.4853 90.9601C72.3885 87.8648 70.2917 84.6697 68.2948 81.5745C63.9015 74.9846 59.5083 68.2949 55.2149 61.7051C53.6174 59.4086 52.0198 56.9124 49.6235 55.5146C47.2272 54.1167 43.5329 54.3164 40.7372 56.5131" fill="white"/>
<path d="M41.0367 56.0138C40.3378 56.5131 39.6389 57.1121 39.1396 57.8111C38.6404 58.51 38.1412 59.3088 37.8416 60.1075C37.2426 61.7051 37.0429 63.5023 37.3424 65.2996C37.5421 66.9969 38.241 68.6943 38.94 70.192C39.3393 70.9908 39.8386 71.6897 40.3378 72.3886C40.837 73.0876 41.4361 73.7865 42.0352 74.3856C44.4315 76.9816 47.2272 79.0784 49.9231 81.3748C52.6189 83.6713 55.1151 86.1674 57.5114 88.7635C59.9077 91.3595 62.2042 94.0553 64.6005 96.6513C66.9968 99.2473 69.493 101.743 72.1888 103.94C72.8877 104.439 73.4868 105.038 74.2856 105.438C75.0843 105.837 75.7833 106.137 76.4822 105.937C77.1811 105.737 77.88 105.238 78.3793 104.539C78.6788 104.24 78.8785 103.84 79.1781 103.441C79.3777 103.041 79.6773 102.742 79.877 102.343C81.7741 99.3472 83.3716 96.2519 84.8693 93.0568C86.367 89.8618 87.665 86.5668 88.963 83.2719L90.9599 78.3794C91.6588 76.7819 92.2579 75.0845 92.9568 73.487C93.6558 71.8894 94.3547 70.192 95.1535 68.6943C95.9522 67.0968 96.8509 65.5991 98.049 64.2012C99.1473 62.8034 100.545 61.6052 101.943 60.6068C103.341 59.6083 104.938 58.6098 106.436 57.8111C109.432 56.0138 112.627 54.4163 115.922 53.2181C116.321 53.0184 116.72 52.9186 117.22 52.8188L117.819 52.6191C118.018 52.5192 118.218 52.5192 118.518 52.4194C118.917 52.3195 119.416 52.3195 119.816 52.1198C120.015 52.02 120.215 52.02 120.315 51.8203C120.514 51.7204 120.614 51.6206 120.714 51.4209C120.914 51.1214 120.914 50.8218 120.714 50.5223C120.514 50.2227 120.215 50.1229 119.915 50.1229C119.816 50.1229 119.716 50.1229 119.716 50.2227L119.416 50.4224C119.216 50.5223 119.017 50.6221 118.817 50.722C118.418 50.9217 118.018 51.1214 117.519 51.2212C115.822 51.8203 114.024 52.02 112.327 52.4194C110.63 52.7189 108.932 53.2181 107.335 53.8172C106.935 54.0169 106.536 54.1168 106.137 54.3164H106.037C106.037 54.3164 106.037 54.3164 105.937 54.3164C105.837 54.3164 105.837 54.4163 105.737 54.4163C105.538 54.4163 105.438 54.4163 105.238 54.4163C104.938 54.3164 104.639 54.2166 104.439 54.0169C104.04 53.6175 103.94 53.0184 103.94 52.5192C103.94 52.2197 104.04 51.9201 104.24 51.7204C104.24 51.6206 104.339 51.6206 104.339 51.5207C104.339 51.4209 104.439 51.4209 104.439 51.3211L104.639 51.1214L108.233 47.2274L108.333 47.9263C107.934 47.6267 107.435 47.5269 106.935 47.6267C106.436 47.7266 105.937 47.9263 105.438 48.126C104.938 48.4255 104.539 48.7251 104.14 49.1244C103.74 49.5238 103.441 50.0231 103.041 50.4224C102.642 50.9217 102.342 51.4209 101.943 51.8203C101.544 52.3195 101.044 52.7189 100.545 53.1183C100.246 53.318 99.9461 53.4178 99.6466 53.6175C99.347 53.7174 99.0475 53.8172 98.7479 53.9171C98.1489 54.1168 97.5498 54.2166 97.0505 54.4163C96.5513 54.616 95.9522 54.8157 95.5529 55.1152C95.1535 55.4148 94.6542 55.8141 94.3547 56.2135C93.6558 57.1121 93.0567 58.1106 92.4576 59.1091L88.8631 65.5991L81.9737 78.1797L74.9845 90.8602L74.5851 91.5591L74.1857 90.8602L66.8969 79.7773C64.5006 76.083 62.1043 72.3886 59.708 68.6943L56.1135 63.1029C54.9154 61.3057 53.8171 59.3088 52.3194 57.7112C51.92 57.3118 51.6204 56.9125 51.2211 56.5131C50.8217 56.1137 50.4223 55.8141 49.9231 55.5146C49.0244 54.9155 48.026 54.5161 46.9277 54.4163C44.731 54.1168 42.5344 54.8157 40.7372 56.1137L40.6373 56.0138C42.3347 54.616 44.6312 53.9171 46.9277 54.1168C48.026 54.2166 49.1243 54.5161 50.1227 55.2151C50.622 55.5146 51.0214 55.8141 51.5206 56.2135C51.92 56.6129 52.3194 57.0123 52.7188 57.4117C53.5175 58.2105 54.1166 59.1091 54.8155 60.0077C55.5145 60.9063 56.0137 61.8049 56.7126 62.8034L60.4069 68.2949C62.9031 71.9893 65.2994 75.5837 67.7956 79.278L75.1842 90.2611H74.3854L81.2748 77.5807L87.8647 65.0999L91.3593 58.8095C91.9584 57.7112 92.5575 56.7128 93.3562 55.7143C93.7556 55.2151 94.2549 54.8157 94.8539 54.4163C95.453 54.0169 96.0521 53.8172 96.6512 53.6175C97.8493 53.2181 98.9476 53.1183 99.8463 52.4194C100.745 51.8203 101.444 50.9217 102.143 49.9232C102.542 49.424 102.842 48.9247 103.341 48.5254C103.74 48.0261 104.339 47.6267 104.839 47.3272C105.438 47.0277 106.037 46.7281 106.736 46.7281C107.435 46.6283 108.134 46.828 108.733 47.1275L109.232 47.427L108.832 47.9263L105.138 51.7204L104.938 51.9201L104.839 52.02C104.839 52.02 104.839 52.1198 104.739 52.1198C104.639 52.2197 104.639 52.4194 104.639 52.5192C104.639 52.8188 104.739 53.2181 104.938 53.4178C105.038 53.5177 105.138 53.6175 105.238 53.6175C105.338 53.6175 105.338 53.6175 105.438 53.6175H105.537C105.537 53.6175 105.538 53.6175 105.637 53.6175H105.737C106.137 53.4178 106.536 53.2181 106.935 53.1183C108.633 52.4194 110.33 52.02 112.028 51.7204C113.725 51.4209 115.522 51.1214 117.12 50.6221C117.519 50.5223 117.918 50.3226 118.318 50.2227C118.518 50.1229 118.717 50.0231 118.917 49.9232L119.216 49.8234C119.316 49.7235 119.516 49.7235 119.616 49.7235C119.915 49.6237 120.215 49.7235 120.415 49.8234C120.714 49.9232 120.914 50.1229 121.014 50.3226C121.213 50.5223 121.213 50.8218 121.213 51.1214C121.213 51.4209 121.114 51.7204 120.914 51.9201C120.714 52.1198 120.514 52.3195 120.315 52.4194C120.115 52.5192 119.915 52.6191 119.616 52.7189C119.216 52.8188 118.717 52.9186 118.318 53.0184C118.118 53.0184 117.918 53.1183 117.719 53.1183L117.12 53.318C116.72 53.4178 116.321 53.6175 115.922 53.7174C112.627 54.9155 109.432 56.4132 106.436 58.2105C104.938 59.1091 103.441 60.0077 101.943 61.0062C100.545 62.0046 99.1473 63.2028 98.049 64.5008C96.9507 65.7988 96.0521 67.3963 95.2533 68.894C94.4545 70.4916 93.7556 72.0891 93.0567 73.6866C91.6588 76.9816 90.4607 80.2765 89.1627 83.5714C87.8647 86.8664 86.6665 90.1613 85.1688 93.4562C83.771 96.6513 82.1734 99.8464 80.2764 102.942C80.0767 103.341 79.7771 103.74 79.5774 104.04C79.3777 104.439 79.0782 104.839 78.7787 105.138C78.4791 105.538 78.1796 105.837 77.7802 106.137C77.5805 106.336 77.3808 106.436 77.1811 106.536C76.9814 106.636 76.6819 106.736 76.4822 106.836C75.983 106.935 75.4837 106.935 74.9845 106.836C74.4853 106.736 74.0859 106.536 73.6865 106.336C73.2871 106.137 72.8877 105.837 72.5882 105.538C72.2886 105.238 71.8893 105.038 71.5897 104.739C68.8939 102.442 66.2979 99.9462 64.0014 97.3502C61.6051 94.7542 59.3086 92.0584 56.9123 89.4624C54.516 86.8664 52.1197 84.2704 49.4238 82.0737C46.8278 79.7773 43.9323 77.5807 41.6358 74.8848C41.0367 74.1859 40.4376 73.487 39.9384 72.788C39.4392 72.0891 38.9399 71.2903 38.5406 70.4916C37.7418 68.894 37.1427 67.1966 36.943 65.3994C36.7433 63.6022 36.943 61.8049 37.6419 60.1075C37.9415 59.3088 38.4407 58.51 39.0398 57.8111C39.6389 57.1121 40.3378 56.5131 41.0367 56.1137V56.0138Z" fill="black"/>
<path d="M125.407 41.5361C126.006 40.3379 126.306 38.9401 126.206 37.5422C126.206 36.8433 114.424 34.5469 113.126 34.2473C108.633 33.149 100.645 31.5515 96.0525 30.7527C94.5548 30.4532 93.3566 30.3533 92.458 31.851C91.7591 33.0492 91.9588 33.5484 93.0571 34.1475C94.8543 35.1459 101.344 35.8449 103.341 36.2442C105.638 36.7435 107.834 37.3426 110.131 37.8418C115.223 39.0399 120.315 40.2381 125.407 41.5361Z" fill="#55C6FF"/>
<path d="M125.607 41.9355L125.307 41.8356C120.215 40.6375 115.123 39.3395 110.031 38.1413C107.834 37.6421 105.538 37.043 103.241 36.5438C102.642 36.4439 101.544 36.2442 100.346 36.0445C97.55 35.6451 94.1552 35.0461 92.8572 34.3471C92.358 34.0476 91.8588 33.7481 91.6591 33.149C91.5592 32.6498 91.6591 32.1505 92.0584 31.4516C93.0569 29.8541 94.5546 29.9539 96.0523 30.1536C100.346 30.9524 108.333 32.5499 113.126 33.6482C113.326 33.7481 113.825 33.8479 114.624 33.9478C126.505 36.4439 126.505 36.8433 126.505 37.3425C126.605 38.7404 126.306 40.2381 125.707 41.4362L125.607 41.9355ZM94.7543 30.9524C93.9555 30.9524 93.3564 31.2519 92.8572 32.0507C92.5577 32.5499 92.4578 32.8494 92.5577 33.149C92.6575 33.3487 92.8572 33.5484 93.3564 33.8479C94.5546 34.447 98.0492 35.0461 100.545 35.4455C101.744 35.6451 102.842 35.8448 103.541 35.9447C105.837 36.4439 108.134 37.043 110.33 37.5422C115.323 38.7404 120.315 39.9385 125.307 41.1367C125.707 40.0384 126.006 38.9401 125.906 37.7419C124.908 37.1428 117.22 35.5453 114.624 34.9462C113.925 34.7465 113.326 34.6467 113.126 34.6467C108.333 33.5484 100.446 31.851 96.1521 31.1521C95.5531 30.9524 95.1537 30.9524 94.7543 30.9524Z" fill="black"/>
<path d="M90.8603 35.3456C90.9602 35.0461 90.9602 34.8464 91.06 34.6467C91.1599 34.447 91.4594 34.2473 91.6591 34.1475C91.9586 34.0476 92.2582 34.0476 92.4579 34.1475C92.7574 34.2473 92.9571 34.447 93.1568 34.6467C93.3565 34.8464 93.4563 35.1459 93.5562 35.3456C93.8557 35.6452 93.8557 35.9447 93.8557 36.2442C93.8557 36.8433 93.656 37.3425 93.4563 37.8418C93.1568 38.341 92.8573 38.7404 92.5577 39.1398C92.2582 39.5392 91.8588 39.9385 91.5593 40.3379C91.2597 40.7373 90.9602 41.1367 90.6606 41.5361C90.5608 41.7358 90.4609 41.9355 90.3611 42.235C90.2613 42.4347 90.1614 42.7342 90.1614 42.9339C90.0616 43.2335 89.9617 43.4332 89.8619 43.7327C89.6622 44.0322 89.5623 44.2319 89.2628 44.3318C88.9632 44.5315 88.5639 44.5315 88.2643 44.4316C87.9648 44.3318 87.6652 44.0322 87.4656 43.8326C87.3657 43.7327 87.2659 43.533 87.2659 43.4332C87.2659 43.2335 87.166 43.1336 87.166 43.0338C87.166 42.7342 87.166 42.4347 87.166 42.235C87.2659 41.7358 87.2659 41.2365 87.4656 40.6375C87.5654 40.1382 87.8649 39.5392 88.1645 39.1398C88.3642 38.9401 88.464 38.7404 88.6637 38.5407C88.8634 38.341 89.0631 38.1413 89.1629 38.0415C89.5623 37.6421 89.8619 37.3425 90.1614 36.9432C90.5608 36.3441 90.7605 35.8448 90.8603 35.3456ZM90.9602 35.3456C90.8603 35.8448 90.6606 36.3441 90.4609 36.8433C90.2612 37.3425 89.9617 37.7419 89.6622 38.1413C89.3626 38.5407 89.0631 38.9401 88.7636 39.4393C88.464 39.8387 88.3642 40.2381 88.2643 40.7373C88.1645 41.2365 88.0646 41.7358 87.9648 42.235C87.9648 42.5346 87.8649 42.7342 87.8649 42.9339C87.8649 43.0338 87.8649 43.1336 87.8649 43.2335C87.8649 43.3333 87.9648 43.4332 87.9648 43.533C88.0646 43.7327 88.1645 43.8326 88.3642 43.9324C88.464 44.0322 88.6637 44.0322 88.8634 43.9324C89.0631 43.8326 89.1629 43.7327 89.3626 43.533C89.4625 43.3333 89.6622 43.1336 89.6622 42.9339C89.762 42.7342 89.8619 42.4347 89.9617 42.235C90.0616 42.0353 90.2613 41.7358 90.3611 41.5361C90.6606 41.1367 90.9602 40.7373 91.2597 40.2381C91.5593 39.8387 91.8588 39.4393 92.1583 38.9401C92.4579 38.5407 92.6576 38.0415 92.8573 37.6421C93.0569 37.2427 93.1568 36.7435 93.1568 36.2442C93.1568 35.8448 93.0569 35.3456 92.8573 34.9462C92.7574 34.7465 92.5577 34.5468 92.358 34.447C92.1583 34.3471 91.9586 34.2473 91.6591 34.3471C91.4594 34.3471 91.1599 34.447 91.06 34.7465C91.06 34.8464 90.9602 35.1459 90.9602 35.3456Z" fill="black"/>
<path d="M90.5605 36.3441C90.8601 36.5438 91.1596 36.6436 91.4592 36.5438C91.559 36.5438 91.7587 36.4439 91.8586 36.4439C91.9584 36.3441 92.1581 36.2443 92.1581 36.2443C92.2579 36.0446 92.3578 35.745 92.3578 35.4455C92.3578 35.1459 92.3578 34.8464 92.3578 34.447C92.5575 34.7466 92.6573 35.0461 92.6573 35.3456C92.6573 35.5453 92.6573 35.6452 92.6573 35.8449C92.6573 36.0446 92.5575 36.2443 92.4576 36.3441C92.3578 36.5438 92.1581 36.6436 91.9584 36.6436C91.7587 36.7435 91.6589 36.7435 91.4592 36.7435C91.2595 36.7435 91.0598 36.7435 90.9599 36.6436C90.7602 36.6436 90.5605 36.5438 90.5605 36.3441Z" fill="black"/>
<path d="M71.1905 8.8863C71.7896 9.38553 72.3887 9.98461 72.8879 10.5837C73.6867 11.682 73.8864 13.0798 74.0861 14.3779C74.3856 16.6743 72.7881 19.5699 72.9878 21.8663C71.3902 20.4685 71.5899 18.2719 70.2919 16.6743C69.1936 15.2765 68.0953 13.7788 66.6974 12.7803C66.3979 12.5806 66.1982 12.4808 65.9985 12.1812C65.7988 11.8817 65.7988 11.5822 65.7988 11.2826C65.7988 10.2841 65.8987 9.38553 66.0984 8.48691C66.3979 7.3886 66.3979 5.69121 67.7958 5.99075C68.6944 6.0906 70.3918 8.18737 71.1905 8.8863Z" fill="black"/>
<path d="M73.5869 25.1613C74.1859 26.1598 75.0846 26.8587 75.5838 27.8572C76.1829 28.8556 76.1829 30.2535 75.2842 30.9524C74.9847 31.2519 74.4855 31.2519 74.1859 31.5515C73.7866 31.851 73.5869 32.4501 73.3872 32.9493C72.8879 34.8464 72.2889 36.6436 71.7896 38.5407C71.5899 39.1398 71.3902 39.8387 70.891 40.2381C70.5915 40.5377 70.1921 40.7374 69.7927 40.8372C67.1967 41.5361 62.8034 38.7404 60.6068 37.8418C57.0124 36.2443 56.8127 32.4501 54.7159 31.5515C51.8203 30.3533 51.1214 34.447 48.9248 32.0507C47.7266 30.7527 46.2289 29.7542 45.2305 28.3564C42.7343 25.0615 43.2336 20.2688 45.3303 16.6744C47.4271 13.0799 50.5223 10.1844 54.1168 7.98773C57.5116 5.9908 65.8987 6.09065 69.1936 8.48696C71.3902 10.0845 72.7881 13.2796 73.0876 15.9754C73.487 18.9708 71.9893 22.3656 73.5869 25.1613Z" fill="white"/>
<path d="M68.8938 41.2366C66.797 41.2366 64.201 39.9386 62.1042 38.8402C61.5051 38.5407 60.9061 38.2412 60.4068 38.0415C58.2102 37.043 57.2118 35.3456 56.413 34.0476C55.8139 33.0492 55.3147 32.1505 54.5159 31.851C53.3177 31.3518 52.6188 31.851 51.82 32.4501C51.0213 33.0492 49.923 33.7481 48.625 32.2504C48.1257 31.7512 47.5266 31.1521 47.0274 30.6528C46.3285 29.9539 45.5297 29.3548 44.9306 28.5561C42.1349 24.9616 42.9337 19.8694 44.9306 16.3748C46.9276 12.8802 50.0228 9.88479 53.817 7.58832C57.4114 5.3917 65.9982 5.69124 69.2932 8.08756C71.6895 9.78495 72.9875 13.3794 73.3869 15.8756C73.5866 17.0737 73.4867 18.2719 73.287 19.5699C73.0873 21.467 72.9875 23.3641 73.7863 24.9616C74.0858 25.361 74.3853 25.8602 74.7847 26.2596C75.1841 26.659 75.5835 27.1582 75.7832 27.6574C76.4821 28.8556 76.4821 30.4531 75.3838 31.2519C75.1841 31.3518 74.9844 31.4516 74.7847 31.5515C74.585 31.6513 74.3853 31.7512 74.2855 31.851C73.986 32.1505 73.7863 32.5499 73.6864 33.0492L72.0889 38.6406C71.8892 39.2396 71.6895 40.0384 71.0904 40.5376C70.7909 40.8372 70.3915 41.0369 69.8922 41.2366C69.5927 41.2366 69.2932 41.2366 68.8938 41.2366ZM53.6173 30.8525C54.0167 30.8525 54.4161 30.9524 54.8154 31.1521C55.8139 31.5515 56.413 32.6498 57.1119 33.7481C57.9107 35.0461 58.8093 36.6436 60.7064 37.4424C61.2056 37.6421 61.8047 37.9416 62.4038 38.2412C64.7002 39.4393 67.7955 40.937 69.5927 40.4378C69.9921 40.3379 70.2916 40.1382 70.4913 39.9386C70.8907 39.5392 71.0904 38.9401 71.2901 38.341L72.8876 32.7496C73.0873 32.2504 73.1872 31.5515 73.7863 31.1521C73.986 30.9524 74.2855 30.8525 74.4852 30.7527C74.6849 30.6528 74.7847 30.6528 74.9844 30.553C75.6833 30.0538 75.6833 28.8556 75.1841 28.0568C74.8846 27.6574 74.585 27.1582 74.1856 26.7588C73.7863 26.3594 73.3869 25.8602 73.1872 25.361C72.1887 23.5637 72.3884 21.5668 72.5881 19.5699C72.6879 18.3717 72.7878 17.1736 72.688 16.0753C72.3884 13.679 71.0904 10.384 68.8938 8.78648C65.7985 6.58986 57.6111 6.29032 54.2164 8.28725C50.522 10.4839 47.5266 13.3794 45.6296 16.7742C43.7325 19.9693 43.0336 24.7619 45.5297 28.0568C46.1288 28.8556 46.8277 29.4547 47.5266 30.1536C48.1257 30.6528 48.7248 31.1521 49.224 31.7512C50.1227 32.7496 50.522 32.4501 51.4207 31.7512C52.0197 31.3518 52.7187 30.8525 53.6173 30.8525Z" fill="black"/>
<path d="M70.4916 21.0676C70.0922 21.0676 69.6928 21.0676 69.2934 21.0676C68.894 21.0676 68.4946 20.9677 68.0952 20.8679C67.6959 20.7681 67.2965 20.6682 66.8971 20.6682L65.6989 20.3687L65.9985 19.9693C66.298 20.3687 66.6974 20.6682 67.0968 21.0676C67.4962 21.3671 67.9954 21.6667 68.4946 21.8664C68.9939 22.0661 69.4931 22.2658 69.9923 22.3656C70.2919 22.4654 70.4916 22.4654 70.7911 22.3656C70.8909 22.3656 71.0906 22.2658 71.0906 22.2658C71.1905 22.1659 71.2903 22.0661 71.2903 21.9662C71.2903 22.0661 71.2903 22.2658 71.1905 22.3656C71.0906 22.4654 70.9908 22.5653 70.7911 22.6651C70.4916 22.765 70.192 22.8648 69.8925 22.765C69.2934 22.6651 68.7942 22.5653 68.1951 22.3656C67.6959 22.1659 67.1966 21.8664 66.6974 21.5668C66.4977 21.3671 66.1982 21.2673 65.9985 21.0676C65.7988 20.8679 65.5991 20.6682 65.3994 20.3687L65 19.7696L65.6989 19.9693C66.4977 20.169 67.2965 20.3687 67.9954 20.5684C68.3948 20.6682 68.7942 20.7681 69.0937 20.8679C69.6928 20.9677 70.0922 21.0676 70.4916 21.0676Z" fill="black"/>
<path d="M69.6926 22.2658C69.4929 22.2658 69.4929 22.0661 69.4929 21.8664C69.5928 21.467 69.8923 21.0676 70.3915 20.9678C70.7909 20.8679 71.2901 21.1675 71.4898 21.467C71.4898 21.5668 71.5897 21.6667 71.5897 21.7665C71.5897 22.0661 71.2901 22.1659 70.9906 22.2658C70.4914 22.4655 69.9921 22.4655 69.3931 22.4655" fill="black"/>
<path d="M67.9952 31.1521C67.9952 32.1506 68.2947 33.0492 68.8938 33.848C69.1933 34.2473 69.4929 34.6467 69.8922 34.8464C69.9921 34.9463 70.0919 34.9463 70.1918 34.9463C70.2916 34.9463 70.3915 34.9463 70.4913 34.8464C70.5912 34.7466 70.691 34.7466 70.7909 34.6467L71.0904 34.3472C71.1902 34.2473 71.2901 34.1475 71.2901 34.0476C71.3899 33.9478 71.3899 33.848 71.4898 33.7481C71.4898 33.6483 71.5896 33.5484 71.5896 33.4486C71.5896 33.3487 71.5896 33.3487 71.4898 33.3487C71.4898 33.3487 71.3899 33.2489 71.2901 33.2489C71.1902 33.2489 71.0904 33.149 70.9906 33.149C70.7909 33.149 70.4913 33.0492 70.2916 33.0492C70.0919 33.0492 69.9921 32.9493 69.8922 32.9493C69.7924 32.8495 69.6925 32.8495 69.5927 32.7496C69.393 32.6498 69.0935 32.5499 68.8938 32.3503C68.6941 32.2504 68.4944 32.0507 68.2947 31.851C68.1949 31.7512 68.095 31.6513 67.9952 31.5515C67.9952 31.4516 67.8953 31.4516 67.8953 31.3518C67.8953 31.3518 67.8953 31.2519 67.9952 31.1521ZM67.9952 31.1521C67.9952 31.2519 68.095 31.3518 68.1949 31.4516C68.2947 31.5515 68.3945 31.5515 68.4944 31.6513C68.6941 31.7512 68.8938 31.851 69.1933 31.9509C69.393 32.0507 69.5927 32.1506 69.8922 32.2504L70.1918 32.3503C70.2916 32.3503 70.3915 32.4501 70.4913 32.4501C70.691 32.4501 70.9906 32.5499 71.1902 32.6498C71.2901 32.6498 71.4898 32.7496 71.5896 32.7496C71.6895 32.8495 71.8892 32.8495 71.989 33.0492C72.0889 33.149 72.0889 33.2489 72.1887 33.3487C72.1887 33.4486 72.1887 33.5484 72.1887 33.6483C72.1887 33.848 72.0889 33.9478 71.989 34.0476C71.8892 34.1475 71.7893 34.2473 71.6895 34.3472C71.5896 34.447 71.4898 34.5469 71.3899 34.5469C71.2901 34.6467 71.1902 34.6467 71.0904 34.7466C70.9906 34.8464 70.8907 34.8464 70.7909 34.9463C70.691 35.0461 70.4913 35.0461 70.3915 35.0461C70.1918 35.0461 70.0919 35.0461 69.9921 34.9463C69.4929 34.7466 68.9936 34.5469 68.6941 34.1475C68.2947 33.7481 68.095 33.2489 67.9952 32.7496C67.6956 32.2504 67.6956 31.7512 67.9952 31.1521Z" fill="#FF710F"/>
<path d="M72.3887 29.8541C72.3887 29.6544 72.4885 29.5546 72.6882 29.4547C72.7881 29.4547 72.8879 29.4547 72.9877 29.4547C73.0876 29.4547 73.1874 29.5546 73.2873 29.6544C73.3871 29.7542 73.3871 29.8541 73.3871 29.8541C73.3871 29.9539 73.487 29.9539 73.487 29.9539C73.5868 30.0538 73.6867 30.0538 73.7865 30.1536C73.9862 30.2535 74.1859 30.2535 74.3856 30.0538C74.5853 29.8541 74.6851 29.6544 74.6851 29.3549C74.8848 29.5546 74.8848 29.9539 74.6851 30.2535C74.5853 30.3533 74.3856 30.553 74.2858 30.553C74.0861 30.553 73.9862 30.553 73.7865 30.553C73.5868 30.4532 73.487 30.3533 73.3871 30.2535C73.2873 30.1536 73.2873 30.0538 73.2873 30.0538C73.2873 29.9539 73.2873 29.9539 73.1874 29.8541C73.1874 29.8541 73.1874 29.7542 73.0876 29.7542H72.9877C72.5884 29.6544 72.4885 29.7542 72.3887 29.8541Z" fill="black"/>
<path d="M72.2888 18.3718C71.9892 18.1721 71.6897 17.9724 71.3902 17.7727C71.0906 17.573 70.7911 17.3733 70.4915 17.1736C70.192 16.9739 69.8925 16.8741 69.5929 16.7742C69.2934 16.6744 68.9938 16.6744 68.6943 16.7742C68.0952 16.8741 67.3963 17.1736 66.7972 17.4731C66.1981 17.7727 65.4992 18.0722 64.8003 18.2719C65.3994 17.8725 65.9984 17.4732 66.5975 17.0738C67.1966 16.6744 67.7957 16.275 68.5945 16.1751C68.9938 16.0753 69.3932 16.1751 69.7926 16.275C70.192 16.3748 70.4915 16.5745 70.7911 16.8741C71.0906 17.0738 71.2903 17.3733 71.5898 17.6728C71.7895 17.8725 71.9892 18.0722 72.2888 18.3718Z" fill="black"/>
<path d="M61.1058 18.0722C61.4054 20.169 62.304 22.066 62.2042 24.1628C62.0045 28.3564 57.7111 31.0522 56.1135 34.9462C54.516 38.7404 55.7141 43.2335 54.1166 47.0276C52.5191 50.8218 48.5252 52.8187 45.43 55.5146C39.0398 61.4055 37.2426 70.5914 35.5452 79.1782C35.2456 80.576 34.9461 82.0737 34.1473 83.172C33.3485 84.3702 31.8509 85.169 30.453 84.6697C29.7541 84.47 29.155 83.871 28.6558 83.3717C25.0613 79.3779 23.6634 73.3871 25.0613 68.1951C26.8585 61.8049 32.4499 56.7127 33.049 50.1229C33.3485 47.0276 32.4499 43.9324 31.9507 40.937C31.4515 37.8418 31.4515 34.5468 33.1489 31.9508C33.9476 30.7527 35.1458 29.8541 36.0444 28.6559C39.539 24.2627 39.0398 17.7727 41.6358 12.7803C43.9323 8.58678 48.2257 5.89093 52.7187 4.0937C55.6143 2.89554 58.6097 1.99692 61.7049 2.49615C64.9999 2.99539 71.5897 6.98924 69.6926 11.2826C68.4945 13.9785 65.6988 12.4808 63.602 13.0799C61.5052 13.5791 60.8063 16.1751 61.1058 18.0722Z" fill="black"/>
<path d="M63.9017 113.525C63.702 113.126 63.4025 112.727 63.103 112.427C62.8034 112.127 62.404 111.828 62.0047 111.628C61.6053 111.429 61.2059 111.229 60.7066 111.229C60.3073 111.129 59.808 111.129 59.3088 111.229L59.4086 111.129C59.3088 111.628 59.4086 112.127 59.5085 112.527C59.6083 113.026 59.808 113.425 60.1076 113.825C60.4071 114.224 60.7067 114.524 61.106 114.823C61.3057 114.923 61.5054 115.123 61.7051 115.123C61.9048 115.223 62.1045 115.123 62.3042 115.023C62.5039 114.923 62.6037 114.723 62.7036 114.524C62.8034 114.324 63.0031 114.124 63.103 113.925C63.4025 113.525 63.6022 113.026 63.8019 112.627C64.3011 111.728 64.8003 110.929 65.5991 110.23C65.9985 109.931 66.3979 109.631 66.8971 109.531C67.3964 109.332 67.8956 109.332 68.3948 109.531C68.8941 109.631 69.3933 109.931 69.6928 110.33C69.9924 110.73 70.0922 111.329 69.9924 111.828C69.7927 112.926 68.7942 113.725 67.6959 113.825C67.1967 113.925 66.6974 113.825 66.0984 113.725C65.5991 113.625 65.0999 113.326 64.7005 113.126H64.9002C64.401 113.425 63.9017 113.925 63.6022 114.524C63.3027 115.123 63.103 115.722 63.103 116.421C63.103 117.02 63.2028 117.719 63.5023 118.318C63.5023 118.418 63.6022 118.418 63.6022 118.518L63.702 118.717C63.8019 118.817 63.9017 119.017 64.0016 119.117C64.2013 119.316 64.5008 119.516 64.7005 119.816C65 120.015 65.1997 120.315 65.3994 120.614C65.5991 120.914 65.5991 121.313 65.5991 121.713C65.4993 122.412 65.1997 123.011 65.0999 123.71C65 124.009 65 124.309 65.0999 124.708C65.1997 125.008 65.2996 125.307 65.3994 125.707C65.4993 125.906 65.4993 126.006 65.4993 126.206C65.4993 126.406 65.4993 126.605 65.4993 126.705C65.4993 126.905 65.3994 127.005 65.2996 127.204C65.1997 127.304 65 127.404 64.9002 127.504C65.0999 127.504 65.1997 127.404 65.2996 127.204C65.3994 127.005 65.4993 126.905 65.4993 126.805C65.4993 126.605 65.4993 126.505 65.4993 126.306C65.4993 126.106 65.3994 126.006 65.3994 125.806C65.2996 125.507 65.0999 125.207 65 124.808C64.9002 124.508 64.9002 124.109 64.9002 123.71C65 123.011 65.2996 122.412 65.2996 121.713C65.2996 121.413 65.2996 121.114 65.0999 120.814C64.9002 120.515 64.7005 120.315 64.5008 120.115C64.2013 119.916 64.0016 119.716 63.702 119.416C63.6022 119.316 63.4025 119.117 63.4025 119.017L63.2028 118.817C63.2028 118.717 63.103 118.618 63.103 118.618C62.8034 118.018 62.6037 117.22 62.6037 116.521C62.6037 115.822 62.8034 115.123 63.103 114.424C63.4025 113.825 63.9017 113.226 64.6007 112.926L64.7005 112.826L64.8004 112.926C65.5991 113.425 66.5976 113.825 67.4962 113.625C67.9954 113.625 68.3948 113.425 68.7942 113.126C69.1936 112.826 69.4931 112.427 69.593 111.928C69.6928 111.528 69.593 110.929 69.2934 110.63C68.9939 110.23 68.5945 109.931 68.0953 109.831C67.596 109.631 67.0968 109.631 66.6974 109.831C66.298 110.031 65.7988 110.23 65.3994 110.53C65 110.829 64.7005 111.229 64.401 111.628C64.1014 112.028 63.9017 112.427 63.702 112.926C63.5023 113.326 63.3027 113.825 63.0031 114.224C62.9033 114.424 62.8034 114.624 62.6037 114.923C62.5039 115.123 62.3042 115.323 62.1045 115.522C62.0047 115.622 61.805 115.722 61.7051 115.722C61.5054 115.722 61.4056 115.722 61.3057 115.722C61.0062 115.622 60.8065 115.522 60.6068 115.323C60.2074 115.023 59.808 114.624 59.5085 114.224C59.209 113.825 59.0093 113.326 58.9094 112.826C58.8096 112.327 58.8096 111.828 58.8096 111.229V111.129H58.9094C59.4086 111.029 59.9079 111.129 60.3073 111.229C60.8065 111.329 61.2059 111.528 61.6053 111.728C62.0047 111.928 62.404 112.227 62.7036 112.627C63.5023 112.627 63.8019 113.026 63.9017 113.525Z" fill="black"/>
</g>
<defs>
<linearGradient id="paint0_linear" x1="82.6172" y1="35.5881" x2="115.874" y2="35.5881" gradientUnits="userSpaceOnUse">
<stop stop-color="white"/>
<stop offset="0.4888" stop-color="#FF8426"/>
</linearGradient>
<clipPath id="clip0">
<rect width="126.605" height="130" fill="white"/>
</clipPath>
</defs>
</svg>
