<svg width="124" height="137" viewBox="0 0 124 137" fill="none" xmlns="http://www.w3.org/2000/svg">
<g clip-path="url(#clip0)">
<path d="M60 132.7C93.1371 132.7 120 105.837 120 72.7C120 39.5629 93.1371 12.7 60 12.7C26.8629 12.7 0 39.5629 0 72.7C0 105.837 26.8629 132.7 60 132.7Z" fill="white"/>
<mask id="mask0" mask-type="alpha" maskUnits="userSpaceOnUse" x="0" y="12" width="120" height="121">
<path d="M60 132.7C93.1371 132.7 120 105.837 120 72.7C120 39.5629 93.1371 12.7 60 12.7C26.8629 12.7 0 39.5629 0 72.7C0 105.837 26.8629 132.7 60 132.7Z" fill="white"/>
</mask>
<g mask="url(#mask0)">
<path d="M60.2997 0.5C60.2997 0.5 83.7997 16 84.3997 37.4C84.9997 58.8 89.1997 77.5 82.4997 82.6C75.7997 87.6 48.6997 71.1 48.6997 71.1C48.6997 71.1 49.3997 9.7 60.2997 0.5Z" fill="black"/>
<path d="M41.6998 62.7C39.7998 63 37.8998 63.3 36.4998 64.5C34.3998 66.4 34.3998 69.7 34.5998 72.5C35.8998 95.7 37.2998 103.1 38.5998 126.4C38.6998 127.8 38.7998 129.3 39.5998 130.4C40.6998 131.9 42.6998 132.4 44.4998 132.8C59.3998 135.5 70.4998 134.2 85.3998 131.8C87.9998 131.4 90.9998 130.5 92.1998 128.1C92.9998 126.6 92.8998 124.8 92.7998 123.1C91.7998 106.2 94.7998 109.3 93.6998 92.4C93.2998 85.9 92.8998 79.3 92.2998 72.7C91.8998 68.3 91.0998 63.2 87.4998 61C85.2998 59.6 82.4998 59.6 80.0998 58.6C76.0998 56.9 73.6998 52.7 72.8998 48.4C72.0998 44.1 72.8998 39.7 73.0998 35.5C62.9998 32.1 60.0998 26.3 58.2998 34.5C55.8998 44.1 51.4998 60.9 41.6998 62.7Z" fill="white"/>
<path d="M60.4998 134.9C55.3998 134.9 50.0998 134.4 44.2998 133.4C42.2998 133 40.1998 132.5 38.9998 130.8C38.0998 129.5 37.9998 127.8 37.8998 126.5C37.1998 114.9 36.5998 107.1 35.8998 99.6C35.2998 92.1 34.5998 84.3 33.8998 72.6C33.6998 69.4 33.8998 66.1 35.9998 64.1C37.3998 62.8 39.2998 62.5 41.0998 62.2L41.5998 62.1C51.6998 60.3 56.0998 40.6 57.4998 34.1C58.0998 31.5 58.7998 30.1 59.8998 29.6C61.3998 28.9 62.9998 29.8 65.5998 31.2C67.4998 32.2 69.9998 33.5 73.0998 34.6L73.4998 34.8V35.3C73.4998 36.5 73.2998 37.7 73.2998 38.8C73.0998 41.8 72.7998 45 73.2998 48.1C74.0998 52.7 76.7998 56.5 80.1998 57.9C81.1998 58.3 82.1998 58.6 83.2998 58.8C84.7998 59.1 86.3998 59.5 87.6998 60.4C91.4998 62.8 92.4998 67.9 92.7998 72.6C93.3998 79.2 93.7998 85.8 94.1998 92.3C94.6998 100.8 94.1998 104.4 93.6998 107.8C93.1998 111.2 92.6998 114.6 93.2998 123C93.3998 124.6 93.4998 126.6 92.6998 128.4C91.2998 131.1 88.0998 132 85.3998 132.4C76.3998 133.8 68.5998 134.9 60.4998 134.9ZM41.7998 63.3L41.2998 63.4C39.6998 63.7 37.9998 64 36.7998 65C34.8998 66.7 34.8998 69.7 35.0998 72.5C35.7998 84.1 36.3998 91.9 37.0998 99.4C37.6998 106.9 38.3998 114.7 39.0998 126.4C39.1998 127.9 39.2998 129.1 39.8998 130.1C40.7998 131.4 42.5998 131.9 44.3998 132.2C59.2998 134.9 70.5998 133.5 85.0998 131.1C87.4998 130.7 90.2998 130 91.4998 127.7C92.1998 126.3 92.0998 124.5 91.9998 123C91.4998 114.5 91.9998 110.9 92.4998 107.5C92.9998 104.1 93.4998 100.7 92.8998 92.3C92.4998 85.8 92.0998 79.2 91.4998 72.6C91.0998 68 90.2998 63.4 86.8998 61.3C85.6998 60.6 84.2998 60.2 82.7998 59.9C81.6998 59.7 80.5998 59.4 79.4998 58.9C75.6998 57.3 72.7998 53.2 71.8998 48.2C71.2998 45 71.5998 41.7 71.7998 38.6C71.8998 37.6 71.9998 36.6 71.9998 35.6C68.9998 34.6 66.5998 33.3 64.6998 32.3C62.4998 31.1 60.8998 30.3 60.0998 30.7C59.3998 31 58.8998 32.2 58.3998 34.3C56.0998 46 51.5998 61.6 41.7998 63.3Z" fill="black"/>
<path d="M34.4 139.7H76.3H100.6C100.5 135.4 98.9 130.7 97.5 126.5C93.4 114.3 92.8 101.3 91.6 88.5C90.7 78.4 90.8 59.5 83.2 52.1C78.6 54.7 76.5 66.1 72.6 70.1C71.7 71.1 70.6 72 69.3 72.2C67.2 72.5 65.4 71 63.8 69.5C58.4 64.5 53 55.2 47.6 50.2C45.3 53.8 41.8 56.6 37.9 57.9C47.7 72.3 48.1 80.6 42.6 97.3C39.1 108 34.3 127.4 34.4 139.7Z" fill="#55C6FF"/>
</g>
<path d="M84.9002 57.6C86.3002 55.4 89.7002 55.5 91.8002 57.1C93.9002 58.7 94.8002 61.3 95.7002 63.8C101.3 80.5 103.3 98.6 100.7 116.2C100.3 118.9 99.3002 122.2 96.7002 122.7C94.0002 123.2 91.9002 120.3 90.9002 117.7C88.8002 112.2 88.2002 106.3 87.7002 100.5C86.7002 89.5 85.7002 78.4 84.7002 67.4C84.5002 64.6 84.2002 61.7 85.1002 59C85.9002 56.3 88.2002 54 91.0002 54" fill="white"/>
<path d="M84.9002 57.5C85.3002 56.8 86.0002 56.3 86.7002 56C87.5002 55.7 88.3002 55.6 89.1002 55.7C89.9002 55.8 90.7002 56 91.4002 56.4C92.1002 56.8 92.7002 57.4 93.3002 58C94.3002 59.2 95.1002 60.7 95.6002 62.2C96.2002 63.7 96.6002 65.2 97.2002 66.7C98.1002 69.7 99.0002 72.9 99.7002 76C99.9002 76.8 100 77.6 100.2 78.3C100.4 79.1 100.5 79.9 100.6 80.7C100.7 81.5 100.9 82.3 101 83.1L101.3 85.5C102.1 91.9 102.3 98.3 102 104.7C102 106.3 101.8 107.9 101.7 109.5C101.5 111.1 101.5 112.7 101.2 114.3C101 115.9 100.9 117.5 100.4 119C100.2 119.8 99.8002 120.5 99.4002 121.2C99.0002 121.9 98.2002 122.4 97.5002 122.7C96.7002 123 95.8002 123 95.0002 122.7C94.2002 122.4 93.5002 121.9 92.9002 121.3C91.7002 120.1 91.0002 118.6 90.4002 117.1C89.3002 114.1 88.6002 110.9 88.1002 107.7C87.6002 104.5 87.4002 101.3 87.1002 98.2C86.8002 95 86.5002 91.8 86.2002 88.7C85.6002 82.3 85.2002 76 84.6002 69.6C84.5002 68 84.4002 66.4 84.3002 64.8C84.2002 63.2 84.3002 61.6 84.7002 59.9C85.0002 58.3 85.8002 56.8 87.0002 55.6C88.1002 54.4 89.7002 53.6 91.2002 53.7V53.8C89.7002 53.8 88.3002 54.7 87.2002 55.8C86.2002 57 85.5002 58.4 85.3002 59.9C84.7002 63 85.3002 66.1 85.6002 69.3C86.2002 75.6 86.9002 82 87.5002 88.3C87.8002 91.5 88.1002 94.7 88.3002 97.8C88.6002 101 88.8002 104.2 89.2002 107.3C89.6002 110.4 90.2002 113.5 91.3002 116.5C91.5002 117.2 91.8002 118 92.2002 118.6C92.6002 119.3 93.0002 119.9 93.5002 120.5C94.0002 121 94.6002 121.5 95.2002 121.7C95.8002 121.9 96.6002 122 97.3002 121.7C97.9002 121.5 98.6002 121 99.0002 120.4C99.4002 119.8 99.8002 119.1 100 118.4C100.2 117.7 100.4 116.9 100.6 116.2C100.7 115.4 100.8 114.6 100.9 113.8C101.1 112.2 101.3 110.6 101.4 109.1C101.5 107.5 101.6 105.9 101.6 104.3C101.7 102.7 101.6 101.1 101.6 99.5C101.6 98.7 101.5 97.9 101.5 97.1V95.9L101.4 94.7C101.2 91.5 100.8 88.4 100.4 85.2C100 82 99.4002 79 98.7002 75.8C98.3002 74.3 98.0002 72.7 97.6002 71.2C97.2002 69.7 96.8002 68.1 96.3002 66.6L95.6002 64.3C95.4002 63.6 95.2002 62.8 94.9002 62.1C94.4002 60.6 93.8002 59.2 92.8002 58C92.3002 57.4 91.8002 56.9 91.1002 56.5C90.5002 56.1 89.8002 55.8 89.0002 55.7C88.3002 55.6 87.5002 55.6 86.8002 55.9C86.1002 56.1 85.4002 56.6 85.0002 57.2L84.9002 57.5Z" fill="black"/>
<path d="M44.1001 72.9C45.8001 77.9 46.1001 83.3 46.5001 88.6C47.2001 99.2 48.0001 109.8 48.7001 120.4C48.9001 122.6 48.9001 125 47.7001 126.8C45.8001 129.5 41.6001 129.2 39.1001 127.1C36.6001 125 35.5001 121.7 34.6001 118.6C31.0001 106.1 30.0001 92.8 31.4001 79.8C31.8001 76 32.4001 65.4 35.6001 62.9C39.3001 59.9 43.0001 69.5 44.1001 72.9Z" fill="white"/>
<path d="M44.2 72.9C45.2 75.8 45.7 78.8 46.1 81.8C46.5 84.8 46.7 87.9 47.1 90.9C47.7 97 48.1 103 48.5 109.1L49 118.2L49.1 120.5C49.1 121.2 49.2 122 49.1 122.8C49.1 123.6 49 124.3 48.8 125.1C48.6 125.8 48.2 126.6 47.7 127.2C47.2 127.8 46.5 128.2 45.8 128.5C45.1 128.8 44.3 128.9 43.6 128.9C42.1 128.9 40.6 128.4 39.3 127.5C38.1 126.6 37.1 125.3 36.4 124C35.7 122.7 35.1 121.2 34.7 119.8C31 108.2 29.6 95.8 30.5 83.5C30.5 82.8 30.6 82 30.7 81.2L30.9 78.9C31.1 77.4 31.2 75.9 31.4 74.4C31.6 72.9 31.8 71.4 32.2 69.9C32.5 68.4 32.9 66.9 33.5 65.4C33.8 64.7 34.2 64 34.7 63.4C34.9 63.1 35.2 62.8 35.6 62.6C35.9 62.4 36.3 62.2 36.7 62.1C37.1 62 37.5 62.1 37.9 62.3C38.3 62.5 38.6 62.7 38.9 62.9C39.5 63.4 40 64 40.4 64.6C41.2 65.9 41.9 67.2 42.5 68.6C43.1 70 43.7 71.4 44.2 72.9ZM44 72.9C43.5 71.5 43 70.1 42.3 68.7C41.7 67.3 41 66 40 64.8C39.6 64.2 39.1 63.6 38.5 63.2C38.2 63 37.9 62.8 37.6 62.7C37.3 62.6 37 62.5 36.6 62.6C36.3 62.7 36 62.8 35.7 63C35.4 63.2 35.2 63.5 35 63.7C34.6 64.3 34.3 64.9 34 65.6C33.5 67 33.2 68.5 32.9 69.9C32.7 71.4 32.5 72.9 32.3 74.4C32.1 75.9 32 77.4 31.9 78.9L31.7 81.2C31.6 81.9 31.6 82.7 31.5 83.4C31.1 89.4 31.1 95.5 31.7 101.5C32.3 107.5 33.4 113.5 35 119.3C35.4 120.8 35.9 122.2 36.6 123.5C37.3 124.8 38.2 126 39.3 126.9C40.4 127.8 41.9 128.3 43.3 128.3C44.7 128.3 46.2 127.8 47.1 126.7C47.6 126.2 47.9 125.5 48.1 124.8C48.3 124.1 48.3 123.3 48.3 122.6C48.3 121.1 48.1 119.6 48 118.1L47.2 109C46.7 102.9 46.3 96.8 46.1 90.8C46 87.8 45.9 84.7 45.6 81.7C45.3 78.7 45 75.8 44 72.9Z" fill="black"/>
<path d="M62.9998 4.90001C66.0998 4.30001 69.1998 3.70001 72.2998 4.00001C75.3998 4.30001 78.5998 5.70001 80.3998 8.20001C82.1998 10.7 82.4998 14.1 82.4998 17.2C82.4998 21.4 81.8998 25.6 81.1998 29.7C80.0998 35.8 78.3998 42.2 73.6998 46.2C71.6998 47.9 69.0998 49 66.5998 48.2C64.8998 47.6 62.6998 46 61.2998 44.9C55.5998 40.4 53.2998 41.7 52.5998 29.1C52.1998 22.8 50.1998 16.2 53.0998 10.6C53.5998 9.70001 54.0998 8.80001 54.9998 8.10001C55.7998 7.50001 56.7998 7.20001 57.7998 6.90001C62.2998 5.70001 66.7998 4.40001 71.1998 3.20001" fill="white"/>
<path d="M63 4.9C65.6 4.3 68.3 3.7 71 3.8C72.4 3.8 73.7 4 75.1 4.3C76.4 4.7 77.7 5.3 78.9 6.1C79.5 6.5 80 7 80.5 7.6C80.9 8.1 81.3 8.8 81.7 9.4C82.3 10.7 82.7 12.1 83 13.5C83.2 14.9 83.3 16.3 83.2 17.7C83.2 19.1 83.1 20.5 83 21.9C82.9 23.3 82.7 24.7 82.5 26.1C82.3 27.5 82 28.8 81.7 30.2C81.1 32.9 80.4 35.7 79.5 38.2C78.5 40.8 77.2 43.3 75.3 45.3C74.4 46.3 73.3 47.2 72 47.8C70.8 48.4 69.4 48.8 68 48.7C67.3 48.6 66.6 48.4 66 48.1C65.4 47.8 64.7 47.5 64.2 47.1C63 46.4 61.9 45.5 60.8 44.7C59.7 43.9 58.6 43.2 57.4 42.5C56.8 42.1 56.3 41.7 55.7 41.2C55.2 40.7 54.7 40.1 54.3 39.5C53.5 38.2 53.2 36.8 52.9 35.4C52.6 34 52.5 32.6 52.3 31.2C52.2 30.5 52.2 29.8 52.1 29.1C52.1 28.4 52 27.7 51.9 27.1C51.8 25.7 51.6 24.4 51.4 23C51.2 21.6 51.1 20.2 51 18.8C51 17.4 51 15.9 51.2 14.5C51.4 13.1 51.9 11.7 52.5 10.4C52.8 9.8 53.2 9.2 53.7 8.6C54.2 8 54.8 7.5 55.4 7.2C56 6.9 56.7 6.7 57.4 6.5L59.4 6L63.3 5C64.6 4.7 65.9 4.3 67.2 4L71.2 3V3.1L67.3 4.3C66 4.7 64.7 5.1 63.4 5.5L59.5 6.7L57.6 7.3C57 7.5 56.3 7.7 55.8 8C54.7 8.5 54 9.6 53.4 10.8C52.8 12 52.5 13.3 52.3 14.6C51.9 17.3 52.2 20 52.5 22.7C52.7 24.1 52.9 25.4 53 26.9C53.1 27.6 53.1 28.3 53.2 29C53.2 29.7 53.3 30.4 53.3 31.1C53.4 32.5 53.5 33.8 53.8 35.2C54 36.5 54.4 37.8 55 38.9C55.6 40 56.6 40.9 57.7 41.6C58.8 42.4 60 43.1 61.1 44C62.2 44.9 63.2 45.7 64.3 46.5C64.9 46.9 65.4 47.2 66 47.5C66.6 47.8 67.2 48 67.8 48.1C69.1 48.3 70.4 47.9 71.6 47.4C72.8 46.8 73.9 45.9 74.8 45C75.7 44 76.5 42.9 77.2 41.8C77.9 40.6 78.5 39.3 78.9 38.1C79.8 35.5 80.4 32.8 80.8 30.1C81 28.7 81.2 27.4 81.3 26C81.5 24.6 81.6 23.3 81.7 21.9C81.8 20.5 81.9 19.2 81.9 17.8C81.9 16.4 81.9 15.1 81.7 13.7C81.5 12.4 81.2 11 80.6 9.9C80.3 9.3 80 8.7 79.6 8.2C79.2 7.7 78.7 7.2 78.2 6.8C76.1 5.2 73.5 4.4 70.9 4.3C68.4 4.2 65.7 4.6 63 4.9Z" fill="black"/>
<path d="M78.7998 17.2C79.4998 19.8 76.3998 23.2 77.5998 25.7C78.1998 26.9 79.2998 27.7 80.0998 28.8C82.4998 32 81.5998 36.7 80.1998 40.5C78.6998 44.3 76.7998 48.2 77.0998 52.2C77.2998 54.7 78.4998 57.1 79.2998 59.4C79.4998 59.9 79.6998 60.5 79.7998 61.1C81.0998 66 85.4998 69.2 90.2998 68.7H90.4998C91.0998 68.6 91.7998 68.5 92.1998 68.1C92.5998 67.6 92.5998 67 92.5998 66.4C92.4998 62.8 90.8998 59.4 91.2998 55.8C91.5998 52.5 93.5998 49.5 93.7998 46.2C93.9998 41.4 90.2998 37.4 88.7998 32.8C87.1998 27.9 88.0998 22.5 87.2998 17.4C86.2998 10.9 82.3998 4.89998 76.8998 1.49998C72.6998 -1.10002 62.9998 -0.100018 64.9998 5.99998C66.5998 10.3 77.0998 11.3 78.7998 17.2Z" fill="black"/>
<path d="M66.6001 1.19999C66.6001 1.19999 70.6001 8.19999 60.2001 15.5C49.9001 22.8 53.8001 30.3 53.8001 30.3C53.8001 30.3 60.7001 38.5 56.9001 46C53.1001 53.4 58.8001 67.3 53.1001 73.9C47.4001 80.5 50.9001 91.1 43.7001 88.2C36.5001 85.3 32.2001 101.8 28.4001 95.3C24.7001 88.8 24.6001 74.8 32.0001 58.5C39.3001 42.3 37.2001 33.3 37.2001 33.3C37.2001 33.3 36.1001 26.1 41.0001 21.4C45.9001 16.7 46.8001 -3.40001 66.6001 1.19999Z" fill="black"/>
<path d="M58.3001 106C62.1001 93.9 64.4001 87.5 63.3001 78.2C62.8001 74.3 63.2001 73.3 59.9001 71.3C56.6001 69.3 55.1001 69.6 54.5001 68.7C52.6001 65.4 52.9001 61.2 51.8001 57.5C51.6001 56.8 51.3001 56.1 50.7001 55.8C49.7001 55.3 48.7001 56.3 48.0001 57.1C46.2001 59.3 44.4001 61.5 43.3001 64.1C42.3001 66.8 42.2001 70 43.7001 72.3C45.3001 74.7 48.2001 75.8 50.5001 77.5C52.8001 79.2 55.5001 82 53.1001 87.5L47.0001 99.3C42.8001 105.1 38.1001 111 36.9001 118.1C35.8001 125.1 36.7001 125.1 42.1001 129.3C44.6001 131.3 48.4001 132.6 51.0001 130.7L58.3001 106Z" fill="white"/>
<path d="M58.2 106C59.4 102.1 60.7 98.3 61.6 94.4C62.1 92.4 62.5 90.4 62.8 88.4C63.1 86.4 63.2 84.4 63.1 82.4C63.1 80.4 62.8 78.4 62.5 76.4C62.4 75.4 62.3 74.4 61.8 73.7C61.4 73 60.5 72.4 59.7 71.9C58.9 71.4 58 70.9 57.2 70.6C56.8 70.4 56.3 70.3 55.8 70.1C55.6 70 55.3 69.9 55.1 69.9C54.9 69.8 54.6 69.7 54.3 69.4C54.2 69.3 54.1 69.1 54 69L53.8 68.6C53.7 68.4 53.6 68.1 53.5 67.9C53.3 67.4 53.1 66.9 53 66.4C52.7 65.4 52.6 64.4 52.4 63.4C52.1 61.4 52 59.4 51.4 57.5C51.3 57 51.1 56.6 50.8 56.4C50.5 56.2 50.1 56.1 49.8 56.3C49.4 56.5 49 56.8 48.7 57.1C48.4 57.4 48.1 57.8 47.7 58.2C46.4 59.7 45.2 61.3 44.2 63C43.3 64.7 42.7 66.7 42.8 68.7C42.8 69.7 43.1 70.7 43.5 71.6C43.7 72.1 44 72.5 44.3 72.8C44.6 73.2 44.9 73.5 45.3 73.8C46.8 75.1 48.6 75.9 50.3 77C51.1 77.5 52 78.2 52.7 78.9C53.4 79.6 54 80.6 54.3 81.6C54.6 82.6 54.7 83.7 54.5 84.8C54.4 85.8 54.1 86.8 53.7 87.8L50.6 93.7L47.5 99.6C45.4 102.7 43.1 105.6 41.2 108.8C39.3 112 37.9 115.4 37.4 119.1C37.3 120 37.2 120.9 37.1 121.8C37.1 122.7 37.1 123.5 37.5 124.3C37.8 125 38.5 125.6 39.1 126.2C39.8 126.8 40.5 127.4 41.2 127.9L42.3 128.8C42.7 129.1 43 129.3 43.4 129.6C44.1 130.1 44.9 130.5 45.7 130.7C46.5 130.9 47.4 131.1 48.2 131.1C49 131.1 49.9 130.8 50.5 130.3L50.3 130.5L54.2 118.3C54.8 116.3 55.5 114.2 56.1 112.2C57 110.1 57.6 108.1 58.2 106ZM58.4 106.1C57.8 108.1 57.2 110.2 56.6 112.3C56 114.4 55.4 116.4 54.9 118.5L51.5 130.9V131.1L51.4 131.2C50.6 131.8 49.6 132.2 48.6 132.2C47.6 132.3 46.6 132.2 45.7 131.9C44.8 131.6 43.9 131.2 43.1 130.7C42.7 130.5 42.3 130.2 41.9 129.9L40.8 129.1C40.1 128.5 39.3 128 38.6 127.4C37.9 126.8 37.1 126.1 36.6 125.1C36.1 124.1 36 123 36 122C36 121 36.2 120 36.3 119.1C36.4 118.6 36.4 118.1 36.5 117.7C36.6 117.2 36.7 116.7 36.8 116.3L37 115.6C37.1 115.4 37.2 115.1 37.2 114.9L37.4 114.2L37.6 113.5C38.3 111.7 39.2 110 40.1 108.4C42 105.2 44.3 102.2 46.5 99.2L49.7 93.4L52.9 87.6C53.3 86.7 53.6 85.8 53.7 84.8C53.9 83.8 53.8 82.9 53.5 82C53.2 81.1 52.7 80.3 52.1 79.5C51.5 78.8 50.7 78.2 49.9 77.6C48.3 76.5 46.5 75.6 44.9 74.3C44.5 74 44.2 73.6 43.9 73.2C43.6 72.8 43.3 72.3 43.1 71.9C42.7 70.9 42.5 69.9 42.4 68.9C42.3 66.8 42.9 64.8 43.8 62.9C44.7 61.1 46 59.4 47.2 57.9C47.8 57.2 48.4 56.2 49.5 55.8C49.7 55.7 50.1 55.6 50.4 55.6C50.7 55.6 51 55.8 51.2 55.9C51.7 56.3 51.9 56.9 52.1 57.4C52.7 59.4 52.9 61.4 53.3 63.4C53.5 64.4 53.7 65.4 53.9 66.3C54 66.8 54.2 67.2 54.4 67.7C54.5 67.9 54.6 68.2 54.7 68.4L54.9 68.7C54.9 68.8 54.9 68.8 55 68.8C55 68.8 55 68.8 55.1 68.9C55.3 69.1 55.8 69.2 56.2 69.4C56.7 69.6 57.2 69.7 57.6 69.9C58.6 70.3 59.5 70.8 60.3 71.3C61.1 71.8 62 72.5 62.7 73.5C63 74 63.2 74.5 63.3 75.1C63.4 75.6 63.5 76.1 63.5 76.7L63.8 79.7C63.8 80.2 63.9 80.7 63.9 81.2V81.9V82.7C63.9 86.8 63.1 90.9 61.9 94.7C60.9 98.4 59.6 102.2 58.4 106.1Z" fill="black"/>
<path d="M101.1 120.1C103.1 117.6 105.3 114.9 105.5 111.7C106.3 103.3 92.9002 86.6 88.6002 100.8C86.2002 109.1 90.1002 133.5 101.1 120.1Z" fill="white"/>
<path d="M95.2001 124.6C94.4001 124.6 93.7001 124.4 93.1001 124C87.7001 120.9 86.4001 106.2 88.1001 100.6C89.9001 94.7 93.1001 94.4 94.9001 94.8C100.3 95.9 106.7 105.6 106.1 111.8C105.8 115 103.8 117.7 101.5 120.5C98.9001 123.7 96.8001 124.6 95.2001 124.6ZM93.8001 96C91.7001 96 90.2001 97.7 89.2001 101C87.5001 106.8 89.0001 120.4 93.6001 123C95.5001 124.1 97.9001 123 100.6 119.8C102.8 117.1 104.6 114.7 104.9 111.8C105.4 106.2 99.5001 97.1 94.6001 96.1C94.4001 96 94.1001 96 93.8001 96Z" fill="black"/>
<path d="M105.6 45.9C99.6999 45.8 99.5 46.1 94.3 48.7C90.3 50.7 87.1 54.2 84.8 58.1C82.9 61.4 81.4999 65.2 81.1999 69C80.5999 78.5 87.2999 87.7 96.1999 90.1C105.1 92.5 115.2 88.1 120 80C124.8 71.9 124.1 60.9 118.7 53.3C115.6 49.1 110.7 45.7 105.6 45.9Z" fill="#55C6FF"/>
<path d="M105.6 46C104.2 46 102.8 46 101.4 46.2C100.7 46.3 99.9999 46.4 99.3999 46.7C98.7999 46.9 98.0999 47.2 97.4999 47.5C96.1999 48.1 94.9999 48.8 93.6999 49.5C92.4999 50.2 91.3999 51 90.2999 51.9C88.1999 53.7 86.3999 56 84.9999 58.4C83.5999 60.9 82.4999 63.5 81.8999 66.3C81.7999 67 81.5999 67.7 81.4999 68.4C81.3999 69.1 81.3999 69.8 81.3999 70.5C81.3999 70.9 81.3999 71.2 81.3999 71.6L81.4999 72.7L81.6999 73.7C81.6999 74 81.7999 74.4 81.8999 74.7C82.4999 77.5 83.6999 80.2 85.3999 82.4C87.0999 84.7 89.1999 86.6 91.5999 88.1C93.9999 89.5 96.6999 90.3 99.4999 90.6C102.2 90.8 105 90.4 107.7 89.6C108 89.5 108.3 89.4 108.7 89.2C109 89.1 109.3 89 109.7 88.8L110.6 88.3C110.9 88.1 111.2 88 111.5 87.8L112.4 87.3C112.7 87.1 113 86.9 113.3 86.7C113.6 86.5 113.9 86.3 114.1 86.1L114.9 85.4C119.2 81.9 122 76.5 122.6 70.9C122.8 69.5 122.8 68.1 122.8 66.7C122.8 66.3 122.8 66 122.7 65.7C122.7 65.4 122.7 65 122.6 64.7C122.5 64 122.4 63.3 122.2 62.6C121.6 59.8 120.6 57.1 119.1 54.7C117.6 52.3 115.7 50.2 113.4 48.6C112.2 47.8 111 47.1 109.7 46.7C108.4 46.2 106.9 45.9 105.6 46C108.4 45.8 111.3 46.6 113.6 48.2C116 49.7 118 51.9 119.6 54.3C121.2 56.7 122.3 59.5 122.9 62.3C123.5 65.2 123.7 68.1 123.3 71C123.1 72.5 122.8 73.9 122.4 75.3C122.3 75.6 122.2 76 122 76.3C121.9 76.6 121.8 77 121.6 77.3C121.3 78 121 78.6 120.7 79.3C119.3 81.9 117.4 84.2 115.2 86C113 87.8 110.4 89.2 107.7 90C105 90.8 102.1 91.2 99.2999 90.9L98.2999 90.7L97.7999 90.6L97.2999 90.5L96.2999 90.3C95.9999 90.2 95.5999 90.1 95.2999 90C93.9999 89.6 92.6999 88.9 91.4999 88.2C89.0999 86.7 86.9999 84.7 85.1999 82.4C84.9999 82.1 84.7999 81.8 84.5999 81.5C84.3999 81.2 84.1999 80.9 83.9999 80.6L83.4999 79.6C83.3999 79.4 83.2999 79.3 83.2999 79.1L83.0999 78.6L82.6999 77.6C82.5999 77.3 82.4999 76.9 82.2999 76.6C81.9999 75.9 81.8999 75.2 81.6999 74.5C81.5999 74.2 81.4999 73.8 81.4999 73.4L80.9999 72.5L80.8999 71.4C80.8999 71 80.7999 70.7 80.8999 70.3C80.8999 68.8 80.9999 67.4 81.2999 65.9C81.8999 63 82.9999 60.3 84.4999 57.8C85.9999 55.3 87.7999 53 89.9999 51.1C91.0999 50.2 92.2999 49.4 93.5999 48.7C94.1999 48.4 94.8999 48.1 95.4999 47.7C96.0999 47.4 96.7999 47.1 97.3999 46.8C97.9999 46.5 98.6999 46.2 99.3999 46C100.1 45.8 100.8 45.7 101.5 45.6C102.9 45.5 104.3 45.6 105.7 45.6V46H105.6Z" fill="black"/>
<path d="M86.6 54.2C86 54.8 85.5 55.5 85.3 56.3C85.1 57.1 85.5 58.1 86.3 58.4C86.7 58.6 87.2 58.4 87.7 58.4C89.1 58.1 90.4 57.8 91.8 57.5C91.8 59.8 91.2 62.2 90.1 64.2C89.5 65.3 88.6 66.4 88.3 67.7C88 69 88.4 70.6 89.6 71.1C90.9 71.6 92.3 70.5 92.9 69.2C93.5 67.9 93.6 66.5 94.1 65.1C95.1 62.4 97.7 60.7 100.3 59.9C101.5 59.6 102.7 59.4 103.9 59.4C107.3 59.4 110.8 60.6 113.8 58.9C116 57.7 117.2 54.8 116.5 52.4C115.4 48.7 112.9 50.1 110.6 49.2C108.5 48.3 107.1 46.6 104.5 46.2C98.3 45.2 90.5 49.9 86.6 54.2Z" fill="#FFC9A4"/>
<path d="M86.5998 54.3C85.9998 55 85.3998 55.7 85.2998 56.6C85.2998 57.1 85.2998 57.5 85.5998 57.8C85.7998 58.2 86.1998 58.4 86.5998 58.5C86.9998 58.5 87.3998 58.4 87.8998 58.3L89.1998 58L91.6998 57.3L91.8998 57.2V57.5C91.8998 59.4 91.5998 61.3 90.8998 63C90.1998 64.8 88.7998 66.2 88.4998 67.8C88.2998 68.6 88.4998 69.5 88.8998 70.1C89.0998 70.4 89.4998 70.6 89.7998 70.7C90.1998 70.8 90.5998 70.7 90.8998 70.5C91.5998 70.1 92.1998 69.5 92.5998 68.6C92.9998 67.8 93.0998 66.9 93.3998 66C93.5998 65.1 93.9998 64.2 94.4998 63.4C94.9998 62.7 95.6998 61.9 96.3998 61.4C97.8998 60.3 99.5998 59.6 101.4 59.3C102.3 59.1 103.2 59.1 104.1 59.1C105 59.1 105.9 59.2 106.8 59.3C108.6 59.5 110.4 59.6 112 59.1C112.8 58.9 113.6 58.5 114.2 57.9C114.8 57.3 115.3 56.6 115.7 55.8C116 55 116.1 54.1 116.1 53.3C116.1 52.9 115.9 52.5 115.8 52.1C115.6 51.7 115.4 51.3 115.2 51C114.7 50.4 113.9 50.1 113.1 50.1C112.3 50 111.3 50 110.4 49.6C108.6 48.9 107.3 47.6 105.7 46.9C105.3 46.7 104.9 46.6 104.5 46.5C104.1 46.4 103.7 46.4 103.2 46.3C102.8 46.3 102.4 46.3 101.9 46.3C101.5 46.3 101 46.3 100.6 46.4C98.8998 46.6 97.1998 47.2 95.4998 47.9C92.1998 49.6 89.0998 51.6 86.5998 54.3ZM86.5998 54.2C87.8998 52.9 89.1998 51.7 90.6998 50.5C92.1998 49.4 93.6998 48.4 95.2998 47.6C96.8998 46.8 98.6998 46.1 100.5 45.8C102.3 45.5 104.2 45.4 106 46.1C107.8 46.8 109.1 48.1 110.7 48.7C111.5 49 112.3 49 113.2 49.1C113.6 49.1 114.1 49.2 114.6 49.4C115.1 49.6 115.5 49.9 115.9 50.3C116.2 50.7 116.5 51.2 116.6 51.6C116.8 52.1 116.9 52.6 117 53.1C117.1 54.1 116.9 55.1 116.6 56C116.2 56.9 115.7 57.7 114.9 58.4C114.5 58.7 114.1 59 113.7 59.2C113.5 59.3 113.3 59.4 113.1 59.5C112.9 59.6 112.7 59.7 112.4 59.7C110.6 60.2 108.7 59.9 106.9 59.7C105.1 59.5 103.3 59.3 101.6 59.6C99.8998 59.9 98.0998 60.6 96.6998 61.6C95.9998 62.1 95.3998 62.8 94.8998 63.6C94.3998 64.3 94.0998 65.2 93.8998 66.1C93.6998 67 93.5998 67.9 93.1998 68.8C92.8998 69.7 92.1998 70.5 91.2998 71C90.8998 71.2 90.2998 71.4 89.7998 71.3C89.2998 71.2 88.7998 70.9 88.4998 70.5C87.8998 69.7 87.6998 68.6 87.8998 67.6C88.0998 66.6 88.5998 65.8 89.0998 65C89.5998 64.2 90.0998 63.5 90.3998 62.7C91.0998 61.1 91.5998 59.3 91.5998 57.5L91.7998 57.7L89.1998 58.2L87.9998 58.4C87.5998 58.5 87.0998 58.6 86.6998 58.6C86.4998 58.6 86.2998 58.5 86.0998 58.4C85.8998 58.3 85.6998 58.1 85.5998 57.9C85.3998 57.5 85.2998 57 85.3998 56.6C85.3998 55.6 85.9998 54.9 86.5998 54.2Z" fill="black"/>
<path d="M98.6999 78C98.6999 78 99.2999 83 96.0999 78C92.7999 73 89.5999 78 89.5999 78C89.5999 78 89.3999 80.9 92.3999 81.8C95.3999 82.7 96.0999 83.1 96.2999 85.2C96.4999 87.2 101.2 88.4 100.9 85.2C100.7 81.9 101.7 81 98.6999 78Z" fill="#FFC9A4"/>
<path d="M99.1998 87.4C97.8998 87.4 96.2998 86.4 96.0998 85.2C95.8998 83.3 95.3998 82.9 92.2998 82C89.0998 81.1 89.2998 78 89.2998 78C89.3998 77.9 90.7998 75.7 92.8998 75.7C94.0998 75.7 95.1998 76.5 96.1998 78C97.6998 80.2 98.0998 80.2 98.1998 80.1C98.4998 80 98.4998 78.9 98.3998 78.1L98.2998 77.5L98.6998 77.9C101 80.3 101 81.4 100.9 83.2C100.9 83.8 100.9 84.4 100.9 85.2C101 86.5 100.4 87.3 99.1998 87.4C99.2998 87.4 99.3998 87.4 99.1998 87.4ZM89.7998 78C89.7998 78.4 89.7998 80.7 92.4998 81.5C95.4998 82.4 96.2998 82.9 96.5998 85C96.6998 86.1 98.2998 86.9 99.4998 86.8C99.9998 86.8 100.9 86.4 100.8 85.1C100.7 84.3 100.8 83.6 100.8 83.1C100.8 81.4 100.8 80.4 99.0998 78.5C99.0998 79.2 99.0998 80.2 98.5998 80.3C97.9998 80.5 97.2998 79.8 96.0998 78C95.1998 76.6 94.1998 75.8 93.0998 75.8C91.2998 75.9 89.9998 77.8 89.7998 78Z" fill="black"/>
<path d="M98.2998 72.6C98.2998 72.6 97.5998 74.7 101 76.6C104.4 78.5 103.6 80 103.6 80C103.6 80 108.3 77.5 98.2998 72.6Z" fill="#FFC9A4"/>
<path d="M103 80.5L103.3 79.9C103.3 79.9 103.9 78.6 100.8 76.8C97.4001 74.8 98.0001 72.6 98.1001 72.5L98.2001 72.3L98.4001 72.4C102.7 74.5 104.9 76.5 104.9 78.2C104.9 79.5 103.7 80.2 103.6 80.2L103 80.5ZM98.4001 72.9C98.4001 73.5 98.5001 75 101 76.4C103.3 77.7 103.7 78.9 103.7 79.5C104 79.3 104.4 78.8 104.4 78.2C104.4 77.1 103.4 75.4 98.4001 72.9Z" fill="black"/>
<path d="M113 47.4C112.9 45.7 113.6 44 114.9 43C115.2 42.8 115.6 42.5 115.9 42.7C116.3 42.9 116.4 43.4 116.3 43.8C116.2 44.2 115.9 44.5 115.6 44.8C114.7 45.8 113.8 46.7 113 47.7" fill="white"/>
<path d="M112.9 47.4C112.5 46.4 112.7 45.1 113.3 44.2C113.6 43.7 114.1 43.4 114.5 43.1C114.7 42.9 114.9 42.8 115.2 42.6C115.4 42.5 115.8 42.4 116.1 42.6C116.4 42.8 116.6 43.1 116.6 43.5C116.6 43.9 116.5 44.2 116.4 44.5C116.2 44.7 116.1 45 115.9 45.2C115.7 45.4 115.6 45.6 115.4 45.8C114.7 46.5 113.9 47.2 113 47.8C113.5 46.8 114.1 46 114.8 45.2C115.1 44.8 115.6 44.5 115.8 44.1C115.9 43.9 116 43.8 116 43.6C116 43.4 116 43.2 115.9 43.1C115.8 43 115.6 42.9 115.3 43C115.1 43.1 114.9 43.2 114.7 43.4C114.3 43.7 114.1 44.2 113.9 44.7C113.7 45.2 113.5 45.6 113.3 46C113.2 46.3 113.1 46.8 112.9 47.4Z" fill="black"/>
<path d="M112.7 47.1C113.3 46.9 114 46.8 114.6 46.8C115.3 46.8 115.9 46.9 116.6 47.1C117.9 47.5 119 48.3 120 49.3C120.5 49.8 120.9 50.4 121.3 51C121.6 51.6 121.9 52.2 122.1 52.9C122.5 54.2 122.8 55.6 122.8 57C123 59.8 122.5 62.5 121.9 65.2C121.3 67.9 120.3 70.4 119 72.9C118.4 74.1 117.7 75.3 116.9 76.4C116.1 77.5 115.3 78.6 114.4 79.6C114 80.1 113.5 80.6 113 81.1C112.5 81.6 112 82 111.5 82.5C110.5 83.4 109.4 84.2 108.2 84.9C105.9 86.3 103.5 87.4 100.9 88.1C99.6 88.4 98.3 88.7 97 88.8C95.7 89 94.4 89 93 88.9C93.6 88.9 94.3 88.8 94.9 88.7C95.5 88.7 96.2 88.5 96.8 88.4C98.1 88.2 99.3 87.8 100.6 87.4C103.1 86.6 105.4 85.4 107.6 83.9C111.9 81 115.4 76.9 117.9 72.2C119.1 69.9 120 67.4 120.7 64.8C121.3 62.2 121.8 59.6 121.8 56.9C121.8 55.6 121.6 54.3 121.2 53C121 52.4 120.8 51.8 120.5 51.2C120.2 50.6 119.9 50.1 119.5 49.6C118.7 48.6 117.6 47.8 116.4 47.3C115.3 46.9 114 46.8 112.7 47.1Z" fill="black"/>
<path d="M80.3002 98.7C79.0002 99.2 77.6002 100.3 78.2002 101.5C78.4002 102 79.1002 102.3 79.7002 102.5C83.1002 103.6 86.6002 103.2 90.2002 102.7C95.7002 102 101.2 101.3 106.7 100.5C107.5 100.4 108.6 99.8 108.3 99C108.2 98.8 107.9 98.6 107.7 98.4C104.8 96.6 100.9 97.1 98.3002 95.5C95.8002 93.9 95.6002 91.8 94.7002 89.2C92.9002 90.8 92.7002 93.8 90.9002 95.3C88.4002 97.5 83.2002 97.6 80.3002 98.7Z" fill="black"/>
<path d="M100.9 103.4C102.6 102.9 104.4 102.3 104.6 101.7C105.2 99.9 94.0002 96.4 90.5002 99.4C88.5002 101 91.8002 106.2 100.9 103.4Z" fill="white"/>
<path d="M95.9999 104.8C92.6999 104.8 90.4999 103.6 89.6999 101.9C89.0999 100.7 89.2999 99.5 90.1999 98.8C93.4999 96.1 102.1 98.3 104.5 100C105.5 100.7 105.5 101.3 105.3 101.7C105 102.6 103.4 103.2 101.2 103.9C99.1999 104.6 97.4999 104.8 95.9999 104.8ZM94.8999 98.8C93.1999 98.8 91.7999 99.1 90.8999 99.8C90.4999 100.2 90.3999 100.8 90.6999 101.4C91.3999 102.7 94.3999 104.8 100.7 102.8C101.6 102.5 103.6 101.9 104 101.5C103.8 101.2 102.7 100.4 100.3 99.7C98.6999 99.1 96.5999 98.8 94.8999 98.8Z" fill="black"/>
<path d="M70.3999 22.2C70.9999 22.4 71.5999 22.4 72.0999 22.3C72.5999 22.2 73.0999 22.1 73.5999 21.9C74.0999 21.7 74.4999 21.4 74.9999 21.1C75.4999 20.8 75.8999 20.4 76.4999 20.1C76.2999 20.7 75.9999 21.3 75.6999 21.8C75.2999 22.3 74.7999 22.8 74.1999 23C73.5999 23.3 72.8999 23.4 72.1999 23.2C71.3999 23.2 70.7999 22.8 70.3999 22.2Z" fill="black"/>
<path d="M58.5 24C59.2 24.2 59.8 24.2 60.4 24.2C61 24.2 61.6 24.1 62.1 23.9C62.7 23.7 63.2 23.5 63.7 23.2C64.2 22.9 64.7 22.5 65.2 22C65.2 22.7 64.8 23.4 64.3 24C63.8 24.5 63.2 24.9 62.4 25.2C61.7 25.4 60.9 25.4 60.3 25.3C59.7 25.2 58.9 24.6 58.5 24Z" fill="black"/>
<path d="M68.8999 25.7C69.0999 26.7 69.2999 27.7 69.5999 28.7C69.6999 29.2 69.7999 29.7 69.9999 30.2C70.1999 30.7 70.3999 31.1 70.5999 31.5C70.7999 31.9 71.0999 32.3 71.3999 32.7C71.4999 32.8 71.5999 32.9 71.6999 33.2C71.6999 33.5 71.5999 33.7 71.4999 33.8C71.3999 33.9 71.2999 34 71.1999 34.1C71.0999 34.2 70.9999 34.3 70.8999 34.3C69.9999 35 68.8999 35.3 67.8999 35.1C68.8999 34.9 69.7999 34.5 70.4999 33.8C70.5999 33.7 70.6999 33.6 70.6999 33.6C70.7999 33.5 70.8999 33.4 70.8999 33.4C70.8999 33.3 70.8999 33.3 70.8999 33.3C70.8999 33.3 70.8999 33.3 70.7999 33.2C70.3999 32.8 70.0999 32.4 69.7999 31.9C69.2999 30.9 68.9999 29.9 68.7999 28.8C68.7999 27.8 68.7999 26.8 68.8999 25.7Z" fill="black"/>
<path d="M71.1998 39.6C70.5998 39.7 69.8998 39.7 69.1998 39.7C68.5998 39.7 67.8998 39.6 67.2998 39.4C66.6998 39.2 65.9998 38.9 65.3998 38.7C65.0998 38.6 64.7998 38.4 64.4998 38.3C64.2998 38.3 64.1998 38.2 63.9998 38.1C63.9998 38 63.8998 38 63.8998 37.9C63.8998 37.8 63.7998 37.6 63.8998 37.5L64.1998 36.8L64.2998 37.5C64.2998 37.8 64.3998 38.1 64.3998 38.3C64.4998 38.6 64.5998 38.8 64.5998 39.1C64.7998 39.6 64.9998 40.1 65.1998 40.6L64.7998 40.2C65.2998 40.4 65.7998 40.4 66.2998 40.5C66.7998 40.5 67.2998 40.5 67.7998 40.5C68.7998 40.4 69.7998 40 70.7998 39.3L70.8998 39.4C70.5998 39.9 70.1998 40.4 69.6998 40.8C69.1998 41.2 68.6998 41.5 67.9998 41.6C67.6998 42 66.9998 42 66.3998 42C65.7998 41.9 65.0998 41.8 64.5998 41.4L64.3998 41.3L64.1998 41C63.9998 40.4 63.8998 39.8 63.7998 39.2C63.7998 38.9 63.7998 38.6 63.7998 38.3C63.7998 38 63.7998 37.7 63.7998 37.4L64.1998 37.5C64.1998 37.5 64.1998 37.5 64.1998 37.6C64.1998 37.6 64.1998 37.7 64.2998 37.7C64.3998 37.8 64.4998 37.8 64.6998 37.9C64.9998 38 65.2998 38 65.6998 38.1C66.2998 38.2 66.9998 38.2 67.5998 38.3C68.1998 38.4 68.8998 38.6 69.4998 38.8C70.0998 39 70.7998 39.2 71.3998 39.5V39.6H71.1998Z" fill="#FF710F"/>
</g>
<defs>
<clipPath id="clip0">
<rect width="123.3" height="136.3" fill="white"/>
</clipPath>
</defs>
</svg>
