<svg width="214" height="31" viewBox="0 0 214 31" fill="none" xmlns="http://www.w3.org/2000/svg">
<g clip-path="url(#clip0)">
<path d="M35.371 14.5128C35.9223 14.5128 36.5253 14.5994 37.1628 14.738C37.8003 14.8938 38.3861 15.1363 38.9202 15.5C39.4543 15.8637 39.9022 16.3313 40.264 16.9028C40.6258 17.4916 40.7981 18.2017 40.7981 19.0503C40.7981 19.4832 40.7292 19.9855 40.6086 20.557C40.488 21.1285 40.3157 21.7173 40.0745 22.3235C40.2123 22.4966 40.3846 22.6179 40.5741 22.7045C40.7636 22.7737 40.9704 22.8084 41.1944 22.8257C41.5045 22.8257 41.8491 22.7391 42.2109 22.5659C42.5899 22.3927 42.9689 22.1676 43.3652 21.8905C43.7615 21.6134 44.1577 21.3017 44.554 20.9553C44.9503 20.6089 45.3293 20.2626 45.6739 19.8989C46.0185 19.5525 46.3458 19.2235 46.6387 18.8944C46.9316 18.5827 47.1556 18.3056 47.3623 18.0978C47.4657 17.9938 47.5863 17.9419 47.7414 17.9419C47.9481 17.9419 48.1204 18.0458 48.2927 18.2709C48.4477 18.4788 48.5339 18.7905 48.5339 19.1715C48.5339 19.5525 48.4133 19.9855 48.1893 20.4877C47.9653 20.9899 47.5346 21.5095 46.9144 22.0464C46.5698 22.4274 46.1563 22.8603 45.7083 23.3626C45.2604 23.8648 44.7607 24.3324 44.2611 24.7654C43.7442 25.1983 43.2102 25.5793 42.6588 25.8737C42.1075 26.1855 41.5389 26.324 40.9876 26.324C40.6086 26.324 40.2468 26.2547 39.885 26.1508C39.5232 26.0296 39.1614 25.8391 38.7996 25.5793C38.2655 26.3933 37.6624 27.138 36.9905 27.8134C36.3186 28.4888 35.5605 29.0603 34.7335 29.5452C33.9066 30.0302 33.0106 30.3938 32.0631 30.6709C31.0982 30.9307 30.099 31.0173 29.0135 31C28.6001 31 28.1349 30.9134 27.5835 30.7575C27.0495 30.6017 26.5154 30.3765 26.0329 29.9955C25.5505 29.6145 25.137 29.1296 24.8097 28.5235C24.4823 27.9173 24.3101 27.1899 24.3101 26.324C24.3101 25.7352 24.4134 25.0251 24.6029 24.2112C24.7925 23.3972 25.0854 22.5486 25.4816 21.6654C25.8779 20.7994 26.3603 19.9335 26.9633 19.0676C27.5663 18.219 28.2727 17.4397 29.0825 16.7642C29.9094 16.0888 30.8398 15.5346 31.8908 15.119C32.9245 14.7033 34.0961 14.4955 35.371 14.5128ZM34.2167 18.3749C33.5275 18.3749 32.8728 18.548 32.2353 18.8771C31.5979 19.2235 31.0293 19.6737 30.5469 20.2279C30.0473 20.7994 29.6682 21.4229 29.3581 22.133C29.0652 22.843 28.9102 23.5704 28.9102 24.3151C28.9102 24.5922 28.9274 24.9039 28.9791 25.2329C29.0135 25.562 29.1169 25.8737 29.2547 26.1508C29.3926 26.4452 29.5993 26.6704 29.8578 26.8782C30.1162 27.0687 30.478 27.1726 30.9087 27.1726C31.5806 27.1726 32.2353 26.9994 32.8728 26.6357C33.5103 26.2721 34.0788 25.8045 34.5785 25.2329C35.0781 24.6614 35.4744 24.0033 35.7673 23.276C36.0602 22.5486 36.2152 21.8039 36.2152 21.0592C36.2152 20.7648 36.198 20.4531 36.1635 20.1413C36.1291 19.8296 36.0429 19.5352 35.9051 19.2754C35.7673 19.0156 35.5605 18.7905 35.3021 18.6173C35.0264 18.4614 34.6646 18.3749 34.2167 18.3749Z" fill="#142735"/>
<path d="M66.3311 22.2542C65.866 23.1201 65.0907 24.1246 64.3154 24.8C63.385 25.6313 59.8358 28.8179 59.2156 26.4106C58.716 24.471 60.4561 21.4402 61.1108 19.6738C61.6621 18.167 63.161 14.9805 60.0771 15.2056C59.1639 15.2749 58.5954 16.0022 57.8201 15.6732C56.838 15.2749 56.3039 14.8765 55.184 14.6341C52.8754 14.1492 50.3427 14.9285 48.5165 16.3659C45.5186 18.7039 41.9867 25.0771 44.5021 28.8006C47.7929 33.6671 53.4439 29.2335 55.7354 26.1509C54.5466 29.1816 56.4245 31.8659 59.7842 30.7056C63.1783 29.5279 65.7798 26.5492 68.3469 24.1592C69.1222 23.3626 66.9686 21.0592 66.3311 22.2542ZM54.9601 22.895C53.9091 24.5402 52.5653 26.3414 50.6528 27.0687C48.0513 28.0559 46.2078 26.4626 47.8445 22.7391C48.7577 20.6436 50.7218 18.3576 53.1338 18.3749C53.9953 18.3749 55.2874 18.8771 55.5803 19.8296C55.8387 20.6089 55.6492 21.8039 54.9601 22.895Z" fill="#142735"/>
<path d="M69.5705 24.0033C69.4327 24.3497 69.3121 24.748 69.1915 25.2156C69.0709 25.6659 69.0364 26.0816 69.0537 26.4279C69.0709 26.6531 69.1226 26.8262 69.226 26.9475C69.3293 27.0687 69.5016 27.1207 69.7428 27.1033C70.0529 27.086 70.4147 26.9648 70.8627 26.7397C71.3106 26.5145 71.7758 26.2374 72.2927 25.9084C72.7923 25.562 73.3264 25.181 73.8605 24.748C74.4119 24.3151 74.9459 23.8648 75.48 23.4145C76.0141 22.9469 76.531 22.4966 77.0134 22.0464C77.4958 21.5961 77.9265 21.1631 78.3056 20.7821C78.409 20.6782 78.5468 20.5916 78.7018 20.5223C78.8569 20.4704 78.9947 20.4357 79.1153 20.4184C79.4082 20.4011 79.6494 20.4704 79.8562 20.6609C80.0629 20.8514 80.1835 21.1112 80.2008 21.4402C80.218 21.7519 80.1491 22.0983 79.9768 22.4966C79.8045 22.895 79.4771 23.2933 78.9947 23.6916C78.1333 24.6268 77.2546 25.51 76.3759 26.3586C75.4973 27.2073 74.6014 27.9693 73.7055 28.6274C72.8096 29.2855 71.9137 29.8397 71.035 30.2553C70.1391 30.6709 69.2776 30.9134 68.399 30.948C67.7443 30.9654 67.2446 30.9134 66.8311 30.7748C66.4176 30.6536 66.142 30.5497 65.8491 30.2899C65.5734 30.0475 65.3839 29.7184 65.2633 29.3374C65.1255 28.9737 65.0566 28.5754 65.0221 28.1424C64.9704 27.4324 65.0221 26.6877 65.1599 25.9084C65.315 25.1464 65.5045 24.4363 65.7457 23.7782C66.1592 22.6005 66.5899 21.4229 67.0207 20.2626C67.4514 19.1022 67.8476 18.0285 68.2094 17.0586L73.7055 2.40725C73.9294 1.81842 74.2396 1.38546 74.6703 1.12568C75.101 0.865905 75.5317 0.710039 75.9797 0.675402C76.4276 0.640765 76.8584 0.727358 77.2374 0.952497C77.6337 1.17764 77.8404 1.55864 77.8921 2.11283C77.9093 2.37261 77.8749 2.6497 77.7715 2.96144C77.6681 3.25585 77.5475 3.5849 77.3752 3.94859C77.0651 4.65864 76.7033 5.54188 76.2726 6.56367C75.8419 7.60278 75.3939 8.71116 74.9115 9.92345C74.4291 11.1357 73.9294 12.4 73.4298 13.7162C72.9302 15.0324 72.4305 16.2966 71.9481 17.5436C71.4657 18.7905 71.0178 19.9681 70.6043 21.0765C70.2425 22.2369 69.8807 23.1894 69.5705 24.0033Z" fill="#142735"/>
<path d="M114.055 16.1754C114.572 17.457 113.383 19.8123 112.849 20.9726C112.143 22.4966 110.954 24.0033 110.437 25.5966C109.799 27.5709 112.642 25.7871 113.211 25.4581C114.882 24.5056 116.467 23.3625 117.931 22.0983C118.569 21.5441 120.619 18.9117 121.188 20.7475C121.687 22.3408 120.068 23.8821 119.017 24.7653C116.364 26.9648 112.608 29.6665 109.334 30.8614C108.145 31.2944 107.094 30.5497 106.664 29.7011C105.94 28.2983 106.233 26.6877 106.733 25.3542C107.25 23.986 107.956 22.6871 108.593 21.3709C109.059 20.4184 110.575 17.7167 108.387 17.9765C105.096 18.3748 102.942 22.4793 101.478 25.0251C100.72 26.3413 100.22 27.7268 99.531 29.0776C98.928 30.2553 97.2568 31.8832 96.0852 30.238C95.241 29.043 96.3264 27.034 96.7571 25.8737C97.4979 23.8994 98.2905 21.9424 99.1002 20.0028C99.6688 18.6 100.117 16.4352 101.495 15.6039C103.321 14.4955 104.286 16.4698 103.683 18.0285C104.941 16.1754 107.25 15.0497 109.386 14.6514C111.023 14.357 113.314 14.3223 114.055 16.1754Z" fill="#142735"/>
<path d="M124.255 15.4653C124.255 15.9329 124.1 16.4698 123.928 16.9547C123.704 17.5955 123.462 18.2363 123.238 18.8944C122.79 20.1586 122.377 21.4229 122.067 22.7218C121.791 23.8128 121.395 25.3022 121.912 26.376C122.446 27.4843 124.772 26.6357 126.081 24.9212C127.735 22.7218 128.907 20.7301 130.182 18.2536C130.75 17.1452 131.353 15.881 132.266 14.9977C133.024 14.2704 134.23 14.3223 134.696 15.3441C134.696 15.3441 136.315 18.3229 129.32 26.6704C127.873 28.4022 124.686 31.381 121.136 30.9653C118.259 30.619 117.622 27.5363 117.863 25.0598C118.139 22.3234 119.052 19.6391 119.913 17.0413C119.913 17.0413 120.723 14.2011 122.567 14.1838C124.22 14.1491 124.255 15.4653 124.255 15.4653Z" fill="#142735"/>
<path d="M150.149 16.9547C150.58 16.4178 150.632 15.4827 151.045 14.9458C151.7 14.1145 153.595 14.7726 153.63 15.9849C153.664 17.405 153.096 18.167 151.579 19.691C151.011 20.2625 148.358 23.2933 147.152 24.5748C145.308 26.4972 142.31 30.6016 139.502 30.9653C138.193 31.1385 136.866 30.7748 136.022 29.6491C135.16 28.5061 135.143 26.8089 135.402 25.4581C135.712 23.8128 136.401 22.3061 136.935 20.7128C137.452 19.2234 137.969 17.734 138.52 16.2447C139.089 15.067 140.656 14.1491 141.621 14.6167C142.965 15.2575 142.345 17.353 141.897 18.4614C141.414 19.7084 140.966 20.9726 140.484 22.2195C140.053 23.3625 139.33 24.9558 139.623 26.2028C139.984 27.6921 143.189 25.2329 144.137 24.0553C144.154 24.0553 145.636 22.5832 150.149 16.9547ZM140.467 11.1011C140.329 9.6117 141.328 8.15696 142.81 7.86254C144.016 7.62008 145.446 7.87986 145.601 9.33461C145.739 10.6508 144.877 12.0363 143.568 12.3653C142.431 12.6251 140.743 12.5212 140.467 11.1011Z" fill="#142735"/>
<path d="M151.631 20.2625C150.959 19.1368 147.6 18.7212 148.737 15.5173C149.65 12.9368 152.234 12.7117 153.285 13.2486C154.457 13.8547 155.163 16.0022 153.664 17.5435C156.404 20.072 158.488 22.9815 157.42 26.3067C156.249 29.9782 152.407 31.5715 149.46 30.7921C146.48 29.9955 145.17 28.2983 145.17 26.4279C145.17 25.4754 145.532 24.419 146.704 24.1938C148.599 23.8301 148.806 28.1424 150.666 27.848C158.282 26.6704 151.631 20.2625 151.631 20.2625Z" fill="#142735"/>
<path d="M177.044 19.9335C175.924 21.3536 174.442 23.4665 173.219 24.8C171.393 26.8262 168.378 30.567 165.552 30.9307C164.243 31.1039 163.037 30.7748 162.193 29.6491C161.331 28.5061 161.314 26.8089 161.572 25.4581C161.883 23.8128 162.572 22.3061 163.106 20.7128C163.623 19.2234 164.26 17.3877 164.829 15.8983C165.397 14.7206 166.483 13.7854 167.982 14.2704C169.394 14.7206 168.654 17.0067 168.223 18.1324C167.74 19.3793 167.172 20.9899 166.689 22.2368C166.259 23.3799 165.535 24.9732 165.828 26.2201C166.19 27.7095 169.257 25.1983 170.204 24.0726C170.204 24.0726 170.583 23.7435 174.735 18.4095L177.044 19.9335ZM166.655 11.1011C166.517 9.6117 167.516 8.15696 168.998 7.86254C170.204 7.62008 171.634 7.87986 171.789 9.33461C171.927 10.6508 171.066 12.0363 169.756 12.3653C168.619 12.6251 166.931 12.5212 166.655 11.1011Z" fill="#142735"/>
<path d="M193.842 18.5481C193.635 19.0849 192.998 19.8123 192.998 19.8123C192.653 20.1587 192.274 20.5051 191.878 20.8687C191.482 21.2151 191.086 21.5268 190.689 21.8039C190.293 22.081 189.914 22.3062 189.535 22.4794C189.156 22.6525 188.829 22.7391 188.518 22.7391C188.294 22.7391 188.088 22.7045 187.915 22.6179C187.726 22.5486 187.554 22.4101 187.416 22.2369C187.657 21.6308 187.829 21.0419 187.95 20.4704C188.07 19.8989 188.122 19.414 188.139 18.9637C188.139 18.1151 187.967 17.4051 187.623 16.8162C187.261 16.2447 186.83 15.7771 186.279 15.4134C185.745 15.0671 185.245 14.8246 184.607 14.6861C183.97 14.5302 183.246 14.5129 182.695 14.5129C181.42 14.5129 180.283 14.6341 179.232 15.0497C178.181 15.4654 177.251 16.0023 176.424 16.6777C175.597 17.3531 174.89 18.1151 174.305 18.981C173.719 19.8296 173.219 20.6956 172.823 21.5615C172.427 22.4274 172.134 23.276 171.944 24.09C171.755 24.9039 171.651 25.614 171.651 26.2028C171.651 27.0687 171.806 27.7961 172.151 28.4023C172.478 29.0084 172.892 29.4933 173.374 29.8743C173.857 30.2553 174.374 30.5151 174.908 30.6883C175.442 30.8442 175.959 31 176.596 31.0173C177.578 31.0173 178.422 30.8268 179.387 30.5497C180.335 30.29 181.231 29.909 182.058 29.424C182.885 28.9391 183.625 28.3676 184.315 27.6922C184.987 27.0168 185.59 26.2721 186.124 25.4581C186.485 25.7179 186.847 25.9084 187.209 26.0296C187.571 26.1509 187.933 26.2028 188.312 26.2028C188.863 26.2028 189.414 26.047 189.983 25.7525C190.534 25.4408 191.068 25.0771 191.585 24.6442C192.102 24.2112 192.584 23.7436 193.032 23.2414C193.48 22.7391 193.894 22.3062 194.238 21.9252C194.859 21.3883 195.272 20.8687 195.496 20.3665C195.72 19.8643 195.841 19.4313 195.841 19.0503C195.841 18.6693 195.772 18.3749 195.6 18.1671C195.444 17.9592 195.255 17.8553 195.048 17.838C195.048 17.8553 194.032 18.0112 193.842 18.5481ZM183.109 23.2067C182.816 23.9341 182.419 24.5922 181.92 25.1637C181.42 25.7352 180.852 26.2028 180.214 26.5665C179.577 26.9302 178.922 27.1034 178.25 27.0861C177.819 27.0861 177.458 26.9821 177.199 26.7916C176.941 26.6011 176.734 26.3587 176.596 26.0816C176.458 25.7872 176.372 25.4928 176.32 25.1637C176.286 24.8347 176.251 24.5229 176.251 24.2458C176.251 23.5011 176.407 22.7738 176.699 22.0637C176.992 21.3537 177.389 20.7129 177.871 20.1587C178.353 19.6045 178.922 19.1542 179.559 18.8078C180.197 18.4615 180.852 18.3056 181.541 18.3056C181.989 18.3056 182.351 18.3922 182.609 18.5654C182.867 18.7386 183.074 18.9464 183.212 19.2235C183.35 19.4833 183.436 19.7777 183.47 20.0894C183.505 20.4011 183.522 20.7129 183.522 21.0073C183.539 21.7347 183.401 22.462 183.109 23.2067Z" fill="#142735"/>
<path d="M194.687 16.1754C195.582 13.8201 199.097 12.9888 198.27 16.5737C198.253 16.6603 197.943 17.5782 197.908 17.6648C199.373 15.4134 202.733 13.7855 205.506 14.8072C209.056 16.1061 207.057 20.6609 205.989 22.7564C205.644 23.4145 203.818 26.3067 204.714 26.8782C205.541 27.4151 208.659 24.1765 209.314 23.6223C210.21 22.8603 210.382 22.5832 211.881 21.648C213.449 20.6609 214.569 21.9944 213.673 23.5704C211.657 27.0687 200.338 35.1391 200.252 28.3329C200.234 26.5665 201.509 23.8302 202.233 22.2542C202.664 21.319 204.266 18.929 203.68 17.9072C202.026 15.0151 196.892 22.8084 196.289 23.8821C195.255 25.7352 194.687 27.848 193.636 29.6665C192.688 31.2944 190.155 31.6235 190.086 29.4067C190.035 27.6056 191.31 25.1637 191.913 23.5357C192.688 21.4402 193.532 19.3793 194.29 17.2838C194.342 17.1972 194.652 16.2793 194.687 16.1754Z" fill="#142735"/>
<path d="M99.3076 25.4235C98.8596 26.6185 97.5158 28.1771 96.4993 28.714C91.8302 31.2425 84.2495 32.3682 79.7183 28.385C76.0486 25.1637 77.1685 18.8425 78.788 15.985C80.5625 12.833 83.2847 11.3783 86.5237 10.9453C84.6802 2.37267 91.9164 0.207862 91.9164 0.207862C94.6213 -0.484875 97.7742 0.692779 99.187 2.38999C99.187 2.38999 103.511 6.54641 99.7727 7.53356C98.3772 7.91457 98.0843 6.33859 97.2918 5.43803C95.9996 3.98328 94.8281 3.35982 92.9156 4.06987C92.9156 4.06987 88.1949 5.55926 91.21 10.7548C92.8123 10.7548 92.8812 12.4866 91.4512 13.1101C90.2107 13.6643 88.7118 13.7336 87.3852 13.8202C84.5596 13.976 83.4225 15.5174 82.7678 16.7123C81.4584 19.1369 80.7693 23.5877 83.1641 26.2028C84.9904 28.2118 88.4534 27.9 90.8137 27.2766C92.0197 26.9475 93.8805 26.2894 94.897 25.5274C94.897 25.5274 97.7742 23.5358 98.9285 21.1978C100.083 18.8598 99.3076 25.4235 99.3076 25.4235Z" fill="#142735"/>
<path d="M15.0924 14.5129C14.1276 14.5129 13.3523 14.7727 13.3523 14.7727C12.7148 14.9805 12.3014 15.2056 12.1291 15.4827C11.9568 15.7598 11.9223 16.1062 12.0601 16.5218C12.0601 16.5218 12.801 18.2017 15.0924 18.3749" fill="#142735"/>
<path d="M35.5435 14.5128H15.0928V18.3575H19.1588C16.161 28.5927 9.25224 26.8955 9.25224 26.8955C8.21851 26.7223 7.18477 26.272 6.66791 25.8218C3.35996 22.9988 4.06634 20.3838 5.23791 16.5564C5.23791 16.5564 8.28742 6.85807 14.6793 4.32957C16.6607 3.55025 19.1588 4.10444 19.6413 5.83628C19.9686 6.9793 19.5723 8.08767 21.1057 8.24354C22.2428 8.34745 23.4144 7.39494 23.1215 5.78432C21.8121 -1.80115 13.4733 0.900524 13.4733 0.900524C13.4733 0.900524 7.33983 2.61505 1.20635 15.829C-0.912806 20.3838 -0.292566 25.7005 3.54948 28.8525C8.30465 32.7491 15.1962 30.6882 18.3663 27.7268C19.1072 27.034 20.1581 25.8391 20.8128 24.5229C21.8982 22.3407 22.6391 20.7648 23.1043 18.3748H35.5435V14.5128Z" fill="#142735"/>
<path d="M155.887 19.9855C155.887 19.9855 160.453 26.2374 163.485 18.8252C167.034 10.1313 163.967 21.5441 163.967 21.5441C163.967 21.5441 163.83 25.1983 160.039 25.8391C155.37 26.6358 155.887 19.9855 155.887 19.9855Z" fill="#142735"/>
<path d="M141.329 18.3576H137.4H133.334V14.4955H141.07L141.329 18.3576Z" fill="#142735"/>
</g>
<defs>
<clipPath id="clip0">
<rect width="214" height="31" fill="white"/>
</clipPath>
</defs>
</svg>
