<svg width="529" height="514" viewBox="0 0 529 514" fill="none" xmlns="http://www.w3.org/2000/svg">
<g clip-path="url(#clip0)">
<path d="M376.166 121.078C383.626 91.1809 375.716 56.8124 355.129 35.9812C307.244 -12.4499 252.659 -1.89378 197.054 10.1529C107.771 29.5302 50.2923 111.475 66.3014 186.809C78.16 242.412 86.7931 246.175 97.1338 287.825C115.894 363.319 4.56557 456.283 105.103 501.074C210.063 547.819 258.351 452.02 367.486 462.857C547.891 471.519 570.446 307.765 468.58 244.733C388.238 194.971 361.794 178.758 376.166 121.078Z" fill="#9FE4FF"/>
<path d="M224.566 176.558C230.977 194.467 241.205 210.667 254.497 223.963C263.676 233.114 263.486 248.68 268.111 260.946C268.936 263.579 270.174 266.055 271.775 268.277C273.853 270.517 276.308 272.351 279.021 273.689L293.465 282.022C297.591 284.392 302.536 286.811 306.805 284.734C310.363 283.024 311.917 278.906 313.233 275.155C316.174 266.762 319.103 257.403 315.747 249.168C314.227 245.825 312.093 242.817 309.462 240.311C306.276 237.041 302.762 234.129 298.979 231.624C294.686 228.765 290.026 226.419 286.207 222.925C283.091 219.846 280.326 216.411 277.965 212.686L264.043 192.454C257.711 183.254 251.224 173.651 249.244 162.557C240.765 163.705 231.764 165.086 225.242 170.792C223.475 172.307 222.467 175.654 224.566 176.558Z" fill="white"/>
<path d="M224.625 176.497C229.004 188.052 234.94 198.915 242.259 208.764C245.872 213.687 249.836 218.327 254.118 222.644C254.651 223.169 255.185 223.731 255.707 224.318C256.254 224.882 256.761 225.487 257.225 226.126C258.173 227.38 259.014 228.717 259.739 230.121C261.136 232.919 262.249 235.859 263.059 238.893C264.743 244.904 265.692 251.038 267.364 256.951C268.181 259.893 269.249 262.755 270.554 265.504C271.97 268.182 274.096 270.39 276.685 271.869C281.843 275.009 287.144 277.978 292.362 281.069C294.893 282.715 297.635 283.99 300.509 284.856C301.931 285.254 303.421 285.325 304.873 285.064C306.31 284.772 307.636 284.06 308.691 283.012C310.826 280.91 311.893 277.929 312.901 275.046C313.909 272.162 314.857 269.193 315.569 266.212C316.334 263.25 316.732 260.2 316.755 257.134C316.743 254.105 316.074 251.116 314.798 248.386C313.396 245.711 311.591 243.282 309.45 241.19C307.342 239.021 305.092 237.004 302.714 235.155C297.971 231.355 292.516 228.838 287.583 225.038C282.65 221.239 279.211 215.79 275.724 210.793L265.3 195.594C261.838 190.548 258.339 185.465 255.316 180.04C252.172 174.662 249.958 168.763 248.77 162.606L249.28 162.997C243.947 163.491 238.683 164.58 233.579 166.247C231.05 167.148 228.656 168.406 226.464 169.985C225.925 170.38 225.414 170.813 224.934 171.28C224.481 171.768 224.116 172.335 223.855 172.954C223.587 173.571 223.473 174.247 223.523 174.921C223.547 175.263 223.663 175.592 223.858 175.87C224.053 176.148 224.318 176.365 224.625 176.497ZM224.519 176.607C224.196 176.473 223.915 176.251 223.706 175.965C223.497 175.679 223.368 175.339 223.333 174.982C223.247 174.272 223.345 173.551 223.618 172.893C223.871 172.226 224.236 171.61 224.697 171.073C225.185 170.583 225.7 170.122 226.238 169.692C228.415 168.012 230.81 166.655 233.353 165.66C238.478 163.868 243.779 162.667 249.161 162.08L249.6 162.019L249.683 162.471C250.947 168.485 253.214 174.227 256.383 179.442C259.419 184.744 263.047 189.68 266.51 194.751L276.969 209.913C280.527 214.947 283.752 220.188 288.46 223.841C293.168 227.494 298.742 230.145 303.521 234.067C305.932 235.978 308.207 238.064 310.328 240.311C312.53 242.53 314.372 245.1 315.782 247.922C317.091 250.817 317.752 253.978 317.715 257.171C317.645 260.313 317.187 263.433 316.352 266.457C315.581 269.487 314.549 272.419 313.518 275.327C312.486 278.234 311.312 281.24 309.035 283.464C307.9 284.57 306.479 285.316 304.944 285.614C303.42 285.887 301.857 285.807 300.366 285.382C297.448 284.472 294.658 283.174 292.065 281.521L276.27 272.48C274.946 271.69 273.706 270.761 272.57 269.706C271.436 268.619 270.483 267.348 269.747 265.943C268.352 263.159 267.201 260.252 266.308 257.257C264.47 251.294 263.439 245.161 261.767 239.26C260.095 233.359 257.592 227.714 253.181 223.548C248.89 219.157 244.926 214.44 241.322 209.436C237.733 204.426 234.507 199.15 231.669 193.651C228.863 188.162 226.457 182.465 224.471 176.607H224.519Z" fill="black"/>
<path d="M236.816 145.477C238.86 145.477 240.516 143.77 240.516 141.665C240.516 139.559 238.86 137.853 236.816 137.853C234.773 137.853 233.116 139.559 233.116 141.665C233.116 143.77 234.773 145.477 236.816 145.477Z" fill="white"/>
<path d="M241.228 157.682C243.271 157.682 244.927 155.975 244.927 153.87C244.927 151.765 243.271 150.058 241.228 150.058C239.184 150.058 237.528 151.765 237.528 153.87C237.528 155.975 239.184 157.682 241.228 157.682Z" fill="white"/>
<path d="M197.197 110.179C203.944 134.933 209.589 161.494 223.606 182.753C225.918 176.021 231.753 171.048 238.192 168.434C244.631 165.819 251.687 165.245 258.612 165.098C250.548 160.846 247.145 150.975 244.892 141.885C239.431 119.917 236.517 97.3609 236.211 74.687C236.061 50.1821 238.313 25.7243 242.935 1.68604C227.804 3.56757 212.482 6.79303 197.09 10.1285C189.8 11.7214 182.609 13.7613 175.555 16.2373C175.389 30.1045 179.112 43.7028 182.67 57.0568C187.5 74.7725 192.342 92.4801 197.197 110.179Z" fill="#FF710F"/>
<path d="M313.411 336.22C314.475 318.673 309.666 301.28 299.785 286.946C295.492 280.763 290.215 275.094 287.749 267.935C286.504 264.355 286.017 260.482 284.369 257.073C282.389 252.931 278.819 250.317 275.689 247.018C274.242 245.491 272.724 243.841 272.309 241.74C271.894 239.639 273.139 237.061 275.214 236.951C276.708 236.877 277.965 238.038 279.033 239.113C288.78 248.887 299.892 258.772 313.423 260.164C314.373 260.344 315.353 260.22 316.233 259.81C318.154 258.649 317.668 255.461 316.043 253.884C314.419 252.308 312.154 251.697 310.28 250.451C306.153 247.739 304.481 242.51 302.05 238.124C297.971 230.793 291.045 228.557 286.385 223.267C289.86 221.434 292.468 220.823 295.599 223.267C300.675 227.152 305.663 231.151 310.565 235.265C312.652 236.884 314.536 238.763 316.174 240.86C320.229 246.432 320.609 253.921 320.146 260.861C319.684 267.8 318.545 274.875 320.146 281.631C321.534 287.569 324.89 292.773 327.89 298.064C333.329 307.792 337.53 318.202 340.389 329.036C340.842 330.238 340.871 331.565 340.472 332.787C339.737 334.35 337.828 334.815 336.167 335.096C327.866 336.472 319.522 337.503 311.134 338.187C311.917 337.698 312.604 336.696 313.411 336.22Z" fill="white"/>
<path d="M313.411 336.22C314.356 318.329 309.201 300.661 298.837 286.274C296.287 282.706 293.488 279.31 291.093 275.571C289.88 273.704 288.825 271.734 287.938 269.682C287.115 267.605 286.452 265.465 285.958 263.28C285.473 261.148 284.77 259.076 283.859 257.098C282.853 255.183 281.556 253.446 280.017 251.954C278.499 250.402 276.863 248.961 275.274 247.36C273.684 245.76 272.095 244.037 271.716 241.557C271.551 240.315 271.834 239.055 272.51 238.014C272.851 237.455 273.338 237.007 273.915 236.722C274.492 236.437 275.136 236.325 275.772 236.401C276.94 236.656 278.007 237.27 278.831 238.16L281.203 240.469C284.298 243.538 287.544 246.441 290.927 249.168C294.297 251.867 297.939 254.185 301.789 256.084C305.629 257.945 309.754 259.103 313.98 259.505C314.405 259.588 314.844 259.563 315.257 259.431C315.671 259.298 316.047 259.064 316.352 258.747C316.586 258.37 316.731 257.941 316.776 257.496C316.821 257.051 316.765 256.601 316.613 256.181C316.138 254.251 314.241 253.261 312.308 252.333C311.281 251.875 310.299 251.315 309.379 250.659C308.451 249.962 307.617 249.14 306.9 248.215C305.54 246.422 304.375 244.48 303.426 242.424C302.526 240.448 301.484 238.545 300.307 236.731C299.066 234.989 297.615 233.417 295.99 232.051C292.741 229.29 288.875 227.079 285.839 223.658L285.235 222.974L286.041 222.57C287.59 221.663 289.307 221.101 291.081 220.921C292.931 220.915 294.724 221.581 296.145 222.803C298.848 224.892 301.517 227.005 304.173 229.144C306.829 231.282 309.45 233.469 312.047 235.692C313.378 236.809 314.62 238.034 315.759 239.358C316.897 240.716 317.843 242.234 318.569 243.866C319.919 247.131 320.659 250.63 320.751 254.178C320.847 257.674 320.704 261.173 320.324 264.648C319.952 268.076 319.774 271.523 319.791 274.972C319.824 278.392 320.443 281.78 321.617 284.979C322.878 288.171 324.397 291.249 326.159 294.179C327.866 297.16 329.562 300.177 331.104 303.269C334.184 309.466 336.774 315.909 338.847 322.536C339.357 324.198 339.844 325.859 340.282 327.533C340.508 328.376 340.757 329.195 340.911 330.086C341.118 330.991 341.043 331.94 340.697 332.799C340.28 333.635 339.567 334.273 338.705 334.583C337.904 334.904 337.068 335.121 336.215 335.23L331.21 335.988C324.538 336.924 317.842 337.641 311.122 338.138H311.039H311.122C311.964 337.588 312.533 336.745 313.411 336.22ZM313.411 336.22C312.569 336.757 312.011 337.649 311.169 338.187C317.881 337.592 324.566 336.778 331.222 335.743L336.203 334.925C337.015 334.8 337.811 334.578 338.575 334.265C339.316 333.98 339.926 333.417 340.282 332.689C340.923 331.198 340.199 329.463 339.772 327.802C339.345 326.14 338.8 324.491 338.266 322.841C336.127 316.284 333.506 309.905 330.428 303.757C328.874 300.691 327.19 297.71 325.459 294.728C323.66 291.764 322.105 288.65 320.81 285.418C319.569 282.124 318.91 278.628 318.866 275.094C318.833 271.606 318.992 268.118 319.34 264.648C319.703 261.225 319.83 257.779 319.72 254.337C319.62 250.932 318.896 247.579 317.585 244.452C316.123 241.41 313.981 238.768 311.335 236.743C308.738 234.544 306.106 232.394 303.449 230.268C300.793 228.142 298.125 226.052 295.421 223.988C294.242 222.95 292.739 222.386 291.188 222.399C289.606 222.58 288.079 223.1 286.705 223.927L286.895 222.827C289.729 226.004 293.536 228.166 296.951 231.025C298.685 232.436 300.229 234.08 301.54 235.912C302.75 237.798 303.821 239.774 304.742 241.826C305.639 243.789 306.736 245.649 308.015 247.372C309.337 248.994 311.027 250.253 312.936 251.038C313.963 251.511 314.944 252.084 315.865 252.748C316.355 253.118 316.787 253.563 317.146 254.068C317.495 254.588 317.763 255.161 317.941 255.766C318.151 256.397 318.213 257.07 318.122 257.73C318.032 258.391 317.791 259.02 317.419 259.566C316.992 260.112 316.406 260.502 315.747 260.678C315.153 260.823 314.54 260.869 313.933 260.812C309.552 260.372 305.279 259.152 301.303 257.208C297.381 255.244 293.672 252.856 290.239 250.085C286.839 247.318 283.581 244.369 280.479 241.251L278.108 238.942C277.437 238.212 276.577 237.694 275.629 237.452C275.186 237.403 274.739 237.483 274.338 237.684C273.938 237.885 273.6 238.198 273.364 238.588C272.835 239.412 272.611 240.406 272.736 241.386C273.032 243.389 274.526 245.051 276.009 246.615C277.491 248.179 279.128 249.645 280.669 251.233C282.263 252.808 283.607 254.63 284.654 256.633C285.586 258.678 286.302 260.82 286.788 263.023C287.267 265.166 287.909 267.265 288.709 269.303C289.559 271.32 290.574 273.257 291.745 275.094C294.117 278.76 296.868 282.181 299.418 285.785C309.67 300.39 314.622 318.239 313.411 336.22Z" fill="black"/>
<path d="M348.738 462.014C353.671 434.707 353.078 406.496 351.109 378.713C350.516 370.161 349.781 361.462 347.397 353.202C344.86 344.455 340.448 335.646 342.12 326.678C331.779 330.038 321.079 332.089 310.256 332.787C310.256 332.787 328.412 385.433 279.566 476.223C300.461 468.318 322.898 462.209 348.738 462.014Z" fill="#55C6FF"/>
<path d="M110.819 79.0976C115.338 80.4306 119.532 82.7373 123.122 85.865C126.712 88.9928 129.616 92.8703 131.642 97.241C133.488 101.138 134.415 105.429 134.346 109.764C134.073 117.828 129.52 125.378 123.199 130.143C116.878 134.908 108.969 137.046 101.13 137.291C98.3038 137.435 95.4715 137.184 92.7105 136.545C80.2115 133.405 72.5509 119.575 71.7801 106.343C71.2933 101.258 72.1111 96.1311 74.1518 91.4742C79.9743 79.5375 99.4936 75.8355 110.819 79.0976Z" fill="white"/>
<path d="M110.854 78.9755C118.649 81.2421 125.462 86.1761 130.172 92.9648C132.566 96.4061 134.209 100.341 134.986 104.498C135.768 108.721 135.403 113.084 133.931 117.107C132.44 121.048 130.119 124.599 127.136 127.504C124.183 130.355 120.752 132.628 117.009 134.212C113.307 135.803 109.414 136.871 105.435 137.388C101.444 137.987 97.3894 137.987 93.3983 137.388C89.3384 136.614 85.5451 134.761 82.3935 132.013C79.2478 129.282 76.6703 125.924 74.8159 122.141C72.9145 118.4 71.6055 114.37 70.9381 110.204C70.2384 106.02 70.2384 101.743 70.9381 97.5587C71.3252 95.4469 71.9707 93.3942 72.8592 91.4498C73.3098 90.4724 73.9265 89.556 74.472 88.6153L75.4799 87.3935C75.8033 86.9574 76.1602 86.5488 76.5472 86.1717C79.5687 83.2627 83.1946 81.1023 87.1488 79.8551C90.9862 78.5855 94.9787 77.8821 99.0074 77.7659C102.993 77.5694 106.984 77.9769 110.854 78.9755ZM110.783 79.2076C106.941 78.2346 102.963 77.9699 99.0311 78.4257C95.125 78.8228 91.2971 79.8109 87.6706 81.3579C84.1185 82.8273 80.8916 85.0216 78.1837 87.8089C75.6197 90.639 73.9636 94.2137 73.4403 98.0474C72.8295 101.944 72.8295 105.916 73.4403 109.813C73.9914 113.743 75.1441 117.557 76.8555 121.114C78.5328 124.679 80.8506 127.883 83.6861 130.559L84.7771 131.536C85.1447 131.842 85.5479 132.11 85.963 132.404C86.7428 132.977 87.5545 133.504 88.394 133.98C89.2359 134.432 90.1135 134.835 91.0029 135.201C91.8923 135.568 92.8172 135.861 93.754 136.069C97.5977 136.874 101.543 137.027 105.435 136.521C109.353 136.121 113.187 135.091 116.795 133.467C120.38 131.879 123.603 129.538 126.258 126.592C128.912 123.647 130.94 120.162 132.211 116.362C133.427 112.643 133.724 108.671 133.077 104.804C132.404 100.892 131.042 97.1405 129.057 93.7345C124.989 86.666 118.451 81.4685 110.783 79.2076Z" fill="black"/>
<path d="M103.561 123.546C113.012 123.546 120.673 115.652 120.673 105.915C120.673 96.1786 113.012 88.2853 103.561 88.2853C94.1104 88.2853 86.4492 96.1786 86.4492 105.915C86.4492 115.652 94.1104 123.546 103.561 123.546Z" fill="#FF710F"/>
<path d="M120.78 105.915C120.804 110.669 119.171 115.273 116.179 118.891C114.608 120.745 112.657 122.215 110.466 123.196C108.276 124.177 105.901 124.642 103.514 124.56C101.159 124.457 98.8476 123.867 96.7187 122.825C93.5934 121.271 90.929 118.883 89.0022 115.909C87.0753 112.936 85.9563 109.485 85.7613 105.915C85.6474 103.479 86.0201 101.044 86.8564 98.7616C87.6928 96.4793 88.9749 94.3982 90.6234 92.647C92.2951 90.8679 94.2894 89.4441 96.4934 88.4563C98.7071 87.4726 101.095 86.9733 103.506 86.9902C105.917 87.007 108.298 87.5396 110.498 88.5541C112.67 89.5541 114.602 91.0349 116.155 92.8914C119.174 96.5138 120.817 101.141 120.78 105.915ZM120.543 105.915C120.531 103.626 120.025 101.368 119.06 99.3057C118.105 97.2851 116.757 95.4885 115.1 94.0276C111.887 91.1488 107.772 89.5648 103.514 89.5682C99.3008 89.5811 95.2526 91.2555 92.2006 94.2475C89.1256 97.3243 87.2881 101.481 87.0539 105.891C86.9504 108.136 87.3017 110.379 88.0856 112.476C88.8632 114.586 90.0772 116.495 91.6432 118.072C93.2251 119.607 95.0925 120.796 97.1328 121.566C99.173 122.337 101.344 122.674 103.514 122.556C107.772 122.385 111.848 120.731 115.076 117.864C116.729 116.389 118.076 114.586 119.037 112.562C120.015 110.49 120.529 108.219 120.543 105.915Z" fill="black"/>
<path d="M109.502 89.2505C112.385 87.4657 115.635 86.4028 118.989 86.1472C119.327 86.8995 119.464 87.7313 119.385 88.5563C119.306 89.3813 119.013 90.1695 118.539 90.8388C117.685 92.2439 116.463 93.3679 115.55 94.7363" fill="black"/>
<path d="M347.765 120.931L309.379 143.668L290.453 108.066L322.933 80.0995L347.765 120.931Z" fill="#FF710F"/>
<path d="M338.397 118.268C337.745 118.439 337.092 118.585 336.44 118.72L336.594 118.488C336.799 119.235 336.827 120.023 336.677 120.784V121.065L336.393 120.992C335.819 120.796 335.203 120.766 334.614 120.907C334.104 121.078 333.902 121.627 333.606 122.287C333.447 122.653 333.192 122.966 332.871 123.191C332.684 123.311 332.473 123.386 332.254 123.411C332.03 123.417 331.809 123.349 331.626 123.216C331.282 122.971 331.128 122.678 330.902 122.617C330.776 122.581 330.643 122.583 330.518 122.624C330.394 122.666 330.284 122.744 330.203 122.849C329.764 123.314 329.491 123.961 329.017 124.511C328.915 124.671 328.778 124.804 328.618 124.899C328.457 124.995 328.277 125.05 328.092 125.061C327.689 125.061 327.404 124.755 327.155 124.731C326.906 124.706 326.728 125.012 326.55 125.281C326.374 125.559 326.223 125.854 326.099 126.16C325.86 126.808 325.583 127.441 325.269 128.054C324.913 128.718 324.367 129.251 323.704 129.581C323.33 129.746 322.922 129.809 322.518 129.764C322.376 129.749 322.233 129.749 322.091 129.764C322.002 129.77 321.917 129.809 321.854 129.874C321.7 130.021 321.498 130.351 321.297 130.607L320.704 131.438C320.502 131.707 320.324 131.976 320.087 132.269C319.825 132.605 319.469 132.848 319.067 132.966C318.658 133.029 318.24 132.947 317.881 132.733C317.618 132.57 317.335 132.443 317.039 132.355C316.459 132.23 315.853 132.335 315.344 132.648C314.294 133.41 313.473 134.46 312.972 135.678H312.913C313.264 134.306 314.038 133.088 315.118 132.208C315.742 131.778 316.498 131.6 317.241 131.707C318.012 131.866 318.581 132.367 318.972 132.232C319.364 132.098 319.731 131.512 320.158 131.011L320.751 130.204C320.965 129.903 321.198 129.617 321.451 129.349C321.644 129.189 321.88 129.095 322.127 129.08C322.312 129.064 322.499 129.064 322.684 129.08C322.956 129.126 323.234 129.096 323.491 128.995C324.041 128.726 324.505 128.303 324.831 127.773C325.174 127.235 325.459 126.612 325.779 126.001C325.938 125.69 326.121 125.392 326.325 125.11C326.433 124.969 326.547 124.835 326.669 124.706C326.741 124.628 326.83 124.567 326.929 124.529C327.027 124.491 327.133 124.477 327.238 124.486C327.641 124.572 327.855 124.865 328.151 124.853C328.3 124.841 328.445 124.793 328.573 124.712C328.701 124.631 328.808 124.52 328.886 124.389C329.278 123.876 329.515 123.167 329.965 122.654C330.019 122.58 330.083 122.514 330.155 122.458C330.225 122.384 330.31 122.325 330.404 122.287C330.595 122.188 330.815 122.166 331.021 122.226C331.46 122.336 331.673 122.69 331.898 122.8C332.124 122.91 332.8 122.568 333.013 122.031C333.144 121.704 333.294 121.385 333.464 121.078C333.681 120.72 334.012 120.452 334.4 120.32C335.111 120.146 335.856 120.202 336.535 120.479L336.191 120.687C336.382 120.016 336.415 119.308 336.286 118.622V118.402H336.476C337.14 118.341 337.816 118.28 338.48 118.243L338.397 118.268Z" fill="white"/>
<path d="M335.136 113.1L333.108 114.175C332.432 114.529 331.768 114.908 331.104 115.299L330.546 115.629L330.701 114.969C330.701 114.923 330.689 114.879 330.666 114.84C330.643 114.801 330.61 114.769 330.57 114.749C330.514 114.724 330.453 114.711 330.392 114.711C330.331 114.711 330.271 114.724 330.214 114.749C329.871 114.884 329.551 115.073 329.266 115.311C328.602 115.775 327.938 116.252 327.297 116.753C326.008 117.746 324.816 118.867 323.74 120.1C322.675 121.365 321.767 122.76 321.036 124.254C320.405 125.845 319.519 127.315 318.415 128.604L317.965 129.056L317.834 128.408C317.743 127.881 317.504 127.393 317.146 127.003C316.802 126.722 316.601 126.869 316.103 127.358C315.196 128.19 314.228 128.95 313.209 129.63C312.188 130.309 311.122 130.913 310.019 131.438C308.924 131.943 307.789 132.351 306.628 132.66C307.719 132.147 308.786 131.609 309.83 130.999C310.862 130.396 311.863 129.74 312.83 129.031C313.79 128.323 314.703 127.553 315.593 126.759C315.837 126.493 316.132 126.281 316.458 126.136C316.676 126.075 316.905 126.075 317.123 126.136C317.322 126.2 317.507 126.304 317.668 126.441C318.141 126.956 318.447 127.609 318.546 128.311L317.965 128.115C319.043 126.899 319.964 125.544 320.704 124.083C321.571 122.648 322.534 121.276 323.585 119.978C324.608 118.655 325.743 117.428 326.977 116.313C327.61 115.766 328.276 115.26 328.969 114.798C329.33 114.526 329.73 114.316 330.155 114.175C330.304 114.125 330.462 114.115 330.615 114.146C330.768 114.177 330.911 114.248 331.03 114.352C331.149 114.456 331.24 114.59 331.294 114.741C331.349 114.892 331.365 115.054 331.341 115.213L330.938 114.883C331.626 114.529 332.325 114.224 333.037 113.918C333.748 113.613 334.472 113.356 335.207 113.124L335.136 113.1Z" fill="white"/>
<path d="M332.8 108.151C332.895 108.283 332.938 108.447 332.921 108.611C332.903 108.774 332.826 108.924 332.705 109.031C332.595 109.158 332.456 109.254 332.3 109.312C332.145 109.369 331.979 109.386 331.815 109.361C331.231 109.15 330.75 108.711 330.475 108.139C330.264 107.674 329.915 107.289 329.479 107.04C329.259 107.003 329.034 107.027 328.826 107.108C328.618 107.19 328.434 107.326 328.293 107.504C327.938 107.883 327.57 108.347 327.19 108.726C326.811 109.104 326.42 109.569 326.005 109.947C325.234 110.79 324.439 111.621 323.633 112.489L323.55 112.586L323.455 112.489C323.165 112.239 322.811 112.082 322.435 112.039C322.06 111.995 321.68 112.067 321.344 112.244C320.653 112.629 320.038 113.142 319.53 113.759C318.427 114.981 317.3 116.13 316.198 117.315C315.095 118.5 313.98 119.758 312.842 120.87C311.703 121.982 310.6 123.216 309.45 124.364L309.284 123.986C309.487 123.985 309.688 124.032 309.87 124.123C310.053 124.214 310.214 124.347 310.339 124.511L310.505 124.743L310.245 124.804C309.614 124.933 308.966 124.933 308.335 124.804V124.731C308.954 124.751 309.571 124.664 310.162 124.474L310.079 124.755C309.977 124.649 309.855 124.566 309.72 124.514C309.585 124.461 309.44 124.439 309.296 124.45L308.774 124.511L309.13 124.071C310.138 122.788 311.217 121.554 312.296 120.332C313.375 119.111 314.525 117.95 315.676 116.802C316.826 115.653 318.047 114.517 319.233 113.442C319.822 112.847 320.503 112.36 321.249 112C321.636 111.824 322.062 111.762 322.48 111.82C322.899 111.878 323.294 112.055 323.621 112.33H323.443C324.167 111.438 324.854 110.509 325.554 109.605C326.238 108.67 326.971 107.772 327.748 106.917C327.981 106.683 328.254 106.497 328.554 106.368C328.89 106.233 329.262 106.233 329.598 106.368C330.149 106.68 330.57 107.188 330.784 107.797C330.961 108.3 331.317 108.715 331.78 108.958C332.159 109.117 332.883 108.64 332.622 108.127L332.8 108.151Z" fill="white"/>
<path d="M342.571 86.2327L316.375 129.08L262.952 92.6104L291.65 50.2393L342.571 86.2327Z" fill="#55C6FF"/>
<path d="M333.891 88.3465C333.065 88.645 332.309 89.1196 331.673 89.7393C331.088 90.333 330.642 91.0557 330.369 91.8529C330.082 92.6696 329.891 93.5186 329.799 94.382C329.682 95.2725 329.642 96.1721 329.681 97.0699V97.3632L329.503 97.4609C327.783 98.4627 326.183 99.599 324.546 100.76L322.174 102.421C321.431 102.899 320.809 103.552 320.36 104.327C319.919 105.151 319.55 106.014 319.257 106.905C318.925 107.822 318.617 108.762 318.285 109.703C317.644 111.585 316.992 113.491 316.186 115.348H316.043C316.214 113.332 316.523 111.331 316.968 109.361C317.087 108.86 317.182 108.359 317.324 107.87L317.751 106.404L318.32 104.95C318.553 104.457 318.822 103.983 319.127 103.533C319.728 102.618 320.544 101.875 321.498 101.371C322.4 100.894 323.313 100.552 324.19 100.149C325.977 99.3576 327.618 98.2539 329.04 96.8866L328.886 97.2776C328.627 96.3277 328.503 95.3442 328.519 94.3576C328.545 93.3401 328.771 92.3386 329.183 91.4131C329.601 90.4673 330.261 89.6564 331.092 89.0673C331.911 88.5151 332.876 88.2377 333.855 88.2732L333.891 88.3465Z" fill="#9FE4FF"/>
<path d="M325.815 86.3427C324.843 86.7982 323.901 87.3164 322.993 87.8943C322.591 88.1574 322.231 88.483 321.925 88.8595C321.687 89.1914 321.562 89.5952 321.57 90.008C321.57 90.8754 322.056 91.9628 322.115 93.1968C322.155 93.8289 322.062 94.4624 321.842 95.0539C321.606 95.6123 321.272 96.1216 320.858 96.5567C319.972 96.8745 319.108 97.2541 318.273 97.6929C317.461 98.1622 316.695 98.7104 315.984 99.3301C314.562 100.43 313.436 101.885 312.711 103.557C312.11 105.316 311.712 107.14 311.525 108.994C311.37 109.997 311.1 110.978 310.719 111.914C310.33 112.874 309.709 113.715 308.916 114.358L308.81 114.248C309.762 112.634 310.243 110.772 310.197 108.884C310.171 106.847 310.551 104.827 311.312 102.947C312.212 101.072 313.659 99.5338 315.45 98.5482C316.295 98.0651 317.166 97.6327 318.059 97.2531C318.937 96.8744 319.838 96.5323 320.692 96.1047L320.585 96.1902C320.896 95.796 321.109 95.3292 321.204 94.8308C321.299 94.3323 321.274 93.8173 321.131 93.3312C320.739 92.25 320.488 91.1203 320.384 89.9713C320.39 89.2543 320.657 88.5657 321.131 88.0409C321.555 87.5818 322.068 87.2196 322.637 86.978C323.672 86.5222 324.775 86.2495 325.898 86.1716L325.815 86.3427Z" fill="#9FE4FF"/>
<path d="M318.213 78.9999C317.65 79.0151 317.09 79.0887 316.541 79.2198C316.314 79.2728 316.099 79.3755 315.913 79.5209C315.727 79.6663 315.573 79.8511 315.462 80.0628C315.2 81.1003 315.2 82.1897 315.462 83.2272C315.706 84.4321 315.809 85.6625 315.771 86.8925C315.735 87.5645 315.566 88.2217 315.273 88.823C314.969 89.4387 314.459 89.9205 313.838 90.1791H313.767L312.201 90.399C311.694 90.5406 311.195 90.7119 310.707 90.9122C310.237 91.1494 309.785 91.423 309.355 91.7308C308.94 92.0484 308.572 92.4272 308.169 92.7815C306.81 94.3827 305.766 96.242 305.098 98.255C304.398 100.271 303.841 102.372 303.26 104.498C302.734 106.659 302.08 108.785 301.303 110.864H301.161C301.374 108.64 301.588 106.441 301.944 104.242C302.261 102.001 302.846 99.8096 303.687 97.7175C304.486 95.5374 305.823 93.609 307.564 92.1217C309.386 90.8087 311.49 89.9702 313.695 89.6782H313.589C314.004 89.373 314.323 88.948 314.504 88.4566C314.686 87.9653 314.722 87.4295 314.608 86.917C314.537 85.8051 314.312 84.6567 314.193 83.4471C314.112 82.8237 314.084 82.1941 314.11 81.5656C314.103 80.8616 314.292 80.1702 314.656 79.5741C314.867 79.2873 315.137 79.0521 315.446 78.8852C315.756 78.7183 316.098 78.624 316.447 78.6089C317.058 78.5909 317.668 78.6819 318.249 78.8777L318.213 78.9999Z" fill="#9FE4FF"/>
<path d="M309.367 72.781C310.103 74.1746 310.532 75.7179 310.624 77.3016C310.749 78.9772 310.332 80.6484 309.438 82.0543C309.185 82.4045 308.899 82.7279 308.584 83.0195L308.051 83.386L307.79 83.5693L307.493 83.6915L306.9 83.9236C306.698 83.978 306.492 84.0147 306.284 84.0335L305.667 84.1068H305.062C303.534 83.8821 302.061 83.3596 300.722 82.5674L301.054 82.3231C301.153 83.0014 301.133 83.6924 300.995 84.3634C300.84 85.0684 300.48 85.7079 299.963 86.1961C298.925 87.0433 297.748 87.6929 296.489 88.1143C295.381 88.4468 294.36 89.0313 293.5 89.8247C293.174 90.2472 292.937 90.7343 292.802 91.2556C292.668 91.777 292.639 92.3214 292.717 92.8547V92.7326C292.907 93.6733 293.121 94.6141 293.275 95.5915C293.365 96.088 293.425 96.59 293.453 97.0943C293.511 97.6573 293.459 98.2265 293.299 98.7681C293.115 99.3058 292.806 99.7885 292.397 100.173C292.042 100.54 291.698 100.845 291.342 101.175C290.642 101.81 289.954 102.458 289.267 103.13L289.148 103.032C289.646 102.185 290.193 101.369 290.785 100.589C291.379 99.9608 291.847 99.2174 292.16 98.4016C292.21 97.5422 292.106 96.6806 291.852 95.8603L291.164 93.0747V93.0136V92.9525C291.108 92.2109 291.164 91.4649 291.33 90.7411C291.539 89.9702 291.949 89.2731 292.516 88.7252C293.564 87.7988 294.819 87.1563 296.168 86.8558C297.354 86.6322 298.498 86.22 299.56 85.6341C300.033 85.2936 300.386 84.8052 300.568 84.2413C300.739 83.6471 300.78 83.021 300.687 82.4086V81.9687L301.066 82.1765C302.321 82.9122 303.75 83.2719 305.193 83.2149C305.844 83.1702 306.478 82.9772 307.048 82.6497C307.618 82.3222 308.11 81.8685 308.489 81.3212C309.228 80.1425 309.638 78.7774 309.675 77.3749C309.744 75.8747 309.624 74.3718 309.32 72.9032L309.367 72.781Z" fill="#9FE4FF"/>
<path d="M299.904 66.0368C299.236 66.2478 298.61 66.5787 298.054 67.0142C297.564 67.439 297.215 68.0117 297.058 68.6514C296.852 70.0868 296.788 71.54 296.868 72.9887C296.845 73.4064 296.761 73.8182 296.619 74.2104C296.531 74.4637 296.395 74.6961 296.217 74.8934C296.04 75.0908 295.826 75.2492 295.587 75.3589C295.156 75.5284 294.688 75.5707 294.235 75.4811C293.831 75.4089 293.434 75.2985 293.05 75.1512C291.627 74.577 290.346 73.9294 289.006 73.233L289.35 72.952C289.971 74.7696 290.139 76.7193 289.836 78.6211C289.608 79.5896 289.206 80.5055 288.65 81.3212C288.099 82.0817 287.509 82.8117 286.883 83.5081C285.658 84.7246 284.597 86.1054 283.729 87.6133C282.957 89.1845 282.463 90.885 282.27 92.6348H281.689C281.689 92.0361 281.689 91.413 281.618 90.851H281.772C281.95 91.413 282.104 91.9873 282.27 92.5615H281.689C281.494 90.6423 281.763 88.7032 282.472 86.9169C283.262 85.177 284.374 83.6125 285.745 82.3108C286.367 81.701 286.957 81.0566 287.512 80.3804C288.018 79.7212 288.418 78.9829 288.697 78.1934C289.229 76.515 289.299 74.7177 288.899 73.0009L288.792 72.4633L289.243 72.7199C290.492 73.4731 291.849 74.0174 293.263 74.3326C293.853 74.5099 294.483 74.4798 295.054 74.2471C295.22 74.1118 295.337 73.9223 295.386 73.7095C295.447 73.4034 295.487 73.0931 295.504 72.781C295.41 71.2194 295.578 69.6528 296.002 68.1504C296.306 67.3427 296.877 66.6718 297.615 66.2567C298.309 65.896 299.08 65.7235 299.856 65.7558L299.904 66.0368Z" fill="#9FE4FF"/>
<path d="M412.691 219.259L429.091 218.038C429.365 220.549 429.197 223.09 428.593 225.539L411.73 226.223L411.647 220.506" fill="black"/>
<path d="M368.091 234.959C365.304 220.42 364.77 213.786 376.012 206.626C379.32 204.375 382.996 202.761 386.863 201.861C390.443 201.136 394.142 201.328 397.633 202.421C401.124 203.514 404.302 205.474 406.885 208.129C409.469 210.783 411.38 214.051 412.45 217.645C413.52 221.24 413.717 225.05 413.023 228.74V228.899C411.919 234.49 408.998 239.526 404.742 243.178C400.487 246.829 395.151 248.878 389.614 248.985C383.838 249.019 378.19 247.233 373.427 243.866C373.427 243.866 368.731 238.368 368.091 234.959Z" fill="white"/>
<path d="M368.031 235.02C367.45 232.137 366.905 229.241 366.525 226.321C366.021 223.385 366.045 220.378 366.597 217.451C366.93 215.974 367.487 214.56 368.245 213.261C369.053 211.996 370.009 210.839 371.091 209.815C373.241 207.817 375.633 206.112 378.206 204.745C380.741 203.286 383.476 202.232 386.317 201.617C389.169 201.049 392.099 201.049 394.951 201.617C400.716 202.678 405.868 205.971 409.352 210.822C412.836 215.672 414.387 221.711 413.687 227.702C412.872 233.724 409.995 239.249 405.576 243.279C401.148 247.323 395.448 249.575 389.531 249.62C386.618 249.614 383.725 249.115 380.969 248.142C378.245 247.161 375.663 245.8 373.297 244.098C372.218 242.717 371.198 241.312 370.261 239.834C369.787 239.1 369.355 238.337 368.968 237.549C368.545 236.755 368.23 235.904 368.031 235.02ZM368.138 235.02C368.341 235.875 368.656 236.697 369.075 237.464C369.481 238.232 369.924 238.978 370.403 239.7C371.353 241.152 372.403 242.532 373.546 243.829C378.317 246.94 383.874 248.53 389.519 248.399C395.139 248.243 400.529 246.072 404.761 242.261C408.993 238.449 411.802 233.235 412.703 227.519C413.508 221.727 412.161 215.837 408.932 211.025C407.302 208.632 405.211 206.61 402.789 205.087C400.359 203.576 397.677 202.549 394.879 202.057C392.092 201.595 389.244 201.699 386.495 202.362C383.767 203.081 381.146 204.179 378.704 205.624C377.518 206.321 376.261 207.091 375.147 207.909C374.554 208.3 373.961 208.716 373.427 209.131C372.843 209.56 372.284 210.025 371.755 210.524C370.712 211.472 369.784 212.546 368.992 213.725C368.224 214.916 367.639 216.222 367.261 217.598C366.594 220.428 366.441 223.361 366.81 226.248C367.095 229.205 367.628 232.1 368.138 234.959V235.02Z" fill="black"/>
<path d="M384.491 207.958C389.63 206.193 395.227 206.498 400.156 208.813C401.721 209.486 403.107 210.533 404.2 211.868C405.242 213.442 405.912 215.245 406.157 217.134C407.083 221.818 406.78 226.672 405.279 231.196C404.513 233.444 403.321 235.512 401.771 237.28C400.222 239.048 398.347 240.481 396.255 241.496C393.789 242.483 391.203 243.12 388.571 243.389C384.124 244.061 379.084 244.611 375.621 241.606C372.443 238.881 371.803 234.202 371.376 229.974C370.332 219.675 374.459 211.465 384.491 207.958Z" fill="#FF710F"/>
<path d="M403.749 209.302C407.379 204.35 411.544 199.841 416.165 195.862C417.621 194.399 419.452 193.394 421.442 192.967C423.447 192.71 425.759 193.969 426.008 196.034C426.257 198.098 424.68 199.613 423.245 200.921L412.442 210.695C409.157 213.664 405.327 217.121 400.844 217.463C399.978 214.409 402.006 211.746 403.749 209.302Z" fill="#55C6FF"/>
<path d="M113.522 438.677C111.753 438.458 110.125 437.682 108.896 436.471C107.666 435.259 106.904 433.681 106.73 431.984C105.995 429.628 105.266 426.962 106.507 424.75C107.262 423.601 108.273 422.621 109.465 421.882C111.132 420.562 113.093 419.633 115.187 419.171C116.97 419 118.763 419.142 120.476 419.591C125.109 420.547 129.706 421.624 134.267 422.824C136.781 423.483 139.412 424.25 141.077 426.16C142.077 427.452 142.629 429.017 142.657 430.642C142.686 432.268 142.189 433.876 141.235 435.248C140.247 436.597 138.993 437.752 137.548 438.648C136.102 439.543 134.493 440.16 132.812 440.464C126.126 441.891 119.793 440.334 113.522 438.677Z" fill="white"/>
<path d="M166.45 414.114C153.446 406.09 141.632 396.192 131.388 384.739C128.391 381.278 125.389 377.1 125.949 372.615C140.91 355.837 156.313 338.875 173.188 324.18C188.46 310.834 204.034 297.822 218.828 283.933C228.824 294.654 239.891 305.378 249.887 316.099C252.247 318.644 254.708 321.342 255.591 324.698C256.474 328.054 255.159 332.227 251.919 333.209L166.45 414.114Z" fill="#D3D1CF"/>
<path d="M140.636 366.604C142.048 367.863 143.496 369.186 144.776 370.478C143.15 373.235 141.204 375.779 138.978 378.058C138.596 378.539 138.08 378.891 137.495 379.07C135.161 379.557 132.053 376.286 132.841 373.997C133.211 373.05 140.35 366.346 140.636 366.604Z" fill="#EBEBEB"/>
<path d="M147.447 369.317L150.818 364.958C150.988 364.781 151.091 364.547 151.108 364.297C151.051 364.085 150.939 363.892 150.784 363.736C150.019 362.767 149.203 361.828 148.319 360.843C148.2 360.69 148.039 360.577 147.857 360.517C147.614 360.505 147.378 360.591 147.2 360.755C146.16 361.539 143.127 363.685 143.242 365.213C143.344 365.958 147.525 369.215 147.447 369.317Z" fill="#EBEBEB"/>
<path d="M153.771 362.506L157.166 357.879C157.22 357.833 157.263 357.775 157.292 357.708C157.321 357.642 157.336 357.57 157.334 357.497C157.332 357.424 157.315 357.352 157.283 357.285C157.25 357.219 157.204 357.16 157.148 357.114C156.037 355.702 154.68 354.509 153.146 353.598C152.138 354.532 149.412 356.854 149.582 358.477C149.663 359.305 153.853 362.458 153.771 362.506Z" fill="#EBEBEB"/>
<path d="M159.45 356.927C160.905 355.368 162.44 353.875 164.033 352.461C162.606 350.864 161.029 349.412 159.325 348.125C159.139 347.993 158.921 347.851 158.711 347.916C158.556 347.982 158.432 348.104 158.362 348.259C157.646 349.391 155.469 350.79 155.561 352.302C155.654 353.814 158.421 355.857 159.45 356.927Z" fill="#EBEBEB"/>
<path d="M167.082 341.235L172.148 345.265L175.969 340.689C176.105 340.562 176.19 340.388 176.206 340.199C176.173 340.022 176.08 339.861 175.944 339.744C174.833 338.369 173.498 337.196 171.999 336.28C170.654 338.774 168.704 340.87 166.33 342.374C165.062 343.262 161.575 345.12 161.588 346.946C161.583 347.908 164.138 349.607 164.778 350.55C164.913 350.783 165.072 351.058 165.375 351.038C165.527 351.028 165.672 350.974 165.792 350.882C167.448 349.788 168.836 348.331 169.86 346.614C169.928 346.547 169.978 346.463 170.006 346.37C170.034 346.277 170.038 346.178 170.019 346.081C170 345.985 169.958 345.894 169.896 345.817C169.835 345.74 169.756 345.679 169.666 345.64C168.504 344.666 167.292 343.755 166.037 342.91" fill="#EBEBEB"/>
<path d="M178.271 339.388C179.325 337.763 180.533 336.249 181.877 334.865C180.603 333.16 179.08 331.659 177.364 330.417C176.588 331.444 173.549 334.031 173.633 335.195C173.707 336.013 178.319 339.304 178.271 339.388Z" fill="#EBEBEB"/>
<path d="M183.967 332.77C184.91 331.417 186.108 330.27 187.495 329.393C186.841 327.463 185.492 325.84 183.724 324.855C182.902 325.47 179.437 328.007 179.564 329.246C179.66 329.839 184.229 332.393 183.967 332.77Z" fill="#EBEBEB"/>
<path d="M190.594 327.505L193.718 322.668C193.777 322.614 193.824 322.546 193.855 322.471C193.886 322.395 193.901 322.314 193.897 322.231C193.894 322.148 193.873 322.067 193.836 321.993C193.799 321.918 193.746 321.853 193.682 321.8C192.648 320.585 191.444 319.53 190.109 318.671C189.082 319.264 185.084 321.826 185.275 323.296C185.35 324.043 190.702 327.358 190.594 327.505Z" fill="#EBEBEB"/>
<path d="M196.687 321.123C197.812 319.3 199.216 317.675 200.849 316.308C199.253 315.23 197.755 314.008 196.372 312.657C195.516 313.546 192.072 316.071 192.139 317.372C192.136 318.221 196.669 321.091 196.687 321.123Z" fill="#EBEBEB"/>
<path d="M202.338 315.067C202.393 315.144 202.464 315.206 202.546 315.25C202.628 315.293 202.719 315.317 202.81 315.319C202.902 315.321 202.992 315.301 203.074 315.261C203.156 315.221 203.226 315.161 203.28 315.087C204.429 314.03 205.428 312.817 206.251 311.482C205.568 309.344 204.114 307.529 202.186 306.408C202.632 306.659 198.327 310.753 198.262 311.044C197.962 312.303 201.265 314.205 202.338 315.067Z" fill="#EBEBEB"/>
<path d="M209.546 309.622L213.339 304.949C211.97 303.691 210.517 302.531 208.992 301.477C208.828 301.33 208.615 301.25 208.399 301.255C208.232 301.289 208.081 301.377 207.967 301.504C207.009 302.453 204.504 304.068 204.886 305.654C205.028 306.446 209.632 309.487 209.546 309.622Z" fill="#EBEBEB"/>
<path d="M215.521 303.464C216.426 302.041 217.427 300.685 218.518 299.405C216.815 297.831 215.047 296.35 213.214 294.962C212.92 294.737 210.181 298.674 210.512 299.555C211.007 300.864 214.424 302.559 215.521 303.464Z" fill="#EBEBEB"/>
<path d="M221.123 298.226C222.443 296.745 223.627 295.146 224.662 293.446C223.504 291.77 221.998 290.369 220.255 289.345C219.085 290.19 215.797 292.131 216.139 293.697C216.291 294.315 221.267 298.143 221.123 298.226Z" fill="#EBEBEB"/>
<path d="M142.884 386.553C144.134 384.615 145.545 382.791 147.101 381.099C146.229 379.333 144.913 377.823 143.289 376.726C143.147 376.624 142.985 376.554 142.815 376.52C141.284 376.36 138.69 379.551 138.729 381.066C138.791 383.118 141.601 385.234 142.884 386.553Z" fill="#EBEBEB"/>
<path d="M149.002 379.197L152.972 375.495C153.103 375.397 153.195 375.254 153.232 375.091C153.219 374.983 153.182 374.879 153.124 374.786C152.28 373.159 151.148 371.698 149.787 370.477C148.612 371.382 145.257 373.516 145.107 375.154C145.04 376.152 148.696 379.544 149.002 379.197Z" fill="#EBEBEB"/>
<path d="M155.737 373.193L158.977 369.911C159.149 369.774 159.269 369.58 159.318 369.362C159.307 369.152 159.228 368.949 159.094 368.786C158.079 367.29 156.745 366.043 155.195 365.14C155.076 365.055 154.938 365.003 154.794 364.99C154.642 365.001 154.497 365.051 154.372 365.136C153.293 365.758 150.698 367.525 151.082 368.925C151.222 369.451 155.838 373.106 155.737 373.193Z" fill="#EBEBEB"/>
<path d="M161.047 367.165C161.916 366.296 162.638 365.414 163.396 364.497L164.609 363.063C164.651 363.018 164.68 362.962 164.693 362.901C164.703 362.847 164.699 362.791 164.681 362.739C164.464 361.933 164.067 361.185 163.521 360.553C162.976 359.92 162.296 359.421 161.537 359.094C161.347 358.994 161.133 358.954 160.924 358.982C160.745 359.03 160.582 359.124 160.452 359.255C160.017 359.7 159.631 360.193 159.301 360.724C158.424 361.75 157.494 362.729 156.517 363.657C156.866 364.048 160.973 367.25 161.047 367.165Z" fill="#EBEBEB"/>
<path d="M166.905 361.61C168.426 360.32 169.822 358.886 171.074 357.327L167.261 353.095C166.616 353.947 165.921 354.758 165.206 355.537C164.75 356.026 163.108 357.143 162.938 357.749C162.767 358.356 164.009 359.036 164.642 359.587C164.894 359.738 166.92 361.587 166.905 361.61Z" fill="#EBEBEB"/>
<path d="M172.477 355.346C172.533 355.461 172.629 355.551 172.746 355.599C172.888 355.631 172.983 355.463 173.106 355.392L176.566 351.898C176.685 351.791 176.776 351.657 176.832 351.505C176.848 351.365 176.832 351.222 176.786 351.088C176.739 350.953 176.663 350.831 176.562 350.73C175.732 349.599 174.742 348.596 173.626 347.755C173.558 347.688 173.47 347.644 173.377 347.631C173.272 347.649 173.177 347.703 173.11 347.785C172.15 348.495 168.947 350.062 169.228 351.592C169.33 352.196 170.042 352.646 170.454 353.029C171.236 353.697 171.918 354.478 172.477 355.346Z" fill="#EBEBEB"/>
<path d="M178.186 348.988C178.295 349.163 178.452 349.303 178.637 349.391C178.776 349.434 178.923 349.438 179.062 349.403C179.201 349.367 179.326 349.294 179.425 349.19C179.62 348.984 179.792 348.757 179.938 348.513C180.483 347.785 181.135 347.147 181.872 346.62L182.974 345.73C182.081 344.325 181.078 342.993 179.976 341.747C179.906 341.653 179.812 341.58 179.704 341.538C179.614 341.525 179.523 341.534 179.437 341.564C179.352 341.593 179.276 341.642 179.214 341.708C178.208 342.457 175.672 344.302 175.403 345.615C175.134 346.927 177.484 348.152 178.186 348.988Z" fill="#EBEBEB"/>
<path d="M185.413 343.504L188.298 340.865C188.622 340.599 188.901 340.281 189.123 339.922C188.342 338.356 187.183 337.01 185.756 336.012C185.686 335.942 185.593 335.9 185.497 335.894C185.382 335.909 185.28 335.969 185.209 336.06C184.391 336.729 181.541 338.53 181.834 339.701C181.943 340.174 185.653 343.28 185.413 343.504Z" fill="#EBEBEB"/>
<path d="M191.482 337.912C192.904 336.649 194.216 335.264 195.404 333.771C195.479 333.693 195.526 333.591 195.538 333.482C195.512 333.39 195.464 333.307 195.398 333.239C194.662 332.008 193.733 330.904 192.649 329.972C192.5 329.814 192.298 329.718 192.084 329.706C191.882 329.765 191.71 329.899 191.603 330.082C191.043 330.785 190.429 331.442 189.766 332.046C189.389 332.39 187.857 333.247 187.827 333.716C187.796 334.185 189.209 335.161 189.562 335.535C190.244 336.292 190.885 337.085 191.482 337.912Z" fill="#EBEBEB"/>
<path d="M198.016 332.319C199.047 330.307 200.574 328.609 202.453 327.387C200.865 326.295 199.394 325.035 198.065 323.629C198.029 323.574 197.982 323.527 197.928 323.49C197.874 323.453 197.814 323.428 197.75 323.415C197.645 323.412 197.543 323.441 197.457 323.5C196.43 324.093 193.092 326.02 193.564 327.596C193.78 328.303 194.893 328.902 195.371 329.374C196.321 330.307 197.124 331.367 198.016 332.319Z" fill="#EBEBEB"/>
<path d="M204.106 326.123C205.793 324.767 207.248 323.141 208.418 321.306C207.005 319.949 205.532 318.664 204.001 317.451C204.001 317.451 199.771 321.389 199.734 321.918C199.529 323.39 203.102 325.404 204.106 326.123Z" fill="#EBEBEB"/>
<path d="M209.45 319.75C209.531 319.884 209.653 319.988 209.798 320.043C209.896 320.051 209.994 320.037 210.085 320.004C210.177 319.97 210.26 319.918 210.329 319.849C211.474 318.952 212.462 317.867 213.254 316.637C213.421 316.288 213.689 316 214.023 315.812C212.967 314.324 211.621 313.068 210.073 312.125C209.999 312.067 209.908 312.035 209.816 312.034C209.729 312.055 209.651 312.1 209.59 312.164C208.714 312.853 205.936 314.824 206.037 316.092C206.09 316.752 207.097 317.286 207.515 317.679C208.221 318.308 208.869 319.002 209.45 319.75Z" fill="#EBEBEB"/>
<path d="M215.948 314.165C216.054 314.23 216.173 314.317 216.31 314.294C216.418 314.274 216.516 314.217 216.587 314.134L218.054 312.737C219.007 311.917 219.839 310.962 220.524 309.9L216.062 306.086C214.835 306.866 213.754 307.857 212.866 309.017C212.001 310.151 211.087 310.679 212.459 311.679C213.55 312.573 214.725 313.375 215.948 314.165Z" fill="#EBEBEB"/>
<path d="M222.208 308.406C224.845 305.415 227.633 302.566 230.563 299.872C229.605 298.448 228.559 297.087 227.431 295.797C227.319 295.632 227.152 295.513 226.962 295.461C226.794 295.449 226.627 295.495 226.491 295.592C223.832 297.177 221.524 299.291 219.702 301.812C219.2 302.399 218.734 303.017 218.305 303.662C217.812 304.468 217.852 304.347 218.563 305.009C219.836 306.075 221.053 307.209 222.208 308.406Z" fill="#EBEBEB"/>
<path d="M232.88 311.189L235.415 308.963C236.106 308.425 236.7 307.772 237.175 307.03C235.64 305.321 234.029 303.669 232.334 302.108C232.483 302.248 228.55 306.155 228.469 306.893C228.297 308.446 231.807 310.398 232.88 311.189Z" fill="#EBEBEB"/>
<path d="M226.22 316.445C226.316 316.531 226.427 316.598 226.548 316.64C226.669 316.681 226.796 316.698 226.922 316.689C227.093 316.609 227.238 316.481 227.339 316.321L230.626 311.602C229.241 310.412 227.831 309.251 226.388 308.151C226.282 308.05 226.141 307.994 225.997 307.996C225.882 308.021 225.779 308.081 225.699 308.168C225.055 309.02 224.371 309.852 223.663 310.641C223.303 311.061 221.741 312.245 221.739 312.811C221.79 313.895 225.445 315.862 226.22 316.445Z" fill="#EBEBEB"/>
<path d="M220.177 322.177L224.247 317.937C222.818 316.509 221.242 315.242 219.547 314.161C219.238 313.958 215.759 317.49 215.799 318.271C215.894 319.74 219.124 321.374 220.177 322.177Z" fill="#EBEBEB"/>
<path d="M214.151 328.224C215.389 326.305 216.711 324.46 218.117 322.689C216.78 321.612 215.364 320.642 213.881 319.788C213.097 320.635 212.307 321.473 211.501 322.305C211.013 322.812 209.768 323.644 209.82 324.446C209.873 325.248 214.271 328.028 214.151 328.224Z" fill="#EBEBEB"/>
<path d="M208.173 334.567C209.285 332.719 210.587 330.999 212.056 329.433C210.88 327.852 209.424 326.504 207.765 325.463C207.143 326.462 206.434 327.4 205.645 328.267C205.129 328.819 204.369 329.329 204.355 330.183C204.316 331.278 208.206 334.506 208.173 334.567Z" fill="#EBEBEB"/>
<path d="M202.49 340.543L205.91 335.747C205.951 335.688 205.978 335.619 205.987 335.547C205.974 335.468 205.933 335.397 205.871 335.346C204.29 334.087 202.631 332.933 200.906 331.893C200.57 331.691 197.403 335.763 197.494 336.514C197.586 337.266 198.928 337.93 199.52 338.364L202.49 340.543Z" fill="#EBEBEB"/>
<path d="M196.218 346.661L199.713 341.638C198.327 340.012 196.728 338.584 194.964 337.397C195.324 337.641 190.881 341.757 190.91 342.234C190.934 343.081 192.484 343.823 193.067 344.262L196.218 346.661Z" fill="#EBEBEB"/>
<path d="M190.51 351.17C190.582 351.207 190.665 351.215 190.741 351.191C190.806 351.18 190.864 351.147 190.906 351.097L193.765 347.203C192.321 345.506 190.593 344.08 188.665 342.994C187.913 344.063 184.952 346.239 185.481 347.654C186.011 349.07 189.142 350.746 190.51 351.17Z" fill="#EBEBEB"/>
<path d="M183.911 358.027C185.29 356.455 186.584 354.805 187.799 353.116L183.039 349.614C182.962 349.55 182.867 349.511 182.769 349.502C182.69 349.52 182.618 349.561 182.563 349.621C181.774 350.175 178.182 352.729 178.487 353.851C178.633 354.387 180.582 355.463 180.999 355.829C182.001 356.52 182.963 357.262 183.911 358.027Z" fill="#EBEBEB"/>
<path d="M177.263 363.375C177.318 363.47 177.441 363.54 177.558 363.529C177.64 363.51 177.715 363.467 177.773 363.405C179.165 362.559 180.385 361.457 181.374 360.155C180.158 358.122 178.597 356.318 176.766 354.83C176.636 354.722 172.982 358.426 173.188 359.28C173.393 360.135 174.335 360.509 174.782 360.927C175.658 361.734 176.401 362.617 177.263 363.375Z" fill="#EBEBEB"/>
<path d="M170.702 369.039C170.815 369.131 170.942 369.206 171.076 369.261C171.594 369.399 171.994 368.858 172.249 368.4C172.999 367.095 173.927 365.909 175.007 364.875C173.685 363.748 172.413 362.563 171.169 361.335C170.869 361.028 167.141 364.958 167.061 365.555C166.863 366.967 169.759 368.356 170.702 369.039Z" fill="#EBEBEB"/>
<path d="M165.684 375.195C166.571 373.63 167.634 372.178 168.854 370.868C167.597 369.595 166.218 368.453 164.737 367.46C164.671 367.406 164.593 367.369 164.51 367.352C164.414 367.349 164.32 367.378 164.244 367.435C163.381 367.933 160.283 370.371 160.568 371.504C160.707 372.101 165.802 374.972 165.684 375.195Z" fill="#EBEBEB"/>
<path d="M158.902 381.664C160.751 379.965 162.408 378.063 163.843 375.99L159.338 372.102C158.068 373.026 156.951 374.146 156.026 375.425C155.305 376.405 154.056 377.253 155.016 378.42C155.268 378.571 159.013 381.572 158.902 381.664Z" fill="#EBEBEB"/>
<path d="M148.039 391.901C149.98 390.78 150.98 388.552 152.341 386.736C153.351 385.354 154.589 384.162 156.003 383.211C155.075 381.671 153.84 380.34 152.38 379.308C149.854 381.066 147.562 383.143 145.556 385.49C145.196 385.91 144.213 386.745 144.119 387.293C144.024 387.842 144.366 388.054 144.84 388.542C145.224 388.828 148.073 391.866 148.039 391.901Z" fill="#EBEBEB"/>
<path d="M154.951 397.588C157.397 394.52 159.879 391.483 162.398 388.477C161.585 387.144 160.52 385.983 159.265 385.066C159.143 384.962 158.992 384.901 158.835 384.891C158.687 384.92 158.554 384.997 158.455 385.111C156.141 387.146 153.995 389.371 152.04 391.763C151.69 392.177 150.723 393.017 150.633 393.549C150.543 394.08 150.823 394.257 151.416 394.691C152.652 395.58 153.833 396.548 154.951 397.588Z" fill="#EBEBEB"/>
<path d="M165.952 386.665L169.584 382.424C169.656 382.383 169.707 382.282 169.685 382.196C169.673 382.139 169.643 382.087 169.6 382.048C168.47 380.775 167.241 379.597 165.924 378.527C165.872 378.471 165.809 378.426 165.74 378.395C165.67 378.365 165.595 378.35 165.52 378.351C165.401 378.395 165.3 378.478 165.233 378.588C164.542 379.47 163.803 380.311 163.018 381.108C162.569 381.564 161.641 382.185 161.663 382.934C161.684 383.684 165.913 386.716 165.952 386.665Z" fill="#EBEBEB"/>
<path d="M171.148 381.648C172.306 379.668 173.582 377.562 175.676 376.635L170.757 372.859C170.172 373.719 169.542 374.548 168.893 375.346C168.545 375.787 167.157 376.941 167.264 377.457C167.371 377.974 169.051 379.035 169.427 379.425C169.615 379.655 171.256 381.431 171.148 381.648Z" fill="#EBEBEB"/>
<path d="M176.939 374.27C177.439 374.677 177.996 375.002 178.592 375.234L181.964 370.593L177.384 367.213C177.283 367.126 177.16 367.069 177.03 367.05C176.906 367.074 176.794 367.138 176.712 367.234C175.685 367.827 173.066 369.79 173.082 371.122C173.068 372.047 176.132 373.678 176.939 374.27Z" fill="#EBEBEB"/>
<path d="M183.348 369.526C184.928 367.949 186.413 366.277 187.795 364.517C186.276 363.388 184.93 362.033 183.806 360.5C184.026 360.881 179.963 364.708 179.752 365.338C179.212 366.75 182.216 368.966 183.348 369.526Z" fill="#EBEBEB"/>
<path d="M189.75 362.994C191.3 361.801 192.653 360.368 193.761 358.745C193.761 358.745 193.843 358.698 193.821 358.612C193.818 358.566 193.804 358.52 193.781 358.48C193.757 358.439 193.725 358.405 193.686 358.379C192.452 357.211 191.155 356.113 189.802 355.091C189.016 355.912 186.073 358.119 186.157 359.284C186.196 359.896 187.298 360.572 187.686 360.983C188.301 361.726 188.993 362.4 189.75 362.994Z" fill="#EBEBEB"/>
<path d="M196.019 357.272C197.626 355.904 199.099 354.383 200.419 352.728C199.245 351.429 197.892 350.309 196.405 349.403C196.335 349.349 196.253 349.314 196.167 349.3C196.087 349.305 196.009 349.329 195.94 349.369C195.871 349.409 195.811 349.464 195.767 349.532C195.192 350.244 194.663 350.987 194.099 351.694C193.697 352.208 192.425 353.112 192.253 353.691C191.98 354.737 195.222 356.533 196.019 357.272Z" fill="#EBEBEB"/>
<path d="M202.417 351.42C203.587 349.539 204.961 347.799 206.515 346.232C205.523 344.972 204.4 343.822 203.166 342.805C203.032 342.677 202.86 342.598 202.679 342.578C202.55 342.61 202.433 342.678 202.34 342.774C201.475 343.428 200.722 344.22 200.108 345.121C199.642 345.714 198.627 346.54 198.583 347.412C198.404 348.573 202.53 351.284 202.417 351.42Z" fill="#EBEBEB"/>
<path d="M209.002 345.417C210.097 344.207 211.173 342.965 212.237 341.701C212.31 341.621 212.362 341.523 212.388 341.417C212.366 341.284 212.297 341.163 212.193 341.078C211.061 339.744 209.679 338.65 208.132 337.864C208.132 337.864 204.061 341.343 204.109 341.781C204.156 342.219 205.936 343.237 206.336 343.528L209.002 345.417Z" fill="#EBEBEB"/>
<path d="M214.582 340.094C216.002 338.759 217.349 337.346 218.615 335.861C217.224 334.164 215.599 332.677 213.795 331.449C213.153 332.425 212.48 333.393 211.794 334.339C211.443 334.823 210.619 335.624 210.608 336.293C210.597 336.963 214.51 340.135 214.582 340.094Z" fill="#EBEBEB"/>
<path d="M220.989 334.137C221.053 334.196 221.135 334.228 221.22 334.23C221.254 334.226 221.288 334.215 221.318 334.197C221.348 334.18 221.374 334.157 221.394 334.129L225.308 329.048L220.447 325.491C219.671 326.377 218.877 327.23 218.06 328.069C217.566 328.566 216.293 329.371 216.388 330.177C216.483 330.982 217.791 331.61 218.289 332C219.197 332.717 220.087 333.43 220.989 334.137Z" fill="#EBEBEB"/>
<path d="M227.034 327.769C228.231 326.117 229.545 324.557 230.966 323.101C230.011 322.156 228.995 321.277 227.926 320.468C227.744 320.296 227.53 320.161 227.298 320.073C227.065 319.984 226.819 319.943 226.573 319.951C226.32 320.027 226.088 320.161 225.896 320.343C225.067 321.018 222.736 322.886 222.961 324.153C223.077 324.805 224.295 325.372 224.76 325.752C225.558 326.377 226.317 327.051 227.034 327.769Z" fill="#EBEBEB"/>
<path d="M241.671 312.589L237.6 309.593C237.5 309.497 237.374 309.437 237.24 309.42C237.077 309.416 236.92 309.472 236.796 309.577C235.094 310.709 233.555 312.072 232.221 313.629C231.262 314.719 229.553 316.242 229.426 317.825C229.299 319.407 230.77 320.152 231.806 320.951C232.383 321.38 232.495 321.597 233.075 321.347C233.524 321.025 233.923 320.638 234.26 320.197C235.071 319.419 235.869 318.619 236.667 317.82C237.107 317.396 241.598 312.533 241.671 312.589Z" fill="#EBEBEB"/>
<path d="M236.687 331.563C240.405 326.996 244.392 322.664 248.627 318.589C247.58 317.328 246.353 316.234 244.987 315.344C244.819 315.21 244.615 315.131 244.404 315.116C244.184 315.158 243.985 315.273 243.839 315.442C240.633 317.919 237.636 320.659 234.877 323.636C234.156 324.405 231.585 326.425 232.127 327.65C232.422 328.326 233.693 328.89 234.261 329.353C235.107 330.046 235.917 330.784 236.687 331.563Z" fill="#EBEBEB"/>
<path d="M230.594 337.494C231.647 335.997 232.637 334.438 233.549 332.839C233.612 332.76 233.646 332.66 233.646 332.557C233.627 332.441 233.566 332.336 233.475 332.261C232.402 331.074 231.156 330.061 229.783 329.257C229.739 329.229 229.69 329.21 229.64 329.199C229.504 329.178 229.403 329.335 229.291 329.401C228.625 330.264 227.931 331.102 227.193 331.91C226.76 332.371 225.297 333.371 225.379 334.057C225.489 335.433 229.544 337.098 230.594 337.494Z" fill="#EBEBEB"/>
<path d="M224.773 343.253L227.448 338.59C225.924 337.178 224.315 335.864 222.63 334.657C222.583 334.617 222.525 334.591 222.465 334.583C222.352 334.578 222.28 334.69 222.198 334.737C221.636 335.851 219.861 338.09 220.184 339.455C220.386 340.256 224.777 343.236 224.773 343.253Z" fill="#EBEBEB"/>
<path d="M216.536 348.601C216.879 348.84 217.295 349.108 217.674 348.96C217.866 348.864 218.027 348.718 218.141 348.535C219.261 347.084 220.365 345.628 221.431 344.153C220.27 343.098 219.04 342.125 217.75 341.241C217.646 341.153 217.522 341.093 217.39 341.068C217.209 341.078 217.039 341.152 216.908 341.276C215.755 342.125 213.601 343.778 213.239 345.285C212.876 346.792 215.537 347.866 216.536 348.601Z" fill="#EBEBEB"/>
<path d="M211.431 355.696C212.377 353.878 213.612 352.236 215.087 350.834C213.485 349.818 211.977 348.652 210.585 347.353C210.536 347.268 210.413 347.198 210.307 347.203C210.209 347.218 210.122 347.269 210.06 347.346C208.942 348.09 205.474 349.838 206.283 351.572C206.617 352.268 211.517 355.562 211.431 355.696Z" fill="#EBEBEB"/>
<path d="M205.369 361.609C206.412 359.824 207.544 358.097 208.762 356.433C208.336 355.816 207.794 355.289 207.169 354.884C206.182 354.156 205.174 353.454 204.145 352.778C204.073 352.722 203.987 352.688 203.898 352.681C203.79 352.702 203.692 352.758 203.62 352.841C202.74 353.688 199.763 356.31 200.2 357.637C200.352 358.185 205.525 361.335 205.369 361.609Z" fill="#EBEBEB"/>
<path d="M199.128 367.046C200.203 365.363 201.372 363.746 202.63 362.202C201.482 360.934 200.228 359.77 198.882 358.723C198.789 358.639 198.673 358.588 198.551 358.575C198.453 358.589 198.365 358.64 198.304 358.718C197.297 359.511 194.647 361.253 195.141 362.844C195.468 363.465 195.94 363.997 196.514 364.393C197.428 365.233 198.3 366.119 199.128 367.046Z" fill="#EBEBEB"/>
<path d="M193.436 373.267C194.363 371.208 195.604 369.316 197.113 367.659C195.736 366.507 194.31 365.412 192.872 364.464C192.67 364.327 192.431 364.197 192.223 364.289C192.108 364.356 192.013 364.455 191.95 364.574C191.301 365.557 190.548 366.464 189.705 367.28C189.156 367.823 188.242 368.351 188.515 369.251C188.789 370.151 193.578 372.944 193.436 373.267Z" fill="#EBEBEB"/>
<path d="M187.357 378.723C188.565 377.085 189.702 375.417 190.767 373.721C189.301 372.382 187.738 371.157 186.092 370.058C186.055 369.994 185.951 369.956 185.873 369.986C185.821 369.996 185.774 370.023 185.739 370.064C185.025 370.913 182.108 373.712 182.319 374.86C182.464 375.538 183.96 376.255 184.469 376.638L187.357 378.723Z" fill="#EBEBEB"/>
<path d="M181.233 384.742C182.39 383.153 183.697 381.685 185.137 380.357L179.989 376.586C179.923 376.531 179.845 376.494 179.761 376.478C179.703 376.48 179.647 376.496 179.597 376.525C179.547 376.554 179.505 376.595 179.474 376.644C178.714 377.534 176.017 379.74 176.533 381.036C176.848 381.63 181.346 384.677 181.233 384.742Z" fill="#EBEBEB"/>
<path d="M174.962 391.099C175.739 389.419 176.834 387.915 178.184 386.671C177.016 385.012 175.513 383.623 173.779 382.598C173.083 383.268 169.545 386.27 169.76 387.26C169.905 387.938 175.201 390.636 174.962 391.099Z" fill="#EBEBEB"/>
<path d="M160.661 404.491C164.55 400.624 166.526 394.869 171.067 391.824C169.856 390.446 168.441 389.268 166.875 388.333C163.761 390.64 160.999 393.394 158.671 396.512C158.032 397.304 155.3 399.686 155.681 400.82C155.914 401.32 160.748 404.356 160.661 404.491Z" fill="#EBEBEB"/>
<path d="M170.493 405.629C170.557 405.553 170.593 405.458 170.596 405.357C170.573 405.247 170.515 405.147 170.431 405.072C168.979 403.65 167.326 402.459 165.53 401.539C164.552 401.031 162.095 405.384 162.494 406.621C163.025 408.276 165.72 409.837 167.142 410.498C168.351 408.943 169.47 407.317 170.493 405.629Z" fill="#EBEBEB"/>
<path d="M171.87 403.437C171.956 403.536 172.064 403.611 172.185 403.655C172.307 403.7 172.436 403.712 172.562 403.691C172.687 403.669 172.804 403.615 172.902 403.534C172.999 403.452 173.073 403.346 173.117 403.225C174.413 401.532 175.651 399.787 176.817 398.013C175.243 396.849 173.521 395.91 171.702 395.224C170.565 396.149 168.126 398.375 168.04 400.005C167.974 401.313 170.877 402.713 171.87 403.437Z" fill="#EBEBEB"/>
<path d="M179.572 398.539L182.931 393.256C181.786 391.403 180.064 389.984 178.047 389.233C177.671 389.126 174.899 393.266 175.062 394.047C175.225 394.827 176.413 395.439 176.973 395.934C177.895 396.743 178.763 397.614 179.572 398.539Z" fill="#EBEBEB"/>
<path d="M185.912 392.395C187.498 389.94 189.339 387.666 191.403 385.613C189.703 384.423 188.035 383.171 186.402 381.884C186.051 381.607 181.433 386.559 181.235 387.378C180.773 389.352 184.629 391.359 185.912 392.395Z" fill="#EBEBEB"/>
<path d="M188.696 380.687C190.395 382.048 192.07 383.432 193.722 384.839L221.845 357.062L216.968 352.147L188.696 380.687Z" fill="#EBEBEB"/>
<path d="M223.606 355.509C225.249 352.989 227.248 350.733 229.541 348.809C228.295 347.136 226.739 345.723 224.964 344.652C223.231 346.725 221.094 348.551 219.449 350.658C218.574 351.798 219.718 352.096 220.707 352.837C221.743 353.646 222.713 354.54 223.606 355.509Z" fill="#EBEBEB"/>
<path d="M232.163 347.705C233.535 345.765 234.988 343.887 236.523 342.07C235.061 340.642 233.428 339.408 231.665 338.399C231.72 338.494 227.661 342.968 227.618 343.557C227.536 345.312 231.01 346.917 232.163 347.705Z" fill="#EBEBEB"/>
<path d="M238.78 341.853C239.89 339.864 241.219 338.013 242.742 336.335C241.142 334.954 239.532 333.589 237.912 332.238C237.655 332.006 233.815 336.621 233.955 337.528C234.095 338.435 234.969 338.833 235.519 339.264C236.604 340.076 237.728 340.979 238.78 341.853Z" fill="#EBEBEB"/>
<path d="M245.381 336.067C246.614 333.967 248.053 332.002 249.676 330.201C247.938 328.815 246.025 327.674 243.993 326.809C242.95 327.778 240.124 329.903 240.393 331.625C240.553 332.59 245.515 335.848 245.381 336.067Z" fill="#EBEBEB"/>
<path d="M249.116 328.282C249.559 328.663 250.087 328.926 250.652 329.045L253.475 324.876C253.641 324.678 253.742 324.432 253.767 324.171C253.744 323.904 253.64 323.649 253.468 323.441C252.81 322.481 251.989 321.645 251.045 320.974C250.827 320.79 250.555 320.688 250.275 320.685C250.061 320.731 249.868 320.843 249.721 321.005C248.516 321.955 246.526 323.583 246.065 325.133C245.605 326.683 248.145 327.572 249.116 328.282Z" fill="#EBEBEB"/>
<path d="M139.092 313.18C139.092 313.18 143.908 319.992 148.679 312.335C153.45 304.679 172.702 268.857 172.702 268.857C172.702 268.857 175.61 264.654 169.977 261.855L200.44 205.698C200.44 205.698 206.467 197.839 195.645 187.755C184.823 177.67 83.5833 369.95 83.5833 369.95C83.5833 369.95 102.436 376.376 107.153 366.804C112.653 355.584 139.092 313.18 139.092 313.18Z" fill="#D3D1CF"/>
<path d="M143.567 143.056C143.567 143.056 32.6404 331.736 26.1067 343.868C19.573 355.999 28.4011 355.05 28.4011 355.05L89.855 371.626L195.653 187.746C188.229 181.227 173.901 167.805 162.354 151.932C145.968 129.424 143.567 143.056 143.567 143.056Z" fill="black"/>
<path d="M36.5519 338.364L139.945 160.38C139.945 160.38 145.609 147.597 151.92 155.921L184.507 187.87C184.507 187.87 189.574 193.792 182.06 205.867C174.547 217.941 94.0177 354.591 94.0177 354.591C94.0177 354.591 89.7379 364.348 72.207 358.674C50.8793 351.786 38.8509 348.143 38.8509 348.143C38.8509 348.143 31.7387 346.028 36.5519 338.364Z" fill="white"/>
<path d="M420.66 281.68C420.66 281.68 482.17 301.546 487.293 303.085C492.416 304.625 495.333 306.909 492.345 317.465C489.357 328.022 461.513 416.038 461.513 416.038C461.513 416.038 459.402 427.804 448.29 422C437.179 416.197 401.283 301.815 401.283 301.815C401.283 301.815 407.177 277.318 420.66 281.68Z" fill="#EBEBEB"/>
<path d="M426.731 279.786L433.183 281.619L429.672 293.971L424.941 293.873L426.731 279.786Z" fill="#FF710F"/>
<path d="M416.023 282.12L426.791 284.881L424.941 293.873L414.659 290.88L416.023 282.12Z" fill="#55C6FF"/>
<path d="M401.164 304.906C401.164 304.906 400.073 284.771 413.023 287.63C423.34 289.927 461.643 301.204 476.573 305.639C478.399 306.183 479.983 307.367 481.05 308.987C482.118 310.607 482.602 312.56 482.42 314.509C481.816 319.956 480.809 325.347 479.407 330.636C473.3 354.497 463.256 382.953 463.256 382.953L401.164 304.906Z" fill="#E56005"/>
<path d="M395.14 303.134C395.14 303.134 397.512 289.243 406.323 291.1C418.027 293.543 468.865 307.508 468.865 307.508C468.865 307.508 479.68 309.255 477.984 319.787C476.289 330.319 454.267 419.545 454.267 419.545C454.267 419.545 451.895 429.123 442.005 427.266C432.115 425.409 380.756 411.799 380.756 411.799C380.756 411.799 369.478 409.807 373.285 394.963C377.091 380.118 395.14 303.134 395.14 303.134Z" fill="#FF710F"/>
</g>
<defs>
<clipPath id="clip0">
<rect width="529" height="514" fill="white"/>
</clipPath>
</defs>
</svg>
