<svg width="120" height="129" viewBox="0 0 120 129" fill="none" xmlns="http://www.w3.org/2000/svg">
<circle cx="60" cy="67" r="60" fill="white"/>
<mask id="mask0" mask-type="alpha" maskUnits="userSpaceOnUse" x="0" y="8" width="120" height="120">
<circle cx="60" cy="68" r="60" fill="white"/>
</mask>
<g mask="url(#mask0)">
<path d="M67.4305 126.578C67.3142 127.229 67.0101 127.842 66.5472 128.36C65.4833 129.319 63.6729 129.002 62.2089 128.677C52.3661 126.536 41.9865 127.315 31.9534 125.979C29.6013 125.683 27.2638 125.255 24.9263 124.827C24.5685 124.8 24.2283 124.679 23.9503 124.48C23.7283 124.238 23.5625 123.96 23.4623 123.662C22.3155 119.992 23.4623 116.07 25.1508 112.563C28.5082 105.621 34.9497 96.0592 43.2602 94.1793C47.9449 93.1516 52.5857 96.8385 57.2558 97.7292C60.3789 98.3587 66.9717 98.8683 67.894 102.114C68.9042 105.608 68.9188 110.096 68.9969 113.715C69.0457 118.041 68.52 122.358 67.4305 126.578Z" fill="#FF710F"/>
</g>
<path d="M94.8243 14.9245C97.0705 16.6877 97.873 15.9998 98.1715 18.6686C98.519 21.9208 98.8958 25.2819 98.1373 28.4775C97.9315 29.1905 97.8037 29.9195 97.7556 30.6544C97.8069 31.5079 98.0169 32.3479 98.3771 33.1403C102.165 43.2714 105.977 53.5026 106.74 64.1691C106.824 65.2401 106.858 66.3764 106.187 67.2428C105.37 68.4096 103.672 68.784 102.121 68.8929C93.9678 69.4501 86.6224 64.9223 80.06 60.6208C80.6522 64.1691 81.166 68.0526 78.9981 71.0697C77.9117 72.5935 76.2087 73.756 75.3817 75.4016C74.7406 76.7078 74.7748 78.1967 74.7797 79.6073C74.8091 82.25 72.3965 84.6881 72.4259 87.3351C72.4814 87.7845 72.3509 88.2364 72.0589 88.6064C71.6456 88.8624 71.1373 88.9669 70.6397 88.8981C60.593 88.4018 55.5819 87.6747 45.7064 85.9245C45.0653 85.8026 42.6283 85.5284 42.1291 85.1452C41.63 84.7621 43.1079 84.2309 42.9464 83.5997C40.9546 76.538 40.7051 66.8771 37.074 60.364C36.4459 59.0524 36.0846 57.652 36.0071 56.228C35.9777 55.0568 34.9158 53.0802 35.3269 51.7437C37.2012 46.0316 38.038 45.039 41.028 39.697C41.5174 38.8262 42.0606 37.9555 42.9855 37.494C44.6542 36.6755 46.6754 37.629 48.5252 37.9555C51.8529 38.5781 51.0112 34.1504 53.2182 31.8603C55.4252 29.5703 58.5621 29.4266 58.7676 26.3877L70.3999 28.2859C69.6011 31.4934 68.4183 34.6154 66.8716 37.5985C66.0397 39.279 68.829 42.3876 70.8942 42.6009C74.8972 43.0058 78.8072 45.0129 81.9049 47.4335C85.678 50.3897 88.8051 54.0119 92.7543 56.7809C92.9108 56.8893 93.0986 56.956 93.296 56.9735C93.4933 56.9911 93.6923 56.9586 93.8698 56.8798C94.0473 56.8011 94.1962 56.6793 94.2992 56.5285C94.4023 56.3778 94.4554 56.2042 94.4523 56.0277L94.2762 49.6321C94.2708 46.4117 94.0321 43.1949 93.5617 40.0017C92.7102 34.921 90.7576 30.0231 89.6467 24.9554C88.7414 20.7628 88.0025 19.7309 85.6486 16.0782C85.2229 15.3903 84.2294 14.5849 84.8901 13.7838C85.4626 13.1133 87.2244 13.2265 88.071 13.2265C90.4248 13.183 93.0136 13.4573 94.8243 14.9245Z" fill="white"/>
<path d="M94.8637 14.9245C95.5714 15.5019 96.1522 16.1913 96.5765 16.9577C96.9973 17.7109 97.3839 17.3669 97.5552 18.2377C97.7265 19.1084 98.1229 17.602 98.2257 18.4684C98.3284 19.3348 98.4263 20.2099 98.4899 21.0806C98.6876 22.8169 98.7089 24.5654 98.5536 26.3051C98.466 27.1857 98.3024 28.059 98.0642 28.9173C97.9427 29.3373 97.8592 29.7654 97.8146 30.1973C97.7724 30.6229 97.7922 31.0517 97.8733 31.4729C98.1045 32.3223 98.3887 33.1595 98.7248 33.9806L99.6595 36.4579C100.291 38.1253 100.888 39.7885 101.48 41.4472C102.072 43.106 102.635 44.7691 103.188 46.4627C103.741 48.1563 104.22 49.8411 104.656 51.526C105.568 54.9287 106.248 58.3773 106.692 61.853C106.755 62.2884 106.79 62.7237 106.819 63.1591C106.848 63.5945 106.922 64.0298 106.951 64.4652C106.98 64.9092 106.972 65.3545 106.927 65.7974C106.884 66.2516 106.746 66.6946 106.52 67.1035C106.29 67.516 105.955 67.8752 105.542 68.1528C105.124 68.4212 104.66 68.6257 104.167 68.7579C103.686 68.8861 103.195 68.9836 102.698 69.0496C102.209 69.1106 101.69 69.1019 101.23 69.1324C99.2453 69.1555 97.2669 68.9208 95.358 68.4358C93.4569 67.9446 91.6159 67.2854 89.8624 66.4679C86.3683 64.8701 83.158 62.8195 79.9869 60.7341L80.3099 60.5556C80.5203 61.8617 80.721 63.2331 80.7993 64.5784C80.8384 65.2663 80.7993 65.915 80.7993 66.5985C80.7379 67.2706 80.6168 67.9374 80.4371 68.5925C80.2381 69.2574 79.9626 69.9022 79.615 70.5168C79.4339 70.8085 79.248 71.1002 79.0229 71.3876C78.81 71.6683 78.5762 71.9359 78.323 72.1887C77.3688 73.2031 76.2628 74.1739 75.6364 75.3582C75.3416 75.9655 75.1566 76.6106 75.0883 77.2694C75.018 77.9278 74.987 78.5891 74.9954 79.2504C75.0125 79.4213 75.0125 79.5932 74.9954 79.7641C74.9947 79.935 74.9767 80.1055 74.9416 80.2735C74.9273 80.4454 74.8962 80.6158 74.8485 80.7829C74.7898 80.9483 74.7751 81.1181 74.7164 81.2835C74.5185 81.9335 74.2582 82.5671 73.9383 83.1774C73.6415 83.7792 73.3786 84.3939 73.1505 85.019C72.8745 85.6426 72.7094 86.3007 72.6611 86.9695C72.6592 87.3114 72.6363 87.6529 72.5926 87.9926C72.5442 88.1695 72.4614 88.3374 72.3479 88.4889C72.2194 88.6358 72.051 88.7511 71.8585 88.8241C71.48 88.9262 71.083 88.9631 70.6889 88.933L69.578 88.872C66.5537 88.6892 63.5686 88.4758 60.559 88.1537C57.5494 87.8315 54.5838 87.4135 51.633 86.9259C50.1649 86.6995 48.6967 86.4427 47.1993 86.1814C46.4456 86.0465 45.7312 85.9202 44.9629 85.8201C44.2128 85.7088 43.4696 85.5635 42.7362 85.3847C42.5312 85.3452 42.3408 85.2598 42.1832 85.1366L42.0805 85.0234C42.0511 84.9493 42.012 84.9145 42.0805 84.8492C42.0875 84.7489 42.1385 84.6551 42.2224 84.588C42.4815 84.3575 42.7265 84.1147 42.9565 83.8609C42.9865 83.8343 43.004 83.7985 43.0054 83.7608V83.6563L42.976 83.5518V83.4473L42.8341 82.9554C42.7509 82.6419 42.6726 82.2892 42.5894 81.9758C42.2665 80.6435 42.0169 79.3636 41.7722 78.0313C41.2828 75.3799 40.8668 72.7372 40.3383 70.0858C40.1768 69.4241 40.0545 68.7797 39.8881 68.1267L39.6483 67.1471L39.3645 66.1632C39.2813 65.8497 39.1639 65.5275 39.0807 65.1792C38.9975 64.8309 38.88 64.5436 38.7577 64.2257C38.5179 63.5901 38.3172 62.9545 38.0334 62.345L37.8132 61.8835L37.7251 61.6353L37.593 61.4176L37.1036 60.5208C36.7793 59.906 36.5236 59.2644 36.3402 58.6051C36.1605 57.9412 36.0394 57.2658 35.9781 56.585C35.9781 56.4109 35.9781 56.2411 35.9781 56.0669C35.9781 55.8928 35.934 55.7535 35.9145 55.5793C35.8313 55.2658 35.7481 54.948 35.6698 54.5997C35.4404 53.9514 35.291 53.2828 35.2244 52.6057C35.1993 52.2506 35.2509 51.8944 35.3762 51.5565L35.7089 50.59C36.1542 49.2839 36.6338 48.0257 37.177 46.7631C37.7202 45.5005 38.4004 44.2945 39.0709 43.0798L41.1066 39.475C41.4245 38.8425 41.8651 38.2647 42.4084 37.7683C42.6916 37.5164 43.023 37.3115 43.3871 37.1632C43.7645 37.0304 44.1619 36.9482 44.5665 36.9194C45.3423 36.908 46.1143 37.0186 46.8469 37.2459C47.5614 37.407 48.315 37.6421 49.0246 37.7727C49.7247 37.9168 50.4539 37.9064 51.1485 37.7422C51.8351 37.5599 52.4638 37.2363 52.9836 36.7975C53.523 36.347 54.0251 35.8625 54.486 35.3477L55.22 34.5858L55.5674 34.2027C55.6996 34.0764 55.7877 33.9458 55.9198 33.8195C56.7757 32.7361 57.4361 31.5404 57.8773 30.2756C58.3125 29.0013 58.5802 27.6864 58.675 26.3573V26.1179L58.9392 26.1744L70.5715 28.0727L70.8358 28.1293L70.7721 28.3644C70.5128 29.3701 70.2094 30.4106 69.9108 31.4119C69.6123 32.4133 69.2012 33.4103 68.7902 34.3725C68.3791 35.3346 67.9289 36.3229 67.4787 37.2807C67.3808 37.5158 67.234 37.777 67.1753 37.9773C67.1287 38.2027 67.1171 38.4327 67.141 38.6608C67.2305 39.1439 67.4322 39.605 67.7332 40.0148C68.0221 40.4442 68.367 40.8417 68.7608 41.1991C69.1527 41.5557 69.6011 41.8593 70.0919 42.1003C70.3258 42.2173 70.5758 42.3066 70.8358 42.3658H71.0266H71.2566L71.7117 42.4399C72.3011 42.511 72.8823 42.6276 73.449 42.7882C75.7283 43.3849 77.8788 44.3179 79.8107 45.5484C81.7283 46.7726 83.5052 48.1623 85.1155 49.6975C86.7695 51.1734 88.3404 52.7102 90.0092 54.1556C90.8607 54.8784 91.7073 55.6011 92.5637 56.2541L92.8866 56.4892L93.0677 56.6068C93.106 56.6462 93.1574 56.6737 93.2145 56.6852C93.3144 56.7316 93.4246 56.7576 93.5372 56.7614C93.6498 56.7651 93.7619 56.7465 93.8654 56.7069C94.0814 56.618 94.2548 56.4637 94.3547 56.2715C94.3988 56.2411 94.3547 56.1671 94.4086 56.1366V55.9668V55.588L94.2569 49.3666C94.2031 47.3029 94.1541 45.2088 93.9877 43.1364C93.9045 42.1003 93.7822 41.0597 93.6207 40.0497C93.4592 39.0396 93.2586 37.9947 93.0188 36.9803C92.04 32.9227 90.6307 28.9608 89.7547 24.8379C89.3143 22.7786 89.0304 20.728 88.5508 18.6991C88.0713 16.6703 87.0828 18.1636 86.0209 16.396C85.7552 15.9514 85.4526 15.525 85.1155 15.1204C84.9689 14.9037 84.8755 14.6619 84.8415 14.4108C84.8337 14.2822 84.8568 14.1536 84.9091 14.0335C84.9614 13.9134 85.0418 13.8046 85.1449 13.7142C85.3663 13.5356 85.6308 13.4046 85.918 13.331C86.1991 13.2652 86.4887 13.233 86.7793 13.2353C87.3568 13.2135 87.9343 13.2353 88.5166 13.2048C89.6833 13.1959 90.8474 13.3054 91.9862 13.5313C93.0606 13.7758 94.0495 14.2547 94.8637 14.9245ZM94.8246 14.955C93.9455 14.2832 92.8985 13.8085 91.7709 13.5705C90.6337 13.3273 89.4656 13.2175 88.2964 13.244C87.7189 13.244 87.1464 13.2178 86.5591 13.2701C86.2717 13.2887 85.9858 13.3222 85.7028 13.3702C85.4266 13.4229 85.1735 13.5454 84.9736 13.7229C84.8004 13.9115 84.6947 14.142 84.6702 14.3846C84.6889 14.6279 84.7838 14.8617 84.9442 15.0595C85.2085 15.4948 85.5902 15.8649 85.8495 16.3351C86.9359 18.107 87.944 16.6137 88.4236 18.6425C88.9032 20.6714 89.2213 22.7568 89.7008 24.7856C90.616 28.8781 92.089 32.8095 93.0824 36.9063C93.3222 37.9207 93.5718 38.9351 93.7235 39.98C93.8752 41.0249 94.0416 42.0654 94.1248 43.1016C94.3303 45.174 94.4184 47.2768 94.4722 49.3405L94.6581 55.5663V55.9407V56.1801C94.6562 56.2617 94.6345 56.3418 94.5945 56.4152C94.541 56.568 94.4474 56.7073 94.3215 56.8216C94.1955 56.9359 94.0409 57.0219 93.8703 57.0726C93.538 57.1945 93.1651 57.1945 92.8328 57.0726L92.6126 56.9507L92.4316 56.8332L92.0743 56.5981C91.1788 55.9407 90.293 55.2136 89.4415 54.4909C87.7434 53.0455 86.1726 51.5086 84.5479 50.0371C82.9423 48.5427 81.1899 47.1789 79.3116 45.962C77.4356 44.7526 75.3423 43.8354 73.1211 43.2496L72.2892 43.0755C72.0159 43.0115 71.7379 42.9649 71.4573 42.9362L71.0364 42.9013H70.8064C70.728 42.8985 70.6512 42.8806 70.5813 42.8491C70.2715 42.7743 69.9727 42.6676 69.6906 42.5313C69.1554 42.2769 68.6696 41.9476 68.2519 41.5561C67.8233 41.1656 67.4547 40.7264 67.1557 40.2499C66.8361 39.7805 66.6171 39.2623 66.5098 38.7218C66.4517 38.4339 66.4517 38.139 66.5098 37.8511C66.5419 37.7114 66.5962 37.5765 66.6712 37.4505L66.8621 37.0892C67.3074 36.1313 67.7576 35.1735 68.1687 34.2157C68.9693 32.2758 69.6232 30.2905 70.1261 28.2729L70.3219 28.5646L58.6945 26.6316L58.9882 26.4183C58.8957 27.7811 58.6113 29.1282 58.1415 30.428C57.7054 31.7379 57.0148 32.9698 56.1009 34.0677C55.9688 34.194 55.8757 34.355 55.7485 34.4813L55.3962 34.8644L54.6621 35.6263C54.1781 36.1451 53.6635 36.6406 53.1206 37.1109C52.5468 37.6064 51.8466 37.9709 51.08 38.1732C50.3047 38.3256 49.5014 38.3256 48.7261 38.1732C47.9676 38.0383 47.258 37.8423 46.5093 37.6421C45.807 37.4526 45.0798 37.3457 44.3463 37.3243C43.6412 37.3376 42.9681 37.5881 42.4622 38.0252C41.96 38.5001 41.5498 39.046 41.2486 39.6404L39.2128 43.2105C38.5521 44.3903 37.8817 45.6006 37.3238 46.8589C36.766 48.1171 36.2913 49.3796 35.8557 50.6466L35.5229 51.6131C35.4191 51.9206 35.3728 52.2413 35.3859 52.5622C35.4478 53.2246 35.5856 53.8796 35.797 54.517C35.8753 54.8348 35.9928 55.1875 36.0368 55.5009C36.0746 55.6717 36.0959 55.845 36.1004 56.019C36.1004 56.1932 36.1004 56.363 36.1004 56.5371C36.1581 57.1858 36.2743 57.8293 36.4479 58.4615C36.6126 59.1097 36.8554 59.7403 37.1721 60.3423L37.6615 61.2739L37.7936 61.4916L37.8817 61.7398L38.1019 62.2013C38.3809 62.8456 38.5913 63.4769 38.8262 64.1169C38.9485 64.4347 39.0268 64.7526 39.1443 65.1052C39.2641 65.427 39.3589 65.7558 39.4281 66.0891L39.7071 67.0731L39.9517 68.0527C40.1132 68.7188 40.2355 69.3805 40.397 70.0466C40.9255 72.698 41.3415 75.3407 41.8309 77.9878C42.0805 79.2939 42.3203 80.6348 42.6482 81.9322C42.7314 82.2501 42.8097 82.5984 42.8929 82.9118L43.0347 83.4081V83.5126C43.0347 83.5475 43.0641 83.6171 43.0347 83.6519V83.7869C43.0347 83.8217 42.9858 83.887 42.9858 83.9175C42.7435 84.1849 42.4837 84.4393 42.2077 84.6794C42.1681 84.7288 42.1367 84.7831 42.1147 84.8405C42.1147 84.8753 42.1147 84.8753 42.149 84.9145L42.2175 84.9885C42.3639 85.0856 42.5301 85.1566 42.7069 85.1975C43.4217 85.3948 44.1532 85.5404 44.8944 85.6329C45.6578 85.7287 46.3624 85.8897 47.1258 86.0247C48.5939 86.2859 50.0621 86.5428 51.5595 86.7692C54.4957 87.2568 57.5151 87.6791 60.4856 87.9969C63.4561 88.3148 66.4804 88.5324 69.4704 88.6805L70.5813 88.7371C70.947 88.7846 71.3201 88.7578 71.6726 88.6587C71.8337 88.5973 71.9744 88.5003 72.0815 88.3768C72.1886 88.2534 72.2584 88.1076 72.2843 87.9534C72.3577 87.653 72.3136 87.3047 72.3528 86.9651C72.4013 86.285 72.5663 85.6155 72.8421 84.9798C73.1015 84.3485 73.3951 83.7216 73.6545 83.0947C73.9544 82.4809 74.2014 81.8478 74.3935 81.2008C74.4521 81.0479 74.4947 80.8905 74.5207 80.7306C74.5684 80.5755 74.5978 80.4165 74.6088 80.2561L74.6626 79.7815C74.6626 79.6117 74.6626 79.4376 74.6626 79.2678C74.6429 78.594 74.6625 77.9197 74.7213 77.2477C74.7941 76.568 74.9805 75.9018 75.2743 75.2711C75.5861 74.6494 75.9983 74.0715 76.4977 73.5557C76.9871 73.0115 77.4764 72.537 77.9658 72.0319C78.2074 71.7778 78.4281 71.5087 78.6264 71.2265C78.8447 70.9585 79.0426 70.6778 79.2186 70.3862C79.5503 69.7929 79.8095 69.1697 79.9918 68.5272C80.1748 67.8843 80.2831 67.2263 80.3148 66.5637C80.3711 65.9029 80.3711 65.2392 80.3148 64.5784C80.2218 63.2331 80.0163 61.9096 79.8254 60.5904L79.752 60.1551L80.1484 60.3945C83.3244 62.4451 86.5102 64.4913 89.9994 66.0543C91.7275 66.8613 93.5445 67.5077 95.4216 67.983C97.2915 68.4478 99.2253 68.6779 101.167 68.6665C101.656 68.6404 102.145 68.6448 102.605 68.5838C103.072 68.5319 103.532 68.443 103.981 68.3182C104.427 68.1938 104.849 68.0104 105.233 67.774C105.604 67.527 105.912 67.2142 106.139 66.8554C106.513 66.0764 106.643 65.2219 106.516 64.3825C106.486 63.9471 106.452 63.5117 106.423 63.0764C106.393 62.641 106.359 62.2056 106.295 61.7703C105.892 58.312 105.25 54.8792 104.372 51.4912C103.937 49.7715 103.457 48.1214 102.938 46.4322C102.42 44.743 101.867 43.0798 101.274 41.4211C100.682 39.7623 100.08 38.0949 99.4882 36.4318L98.5536 33.9545C98.2016 33.1423 97.9281 32.3048 97.7363 31.4511C97.662 31.019 97.644 30.5808 97.6825 30.145C97.7409 29.7123 97.8374 29.2843 97.9712 28.865C98.1922 28.0183 98.3557 27.1606 98.4605 26.2963C98.6134 24.5566 98.5921 22.8083 98.3969 21.0719C98.3333 20.2012 98.2306 19.3304 98.1327 18.4597C98.0348 17.589 97.6776 19.1084 97.4965 18.2333C97.3154 17.3582 96.9337 17.7413 96.5178 16.9533C96.0963 16.1977 95.5224 15.5174 94.8246 14.9463V14.955Z" fill="black"/>
<path d="M73.7472 51.748C73.7913 53.1586 73.5906 54.6868 72.4504 55.6228C71.1829 56.6808 69.1521 56.5806 67.5127 56.0321C64.3122 54.9741 61.8996 52.6449 59.629 50.3984C57.4366 48.1911 55.2247 45.9794 53.4581 43.5021C52.3814 42.0045 51.5006 40.3544 50.1499 39.0744C48.7993 37.7944 46.8027 36.8061 44.8452 37.1196C46.8682 40.3183 48.4489 43.723 49.5529 47.2594C49.9753 48.3509 50.1288 49.5106 50.0031 50.6596C49.7192 51.9294 49.0777 53.1143 48.1386 54.1034C45.4226 57.2032 42.7556 58.0435 38.4834 59.0274C37.7347 59.2059 36.8587 59.441 36.6776 60.0766C36.6312 60.3401 36.6412 60.6089 36.707 60.869C37.7249 65.14 39.5404 69.4414 40.8323 73.6689C42.1243 77.8963 41.6349 83.5823 40.6073 87.8532C39.976 90.509 38.6792 92.9732 37.9353 95.6202C37.7494 96.2907 37.627 97.07 38.0723 97.6229C38.3844 97.9596 38.799 98.209 39.2664 98.3413C48.1125 101.894 57.7092 103.726 67.4148 103.714C67.8104 103.747 68.2081 103.673 68.555 103.5C68.8592 103.261 69.0685 102.94 69.1521 102.586C71.9464 95.4461 74.7505 88.2189 76.2333 80.7785C76.5709 79.037 76.8694 77.3303 77.7014 75.75C78.6263 73.9432 80.2069 72.4629 81.1269 70.6518C82.737 67.4605 82.0567 63.6641 80.6669 60.3901C79.2771 57.1161 77.2414 54.0337 76.1109 50.6422C75.5824 49.0879 74.4519 44.0899 72.7245 42.9144C72.3281 42.6401 71.0606 42.6053 70.5321 42.5269C71.4962 45.3524 73.6396 48.6874 73.7472 51.748Z" fill="#55C6FF"/>
<path d="M73.8403 5.05895C76.4045 8.70735 76.2479 13.3614 75.8418 17.6847C75.4649 21.6422 74.863 25.6519 72.9055 29.1915C72.3623 30.1188 71.6625 31.0418 70.5517 31.3945C69.7915 31.5729 68.9923 31.5729 68.2321 31.3945C64.0969 30.6861 60.1447 29.303 56.5753 27.315C55.3274 26.601 54.0795 25.7825 53.5608 24.5461C52.954 23.105 53.4874 21.468 54.0796 20.0182C56.0346 15.3674 58.772 11.0076 62.1982 7.08777C63.3471 5.698 64.7075 4.45694 66.2404 3.40019C67.3512 2.69054 68.6872 1.86334 70.0868 2.25953C71.6821 2.61217 72.9985 3.84427 73.8403 5.05895Z" fill="white"/>
<path d="M64.9631 30.7894C61.9548 30.0207 59.0857 28.8727 56.4432 27.3804C55.2247 26.7099 53.9132 25.8392 53.37 24.5592C52.7338 23.079 53.2574 21.4724 53.8593 19.9574C55.8174 15.2881 58.5668 10.9128 62.0122 6.98335C63.1672 5.57886 64.5434 4.32961 66.0984 3.274C67.317 2.48598 68.6432 1.72408 70.0428 2.08544H70.077C71.9953 2.57741 73.2922 4.12297 73.8843 4.98935C76.5416 8.73353 76.3018 13.5095 75.9005 17.6717C75.5188 21.5247 74.9952 25.5867 72.9301 29.2133C72.4652 30.0188 71.7115 31.1028 70.5174 31.4685C69.7301 31.6428 68.9068 31.6428 68.1195 31.4685C67.1212 31.277 66.03 31.068 64.9631 30.7894ZM70.0281 2.29877C68.741 1.96354 67.5078 2.67754 66.304 3.43509C64.7728 4.47723 63.4152 5.70702 62.2716 7.08784C58.8392 10.9975 56.0981 15.3506 54.1432 19.9965C53.5021 21.4681 53.0225 23.0441 53.6098 24.446C54.1334 25.652 55.4107 26.514 56.595 27.1758C60.1484 29.1642 64.0942 30.5338 68.2223 31.2117C68.9681 31.3749 69.7472 31.3749 70.493 31.2117C71.5989 30.8938 72.2841 29.9056 72.7441 29.0914C74.7897 25.5257 75.3133 21.4681 75.6803 17.6499C76.0718 13.5182 76.292 8.80755 73.6983 5.11561C73.1502 4.271 71.8632 2.8038 70.0281 2.29877Z" fill="black"/>
<path d="M67.9484 4.09245C67.9484 4.09245 68.1148 5.06768 71.1587 5.83393C74.2026 6.60018 74.5158 10.5054 74.276 15.3598C74.0362 20.2142 85.9327 3.53517 66.5243 0.439697C66.5243 0.439697 64.743 2.34662 67.9484 4.09245Z" fill="black"/>
<path d="M86.7792 22.5086C87.5475 23.9802 87.9978 25.5562 88.7661 27.0321C89.0891 27.6416 89.6322 28.3382 90.3712 28.2642C90.655 28.2252 90.9211 28.1167 91.1395 27.9507C91.9372 27.3325 92.6076 26.2093 92.8132 24.4896C92.911 23.5709 92.3238 22.8003 91.7708 21.9644C90.4544 19.8311 86.6226 15.9433 83.1824 16.4135C81.2689 16.6616 81.5821 18.8167 83.0404 18.8689C85.1154 18.9081 85.8739 20.7541 86.7792 22.5086Z" fill="white"/>
<path d="M63.417 15.2728C64.3957 15.4252 65.3011 15.6733 66.177 15.7474C66.5883 15.7953 67.0065 15.7473 67.3907 15.608C67.5556 15.5133 67.6891 15.381 67.7773 15.2249C67.8703 15.0638 67.929 14.8636 68.0318 14.6328C68.1056 14.8561 68.1207 15.0914 68.0758 15.3207C68.0229 15.566 67.8922 15.7926 67.699 15.9738C67.4773 16.1446 67.2118 16.2642 66.9258 16.322C66.6583 16.3682 66.3847 16.38 66.1134 16.3569C65.6052 16.3084 65.1093 16.1864 64.6453 15.9955C64.2086 15.7935 63.7969 15.5513 63.417 15.2728Z" fill="black"/>
<path d="M66.7889 24.1673C67.1671 24.5579 67.686 24.8195 68.257 24.9075C69.3923 25.1077 70.5912 24.3154 71.7266 24.5461C71.0855 25.3832 70.2916 26.119 69.3776 26.723C69.1686 26.881 68.9176 26.9889 68.6485 27.0364C67.7432 27.2019 66.9846 26.3834 66.7595 25.6084C66.5791 25.0604 66.5341 24.4842 66.6274 23.9192L66.7889 24.1673Z" fill="#EE7120"/>
<path d="M70.6105 16.4918C70.7093 17.9119 71.1253 19.3001 71.8339 20.5756L71.9024 20.6844L71.78 20.741C71.2615 20.9695 70.6695 21.0296 70.1064 20.9108C69.5688 20.7949 69.1023 20.4985 68.8047 20.0836C69.1591 20.4146 69.6255 20.6333 70.1326 20.7064C70.6398 20.7796 71.1599 20.703 71.6136 20.4885L71.5549 20.6888C70.7698 19.4071 70.4405 17.9436 70.6105 16.4918Z" fill="black"/>
<path d="M71.7849 22.4694L71.2515 21.5769C70.8166 21.6472 70.3701 21.6368 69.9399 21.5464C69.2076 21.3886 68.5736 20.9824 68.1733 20.4145L69.3674 19.6656C69.5889 19.891 69.8987 20.0327 70.2336 20.0618H70.2874H70.4391C69.9217 18.8982 69.7303 17.6401 69.8812 16.396L71.3493 16.4265C71.4268 17.4502 71.6742 18.4581 72.0834 19.4175L72.8223 18.9821L72.4651 20.1924L72.4994 20.2577L72.9055 20.9282L72.1373 21.2939L71.7849 22.4694Z" fill="white"/>
<path d="M65.2762 12.2382C64.4003 12.1337 63.1328 12.1294 62.3106 12.5734C60.8817 13.3484 60.2014 15.042 60.1574 16.5788C60.1133 16.9778 60.2036 17.3794 60.4168 17.7326C60.5939 17.8938 60.8128 18.0139 61.0543 18.0822C61.2958 18.1506 61.5525 18.165 61.8017 18.1244C64.1297 18.0053 66.3507 17.2152 68.1292 15.8735C68.3139 15.7687 68.4727 15.6318 68.5964 15.4709C68.72 15.31 68.8058 15.1286 68.8486 14.9375C69.1813 13.2178 66.4948 12.3775 65.2762 12.2382Z" fill="white"/>
<path d="M88.4432 26.3094C88.6488 25.0425 87.9539 23.3576 86.6962 22.7176L81.1614 20.0619C82.8791 20.7628 83.8921 21.1067 85.6147 21.8033C86.1382 22.032 86.6796 22.227 87.2345 22.3867C87.7596 22.4981 88.2748 22.6436 88.776 22.8221C89.3046 23.0891 89.7972 23.409 90.2441 23.7756C91.2789 24.512 92.4542 25.0768 93.7137 25.443C93.7137 25.443 99.7574 26.7491 101.284 21.8817C102.811 17.0143 99.7721 15.9563 99.7721 15.9563L80.8238 12.2687L66.2993 14.8548L66.4951 22.3824C66.4951 22.3824 74.8486 27.8811 77.8044 30.0275C77.8044 30.0275 81.2299 32.4568 85.1791 30.6457C87.8315 29.4267 88.223 27.7026 88.4432 26.3094Z" fill="black"/>
<path d="M64.3414 37.7161C65.2908 34.9776 67.9823 32.7572 68.1879 29.8794C68.2117 29.1502 68.151 28.4207 68.0068 27.7026L66.9938 21.4811C66.8663 20.8684 66.8235 20.2441 66.8666 19.6221C66.9791 18.7165 67.6447 16.8401 68.5598 16.3133C68.9366 16.1 69.4847 16.1696 69.9055 16.0303C70.5417 15.8213 71.0262 15.3468 71.6868 15.1857C72.4992 14.9854 73.3458 15.2945 74.1875 15.3163C75.0292 15.3381 76.0471 14.7808 75.8318 14.0581C75.6165 13.3354 74.6084 13.2744 73.9722 12.8565C73.4828 12.5256 73.2088 11.9857 72.6998 11.6592C71.8875 11.1672 70.7668 11.4372 69.837 11.1498C69.2645 10.9713 68.7849 10.5838 68.1879 10.4619C66.8176 10.192 65.4915 11.4502 64.1212 11.1629C63.8472 11.1063 63.5486 10.9931 63.2991 11.1063C63.1736 11.1736 63.0693 11.2679 62.9957 11.3806L59.5701 15.7343C58.9405 16.436 58.4792 17.245 58.2145 18.1114C58.103 18.9404 58.1561 19.7803 58.3712 20.593C59.1002 24.5854 59.12 28.6549 58.4299 32.6527C58.4299 32.6527 55.4007 56.1017 52.1513 60.3335C48.9019 64.5653 41.0083 39.636 41.0083 39.636C41.0083 39.636 33.8783 47.6338 35.5764 54.5866C37.2745 61.5395 45.4518 72.1973 50.2868 74.3089C55.1217 76.4204 58.7186 71.9187 60.7348 62.6018C62.751 53.2849 64.3414 37.7161 64.3414 37.7161Z" fill="white"/>
<path d="M64.2928 37.7073C65.1248 35.3128 67.1458 33.4364 67.875 31.0549C68.0524 30.4663 68.1284 29.857 68.1001 29.2481C68.0532 28.6366 67.9698 28.0276 67.8505 27.4239L67.2045 23.7668L66.8767 21.9426C66.7503 21.3267 66.6669 20.7044 66.6271 20.0792C66.638 19.4401 66.7636 18.8067 66.999 18.2028C67.2038 17.5743 67.5354 16.9841 67.9778 16.4613C68.101 16.3215 68.2479 16.1996 68.4133 16.1C68.5917 15.9984 68.7915 15.9303 69.0005 15.8997C69.3225 15.8824 69.6394 15.8207 69.9401 15.7168C70.2333 15.5779 70.5161 15.4223 70.7867 15.251C71.1049 15.0512 71.4666 14.9133 71.8486 14.8461C72.5679 14.8071 73.2898 14.8495 73.997 14.9724C74.1433 14.9878 74.2911 14.9878 74.4374 14.9724C74.5783 14.951 74.7161 14.9159 74.8485 14.8679C75.0942 14.7844 75.3023 14.6315 75.4406 14.4325C75.4884 14.3526 75.507 14.2615 75.4938 14.1717C75.4807 14.082 75.4364 13.9981 75.3672 13.9318C75.1546 13.7566 74.9051 13.6205 74.6332 13.5313C74.2826 13.4071 73.9531 13.2401 73.6544 13.035C73.3846 12.8089 73.1389 12.5612 72.9204 12.2948C72.752 12.0924 72.5278 11.932 72.2695 11.829C71.985 11.7378 71.686 11.6878 71.3838 11.681C71.051 11.6592 70.6937 11.6548 70.3169 11.6069C69.9244 11.5595 69.5457 11.4457 69.2012 11.2717C68.9215 11.1218 68.6304 10.9895 68.3301 10.8755C68.0718 10.7917 67.7931 10.7707 67.5226 10.8146C66.8778 10.9757 66.2452 11.1735 65.6288 11.4067C65.25 11.5241 64.8503 11.5787 64.4494 11.5678C64.2453 11.5566 64.0433 11.5245 63.8475 11.472C63.749 11.4391 63.6444 11.4229 63.5392 11.4241C63.5392 11.4241 63.5392 11.4241 63.505 11.4241C63.4657 11.4564 63.4311 11.4929 63.4021 11.5329L63.1085 11.9074L62.5115 12.6649L60.1283 15.7125C59.3306 16.7182 58.5476 17.6978 58.577 18.8428C58.5995 19.4419 58.6731 20.0386 58.7972 20.6278C58.9 21.2417 58.9929 21.8599 59.0566 22.4781C59.2026 23.7147 59.2777 24.9571 59.2817 26.2005C59.2817 27.4413 59.2328 28.6821 59.1006 29.9186C59.0419 30.5368 58.9538 31.1507 58.8609 31.7646L58.7042 32.6788L58.5721 33.5975C58.2002 36.0442 57.8331 38.491 57.4172 40.9291C57.0012 43.3672 56.5461 45.8052 56.0763 48.2346C55.6065 50.664 55.0633 53.0933 54.3782 55.4922C54.0494 56.6982 53.6409 57.8859 53.1548 59.0492C53.0227 59.3365 52.8857 59.6282 52.7242 59.9199C52.5661 60.2211 52.3564 60.4987 52.1027 60.7427C51.9479 60.8778 51.7524 60.9701 51.5399 61.0083C51.3251 61.0401 51.1047 61.0175 50.9037 60.943C50.5575 60.802 50.2476 60.5989 49.9935 60.3466C49.0848 59.3843 48.3274 58.3166 47.7424 57.1727C47.1209 56.0582 46.5679 54.9219 46.0394 53.7725C43.9645 49.1793 42.2468 44.4817 40.6563 39.7405L41.3806 39.8711C40.2447 41.2348 39.2396 42.681 38.3759 44.1944C37.5023 45.6999 36.8196 47.2871 36.3401 48.9268C35.8518 50.5406 35.7254 52.2241 35.9682 53.8813C36.3312 55.5313 36.9076 57.1383 37.6859 58.6704C39.2433 61.7889 41.1657 64.7527 43.4213 67.5127C44.5321 68.8955 45.7538 70.205 47.0768 71.4311C47.7313 72.0359 48.4329 72.5989 49.1762 73.116C49.8829 73.6211 50.6919 74.0009 51.5595 74.2349C52.3816 74.4669 53.2696 74.4314 54.065 74.1347C54.8693 73.7869 55.5726 73.2789 56.1203 72.6501C57.2556 71.3066 58.1351 69.8064 58.7238 68.2093C60.0011 65.0007 60.7156 61.6091 61.3615 58.222C62.0075 54.8348 62.5507 51.4171 63.0449 48.0038C63.5392 44.5905 63.916 41.1424 64.2928 37.7073ZM64.3858 37.7073C64.053 41.1294 63.6664 44.5644 63.2407 47.9864C62.8149 51.4084 62.3892 54.8348 61.8509 58.2524C61.5817 59.9591 61.2832 61.6614 60.926 63.3637C60.5822 65.0754 60.1013 66.7631 59.4872 68.414C58.9018 70.1065 58.0056 71.7012 56.8349 73.1334C56.2091 73.8791 55.3875 74.477 54.4418 74.8748C53.4484 75.2734 52.3284 75.3458 51.2806 75.0795C50.2872 74.8217 49.3596 74.3944 48.5498 73.8213C47.7636 73.2808 47.0227 72.69 46.333 72.0536C44.9729 70.7969 43.7153 69.4555 42.5698 68.0395C40.2503 65.2357 38.2935 62.2082 36.7365 59.0143C35.9347 57.403 35.3467 55.714 34.9846 53.9815C34.7349 52.2119 34.8795 50.4159 35.4103 48.6961C35.9195 47.0009 36.6383 45.3611 37.5538 43.8069C38.4523 42.251 39.5071 40.7705 40.7053 39.3835L41.1946 38.8088L41.4198 39.5141C42.9221 44.2466 44.5615 48.966 46.5581 53.5504C47.0475 54.6955 47.5907 55.8318 48.1877 56.9333C48.7316 58.0455 49.4428 59.0869 50.3018 60.0288C50.5047 60.2415 50.7546 60.4148 51.0359 60.5381C51.1549 60.5883 51.2885 60.6043 51.4182 60.5841C51.548 60.5638 51.6674 60.5082 51.7601 60.4249C51.9797 60.2153 52.1628 59.9775 52.3033 59.7196C52.4648 59.4541 52.6018 59.1754 52.734 58.8968C53.2396 57.7615 53.6614 56.598 53.9965 55.4138C55.3009 50.6242 56.3169 45.7759 57.0404 40.8899C57.4221 38.4475 57.7989 36.0051 58.0974 33.5539L58.21 32.6353L58.3421 31.7167C58.4253 31.1071 58.4938 30.4976 58.5379 29.8838C58.6398 28.6626 58.6708 27.4376 58.6308 26.2136C58.6 24.9894 58.5004 23.7674 58.3323 22.5521C58.254 21.9426 58.1463 21.3375 58.0338 20.7366C57.889 20.114 57.7991 19.4822 57.7647 18.8471C57.7531 18.1735 57.9296 17.5078 58.2785 16.9097C58.6151 16.3503 58.9945 15.8121 59.4138 15.2989L61.7775 12.2513L62.3696 11.4894L62.6632 11.1063C62.7319 11.0181 62.8107 10.9364 62.8981 10.8625C63.0194 10.7674 63.166 10.7015 63.3239 10.6709C63.5637 10.6395 63.8085 10.6589 64.0383 10.7275C64.1737 10.7636 64.3133 10.7855 64.4543 10.7928C64.7481 10.7983 65.0404 10.754 65.3156 10.6622C65.9717 10.4066 66.6511 10.2012 67.3465 10.0483C67.7643 9.98458 68.1937 10.0222 68.5895 10.1572C68.9269 10.2816 69.2539 10.4271 69.5682 10.5925C69.825 10.7288 70.1093 10.819 70.405 10.8581C70.7133 10.9016 71.051 10.9104 71.3838 10.9365C71.7763 10.9496 72.1634 11.0217 72.5289 11.1498C72.904 11.3023 73.2303 11.5358 73.4783 11.829C73.6657 12.0635 73.8752 12.2835 74.1046 12.4864C74.3527 12.6522 74.6242 12.7884 74.9121 12.8913C75.2844 13.0225 75.6188 13.2263 75.8908 13.4877C76.0509 13.6564 76.1509 13.8637 76.1779 14.0832C76.2049 14.3027 76.1578 14.5243 76.0426 14.7198C75.8218 15.0565 75.4755 15.3138 75.0638 15.4469C74.8745 15.5117 74.6774 15.557 74.4765 15.5819C74.2783 15.6038 74.0778 15.6038 73.8795 15.5819C73.2368 15.456 72.5802 15.3947 71.9221 15.399C71.3446 15.4556 70.8552 15.8953 70.1505 16.187C69.8012 16.2994 69.4351 16.3654 69.0642 16.383C68.9276 16.3954 68.7957 16.434 68.6775 16.4961C68.5556 16.5698 68.4453 16.6576 68.3496 16.7574C67.9447 17.2222 67.635 17.7469 67.4345 18.3073C67.194 18.8642 67.0585 19.4526 67.0333 20.0488C67.0511 20.6572 67.1165 21.2639 67.229 21.8643L67.4981 23.6972L68.0414 27.3673C68.1295 27.9768 68.242 28.5864 68.2665 29.2133C68.2889 29.8392 68.2048 30.4645 68.0169 31.068C67.278 33.5191 65.2275 35.3868 64.3858 37.7248V37.7073Z" fill="black"/>
<path d="M59.3552 18.3336C59.3944 20.5105 58.7728 28.2339 58.1954 30.3803C57.2558 33.8023 56.7811 33.2102 55.0243 36.3579C53.0277 39.9323 52.5139 44.0422 52.2496 48.0302C51.9853 52.0181 50.8647 56.3892 47.2336 58.6619C44.9629 60.0855 41.9876 60.5209 40.1377 62.3538C38.7577 63.7165 38.1803 65.7584 36.399 66.7423C33.7319 68.2705 29.9148 66.098 29.2052 63.329C28.4956 60.5601 29.9833 57.7694 31.7744 55.414C33.5655 53.0587 34.2947 50.786 35.3468 48.1303C36.399 45.4745 37.6713 42.6272 38.283 39.7973C38.8752 37.1024 40.2405 34.6121 41.2584 32.0521C43.2697 26.8668 43.8569 21.3246 45.3789 16.0305C46.9008 10.7364 49.5923 5.33783 54.6279 2.19011C57.6816 0.283188 70.0235 -2.35515 67.9143 4.08832C67.2879 6.02571 63.4806 5.56857 62.1006 7.68447C60.2899 10.571 59.3161 15.0335 59.3552 18.3336Z" fill="black"/>
<path d="M87.0396 26.702C87.2771 24.4541 85.6286 22.4779 83.3575 22.2879C81.0864 22.098 79.0528 23.7663 78.8153 26.0142C78.5778 28.2621 80.2263 30.2384 82.4974 30.4283C84.7685 30.6182 86.8021 28.9499 87.0396 26.702Z" fill="#55C6FF"/>
<path d="M100.169 20.7005C100.394 18.5747 98.9332 16.7141 96.907 16.5446C94.8807 16.3752 93.0561 17.9611 92.8315 20.0869C92.6069 22.2127 94.0674 24.0734 96.0936 24.2428C98.1198 24.4123 99.9444 22.8263 100.169 20.7005Z" fill="#55C6FF"/>
<path d="M83.7746 10.179C84.7533 10.0962 85.732 10.2181 86.7108 10.1528C87.4348 10.0415 88.1727 10.021 88.9031 10.0919C89.6098 10.2685 90.2591 10.5923 90.797 11.0366C92.3767 12.1883 93.7785 13.5205 94.9664 14.9985C93.9239 15.1062 92.8709 14.8992 91.9764 14.4107C91.7694 14.2757 91.542 14.1672 91.3011 14.0886C90.9732 14.0102 90.6258 14.0886 90.293 14.0233C89.8036 13.9492 89.4268 13.6488 88.9521 13.5879C88.648 13.5723 88.3431 13.6048 88.0516 13.6837C85.7501 14.1586 83.3709 14.2589 81.0292 13.9797C80.5399 13.9188 79.155 13.8099 78.9103 13.3354C78.6656 12.8608 79.3996 12.2339 79.752 11.903C80.8254 10.928 82.2485 10.318 83.7746 10.179Z" fill="white"/>
<path d="M83.7695 10.1354C84.8902 10.0483 86.0353 10.1354 87.1119 9.93512C87.6854 9.80443 88.2774 9.75014 88.8687 9.77404C89.4875 9.8466 90.0744 10.0612 90.5717 10.3966C91.5031 10.9958 92.3465 11.6964 93.0822 12.482C93.8124 13.2555 94.4905 14.0667 95.1131 14.9114L95.2697 15.1204L94.9956 15.1421C93.9987 15.2252 92.9957 15.0546 92.1035 14.6502C91.8784 14.55 91.6679 14.4281 91.4722 14.3498C91.2837 14.2739 91.076 14.2439 90.8702 14.2627C90.6073 14.2863 90.342 14.2761 90.0824 14.2322C89.8368 14.1723 89.5964 14.0966 89.363 14.0058C89.1847 13.9353 88.9903 13.9025 88.7953 13.91C88.5859 13.9306 88.3793 13.97 88.1787 14.0276C87.6894 14.1451 87.2 14.2366 86.74 14.3193C85.7699 14.4723 84.7886 14.5625 83.8038 14.5892C82.8215 14.6124 81.8388 14.557 80.8676 14.4238C80.351 14.3738 79.8422 14.273 79.3506 14.1234C79.0095 14.0229 78.7197 13.8176 78.5333 13.5443C78.4386 13.3762 78.4077 13.1852 78.4452 13.0001C78.4743 12.8468 78.534 12.6994 78.6214 12.5648C78.9242 12.1822 79.2943 11.8455 79.7176 11.5678C80.1071 11.2873 80.5306 11.0463 80.9801 10.8494C81.8515 10.4582 82.7977 10.216 83.7695 10.1354ZM83.7695 10.2225C82.8195 10.3144 81.9133 10.6267 81.1416 11.128C80.7668 11.3719 80.4237 11.6523 80.1188 11.9639C79.8146 12.2492 79.5531 12.5682 79.3408 12.9131C79.3151 12.97 79.3002 13.0303 79.2967 13.0916C79.2995 13.1194 79.3095 13.1462 79.3261 13.1699L79.4239 13.2265C79.5017 13.2622 79.5838 13.2899 79.6686 13.3092C80.0946 13.4197 80.5326 13.4898 80.9752 13.5182C81.4646 13.5618 81.9099 13.6053 82.3797 13.6358C82.8495 13.6662 83.3144 13.6749 83.7842 13.6837C84.7234 13.6975 85.6624 13.648 86.5932 13.5356C87.0825 13.4834 87.523 13.4137 87.9879 13.3397C88.2508 13.2847 88.5203 13.2584 88.7904 13.2613C89.0805 13.2803 89.3626 13.3545 89.6175 13.479C89.8137 13.5794 90.0163 13.6696 90.2243 13.749C90.4314 13.8076 90.6482 13.8341 90.8653 13.8273C91.143 13.8339 91.4149 13.8996 91.6581 14.0189C91.8881 14.1408 92.0644 14.2758 92.265 14.3759C93.0719 14.8017 94.0181 14.9691 94.9467 14.8504L94.8342 15.0812C94.1462 14.301 93.3867 13.5729 92.5635 12.9043C91.7414 12.2513 90.8997 11.5982 90.0628 10.9974C89.6729 10.7123 89.224 10.4978 88.7415 10.3661C88.2164 10.2742 87.6792 10.2493 87.1462 10.2921C86.001 10.3487 84.8951 10.1354 83.7793 10.2225H83.7695Z" fill="black"/>
<path d="M94.5945 17.7152C95.4623 17.3779 96.4388 17.3346 97.3399 17.5933C97.8056 17.696 98.2288 17.9142 98.5606 18.2225C98.8924 18.5308 99.119 18.9165 99.2142 19.3348C99.6057 21.3201 98.0642 23.2531 98.0642 23.2531C98.0642 23.2531 98.1523 22.7568 98.2942 21.2243C98.4361 19.6918 97.8391 17.811 95.2748 17.9808C93.9584 18.0591 94.1247 17.8937 94.5945 17.7152Z" fill="#69D5FF"/>
<path d="M81.5872 23.5665C82.4577 23.2324 83.4349 23.1906 84.3374 23.449C84.8024 23.552 85.225 23.7703 85.5559 24.0786C85.8869 24.3869 86.1126 24.7725 86.2069 25.1905C86.5984 27.1714 85.0568 29.1088 85.0568 29.1088C85.0568 29.1088 85.1449 28.6125 85.2918 27.08C85.4386 25.5475 84.8317 23.671 82.2674 23.8408C80.951 23.9105 81.1174 23.7494 81.5872 23.5665Z" fill="#69D5FF"/>
</svg>
