<svg width="120" height="120" viewBox="0 0 120 120" fill="none" xmlns="http://www.w3.org/2000/svg">
<circle cx="60" cy="60" r="60" fill="white"/>
<mask id="mask0" mask-type="alpha" maskUnits="userSpaceOnUse" x="0" y="0" width="120" height="120">
<circle cx="60" cy="60" r="60" fill="white"/>
</mask>
<g mask="url(#mask0)">
<path d="M24.6443 71.5279C24.6443 71.5279 29.9255 65.3088 29.9262 59.1975C29.9269 53.0861 37.9193 62.1154 37.9193 62.1154C37.9193 62.1154 36.157 77.304 34.2754 77.0451C32.3832 76.7844 24.6443 71.5279 24.6443 71.5279Z" fill="white"/>
<path d="M24.5918 71.5338C24.5934 71.5101 24.6055 71.4882 24.6176 71.4662L24.6297 71.4442L24.6539 71.4003L24.7015 71.3243L24.8081 71.1622L25.0211 70.838C25.1632 70.6219 25.2948 70.404 25.4263 70.1861C25.6999 69.7521 25.9526 69.3147 26.2157 68.879C26.7217 67.9923 27.197 67.0887 27.632 66.1545C28.4906 64.2963 29.1867 62.3278 29.454 60.2655L29.491 59.8767L29.5152 59.6772L29.528 59.4879L29.5553 59.0855L29.5706 58.8607L29.5963 58.6375C29.6269 58.3434 29.6898 58.0425 29.8043 57.7621C29.9189 57.4816 30.0868 57.1979 30.333 57.0107C30.5793 56.8235 30.8813 56.7531 31.1567 56.7621C31.4322 56.7711 31.6931 56.8376 31.941 56.9378C32.4378 57.1265 32.8862 57.403 33.3224 57.7015C33.7587 58 34.1724 58.3187 34.5844 58.661C34.9859 59.0017 35.398 59.3441 35.7882 59.6949C36.1785 60.0457 36.5679 60.4083 36.9565 60.7827C37.346 61.1454 37.7128 61.5282 38.0902 61.9128L38.1693 61.9975L38.1597 62.1395C38.06 63.2959 37.9604 64.4522 37.8284 65.6153C37.6972 66.7665 37.545 67.9143 37.3719 69.0586C37.1987 70.203 37.0045 71.3439 36.7683 72.478C36.6555 73.0459 36.5217 73.6104 36.3773 74.1732C36.233 74.7359 36.0677 75.2953 35.8498 75.846C35.7457 76.1282 35.6215 76.3951 35.4754 76.6704C35.4028 76.8022 35.3188 76.944 35.2139 77.0825C35.109 77.2209 34.983 77.3559 34.7949 77.4688C34.74 77.4958 34.6851 77.5227 34.631 77.5378C34.5664 77.5512 34.5009 77.5765 34.4371 77.578C34.4048 77.5847 34.3628 77.5779 34.3313 77.5727C34.2998 77.5676 34.257 77.5726 34.236 77.5692L34.1205 77.5503C34.0785 77.5435 34.0365 77.5366 34.0058 77.5197L33.9016 77.4907C33.8289 77.4669 33.7562 77.4431 33.694 77.421C33.4137 77.3274 33.1673 77.2035 32.9105 77.0779C31.9144 76.5804 30.9765 76.0087 30.0402 75.4134C29.5716 75.1216 29.1152 74.8079 28.6587 74.4942C28.2023 74.1804 27.7458 73.8667 27.3007 73.5429C26.845 73.2173 26.3999 72.8935 25.9555 72.5578C25.7333 72.3899 25.5112 72.2221 25.289 72.0543L24.9561 71.7966L24.7953 71.6627L24.7146 71.6017L24.6742 71.5711L24.654 71.5559C24.6209 71.5744 24.6015 71.5473 24.5918 71.5338ZM24.6879 71.5255C24.6992 71.5154 24.6895 71.5018 24.6895 71.5018L24.7097 71.5171L24.7509 71.5358L24.843 71.5867L25.0167 71.6868L25.3745 71.8887L26.0903 72.2926L27.5113 73.0986L28.9323 73.9046L30.3549 74.6869C30.8258 74.9432 31.3073 75.2012 31.7791 75.4456C32.2508 75.69 32.7339 75.9243 33.2081 76.1333C33.322 76.1758 33.4456 76.2318 33.5595 76.2743L33.7356 76.3389L33.9117 76.4035C33.9739 76.4256 34.0264 76.4342 34.0781 76.4546L34.1613 76.4801C34.1928 76.4852 34.2138 76.4887 34.2348 76.4921L34.3083 76.5041C34.3293 76.5075 34.3188 76.5058 34.3083 76.5041L34.2978 76.5024L34.2873 76.5007L34.2986 76.4905C34.3317 76.472 34.389 76.4096 34.4471 76.3353C34.5052 76.261 34.565 76.163 34.615 76.0515C34.7248 75.8421 34.8264 75.5954 34.9168 75.3589C35.2814 74.3654 35.558 73.2618 35.8233 72.1684C36.078 71.0732 36.3029 69.9493 36.5165 68.8354C36.7308 67.7097 36.9242 66.5806 37.1281 65.4532C37.332 64.3258 37.5358 63.1985 37.7082 62.0659L37.7777 62.2926C37.444 61.8912 37.0788 61.4847 36.7225 61.1035C36.3556 60.7207 35.9888 60.3378 35.6099 59.9769C34.8415 59.2534 34.0489 58.5737 33.1821 58.0495C32.7539 57.7883 32.3023 57.5591 31.854 57.4382C31.6351 57.3785 31.4041 57.3409 31.2014 57.3557C30.9979 57.3823 30.8138 57.4361 30.6878 57.5711C30.4166 57.814 30.3303 58.3025 30.3079 58.7894L30.3056 58.9805L30.3137 59.1733L30.3171 59.5926L30.3132 59.8073L30.2987 60.0204C30.2891 60.1624 30.2795 60.3044 30.2698 60.4464C30.2208 61.0127 30.1306 61.5604 30.0088 62.1029C29.8871 62.6454 29.7347 63.171 29.5621 63.6813C29.216 64.7137 28.7681 65.6816 28.2807 66.6073L28.0983 66.9484L27.9054 67.2879C27.7731 67.5176 27.6415 67.7355 27.4995 67.9516C27.225 68.3974 26.9312 68.8162 26.6374 69.2349C26.3436 69.6537 26.0199 70.0436 25.7059 70.4471C25.5444 70.6362 25.3822 70.837 25.2102 71.0244C25.1295 71.1189 25.0383 71.2117 24.9575 71.3062L24.8316 71.4413L24.7638 71.502L24.7299 71.5324L24.7178 71.5543C24.6976 71.5391 24.6879 71.5255 24.6879 71.5255Z" fill="black"/>
<path d="M6.21828 114.835L8.47601 91.1886C9.98547 89.526 18.5646 81.8731 20.0351 80.1562C20.4283 79.7041 20.951 78.7571 20.951 78.7571C21.1183 79.4324 29.8019 85.4533 29.8019 85.4533C27.5623 88.9173 26.3398 90.2785 24.0095 93.6676C24.0095 93.6676 11.9966 110.435 6.21828 114.835Z" fill="white"/>
<path d="M5.62421 115.95L8.01044 90.8909L8.1256 90.7655C8.84005 89.9815 11.0598 87.9179 13.4044 85.7425C16.1131 83.2303 18.9022 80.6351 19.6775 79.7409C20.0359 79.3311 20.5345 78.4279 20.5459 78.4177L21.1045 77.4163L21.3912 78.5312C21.9123 79.1802 26.1587 82.2836 30.0383 84.9792L30.5065 85.3074L30.1976 85.7733C28.8994 87.7708 27.9361 89.0785 26.9241 90.4744C26.1716 91.5043 25.3842 92.5766 24.4015 94.0132C23.906 94.7128 12.2594 110.896 6.50096 115.288L5.62421 115.95ZM8.92168 91.4472L6.80462 113.645C12.7332 108.476 23.5219 93.462 23.6395 93.301C24.6336 91.8543 25.4104 90.7803 26.1734 89.7521C27.1019 88.4867 27.9833 87.2857 29.1128 85.5729C28.3493 85.0406 26.7823 83.9334 25.2065 82.8009C22.7575 81.0221 21.5938 80.1006 21.0419 79.5907C20.8498 79.9076 20.6001 80.2871 20.3803 80.5394C19.5702 81.4759 16.7584 84.0915 14.0383 86.6138C11.8194 88.6656 9.71481 90.6039 8.92168 91.4472Z" fill="black"/>
<path d="M36.2091 86.6429C30.8698 84.0525 25.0663 81.7117 20.8188 77.1556C19.8613 76.123 17.57 72.7364 18.3708 71.6729C19.6311 69.9773 22.0616 73.0044 22.9796 73.8571C23.9086 74.7001 25.3247 76.3152 26.5985 76.982C25.6694 75.9886 23.9616 74.2342 23.0333 73.2294C22.5305 72.6861 22.0086 72.1166 21.7145 71.41C21.4203 70.7034 21.0645 69.2349 21.5262 68.7188C22.3477 67.8091 24.1069 69.2709 25.1459 70.0273C28.2318 72.2916 31.1351 74.7928 28.5149 72.8576C27.3842 71.9245 26.5414 70.7367 25.6044 69.5569C24.8873 68.6554 24.0057 67.4266 24.6081 66.5281C25.0596 65.8599 26.0044 65.8724 26.7152 66.2639C27.426 66.6554 27.9818 67.3344 28.6088 67.8861C29.7253 68.8747 31.086 69.486 32.4593 69.6133C31.1682 67.9951 29.654 66.5956 28.0071 65.4642C27.6204 65.194 27.203 64.9189 27.0274 64.4511C26.7736 63.7626 27.2527 62.9947 27.8694 62.7926C28.4861 62.5906 29.1669 62.8153 29.7923 63.089C31.4954 63.8592 33.0119 65.0739 34.5181 66.2869C36.0346 67.5016 37.5408 68.7147 39.0565 69.9408C41.7938 72.1377 44.5398 74.3592 46.8991 77.0625C48.2472 78.6089 49.4601 80.3072 50.8865 81.7736C54.303 85.271 58.703 87.1672 62.8642 89.3608C68.5696 92.3685 74.0078 96.0855 79.0499 100.422C79.344 100.677 79.6476 100.945 79.756 101.333C80.0082 102.195 79.163 102.846 78.4348 103.158C75.4992 104.435 72.3872 105.255 69.2041 105.602C66.44 105.9 64.1163 106.291 61.8084 104.198C56.8026 99.636 51.4838 95.5448 45.8765 92.0205C42.7288 90.0472 39.5061 88.2584 36.2091 86.6429Z" fill="white"/>
<path d="M36.1881 86.705C33.6341 85.4627 31.0318 84.3169 28.5055 82.9749C27.2427 82.2981 25.9934 81.5773 24.7923 80.76C23.5912 79.9427 22.428 79.0273 21.3455 77.9975C21.2087 77.8714 21.0727 77.7339 20.9462 77.6095C20.8102 77.472 20.6837 77.3476 20.5484 77.1986C20.2875 76.9138 20.059 76.611 19.8313 76.2968C19.375 75.6798 18.963 75.0236 18.5953 74.3282C18.4119 73.9748 18.2498 73.6132 18.1209 73.2222C18.0616 73.0276 18.003 72.8215 17.9659 72.6072C17.9287 72.3929 17.924 72.1607 17.9714 71.9253C18.0006 71.8027 18.0402 71.6817 18.0995 71.5755C18.1121 71.5428 18.1343 71.5232 18.1461 71.5019C18.158 71.4807 18.1801 71.4611 18.192 71.4398C18.226 71.399 18.26 71.3581 18.294 71.3173C18.4395 71.167 18.6039 71.0429 18.7969 70.9581C18.9898 70.8732 19.1993 70.8489 19.4057 70.8704C19.6121 70.8919 19.8066 70.9346 19.9885 71.01C20.353 71.1494 20.6811 71.364 20.9879 71.5867C21.2947 71.8095 21.5786 72.0632 21.8625 72.317C22.1361 72.5691 22.4081 72.8442 22.6706 73.1061C22.7963 73.242 22.9331 73.368 23.0596 73.4924C23.1767 73.6038 23.3332 73.7446 23.47 73.8706C24.0164 74.3863 24.5312 74.9086 25.0697 75.3883C25.6081 75.868 26.1585 76.3265 26.7405 76.628L26.3625 77.285C25.2579 76.1244 24.1105 74.9801 22.9964 73.8064C22.7157 73.5068 22.4342 73.2187 22.1558 72.8848C21.8775 72.5509 21.6118 72.1843 21.4133 71.7474C21.3145 71.5233 21.2354 71.3139 21.1674 71.0947C21.0994 70.8755 21.0417 70.6579 20.995 70.4306C20.9483 70.2032 20.912 69.9775 20.8969 69.7436C20.8819 69.5098 20.8787 69.2547 20.9388 68.9865C20.9689 68.8525 21.0203 68.7103 21.0922 68.5713C21.1151 68.5403 21.1381 68.5092 21.161 68.4782C21.1839 68.4472 21.2069 68.4161 21.2401 68.3867C21.2851 68.3361 21.3302 68.2854 21.3848 68.2479C21.5943 68.0731 21.86 67.9884 22.1098 67.9821C22.3597 67.9758 22.585 68.0235 22.7891 68.0793C23.0025 68.1482 23.1939 68.2367 23.3853 68.3252C24.1277 68.7103 24.7674 69.2294 25.3905 69.6879C26.6762 70.6345 27.9287 71.6105 29.1559 72.6519C29.3133 72.7812 29.4596 72.9204 29.6161 73.0612C29.6549 73.1021 29.6944 73.1316 29.7427 73.1856C29.7522 73.1987 29.7719 73.2134 29.7909 73.2396C29.8004 73.2527 29.8099 73.2658 29.8289 73.292C29.8376 73.3165 29.8478 73.3182 29.8652 73.3673C29.8613 73.4245 29.9657 73.4181 29.8787 73.7745C29.7024 74.0703 29.5213 73.9834 29.5094 74.0047C29.4683 73.9981 29.4375 73.9931 29.4272 73.9915C29.3964 73.9865 29.3766 73.9718 29.3663 73.9702C29.3363 73.9538 29.326 73.9521 29.3062 73.9374C29.186 73.8718 29.1172 73.8145 29.0279 73.7539C28.8595 73.6344 28.7013 73.5165 28.5329 73.3969C28.4538 73.338 28.3747 73.279 28.2862 73.207C28.2079 73.1365 28.1193 73.0645 28.0411 72.9941C27.4251 72.4325 26.8771 71.7893 26.3608 71.1395C26.103 70.8089 25.8547 70.4914 25.6072 70.1624C25.3589 69.8449 25.1003 69.5257 24.8552 69.1624C24.6093 68.8106 24.376 68.426 24.2202 67.9729C24.1427 67.7406 24.0866 67.5001 24.0842 67.2336C24.0818 66.967 24.1419 66.6989 24.2613 66.475C24.3704 66.2494 24.5388 66.0681 24.7341 65.9489C24.9199 65.8167 25.1326 65.7466 25.343 65.7108C25.7636 65.6393 26.1946 65.7199 26.5883 65.8871C26.9916 66.0675 27.3166 66.3278 27.6297 66.6094C27.9428 66.891 28.2236 67.1906 28.5066 67.4558C29.6152 68.5592 31.0227 69.2475 32.4563 69.4077L32.3068 69.7657C31.4663 68.6936 30.5356 67.7229 29.5353 66.8568C29.0356 66.418 28.5121 66.0217 27.9768 65.6466C27.7095 65.4534 27.4209 65.2683 27.1703 64.9851C27.0453 64.8378 26.9425 64.6709 26.8832 64.4762C26.8136 64.2799 26.797 64.0689 26.831 63.8776C26.8792 63.4803 27.0777 63.1649 27.3331 62.928C27.4659 62.8104 27.6075 62.7174 27.7672 62.6619C27.9269 62.6065 28.085 62.574 28.2519 62.566C28.5856 62.55 28.9137 62.6141 29.2189 62.7093C29.5344 62.8061 29.8262 62.9454 30.1282 63.0864C31.3048 63.6567 32.4047 64.4347 33.4501 65.2502C35.5392 66.9041 37.6164 68.5792 39.7063 70.2217C41.7954 71.8755 43.8821 73.5638 45.8067 75.4922C46.293 75.9752 46.7572 76.4777 47.2103 76.99C47.6633 77.5024 48.1046 78.0359 48.5355 78.5679C49.4085 79.622 50.2609 80.6727 51.205 81.5993C52.1492 82.5259 53.1724 83.361 54.2446 84.0883C55.316 84.8269 56.4238 85.4904 57.5656 86.113C59.8294 87.3436 62.1858 88.4385 64.4781 89.7083C65.6301 90.3326 66.7593 90.9879 67.8861 91.6776C69.0128 92.3672 70.1277 93.0782 71.2197 93.8201C73.414 95.3057 75.5703 96.8893 77.6459 98.5874L78.4224 99.2325L79.1878 99.8875C79.3152 100 79.4432 100.102 79.5895 100.241C79.7255 100.379 79.8805 100.542 80.0118 100.749C80.1423 100.966 80.2379 101.236 80.2712 101.508C80.3036 101.791 80.2538 102.06 80.1652 102.289C80.0767 102.518 79.9502 102.694 79.8252 102.848C79.69 103 79.5564 103.129 79.4038 103.232C79.2615 103.336 79.1089 103.439 78.9578 103.519C78.8068 103.599 78.6455 103.678 78.5064 103.736C77.9379 103.992 77.3512 104.211 76.7652 104.418C74.4208 105.258 71.9815 105.816 69.509 106.103C68.8914 106.166 68.2834 106.242 67.6564 106.292C67.0293 106.342 66.3936 106.368 65.7516 106.334C65.0992 106.299 64.4421 106.182 63.793 105.951C63.1438 105.72 62.5247 105.354 61.9735 104.907L61.7671 104.735L61.5718 104.554L61.2002 104.216C60.9559 103.992 60.7123 103.756 60.4577 103.531L59.7144 102.856L58.9601 102.191C57.9614 101.302 56.9508 100.434 55.9181 99.5862C53.8631 97.8915 51.7621 96.2588 49.6129 94.7226C45.3446 91.6665 40.8328 88.9765 36.1881 86.705ZM36.2158 86.6053C40.8715 88.867 45.4205 91.4704 49.8122 94.3957C50.9049 95.1263 51.9961 95.8797 53.0755 96.6543C54.1548 97.429 55.212 98.2232 56.2676 99.0404C57.3232 99.8575 58.367 100.696 59.3886 101.554L60.1548 102.197L60.9202 102.852C61.1756 103.067 61.4303 103.293 61.6746 103.517L62.0565 103.856L62.2328 104.012L62.4203 104.157C62.9137 104.537 63.4442 104.83 64.0025 105.024C64.5607 105.218 65.1466 105.311 65.7373 105.337C66.9186 105.387 68.1379 105.189 69.3524 105.059C71.7625 104.774 74.1298 104.204 76.4118 103.366C76.9771 103.156 77.5433 102.934 78.1007 102.688C78.2501 102.63 78.3577 102.578 78.4771 102.505C78.5957 102.443 78.7048 102.368 78.8139 102.293C79.0219 102.141 79.1911 101.948 79.2551 101.773C79.2923 101.686 79.297 101.618 79.2915 101.547C79.2859 101.477 79.2598 101.403 79.214 101.315C79.1112 101.148 78.8961 100.952 78.6304 100.736L77.8745 100.094L77.1075 99.4617C76.0843 98.6266 75.0397 97.7996 73.9928 97.007C72.9356 96.2128 71.8658 95.4512 70.7849 94.6995C69.7032 93.9591 68.6096 93.2401 67.5034 92.5537C66.3972 91.8673 65.2791 91.2022 64.1484 90.5697C61.8877 89.2934 59.5527 88.1904 57.2612 86.9091C56.121 86.2636 54.9839 85.5723 53.8943 84.796C52.8047 84.0197 51.753 83.1453 50.782 82.1565C49.811 81.1678 48.9618 80.0712 48.1109 78.9975C47.6903 78.4672 47.2601 77.9238 46.8276 77.4148C46.3848 76.9041 45.9419 76.3934 45.4762 75.9138C43.6156 73.9609 41.5716 72.2563 39.5165 70.5616L37.9722 69.2958L36.4177 68.0285L34.8631 66.7611C34.3412 66.3419 33.8296 65.9243 33.3077 65.5051C32.2624 64.6896 31.1926 63.9281 30.0365 63.361C29.7448 63.2217 29.4625 63.0955 29.1675 63.002C28.8726 62.9084 28.5753 62.8492 28.293 62.8735C28.1467 62.8848 28.0099 62.9091 27.8818 62.9581C27.7538 63.007 27.6344 63.0804 27.5339 63.1801C27.3236 63.3663 27.1694 63.6425 27.1283 63.9368C27.1078 64.084 27.1188 64.2246 27.171 64.3718C27.2137 64.506 27.2976 64.6467 27.394 64.7547C27.5965 64.9839 27.8645 65.1657 28.1326 65.3475C28.6782 65.7242 29.2222 66.1238 29.7322 66.5643C30.7641 67.4239 31.7248 68.411 32.6073 69.4782L32.9434 69.8792L32.4681 69.8378C30.9492 69.7102 29.4286 69.0038 28.2188 67.8611C27.916 67.5811 27.6345 67.293 27.3498 67.0507C27.2027 66.923 27.0549 66.8067 26.9054 66.7133C26.7568 66.6085 26.5963 66.5249 26.4452 66.4544C26.1321 66.3233 25.7921 66.2804 25.4972 66.3373C25.2022 66.3942 24.9516 66.5624 24.829 66.8321C24.7682 66.9612 24.7381 67.0953 24.7381 67.2457C24.7381 67.3962 24.7785 67.5647 24.8401 67.725C24.9627 68.0571 25.1683 68.3909 25.396 68.7051C25.6238 69.0194 25.8831 69.3271 26.1417 69.6462C26.4003 69.9654 26.6485 70.2829 26.9071 70.6021C27.4148 71.2273 27.9454 71.8215 28.5139 72.3176C28.5827 72.3749 28.6515 72.4322 28.7195 72.501C28.7788 72.5452 28.8681 72.6058 28.9472 72.6647C29.1053 72.7827 29.2643 72.8891 29.4232 72.9956C29.5031 73.0431 29.5821 73.102 29.6422 73.1348C29.6525 73.1365 29.6525 73.1365 29.6422 73.1348C29.6422 73.1348 29.632 73.1332 29.6122 73.1184C29.6019 73.1168 29.5916 73.1151 29.5505 73.1086C29.5395 73.1184 29.3679 73.0446 29.1923 73.3289C29.1062 73.6739 29.2105 73.6675 29.1971 73.7116C29.2153 73.7492 29.2153 73.7492 29.2248 73.7623C29.2343 73.7754 29.2343 73.7754 29.2437 73.7885C29.2437 73.7885 29.2437 73.7885 29.2335 73.7869C29.2137 73.7721 29.175 73.7312 29.1457 73.7034C29.0089 73.5773 28.8618 73.4496 28.7045 73.3202C28.1051 72.8192 27.4741 72.3247 26.8526 71.8432C26.2311 71.3618 25.5985 70.8901 24.9659 70.4185C24.6394 70.181 24.3334 69.9468 24.0163 69.7225C23.6992 69.4981 23.3908 69.2982 23.0801 69.1327C22.7685 68.9787 22.4443 68.8573 22.1937 68.875C22.0687 68.8782 21.9723 68.9206 21.8956 68.9778C21.8734 68.9974 21.8513 69.017 21.8394 69.0382C21.8284 69.048 21.8284 69.048 21.8173 69.0578C21.8165 69.0693 21.8062 69.0676 21.8054 69.079C21.7825 69.1101 21.7683 69.1657 21.754 69.2213C21.7248 69.3439 21.7232 69.5172 21.7319 69.6922C21.7406 69.8672 21.7691 70.0569 21.8086 70.2368C21.8869 70.6081 21.9953 70.9958 22.1392 71.3198C22.427 71.9677 22.9805 72.5308 23.5317 73.1283C24.6347 74.3118 25.7497 75.474 26.8622 76.6706L28.4484 78.3829L26.4843 77.3276C26.1435 77.1458 25.8264 76.9214 25.5307 76.6888C25.2349 76.4563 24.9511 76.2025 24.6672 75.9488C24.1208 75.4331 23.5973 74.8863 23.0818 74.3755C22.9458 74.238 22.828 74.1381 22.6825 73.9875C22.5465 73.85 22.4105 73.7125 22.2847 73.5767C22.023 73.3033 21.7708 73.043 21.5074 72.7925C21.2441 72.542 20.98 72.303 20.7041 72.0852C20.4273 71.8788 20.1387 71.6938 19.8564 71.5675C19.5631 71.4511 19.2855 71.4067 19.0396 71.5062C18.9226 71.5453 18.8127 71.6318 18.7123 71.7315C18.6893 71.7625 18.6672 71.7821 18.6443 71.8132L18.6103 71.854C18.5992 71.8638 18.5984 71.8753 18.5873 71.8851C18.5636 71.9276 18.5391 71.9815 18.5241 72.0485C18.4948 72.1711 18.4941 72.333 18.5138 72.4982C18.5336 72.6634 18.5739 72.8319 18.6348 73.0037C18.7463 73.3456 18.8887 73.6924 19.0531 74.0196C19.3813 74.6856 19.7735 75.327 20.1989 75.9391C20.4172 76.2402 20.6354 76.5413 20.8655 76.8212C20.981 76.9554 21.1067 77.0913 21.2324 77.2272C21.3581 77.363 21.4839 77.4989 21.6104 77.6233C22.6391 78.6792 23.7699 79.6125 24.9377 80.4592C26.1159 81.3076 27.3415 82.0709 28.5932 82.7575C31.0714 84.1959 33.6617 85.363 36.2158 86.6053Z" fill="black"/>
<path d="M114.758 123.162C114.313 122.38 87.106 103.036 86.4253 102.503C81.8861 98.9165 69.6851 91.3198 64.8175 88.3819C62.5416 87.0063 60.042 85.1862 57.5829 84.3146C54.3697 83.1933 54.117 84.0643 51.8414 86.8365C49.2701 89.9669 44.2076 90.9013 47.6961 95.2791C50.6583 98.992 56.6691 101.411 60.2517 104.565L78.6769 117.969L114.759 123.151L114.758 123.162Z" fill="#FF710F"/>
<path d="M81.4586 18.2899C73.6612 27.1727 64.429 38.3065 60.3024 46.032C59.5743 47.3946 58.8767 48.7742 58.2695 50.2282C57.61 51.829 57.0633 53.4841 56.4038 55.0849C54.7794 59.0372 52.5173 62.5509 50.2567 66.041C49.8668 66.6345 49.4761 67.2398 48.9684 67.6946C48.5517 68.0567 48.0786 68.314 47.6419 68.6609C46.2316 69.7689 45.4794 71.6413 44.7853 73.4396C43.6547 76.3614 42.5136 79.2814 41.3831 82.2032C40.9337 83.3604 40.4715 84.5514 40.4366 85.8479C40.4017 87.1445 40.8868 88.5856 41.9005 89.2646C42.3367 89.5509 42.9003 89.6786 43.3016 89.3857C43.5023 89.2392 43.6449 89.0116 43.7665 88.7806C43.9115 88.5175 45.4357 82.2909 45.571 82.0143C47.1779 77.0676 44.7636 86.5777 44.2655 88.6111C43.8969 90.1399 44.6812 91.7015 45.8771 92.6612C46.0981 92.8406 46.3521 93.0015 46.6173 92.997C47.0527 92.9844 47.3483 92.5309 47.5674 92.1126C48.5614 90.2677 49.8624 86.0834 50.8572 84.2267C50.6933 85.55 49.6926 88.7438 49.1313 90.1456C48.6578 91.3467 48.0344 92.5711 48.2502 93.9205C48.4669 95.258 49.7379 96.5167 50.8373 96.0868C51.3492 95.8836 51.7117 95.3812 52.0412 94.8974C52.382 94.4034 54.5536 88.4736 54.8832 87.9897C56.6875 84.6642 52.5368 94.4645 52.321 94.9908C52.0931 95.539 51.8725 96.1362 51.8937 96.7609C51.9241 98.1876 53.2194 99.4024 54.4762 99.4641C55.7322 99.5376 56.871 98.684 57.592 97.583C58.3138 96.4703 58.7026 95.112 59.068 93.7858C59.6572 91.6598 60.2577 89.5236 60.8469 87.3976C61.7846 84.0382 62.7335 80.5133 62.2031 76.9263C61.7616 73.9034 60.4294 70.8904 61.9518 68.1282C62.966 66.2985 64.2446 64.6314 65.2805 62.7933C67.8953 58.1424 71.2649 54.0806 75.2024 50.8641L92.0588 35.1202C92.0588 35.1202 101.337 25.0333 109.078 25.5793C118.411 26.2418 113.217 6.10007 113.217 6.10007C113.217 6.10007 88.2068 8.78186 81.4586 18.2899Z" fill="white"/>
<path d="M81.4904 18.321C80.2498 19.7432 79.0091 21.1653 77.7887 22.6026C76.5682 24.04 75.3469 25.4891 74.1466 26.9417C72.9455 28.4061 71.7541 29.884 70.5836 31.3653C69.4123 32.8585 68.2507 34.3652 67.1295 35.9023C65.9977 37.4377 64.8966 38.9901 63.8349 40.5848C62.7733 42.1794 61.752 43.8046 60.821 45.5041C59.9005 47.2054 59.0405 48.9524 58.3231 50.7824C57.6058 52.6124 57.0093 54.5338 56.1977 56.3484C55.3965 58.1647 54.4736 59.9015 53.5015 61.5824C52.5189 63.2616 51.4766 64.8833 50.4448 66.5068C50.1839 66.9181 49.9012 67.3378 49.558 67.7118C49.3864 67.8989 49.1938 68.0824 49.0037 68.2306C48.8135 68.3788 48.6137 68.5134 48.4243 68.6497C48.2358 68.7742 48.0577 68.9005 47.8893 69.0402C47.7217 69.1682 47.563 69.3215 47.4148 69.4764C47.1175 69.7982 46.8493 70.1606 46.6012 70.5382C46.1139 71.3187 45.7467 72.2025 45.3772 73.1217L44.3104 75.8861L42.1552 81.4234L41.6166 82.8047C41.437 83.2652 41.2792 83.7172 41.1424 84.1727C40.8793 85.0854 40.7507 86.0439 40.9437 86.9474C41.0399 87.405 41.2117 87.8392 41.4521 88.2009C41.5666 88.3868 41.715 88.5424 41.8641 88.6862C41.944 88.759 42.0246 88.8199 42.106 88.869C42.1874 88.9181 42.2689 88.9673 42.3511 89.0046C42.5156 89.0792 42.6937 89.1082 42.8436 89.0849C42.9186 89.0733 42.9838 89.0481 43.0386 89.0212C43.0934 88.9943 43.1498 88.9437 43.207 88.8814C43.2642 88.8191 43.323 88.7331 43.3713 88.6454L43.4189 88.5696L43.4422 88.5376C43.4535 88.5274 43.4422 88.5376 43.4422 88.5376L43.4414 88.5494C43.4535 88.5274 43.4688 88.4583 43.4825 88.4127C43.5509 88.185 43.6201 87.9454 43.6788 87.7042C43.9452 86.7442 44.1914 85.7691 44.4481 84.7956L44.8327 83.3414L45.0307 82.6092L45.1297 82.2431L45.1844 82.0609L45.2126 81.958L45.227 81.9007C45.2399 81.8669 45.252 81.845 45.2649 81.8113L45.2399 81.8669C45.3204 81.6173 45.4114 81.3693 45.4919 81.1197C45.5321 80.9948 45.5829 80.8717 45.6344 80.7368C45.6601 80.6693 45.6851 80.6137 45.7221 80.5361C45.735 80.5023 45.7584 80.4703 45.7833 80.4147C45.7946 80.4046 45.8067 80.3827 45.8188 80.3607L45.8309 80.3388L45.8534 80.3186C45.8647 80.3085 45.876 80.2984 45.8985 80.2782C45.9203 80.2698 45.9429 80.2496 45.9969 80.2345C46.0509 80.2194 46.1363 80.2095 46.2282 80.2603C46.3201 80.3111 46.3693 80.3669 46.3975 80.4193C46.4161 80.4582 46.4346 80.497 46.4435 80.5224C46.4524 80.5477 46.4516 80.5595 46.4605 80.5849C46.4669 80.6457 46.4661 80.6575 46.475 80.6828C46.4799 80.7672 46.467 80.8009 46.4646 80.8364C46.4622 80.8718 46.459 80.9191 46.4461 80.9528C46.4308 81.022 46.426 81.0929 46.4107 81.1621C46.3802 81.3004 46.3609 81.4287 46.3303 81.567C46.27 81.8319 46.2104 82.085 46.1501 82.3499C45.9104 83.3858 45.6505 84.4065 45.3906 85.4272L44.6109 88.4893C44.5811 88.6159 44.5401 88.7525 44.5224 88.8571C44.5039 88.9735 44.4854 89.09 44.4774 89.2081C44.4614 89.4444 44.4655 89.6959 44.5132 89.9307C44.586 90.4203 44.7869 90.8951 45.0442 91.3193C45.3119 91.7452 45.6466 92.1223 46.0175 92.4337C46.1981 92.5826 46.3908 92.7096 46.5488 92.7234C46.7059 92.7491 46.8599 92.6667 47.0073 92.5235C47.1547 92.3803 47.2747 92.1729 47.3955 91.9538L47.5663 91.6233L47.7273 91.2792C47.9383 90.8239 48.1404 90.3433 48.3312 89.8727C48.7136 88.9198 49.0872 87.9415 49.46 86.975C49.6516 86.4927 49.8432 86.0103 50.0453 85.5296C50.2474 85.049 50.4592 84.5818 50.7024 84.1198L51.1872 83.2194L51.041 84.2826C50.9743 84.7973 50.8568 85.2798 50.7297 85.7488C50.6017 86.2296 50.4746 86.6986 50.3265 87.1642C50.0408 88.0971 49.7341 89.0265 49.3976 89.9272C49.0498 90.838 48.6214 91.6879 48.4412 92.626C48.3568 93.0901 48.3344 93.5762 48.4402 94.0473C48.5468 94.5067 48.7711 94.9494 49.0759 95.2978C49.3807 95.6461 49.7548 95.9102 50.1627 95.9887C50.3618 96.0212 50.5633 96.0182 50.7478 95.9528C50.9324 95.8873 51.1096 95.7729 51.2676 95.6314C51.4255 95.49 51.564 95.3215 51.7034 95.1411C51.7735 95.0451 51.8323 94.9591 51.9024 94.863L51.9499 94.7871C51.962 94.7652 51.9732 94.7551 51.9861 94.7214C52.0103 94.6776 52.0352 94.6219 52.0602 94.5663C52.2583 94.1447 52.4265 93.6943 52.6053 93.2457L53.656 90.5622L54.1817 89.2146C54.271 88.9903 54.3604 88.766 54.4603 88.5434C54.5102 88.4321 54.5496 88.3191 54.61 88.2095C54.66 88.0981 54.7091 87.9987 54.7816 87.8671L54.7703 87.8773C54.8307 87.7677 54.8911 87.6581 54.9515 87.5485C55.0119 87.4389 55.0723 87.3293 55.1537 87.2231C55.1649 87.213 55.177 87.1911 55.1883 87.181C55.1996 87.1709 55.2004 87.159 55.2221 87.1507C55.2439 87.1423 55.2455 87.1186 55.3301 87.1205C55.4567 87.1292 55.4995 87.2795 55.4987 87.2913C55.5067 87.3285 55.5059 87.3403 55.5051 87.3521C55.5027 87.3875 55.5019 87.3994 55.5003 87.423C55.4842 87.504 55.4698 87.5614 55.444 87.6288C55.4038 87.7536 55.3635 87.8785 55.3241 87.9915C55.1542 88.4655 54.9739 88.9377 54.7935 89.41C54.4336 90.3427 54.0528 91.272 53.6833 92.1912C53.3024 93.1205 52.9224 94.038 52.5424 94.9555C52.3523 95.4142 52.1736 95.8629 52.1093 96.3421C52.0828 96.5767 52.0773 96.8147 52.1145 97.0477C52.1517 97.2807 52.2315 97.5088 52.3332 97.7284C52.7624 98.5868 53.6339 99.171 54.4786 99.2132C54.9114 99.2361 55.3313 99.1373 55.7254 98.9508C56.1194 98.7642 56.4764 98.4999 56.7946 98.1816C57.4319 97.533 57.8716 96.673 58.2097 95.7487C58.5478 94.8244 58.7948 93.8374 59.062 92.8657L60.6569 86.9981C61.1816 85.0411 61.6958 83.0824 61.9174 81.064C62.0281 80.0548 62.0656 79.0337 61.9854 78.0292C61.9164 77.0145 61.7088 76.0131 61.4819 74.9847C61.255 73.9562 61.0079 72.9125 60.9131 71.8101C60.8653 71.2647 60.861 70.7026 60.9196 70.1508C60.9782 69.5989 61.1102 69.059 61.3034 68.553C61.3943 68.3051 61.5168 68.0623 61.6384 67.8313C61.7592 67.6121 61.88 67.3929 62.0105 67.1872C62.2617 66.7624 62.5235 66.3392 62.7845 65.9279C63.3169 65.1069 63.8485 64.2978 64.3591 63.4852C64.4896 63.2795 64.6096 63.0722 64.7296 62.8648L65.0904 62.2308L65.4625 61.5868L65.8443 60.9563C66.367 60.1218 66.889 59.2991 67.4617 58.5086C68.0239 57.7164 68.6063 56.9395 69.2186 56.1913C69.8308 55.4431 70.4632 54.7101 71.1141 54.016C71.2745 53.8391 71.4453 53.6639 71.6048 53.4988L72.1059 52.9833C72.4467 52.6447 72.7867 52.3179 73.1371 51.9928C73.4771 51.6661 73.8373 51.3545 74.1974 51.043C74.5463 50.7416 74.9153 50.4554 75.2561 50.1168L83.482 42.3926L91.7176 34.6819L91.6942 34.7139C92.3105 34.0619 92.9236 33.4572 93.5682 32.8576C94.2014 32.2681 94.8557 31.6821 95.518 31.1331C96.8433 30.0235 98.2381 28.9849 99.6877 28.0746C101.148 27.1661 102.675 26.3641 104.292 25.7918C105.106 25.5065 105.937 25.2837 106.804 25.1505C107.232 25.0889 107.67 25.0409 108.105 25.0283C108.211 25.0217 108.328 25.0169 108.434 25.0222C108.539 25.0275 108.656 25.0226 108.762 25.0279L109.089 25.0455C109.184 25.0491 109.29 25.0543 109.385 25.0579C110.168 25.0781 110.931 24.9159 111.572 24.5189C112.224 24.1235 112.743 23.5034 113.121 22.7649C113.501 22.0145 113.749 21.1592 113.915 20.2784C114.082 19.3858 114.154 18.466 114.186 17.5275C114.239 15.6607 114.103 13.7513 113.871 11.862C113.755 10.9114 113.607 9.96748 113.439 9.02017C113.269 8.08467 113.079 7.13394 112.855 6.21352L113.258 6.53001C111.839 6.66887 110.406 6.86511 108.983 7.07486C107.56 7.28462 106.144 7.53152 104.738 7.80377C101.938 8.32634 99.1385 8.98058 96.3912 9.81048C95.018 10.2195 93.652 10.6775 92.3038 11.1862C91.6293 11.4465 90.9645 11.7202 90.3093 12.0075C89.6542 12.2948 88.9974 12.6058 88.3503 12.9302C87.0666 13.5808 85.8185 14.3328 84.6469 15.2047C83.4754 16.0767 82.3789 17.0923 81.4904 18.321ZM81.421 18.25C82.2998 17.0078 83.4076 15.9821 84.58 15.0983C85.7523 14.2145 87.0013 13.4507 88.2866 12.7765C88.924 12.4385 89.5815 12.1158 90.2375 11.8166C90.8935 11.5175 91.5591 11.2319 92.2344 10.9599C93.5745 10.414 94.9316 9.9307 96.2968 9.4845C99.0376 8.59382 101.832 7.85517 104.64 7.22627C106.048 6.91858 107.455 6.63452 108.882 6.37751C110.308 6.1205 111.722 5.89722 113.166 5.7027L113.475 5.66958L113.568 6.01918C113.81 6.97846 114.022 7.9208 114.211 8.88335C114.4 9.84589 114.557 10.8033 114.693 11.7691C114.965 13.7008 115.14 15.6524 115.092 17.6037C115.068 18.5793 115.002 19.5599 114.831 20.5234C114.66 21.4868 114.404 22.4367 113.963 23.3203C113.743 23.7503 113.481 24.1734 113.171 24.5407C112.86 24.9081 112.489 25.2179 112.091 25.4635C111.693 25.7092 111.257 25.8889 110.815 25.996C110.374 26.1031 109.915 26.1478 109.46 26.1451C109.344 26.1381 109.237 26.1447 109.121 26.1377L108.815 26.1235C108.709 26.1183 108.614 26.1147 108.518 26.1229C108.423 26.1194 108.317 26.1259 108.221 26.1341C107.817 26.1519 107.423 26.1831 107.016 26.2481C106.223 26.3815 105.435 26.5875 104.665 26.856C103.123 27.4048 101.651 28.18 100.235 29.0717C99.5263 29.5175 98.8366 30.0023 98.1565 30.5005C97.4765 30.9988 96.8158 31.524 96.164 32.0747C95.513 32.6135 94.8708 33.1776 94.248 33.7689C93.6261 34.3482 93.0025 34.9513 92.4305 35.5746L92.4184 35.5966L92.4071 35.6067L84.1409 43.3004L75.865 50.9806C75.525 51.3074 75.156 51.5936 74.7958 51.9051C74.447 52.2065 74.0981 52.508 73.7581 52.8348C73.4085 53.148 73.0789 53.4765 72.7502 53.7931L72.2612 54.2867C72.0912 54.4501 71.9309 54.627 71.7714 54.7921C71.1212 55.4744 70.5009 56.1855 69.9008 56.9118C69.3006 57.638 68.719 58.4032 68.1688 59.1735C67.6082 59.942 67.0871 60.7529 66.5764 61.5655L66.1955 62.1842L65.825 62.8046L65.4537 63.4368C65.3224 63.6543 65.2024 63.8617 65.0719 64.0673C64.5492 64.9018 63.9966 65.7075 63.4763 66.5066C63.2161 66.9061 62.9551 67.3174 62.7047 67.7305C62.5847 67.9379 62.4646 68.1452 62.3446 68.3526C62.2359 68.5499 62.1369 68.7607 62.0483 68.9732C61.8712 69.3982 61.7658 69.8588 61.7023 70.3262C61.6485 70.8072 61.6471 71.2967 61.6876 71.7931C61.7679 72.7976 61.9859 73.8007 62.2121 74.841C62.3251 75.3611 62.4277 75.8796 62.519 76.4081C62.6103 76.9366 62.6791 77.4854 62.7067 78.0154C62.7717 79.0892 62.7197 80.1677 62.5961 81.2106C62.3375 83.3066 61.7902 85.2838 61.2341 87.2356L59.5667 93.0794C59.289 94.0494 59.0315 95.0347 58.6692 96.0029C58.4889 96.4751 58.2771 96.9423 58.0242 97.3907C57.7721 97.8274 57.4685 98.2437 57.1172 98.5806C56.7651 98.9293 56.3639 99.2222 55.9271 99.4137C55.4895 99.6171 55.006 99.7173 54.5103 99.6842C54.0041 99.6494 53.5188 99.4628 53.0842 99.153C52.6601 98.8449 52.2755 98.4238 52.0238 97.9169C51.9036 97.6583 51.8059 97.3796 51.7615 97.0976C51.717 96.8156 51.7266 96.5186 51.7555 96.2486C51.835 95.7001 52.0371 95.2195 52.2271 94.7607C52.6176 93.8449 53.0082 92.9292 53.3882 92.0117C53.7682 91.0942 54.149 90.1649 54.5186 89.2457C54.6981 88.7852 54.889 88.3147 55.0475 87.8508C55.087 87.7378 55.1272 87.613 55.1667 87.5C55.1812 87.4426 55.1956 87.3852 55.2093 87.3397C55.2101 87.3279 55.2109 87.3161 55.2109 87.3161C55.2109 87.3161 55.2109 87.3161 55.2101 87.3279C55.1996 87.3262 55.2336 87.4511 55.3496 87.4581C55.4133 87.4566 55.4141 87.4448 55.4141 87.4448C55.4141 87.4448 55.4028 87.4549 55.3915 87.465C55.3327 87.5509 55.2627 87.647 55.2023 87.7566C55.1418 87.8662 55.0822 87.964 55.0218 88.0736L55.0106 88.0837C54.963 88.1595 54.9131 88.2708 54.8632 88.3821C54.8133 88.4935 54.7642 88.593 54.7247 88.706C54.6353 88.9303 54.5363 89.1411 54.4469 89.3654L53.9115 90.6995L52.8504 93.3812C52.6716 93.8299 52.4929 94.2785 52.294 94.7119C52.269 94.7676 52.2441 94.8232 52.2086 94.8772C52.1966 94.8991 52.1732 94.9311 52.1603 94.9648L52.1128 95.0407C52.0427 95.1368 51.9831 95.2345 51.913 95.3306C51.7729 95.5228 51.623 95.7014 51.4426 95.863C51.2621 96.0247 51.0623 96.1594 50.8342 96.2416C50.6061 96.3238 50.3514 96.3301 50.1104 96.2907C49.6292 96.2003 49.1946 95.8905 48.8503 95.4999C48.5164 95.1109 48.2535 94.6141 48.1299 94.0923C48.0177 93.5603 48.0327 93.0253 48.1204 92.514C48.3158 91.5066 48.7555 90.6467 49.0815 89.7443C49.4181 88.8436 49.703 87.9225 49.9782 86.9879C50.1158 86.5206 50.243 86.0516 50.3597 85.5809C50.4763 85.1102 50.5825 84.6378 50.6468 84.1585L50.9854 84.3213C50.5223 85.2133 50.16 86.1814 49.7873 87.1479C49.425 88.1161 49.0619 89.096 48.6892 90.0625C48.4975 90.5449 48.3059 91.0272 48.0933 91.5062L47.9315 91.862L47.7592 92.2161C47.6376 92.4471 47.5047 92.6883 47.3105 92.8955C47.2082 92.9982 47.0954 93.0993 46.9536 93.1598C46.8117 93.2202 46.6506 93.2537 46.4926 93.2398C46.1774 93.2004 45.9146 93.0141 45.7033 92.8483C45.2816 92.5048 44.8962 92.0955 44.58 91.6019C44.2735 91.1219 44.0363 90.5576 43.9281 89.9666C43.8739 89.6711 43.8625 89.3706 43.8721 89.0735C43.8825 88.9199 43.9026 88.7799 43.9234 88.628C43.9548 88.4778 43.9846 88.3513 44.0144 88.2248L44.7529 85.144C44.9919 84.1199 45.2421 83.0857 45.4601 82.0581C45.5196 81.805 45.5694 81.5384 45.6185 81.2836C45.6483 81.1571 45.6676 81.0289 45.6868 80.9006C45.7013 80.8433 45.7061 80.7724 45.7206 80.715L45.7262 80.6323C45.7278 80.6087 45.7302 80.5732 45.7294 80.585C45.7286 80.5969 45.7286 80.5969 45.7367 80.634C45.7359 80.6458 45.7351 80.6576 45.744 80.683C45.7536 80.6965 45.7617 80.7337 45.7803 80.7725C45.8093 80.8131 45.8577 80.8807 45.9399 80.918C46.0326 80.957 46.1068 80.9572 46.1608 80.9421C46.2043 80.9253 46.2261 80.9169 46.2486 80.8967C46.2704 80.8883 46.2712 80.8765 46.2825 80.8664C46.2825 80.8664 46.2937 80.8563 46.2945 80.8445L46.3058 80.8344L46.3171 80.8243C46.3171 80.8243 46.305 80.8462 46.2929 80.8681C46.2688 80.9119 46.2543 80.9693 46.2293 81.025C46.1899 81.138 46.1392 81.2611 46.0989 81.3859C46.0192 81.6238 45.9387 81.8734 45.8582 82.1231L45.8333 82.1787L45.8204 82.2125L45.7938 82.2917L45.7504 82.4638L45.6522 82.8181L45.4647 83.552L45.1003 85.0215C44.854 85.9966 44.6183 86.9735 44.3608 87.9588C44.3021 88.2 44.2321 88.4514 44.1621 88.7028C44.1363 88.7702 44.1218 88.8276 44.0944 88.9187L44.0695 88.9743C44.0574 88.9963 44.0566 89.0081 44.0453 89.0182L44.0212 89.062L43.9728 89.1497C43.902 89.2576 43.8295 89.3891 43.7264 89.5037C43.6337 89.6199 43.5096 89.7311 43.3662 89.8152C43.2228 89.8993 43.0713 89.9463 42.9214 89.9696C42.6216 90.0162 42.329 89.9565 42.0605 89.853C41.9267 89.7954 41.7937 89.7259 41.6719 89.6463C41.5502 89.5667 41.4397 89.477 41.3293 89.3873C41.1091 89.1961 40.9229 88.9746 40.7599 88.7211C40.4333 88.2258 40.2162 87.6768 40.0959 87.1077C40.0305 86.8223 39.9965 86.542 39.9738 86.2516C39.9511 85.9612 39.9599 85.676 39.9888 85.406C40.0369 84.8524 40.1471 84.3209 40.2871 83.8182C40.4271 83.3154 40.6083 82.8314 40.7773 82.3692L41.3796 80.9863L43.5244 75.4473L44.6016 72.6846C44.972 71.7536 45.3738 70.8277 45.9086 69.9713C46.1808 69.5499 46.4845 69.1335 46.8269 68.7713C46.9977 68.5961 47.1894 68.4244 47.3804 68.2644C47.5713 68.1044 47.7704 67.9816 47.9702 67.847C48.1587 67.7225 48.3473 67.5979 48.5149 67.47C48.6825 67.342 48.8404 67.2006 48.9886 67.0456C49.2851 66.7356 49.5445 66.3479 49.8038 65.9602C50.8558 64.352 51.9069 62.7557 52.8976 61.1136C53.8987 59.4732 54.8289 57.7855 55.6479 56.0198C56.4765 54.2677 57.1027 52.3751 57.8628 50.5401C58.6236 48.6933 59.5353 46.9667 60.4872 45.2705C60.9681 44.4292 61.469 43.6031 61.991 42.7804C62.5121 41.9696 63.0429 41.1723 63.5842 40.3766C64.6764 38.7989 65.7985 37.25 66.9496 35.7416C69.2527 32.713 71.6251 29.7555 74.0571 26.8554C76.4795 23.9419 78.9406 21.0824 81.421 18.25Z" fill="black"/>
<path d="M70.0157 52.1584C63.4875 47.3504 55.6247 46.0673 48.064 44.7748C46.7592 44.5541 45.4449 44.3204 44.1789 43.8397C42.9943 43.3837 41.8753 42.7298 40.7919 42.0121C32.7604 36.697 26.4164 28.9205 18.075 24.3313C16.1019 23.2512 15.8946 21.7363 13.8418 22.264C13.7572 22.2851 12.537 22.3443 12.4516 22.3769L14.1494 35.4279C14.9947 35.8296 15.8298 36.2297 16.6412 36.6722C21.5125 39.2817 24.7517 42.1968 29.389 45.3359C31.9315 47.0513 34.447 48.855 36.9065 50.7191C38.2896 51.7626 39.6601 52.8388 40.9618 54.0081C42.371 55.2757 43.7004 56.6462 45.1223 57.8811C50.8193 62.8337 57.7854 65.3621 64.625 67.4651C65.1343 67.6162 65.6744 67.7722 66.1631 67.619C66.6517 67.4658 67.0558 66.8823 66.866 66.3195C66.7711 66.038 66.5576 65.8186 66.3417 65.6335C63.7201 63.2573 60.5221 61.703 57.249 61.2365C60.3299 61.4755 63.2796 63.0131 66.0411 64.7172C67.028 65.3268 68.4246 65.8747 69.0224 64.894C69.5624 63.9966 68.8064 62.7527 68.0598 61.9733C67.39 61.2872 61.6432 57.3568 60.903 56.7867C62.9211 57.0638 68.4568 61.4929 69.7181 62.1927C70.3784 62.5648 71.2704 62.8929 71.737 62.3079C72.1126 61.8356 71.9267 61.065 71.6776 60.4579C70.8479 58.4729 69.4165 56.7735 67.6799 55.7313C66.0137 54.7235 64.0201 54.242 62.8014 52.6229C65.5653 53.9918 68.1971 55.7678 70.5759 57.8969C71.1634 58.4193 71.9131 59.0024 72.5584 58.6891C73.0415 58.4656 73.2424 57.8148 73.2518 57.226C73.3055 55.0932 71.6384 53.3444 70.0157 52.1584Z" fill="white"/>
<path d="M69.9978 52.2147C67.7221 50.5408 65.2518 49.2759 62.6969 48.3334C60.1531 47.381 57.5358 46.7413 54.9208 46.2177C52.2948 45.704 49.6696 45.3294 47.0269 44.9057C46.3696 44.7888 45.7028 44.6587 45.0392 44.4828C44.3763 44.2954 43.7175 44.0508 43.0831 43.7521C42.4487 43.4535 41.8278 43.1106 41.2298 42.7367C40.9308 42.5498 40.6318 42.3628 40.3336 42.1644L39.8962 41.8742L39.4595 41.5725C37.1269 39.9705 34.9137 38.1444 32.755 36.2807C31.6761 35.3431 30.6082 34.3957 29.5293 33.4581C28.4614 32.5107 27.3817 31.5846 26.3012 30.67C25.2207 29.7553 24.118 28.8602 23.0012 28.0208C21.8851 27.17 20.7342 26.3715 19.569 25.6286C19.2803 25.4433 18.9805 25.2678 18.6815 25.0808L17.7822 24.5543C17.4729 24.3657 17.166 24.1428 16.8812 23.9002C16.5965 23.6576 16.3331 23.4068 16.0791 23.1692C15.8252 22.9315 15.5689 22.7282 15.3063 22.6166C15.0445 22.4936 14.7558 22.4588 14.4529 22.4798C14.3065 22.4911 14.1491 22.5122 14.0012 22.5464L13.9482 22.5611L13.9063 22.5659L13.8747 22.5724L13.8541 22.5691L13.7181 22.5821L13.4673 22.5998L12.9769 22.6254L12.5387 22.6479L12.704 22.3616L13.4906 28.894L13.8997 32.157L14.3088 35.42L14.2147 35.2774C17.0061 36.5591 19.6907 38.1828 22.2583 39.9962C24.8259 41.8096 27.3231 43.7391 29.9397 45.4446C32.5436 47.1827 35.1104 49.0076 37.6313 50.8946C38.8969 51.839 40.1491 52.8275 41.3443 53.888C42.5387 54.9599 43.6881 56.0826 44.8627 57.1397C47.2136 59.2312 49.8199 60.935 52.5314 62.3197C55.2421 63.7158 58.0675 64.806 60.9222 65.7734C61.6333 66.0148 62.3554 66.2465 63.0681 66.465L64.147 66.8002C64.5037 66.9037 64.8795 67.0335 65.2069 67.1091C65.5344 67.1848 65.8342 67.2097 66.0683 67.1314C66.164 67.1004 66.2621 67.035 66.3412 66.9434C66.4203 66.8519 66.4685 66.7553 66.4851 66.6653C66.4883 66.6195 66.4906 66.5851 66.493 66.5507C66.4851 66.5147 66.4764 66.4901 66.459 66.441C66.4226 66.3657 66.3269 66.2461 66.1995 66.133C66.141 66.0773 66.0627 66.0068 65.9836 65.9478L65.7676 65.7625C65.6205 65.6347 65.4726 65.5183 65.3255 65.3904C62.9319 63.4659 60.1279 62.217 57.2772 61.7947C56.9996 61.7502 56.8002 61.4749 56.8105 61.1754C56.8302 60.8889 57.043 60.6682 57.3009 60.6979C58.3347 60.7826 59.3495 60.9916 60.3461 61.3136C61.3428 61.6356 62.3117 62.0574 63.2459 62.5315C64.1903 63.0073 65.0999 63.5355 65.9977 64.0849L66.3268 64.2882C66.4264 64.3506 66.5364 64.4145 66.6368 64.4654C66.8473 64.5802 67.0584 64.6836 67.272 64.7526C67.4848 64.833 67.6991 64.8906 67.8961 64.899C68.0923 64.9188 68.2702 64.901 68.3999 64.8292C68.4648 64.7932 68.5194 64.7556 68.5747 64.7066C68.6198 64.6559 68.6768 64.5839 68.7021 64.5185C68.7638 64.3778 68.7851 64.219 68.7669 64.0307C68.7384 63.8408 68.6696 63.6328 68.5699 63.4199C68.4702 63.207 68.3389 63.0006 68.1855 62.8138C68.1087 62.7204 68.0328 62.6155 67.9553 62.5336C67.9165 62.4926 67.8786 62.4402 67.8295 62.3976C67.7813 62.3435 67.7615 62.3288 67.7124 62.2861C67.536 62.1304 67.3288 61.9698 67.1216 61.8091C66.7071 61.4878 66.2815 61.1763 65.8552 60.8762C65.0033 60.2647 64.1411 59.6515 63.2789 59.0382L61.9904 58.125L61.3457 57.6741C61.1274 57.5232 60.9193 57.374 60.6923 57.1986C60.4851 57.038 60.4123 56.7367 60.542 56.5142C60.6258 56.3539 60.7864 56.2869 60.9517 56.3018C61.2705 56.353 61.545 56.4433 61.8178 56.5566C62.0805 56.6682 62.3423 56.7912 62.5938 56.9127C63.0961 57.167 63.5754 57.4523 64.054 57.7492C65.0008 58.3412 65.9239 58.9758 66.8256 59.6185L68.183 60.5891C68.6283 60.9154 69.0839 61.2433 69.5316 61.5352C69.7602 61.6877 69.9596 61.8123 70.1913 61.919C70.4128 62.024 70.6351 62.1176 70.851 62.1522C71.0559 62.1966 71.2441 62.1805 71.3643 62.0955C71.4292 62.0595 71.4853 61.999 71.5209 61.9352C71.5565 61.8714 71.5826 61.7945 71.6 61.6931C71.634 61.5016 71.5984 61.2642 71.5319 61.0218C71.4987 60.9006 71.4552 60.7778 71.4117 60.655C71.3682 60.5322 71.3049 60.3946 71.2511 60.2701C71.0265 59.7591 70.7591 59.2644 70.4482 58.7976C69.8367 57.8654 69.0718 57.0477 68.2223 56.4018C67.3735 55.7444 66.384 55.3193 65.4103 54.8156C64.9183 54.563 64.4279 54.2874 63.962 53.9578C63.4961 53.6283 63.0571 53.2103 62.6956 52.7237C62.6189 52.6303 62.6291 52.4814 62.7169 52.4144C62.7723 52.3653 62.8561 52.3556 62.9163 52.3884C64.3424 53.1152 65.729 53.9631 67.0682 54.8961C68.4073 55.829 69.6761 56.8781 70.8998 57.9779C71.2043 58.2353 71.5302 58.4845 71.8862 58.5995C72.0594 58.6504 72.2445 58.6801 72.4137 58.6377C72.583 58.5954 72.7349 58.5039 72.859 58.3616C73.1066 58.0885 73.2181 57.6777 73.2363 57.2636C73.2544 56.8495 73.2006 56.4238 73.0836 56.0111C72.8486 55.1973 72.3898 54.4634 71.8511 53.8325C71.2784 53.2426 70.6511 52.6902 69.9978 52.2147ZM70.0452 52.1297C70.6978 52.6166 71.3361 53.1592 71.8851 53.7917C72.4341 54.4242 72.9134 55.1613 73.1666 56.0129C73.2829 56.437 73.3462 56.8758 73.3264 57.3128C73.3114 57.5305 73.2861 57.7466 73.2197 57.956C73.1533 58.1655 73.0568 58.3585 72.9318 58.5123C72.7958 58.6758 72.6218 58.7869 72.4209 58.8358C72.22 58.8847 72.0135 58.8632 71.8197 58.8089C71.4227 58.6873 71.0865 58.4365 70.7622 58.1644C70.1341 57.6235 69.5156 57.0957 68.8741 56.5989C68.2326 56.1022 67.5689 55.6251 66.9029 55.1824C65.5614 54.2838 64.17 53.5046 62.751 52.8253L62.9724 52.4785C63.3062 52.9143 63.7184 53.27 64.155 53.5717C64.6019 53.8751 65.0741 54.113 65.5566 54.3525C66.0399 54.5806 66.5343 54.7989 67.0373 55.0417C67.5301 55.2829 68.0308 55.5601 68.4959 55.9012C69.4372 56.5734 70.2725 57.4256 70.9639 58.4053C71.304 58.9 71.611 59.4242 71.8744 59.9762C71.9377 60.1137 72.0009 60.2513 72.0634 60.4004C72.1259 60.5494 72.1774 60.7082 72.2288 60.8671C72.3213 61.1831 72.3902 61.5417 72.3427 61.928C72.319 62.1211 72.2637 62.3208 72.1585 62.4893C72.0636 62.6594 71.9291 62.8 71.7662 62.9013C71.6032 63.0026 71.4332 63.0565 71.2647 63.0874C71.097 63.1068 70.9309 63.1034 70.7767 63.0786C70.4682 63.0292 70.1843 62.9257 69.9122 62.801C69.7816 62.7337 69.6503 62.6779 69.5206 62.5992C69.3909 62.5205 69.2714 62.4434 69.152 62.3663C68.6742 62.0581 68.2289 61.7318 67.7725 61.4153L66.4144 60.4562C65.5118 59.8249 64.5982 59.2034 63.6712 58.6262C63.2124 58.3441 62.7426 58.0718 62.2806 57.8356C62.0497 57.7174 61.8076 57.6091 61.5751 57.5139C61.3425 57.4187 61.1084 57.3464 60.913 57.3151L61.1621 56.4167C61.3599 56.5642 61.5782 56.7151 61.7965 56.8659L62.4412 57.3168L63.7408 58.2203C64.6038 58.822 65.4659 59.4352 66.3281 60.0485C66.7537 60.36 67.1895 60.6731 67.6143 60.9961C67.8318 61.1584 68.0391 61.3191 68.2645 61.5174C68.3238 61.5616 68.4013 61.6436 68.4401 61.6846C68.4883 61.7386 68.5469 61.7944 68.5951 61.8484C68.6916 61.9566 68.7874 62.0762 68.8831 62.1958C69.0642 62.4334 69.2335 62.6922 69.3798 62.9821C69.5262 63.272 69.6496 63.593 69.6971 63.9597C69.7556 64.3167 69.7058 64.7373 69.5476 65.0711C69.4733 65.2445 69.3697 65.3901 69.2463 65.5209C69.1229 65.6517 68.9806 65.7563 68.8192 65.8347C68.5076 65.9817 68.1833 66.0108 67.8835 65.9859C67.5837 65.961 67.3085 65.8821 67.034 65.7918C66.7706 65.6916 66.5183 65.5817 66.2675 65.4488C66.1473 65.3832 66.0271 65.3176 65.9076 65.2405L65.5683 65.0355C64.68 64.4992 63.7901 63.9858 62.8852 63.5395C61.9803 63.0932 61.0509 62.7009 60.116 62.3888C59.1803 62.0882 58.2271 61.8891 57.2867 61.8078L57.3214 60.7012C58.8346 60.9206 60.3319 61.3692 61.7636 62.0158C61.9447 62.1028 62.1266 62.1783 62.2975 62.2636L62.8298 62.5343L63.3503 62.8263C63.5204 62.9231 63.6896 63.0313 63.8589 63.1395C64.5368 63.561 65.2004 64.0381 65.8309 64.5447C65.9883 64.6742 66.1457 64.8037 66.3031 64.9332L66.5285 65.1315C66.6068 65.202 66.6756 65.2594 66.7635 65.3429C66.9193 65.4954 67.1139 65.6888 67.2602 65.9787C67.3338 66.1179 67.3844 66.2882 67.4137 66.4667C67.4327 66.6435 67.4319 66.8055 67.4003 66.9627C67.337 67.2769 67.1954 67.5206 67.0159 67.712C66.8364 67.9033 66.6283 68.0553 66.3737 68.1303C66.1395 68.2086 65.9094 68.2296 65.6816 68.2163C65.4538 68.2029 65.2481 68.1699 65.0543 68.1157C64.8605 68.0615 64.6667 68.0072 64.4832 67.9546L63.9438 67.787L62.8657 67.4404C62.1435 67.2088 61.4221 66.9657 60.7111 66.7243C57.8374 65.7306 54.9835 64.6011 52.2246 63.1509C50.8498 62.4324 49.4917 61.6238 48.1913 60.7318C46.8806 59.8381 45.6293 58.8382 44.4364 57.7433C43.2428 56.6599 42.1275 55.4964 40.9639 54.4294C39.8011 53.3509 38.5806 52.3559 37.3371 51.3919C34.851 49.4526 32.3175 47.5983 29.7483 45.8078C28.4582 44.9174 27.1799 44.0058 25.9143 43.0615C24.6479 42.1286 23.3934 41.1745 22.1152 40.2628C20.8361 39.3627 19.5452 38.4838 18.2061 37.7014C17.5361 37.316 16.8653 36.942 16.1827 36.5893C15.5001 36.2365 14.8056 35.9051 14.1214 35.5753C14.0708 35.5556 14.0336 35.4917 14.0273 35.4328L13.5557 32.1713L13.1157 28.9034L12.2041 22.3741L12.2049 22.3626C12.1828 22.2317 12.254 22.1041 12.3702 22.0764C12.3916 22.0682 12.4129 22.06 12.4335 22.0633L12.4651 22.0568L12.5284 22.0438L12.6542 22.0292L12.9049 22.0115L13.3961 21.9744L13.6366 21.955L13.752 21.9388L13.7623 21.9404C13.7623 21.9404 13.7726 21.9421 13.7837 21.9323L13.847 21.9192C14.0162 21.8769 14.1847 21.846 14.3627 21.8282C14.7186 21.7926 15.1109 21.8323 15.4748 21.9833C15.8386 22.1343 16.1534 22.3933 16.4279 22.6343C16.7024 22.8752 16.9563 23.1129 17.2221 23.3292C17.4879 23.5456 17.756 23.7276 18.0455 23.9015L18.9567 24.4067C19.2565 24.5822 19.5666 24.7594 19.8664 24.9349C21.0742 25.6614 22.2465 26.4518 23.3942 27.2961C24.542 28.1405 25.6557 29.0257 26.7576 29.9322C31.1532 33.5795 35.2735 37.5997 39.8202 40.8657C40.96 41.674 42.1109 42.4725 43.3172 43.0714C43.9199 43.3766 44.5369 43.6261 45.1681 43.82C45.7993 44.0138 46.4439 44.1635 47.1004 44.292C49.717 44.7926 52.3565 45.2621 54.9762 45.8675C56.2868 46.1587 57.5943 46.4958 58.8891 46.8656C59.5417 47.0513 60.1824 47.2583 60.8334 47.4669C61.4733 47.6854 62.1227 47.9169 62.761 48.1583C65.2906 49.1662 67.7703 50.4443 70.0452 52.1297Z" fill="black"/>
<path d="M45.2828 42.3835C41.9437 42.8947 38.5886 39.2485 35.8337 36.8544C31.2876 32.9029 26.6941 29.0286 22.0411 25.2537C20.6531 24.1272 9.47128 13.9509 7.06787 12.2564L5.59104 31.8201C6.86844 32.3541 15.4076 37.7029 16.6193 38.4195C18.1588 39.3279 19.6992 40.2244 21.2285 41.1312C24.8353 43.2409 28.4591 45.401 31.6974 48.2617C33.3213 49.6987 34.7982 51.2945 36.1133 53.1069C37.9545 55.6443 38.8297 54.2345 40.0841 51.9311C41.579 49.1943 43.073 46.4694 44.567 43.7445C44.9644 43.0217 45.5731 43.2063 45.2828 42.3835Z" fill="#55C6FF"/>
<path d="M39.4665 68.7144C39.4665 68.7144 41.3538 65.0115 42.4361 63.1527C43.4344 61.4359 44.4504 59.6142 44.5723 57.5031C44.6494 56.2108 44.3805 54.8501 44.6766 53.6174C44.8816 52.7888 45.3331 52.0843 45.7523 51.3864C47.1754 49.0445 48.4246 46.2911 47.9861 43.3584C47.9627 43.2348 47.9287 43.1096 47.8615 43.0029C47.4491 42.349 46.6702 43.0242 46.3504 43.6664C44.8015 46.766 43.2526 49.8656 41.7029 52.977C41.4518 51.8227 43.9316 48.1566 45.0403 45.7514C45.3641 45.05 45.6839 44.2521 45.7797 43.4656C45.8876 42.5015 45.0629 41.6608 44.2297 41.8841C42.6813 42.3141 41.1963 43.6882 40.3369 45.0805C39.3709 46.635 39.0597 48.404 38.1042 49.9602C38.7898 46.5882 39.6827 44.076 41.9159 42.321C42.4435 41.9042 43.0421 41.2236 42.9844 40.3523C42.9445 39.6873 42.5159 39.1146 41.9589 38.8682C40.7932 38.355 39.738 39.033 38.8686 39.7891C36.5329 41.8027 32.4393 51.8741 33.7291 47.7386C34.7888 44.0205 36.3356 41.579 38.5338 39.2437C39.0831 38.6628 38.8685 37.5983 38.1272 37.25C37.3859 36.9017 36.5857 36.7952 35.9733 37.2102C34.9382 37.9034 33.9308 38.9723 33.2693 40.1095C31.3059 43.5246 30.6023 44.3437 29.0149 48.1673C28.939 48.3465 28.1671 50.172 28.1326 50.9925C28.1263 51.2429 28.6181 52.2927 28.9263 52.9176C30.422 55.9269 30.1451 58.7549 29.705 61.6402C29.7147 61.6538 34.0777 63.8973 39.4665 68.7144Z" fill="white"/>
<path d="M39.4643 68.651C39.4651 68.6392 39.4546 68.6375 39.4546 68.6375C39.4546 68.6375 39.4546 68.6375 39.4554 68.6256L39.4675 68.6037L39.5039 68.5378L39.5668 68.3925L39.7024 68.1154L39.9743 67.5495C40.1487 67.1711 40.3327 66.8062 40.5175 66.4295C40.8863 65.6879 41.2551 64.9463 41.6336 64.2183C41.8282 63.8551 42.0122 63.4902 42.2172 63.1287C42.4117 62.7656 42.6167 62.4041 42.7999 62.0511C43.1784 61.323 43.5359 60.5916 43.8006 59.821C44.0757 59.0522 44.2474 58.2425 44.2826 57.4107C44.3178 56.5788 44.2068 55.7111 44.2161 54.7912C44.2256 54.3381 44.2577 53.8646 44.3843 53.4066C44.5004 52.9469 44.6869 52.5466 44.883 52.1597C45.0791 51.7729 45.3043 51.4267 45.5085 51.0771C45.7127 50.7274 45.9169 50.3778 46.1001 50.0248C46.4779 49.3086 46.8144 48.5737 47.0895 47.8048C47.3646 47.036 47.5565 46.2416 47.6434 45.4301C47.682 45.0176 47.6988 44.6135 47.6736 44.2025C47.6663 43.9979 47.6484 43.7916 47.6192 43.5954L47.5974 43.4482L47.5885 43.4228L47.5796 43.3975C47.5804 43.3856 47.5707 43.3721 47.5715 43.3602C47.5537 43.3095 47.5448 43.2841 47.5254 43.257C47.506 43.2299 47.5052 43.2417 47.5052 43.2417C47.4947 43.24 47.4737 43.2366 47.4196 43.2517C47.3332 43.2735 47.1999 43.3595 47.0861 43.4726C46.9723 43.5856 46.8681 43.7122 46.7842 43.8541C46.7608 43.8862 46.7478 43.92 46.7236 43.9639L46.6502 44.1075L46.5146 44.3845L45.4089 46.5975L44.2823 48.807C43.5349 50.2767 42.7666 51.7429 42.0192 53.2125L41.5786 54.074L41.3916 53.0743C41.3535 52.8527 41.3648 52.687 41.3857 52.5349C41.4067 52.3827 41.4478 52.2458 41.4889 52.109C41.5704 51.847 41.6721 51.6003 41.7729 51.3655C41.9852 50.8975 42.2168 50.4567 42.4484 50.0158C42.9214 49.1476 43.4243 48.3082 43.9061 47.4653C44.388 46.6225 44.8602 45.7661 45.2297 44.8571C45.4088 44.4077 45.5581 43.9294 45.6225 43.4493C45.6483 43.2262 45.6207 43.0063 45.5285 42.7998C45.4469 42.5951 45.2998 42.4155 45.1285 42.2799C44.9572 42.1443 44.7601 42.0762 44.559 42.0674C44.4532 42.0621 44.3675 42.0721 44.2593 42.1023C44.1511 42.1325 44.0429 42.1627 43.9444 42.2065C43.5309 42.3545 43.1336 42.5769 42.7556 42.8264C42.0095 43.339 41.3281 43.9937 40.7767 44.7654C40.2149 45.5353 39.8251 46.4291 39.4749 47.3652C39.1151 48.2877 38.773 49.261 38.2588 50.1105L37.7576 50.9263L37.9518 49.9408C38.2428 48.4686 38.5871 46.9931 39.1681 45.6279C39.4586 44.9453 39.8105 44.2967 40.2432 43.7091C40.6654 43.1198 41.1676 42.6034 41.7078 42.153C41.9661 41.9438 42.1938 41.7177 42.3706 41.4593C42.5474 41.201 42.6636 40.8968 42.6836 40.6009C42.7037 40.3051 42.618 40.0039 42.4539 39.7618C42.3666 39.6398 42.268 39.528 42.1573 39.4382C42.0967 39.3924 42.0458 39.3602 41.9739 39.3245C41.9125 39.2906 41.8503 39.2685 41.7784 39.2328C41.4989 39.1274 41.2138 39.1049 40.9246 39.1415C40.6355 39.1781 40.3617 39.301 40.0864 39.4476C39.8215 39.5959 39.5534 39.7915 39.3055 40.0024L39.1142 40.1626C39.0576 40.2132 39.0011 40.2638 38.9438 40.3263C38.83 40.4394 38.7258 40.566 38.6217 40.6926C38.2043 41.2109 37.8241 41.807 37.4544 42.4049C37.0952 43.0045 36.7449 43.6294 36.4051 44.2561C35.7256 45.5094 35.0961 46.8068 34.4351 48.0991C34.3495 48.2646 34.2648 48.4183 34.1792 48.5839C34.1316 48.6599 34.0937 48.7494 34.0348 48.8355C34.0105 48.8795 33.9863 48.9234 33.9516 48.9656C33.9395 48.9875 33.9169 49.0078 33.904 49.0416C33.8806 49.0737 33.8685 49.0956 33.8224 49.1479C33.8111 49.1581 33.7998 49.1682 33.7772 49.1884C33.7546 49.2087 33.732 49.2289 33.6561 49.2525C33.6117 49.2811 33.3863 49.3162 33.207 49.1433C33.0486 48.9739 33.055 48.8792 33.0372 48.8285C33.0234 48.7185 33.025 48.6949 33.0275 48.6594C33.0299 48.6239 33.0315 48.6002 33.0331 48.5765C33.0387 48.4937 33.0532 48.4362 33.0669 48.3906C33.0951 48.2875 33.1129 48.1827 33.1403 48.0914L33.2226 47.8176L33.304 47.5557C33.5016 46.8341 33.7412 46.1193 34.0115 45.4214C34.5424 44.0122 35.2365 42.7014 36.0615 41.4957C36.474 40.8929 36.9156 40.3307 37.3669 39.782L37.7124 39.3836L38.0685 38.987L38.1597 38.8942C38.1823 38.8739 38.1944 38.852 38.2057 38.8418C38.23 38.7979 38.2534 38.7658 38.2776 38.7219C38.3155 38.6324 38.3324 38.5394 38.3283 38.443C38.321 38.2384 38.2175 38.042 38.0656 37.9335C38.0454 37.9182 38.0252 37.903 38.005 37.8877C37.9945 37.886 37.9848 37.8725 37.9743 37.8708C37.9638 37.869 37.9541 37.8555 37.9331 37.8521C37.8612 37.8164 37.7885 37.7926 37.7271 37.7587C37.5825 37.6992 37.4468 37.6651 37.3111 37.631C37.0389 37.5747 36.7626 37.5775 36.5349 37.6481C36.4808 37.6632 36.4259 37.6901 36.3709 37.7171C36.3386 37.7238 36.316 37.744 36.2934 37.7642L36.2603 37.7828L36.2159 37.8114C36.0827 37.8974 35.9591 37.9969 35.8251 38.0947C35.3204 38.4911 34.8529 38.9653 34.4259 39.4701C34.2176 39.7233 34.019 39.9901 33.8406 40.2721C33.7938 40.3363 33.7567 40.414 33.709 40.49L33.5767 40.7197L33.3006 41.1892C32.5693 42.4222 31.8081 43.6263 31.1399 44.8695C30.4716 46.1127 29.8736 47.4153 29.316 48.7483C29.1772 49.0727 29.0481 49.4106 28.9295 49.7503C28.8109 50.0899 28.7036 50.4195 28.6279 50.7541C28.6117 50.8352 28.5956 50.9164 28.5803 50.9857C28.5779 51.0212 28.5755 51.0567 28.5731 51.0922L28.5715 51.1159L28.5739 51.0804C28.5747 51.0685 28.5747 51.0685 28.5739 51.0804C28.582 51.1176 28.6079 51.2056 28.6345 51.2817C28.6612 51.3579 28.6976 51.4475 28.7243 51.5237C28.8609 51.8571 29.0178 52.2057 29.1754 52.5426L29.2959 52.8015L29.426 53.074L29.5457 53.3448L29.654 53.6257C29.7988 53.9963 29.9209 54.3872 30.0325 54.7763C30.2453 55.5529 30.3603 56.3614 30.4018 57.158C30.4744 58.7493 30.2642 60.2826 30.0144 61.7735L29.8285 61.3842C30.2793 61.6253 30.697 61.8848 31.1244 62.1579C31.3385 62.2885 31.5518 62.431 31.7554 62.5599C31.9687 62.7024 32.1723 62.8313 32.3856 62.9738C33.2177 63.5402 34.0378 64.1286 34.8458 64.739L35.4405 65.2069C35.6425 65.3595 35.8436 65.5239 36.0343 65.6866L36.6282 66.1664L37.2108 66.6562C37.6026 66.9834 37.9832 67.3206 38.3638 67.6579L38.5036 67.7884L38.6329 67.9172L38.902 68.1764L39.4643 68.651ZM39.4894 68.7508L38.2815 67.7761C37.8888 67.4608 37.4961 67.1455 37.0921 66.8403L36.4966 66.3842L35.8899 65.9383C35.6879 65.7857 35.4851 65.645 35.2831 65.4924L34.6755 65.0583C33.8538 64.4935 33.0208 63.9389 32.1854 63.4198C31.35 62.9007 30.492 62.4018 29.6413 61.952L29.4159 61.8315L29.4554 61.5627C29.6623 60.0768 29.8273 58.584 29.7144 57.1177C29.6584 56.3786 29.5378 55.653 29.3307 54.9491C29.2272 54.5972 29.1123 54.2554 28.966 53.9084L28.856 53.6512L28.7453 53.4058L28.624 53.1587L28.493 52.898C28.3152 52.5459 28.1479 52.1955 27.9918 51.8351C27.9554 51.7454 27.9094 51.6421 27.8738 51.5406C27.8382 51.4391 27.8026 51.3375 27.7702 51.1887C27.7621 51.1514 27.7549 51.1024 27.7476 51.0533C27.7492 51.0297 27.7427 50.9688 27.7443 50.9451L27.7475 50.8978C27.7515 50.8386 27.7555 50.7794 27.7595 50.7202C27.7781 50.6036 27.7958 50.4988 27.8127 50.4058C27.8933 50.0002 28.0135 49.6368 28.1337 49.2735C28.2539 48.9102 28.3838 48.5604 28.5242 48.2124C29.0729 46.8539 29.6434 45.4871 30.3359 44.2C30.6773 43.5496 31.0381 42.9264 31.3989 42.3031L32.4797 40.4571L32.7444 39.9977L32.8768 39.768C32.9244 39.692 32.9728 39.6041 33.0205 39.5281C33.2231 39.2022 33.4346 38.9016 33.6663 38.6163C34.1297 38.0457 34.6528 37.5327 35.214 37.0857C35.3594 36.9778 35.5047 36.8698 35.6501 36.7619L35.7058 36.7231L35.7728 36.6742C35.8172 36.6456 35.8616 36.6169 35.9165 36.59C36.0151 36.5462 36.1136 36.5024 36.2113 36.4705C36.6232 36.3462 37.0368 36.3538 37.435 36.4307C37.6337 36.475 37.8211 36.5295 38.0077 36.5958C38.1006 36.6349 38.1935 36.674 38.2759 36.7114C38.2969 36.7148 38.3276 36.7318 38.3583 36.7487C38.389 36.7657 38.4197 36.7827 38.4399 36.7979C38.5013 36.8319 38.5522 36.8641 38.6023 36.9082C38.814 37.0743 39.0007 37.2962 39.122 37.5433C39.2537 37.7922 39.3193 38.0781 39.3323 38.3554C39.3453 38.6327 39.3043 38.9252 39.1921 39.1702C39.1413 39.2935 39.0694 39.4134 38.9992 39.5097C38.9637 39.5637 38.9177 39.616 38.8724 39.6565L38.7812 39.7493L38.4373 40.1241L38.0925 40.5106C37.6437 41.0237 37.2247 41.5657 36.8259 42.1229C36.038 43.2509 35.3705 44.4823 34.8453 45.8086C34.5879 46.4727 34.3507 47.152 34.1434 47.8601L34.0619 48.122L33.9812 48.3721C33.9546 48.4515 33.9377 48.5445 33.9119 48.6121C33.899 48.6459 33.8966 48.6814 33.8958 48.6932C33.8958 48.6932 33.8958 48.6932 33.8966 48.6814C33.8974 48.6696 33.8982 48.6577 33.8925 48.585C33.8739 48.5461 33.89 48.4649 33.7413 48.3091C33.5724 48.1379 33.3568 48.1865 33.3237 48.2051C33.2583 48.2303 33.2462 48.2523 33.2244 48.2607C33.2131 48.2708 33.2018 48.2809 33.2018 48.2809C33.1897 48.3029 33.1905 48.2911 33.2018 48.2809L33.2252 48.2489C33.2486 48.2168 33.2615 48.183 33.2849 48.1509C33.3212 48.085 33.3689 48.009 33.406 47.9313C33.4907 47.7776 33.5755 47.6239 33.6602 47.4702C34.3196 46.2016 34.9701 44.9076 35.682 43.6476C36.0331 43.0108 36.3939 42.3875 36.7749 41.7796C37.1559 41.1716 37.5579 40.567 38.0309 40.0099C38.1464 39.8732 38.2723 39.7382 38.4088 39.6049C38.4766 39.5441 38.5452 39.4716 38.6236 39.4125C38.6914 39.3518 38.7584 39.3029 38.8262 39.2421C39.1064 39.0246 39.3971 38.8087 39.7161 38.6453C40.0351 38.4819 40.3945 38.3491 40.7692 38.3025C41.144 38.2559 41.5543 38.3108 41.9154 38.4654C42.0083 38.5045 42.1012 38.5436 42.1925 38.6063C42.2846 38.6572 42.3759 38.72 42.4559 38.7928C42.6272 38.9285 42.7743 39.108 42.8996 39.296C43.1493 39.6837 43.2747 40.1828 43.2329 40.6426C43.1911 41.1025 43.0047 41.5029 42.7714 41.8119C42.5486 42.1225 42.2652 42.3875 41.9858 42.5932C41.4593 42.998 40.9814 43.4705 40.5624 44.0125C40.1434 44.5544 39.7947 45.1557 39.4961 45.801C38.8989 47.0918 38.5255 48.5266 38.2249 49.9853L37.9179 49.8156C38.4288 49.0134 38.779 48.0773 39.1396 47.143C39.3196 46.6817 39.5108 46.2103 39.7327 45.7559C39.9547 45.3014 40.2065 44.8758 40.4883 44.479C41.0622 43.6871 41.7461 42.9969 42.5261 42.4539C42.9161 42.1825 43.3344 41.9635 43.7705 41.7953C43.8795 41.7532 43.9878 41.723 44.1073 41.6826C44.2268 41.6423 44.3552 41.6273 44.4829 41.6242C44.7478 41.6315 45.0071 41.7216 45.2398 41.8912C45.462 42.059 45.6584 42.2945 45.778 42.5653C45.8977 42.8361 45.9503 43.1558 45.9197 43.4499C45.8618 43.9909 45.7102 44.5047 45.5399 44.9795C45.1882 45.9393 44.7249 46.821 44.2729 47.6927C43.821 48.5643 43.348 49.4325 42.9065 50.3058C42.6854 50.7484 42.4756 51.1809 42.2964 51.6303C42.2069 51.8551 42.1278 52.0815 42.0706 52.2995C42.0415 52.4144 42.0133 52.5175 42.0061 52.624C41.9892 52.717 41.9932 52.8134 42.011 52.8642L41.3729 52.7242C42.0895 51.2376 42.807 49.7392 43.5341 48.2543L44.6301 46.0278L45.7365 43.803L45.8721 43.5259L45.9456 43.3824C45.9706 43.3266 46.0061 43.2726 46.0311 43.2168C46.1514 43.0091 46.3023 42.8183 46.4727 42.6546C46.6431 42.4909 46.8441 42.3442 47.1155 42.2568C47.256 42.2199 47.4167 42.1982 47.6042 42.2527C47.6979 42.28 47.7908 42.319 47.8716 42.3801C47.9524 42.4411 48.0218 42.5123 48.0808 42.5817C48.1988 42.7206 48.2821 42.9017 48.3242 43.0641C48.3323 43.1014 48.35 43.1521 48.3581 43.1893L48.3646 43.2502L48.3719 43.2993L48.3922 43.4701C48.4189 43.7018 48.4352 43.9318 48.4506 44.1737C48.4718 44.6438 48.451 45.1071 48.3995 45.5534C48.2957 46.4579 48.0666 47.3299 47.7778 48.1444C47.4785 48.9572 47.1081 49.7224 46.7077 50.4589C46.5027 50.8203 46.2977 51.1818 46.0822 51.5415C45.8675 51.8894 45.6536 52.2255 45.4599 52.5768C45.2775 52.9181 45.1153 53.2745 45.0161 53.6413C44.9064 54.0063 44.8686 54.407 44.851 54.8229C44.8158 55.6548 44.9147 56.5445 44.8634 57.4575C44.832 57.919 44.7595 58.3619 44.666 58.8014C44.562 59.2391 44.4281 59.6481 44.2732 60.0536C43.9641 60.8528 43.5735 61.6028 43.1643 62.3139C42.9593 62.6754 42.7446 63.0233 42.5299 63.3712C42.3152 63.7191 42.1109 64.0687 41.9067 64.4183C41.4975 65.1294 41.0988 65.8422 40.6896 66.5533L40.0858 67.6275L39.784 68.1646L39.6379 68.44L39.5653 68.5717L39.5289 68.6376L39.5047 68.6815C39.5233 68.7204 39.5007 68.7407 39.4894 68.7508Z" fill="black"/>
</g>
</svg>
