<svg width="591" height="360" viewBox="0 0 591 360" fill="none" xmlns="http://www.w3.org/2000/svg">
<g clip-path="url(#clip0)">
<path d="M286.618 167.596C348.918 176.342 410.331 190.38 471.668 204.417L546.192 221.476C559.835 224.596 574.753 228.569 582.624 240.144C586.666 246.099 588.27 253.348 589.369 260.455C593.023 283.854 591.482 310.276 575.315 327.59C566.962 336.535 555.587 342.039 544.133 346.354C494.477 365.066 437.833 364.511 388.555 344.831C368.396 336.781 349.144 325.578 327.713 322.139C302.599 318.103 277.206 325.104 252.454 330.979C200.262 343.363 147.046 350.949 93.4714 353.644C74.4118 354.6 53.5854 354.387 38.6406 342.524C30.4011 335.984 24.9678 326.591 20.232 317.21C6.2835 289.54 -3.41733 258.391 1.1591 227.746C6.05434 194.775 30.7996 164.127 64.8837 159.168C110.05 152.599 159.534 156.313 204.876 159.241C232.215 161.007 259.463 163.792 286.618 167.596Z" fill="#EFEFEF"/>
<path d="M135.021 83.6317C138.674 73.3416 145.426 64.522 152.088 55.885C162.715 42.0896 173.509 28.1449 187.172 17.3337C200.835 6.52248 217.895 -1.00587 235.287 0.10612C259.784 1.67619 279.71 19.3353 301.509 30.5382C332.727 46.5907 370.461 49.525 403.798 38.5047C423.97 31.8361 446.534 35.6567 467.529 38.9229C488.525 42.1892 509.219 50.7167 524.017 65.956C538.816 81.1952 546.873 103.717 541.775 124.334C537.016 143.586 521.517 158.965 503.48 167.204C485.443 175.442 465.092 177.295 445.275 176.544C421.144 175.623 397.293 171.045 374.536 162.968C357.496 156.914 341.156 148.924 323.863 143.633C270.976 127.457 214.189 137.658 158.886 138.481C148.647 138.634 137.705 138.249 129.302 132.393C120.9 126.538 116.566 115.733 117.121 105.457C117.675 95.1798 131.59 93.3342 135.021 83.6317Z" fill="#C5E8FB"/>
<path d="M93.4782 54.71C83.7143 62.9221 81.6253 76.993 87.9619 88.0664C90.3588 92.3764 91.8102 97.1469 92.2195 102.061C93.0498 111.259 90.9741 120.437 89.1608 129.492C85.7491 146.568 83.247 163.814 81.6652 181.155C81.2335 185.918 81.084 191.329 84.4217 194.765C87.3708 197.795 92.0302 198.187 96.2546 198.386C152.821 201.042 209.431 202.259 266.084 202.037C357.35 201.656 447.703 229.316 538.713 222.478C546.873 204.739 553.256 187.874 556.501 168.621C558.583 156.253 558.909 141.734 549.65 133.256C543.785 127.892 535.462 126.375 527.604 125.18C411.284 107.501 292.941 111.511 175.286 111.518C172.679 111.518 169.926 111.475 167.697 110.13C165.705 108.925 164.413 106.844 163.327 104.783C159.165 96.8734 156.785 88.1497 156.353 79.2236C155.818 68.0074 157.366 54.3913 148.179 47.9318C144.931 45.6481 140.89 44.8282 136.951 44.3535C124.543 42.8565 111.565 44.3535 100.459 50.0794C97.966 51.3568 95.6243 52.91 93.4782 54.71Z" fill="#E0E0E0"/>
<path d="M237.201 218.568C241.053 217.904 244.992 218.352 248.874 218.784C258.651 219.869 268.538 220.915 278.305 219.74C282.075 219.288 286.057 218.531 289.544 220.028C293.031 221.525 295.276 226.458 292.659 229.21C291.5 230.425 289.763 230.87 288.126 231.245C279.521 233.236 270.886 235.261 262.092 236.154C255.825 236.791 249.498 236.858 243.281 237.87C239.804 238.434 236.354 239.297 232.83 239.367C227.453 239.477 218.197 235.812 220.353 228.745C222.027 223.315 232.292 219.394 237.201 218.568Z" fill="#55C6FF"/>
<path d="M237.2 218.518C240.591 217.944 244.048 218.186 247.452 218.495C250.857 218.804 254.264 219.135 257.675 219.371C264.486 219.833 271.321 220.082 278.086 219.348C279.776 219.169 281.48 218.933 283.214 218.843C284.957 218.716 286.709 218.882 288.398 219.335C288.607 219.401 288.82 219.464 289.026 219.54L289.637 219.786L290.231 220.091C290.424 220.198 290.603 220.33 290.789 220.45C291.503 220.968 292.126 221.6 292.632 222.322C293.145 223.037 293.527 223.837 293.758 224.685C293.997 225.539 294.027 226.437 293.844 227.304C293.799 227.522 293.734 227.734 293.648 227.938C293.571 228.148 293.472 228.348 293.353 228.536C293.247 228.731 293.119 228.912 292.971 229.077C292.901 229.163 292.831 229.253 292.758 229.333C292.685 229.412 292.602 229.489 292.519 229.565C291.848 230.13 291.073 230.56 290.238 230.83C289.417 231.115 288.577 231.304 287.747 231.494L285.249 232.084L280.268 233.256C278.601 233.641 276.929 234.014 275.253 234.375C271.902 235.082 268.535 235.729 265.13 236.19C261.726 236.652 258.302 236.944 254.892 237.186C251.481 237.429 248.077 237.684 244.716 238.182C241.355 238.68 238.034 239.51 234.557 239.812C233.681 239.888 232.801 239.909 231.923 239.875C231.041 239.822 230.165 239.7 229.303 239.51C227.577 239.147 225.916 238.525 224.378 237.664C222.853 236.791 221.412 235.623 220.515 234.013C220.067 233.216 219.794 232.332 219.715 231.421C219.652 230.522 219.764 229.62 220.047 228.765C220.32 227.918 220.749 227.13 221.312 226.441C221.86 225.76 222.478 225.138 223.156 224.586C224.502 223.504 225.966 222.578 227.519 221.824C229.057 221.06 230.643 220.395 232.265 219.833C233.873 219.264 235.523 218.824 237.2 218.518ZM237.2 218.614C235.522 218.931 233.872 219.387 232.269 219.975C230.664 220.556 229.103 221.251 227.599 222.057C226.099 222.852 224.694 223.813 223.408 224.921C222.776 225.472 222.206 226.09 221.708 226.763C221.214 227.419 220.848 228.161 220.628 228.951C220.406 229.733 220.34 230.55 220.432 231.357C220.535 232.152 220.799 232.917 221.209 233.605C221.632 234.296 222.165 234.914 222.787 235.434C223.41 235.969 224.089 236.435 224.813 236.824C226.281 237.606 227.853 238.174 229.482 238.511C230.292 238.687 231.115 238.798 231.943 238.843C232.774 238.87 233.606 238.844 234.434 238.763C237.788 238.481 241.113 237.618 244.537 237.166C247.961 236.715 251.381 236.479 254.795 236.267C258.209 236.054 261.613 235.845 264.998 235.43C266.687 235.22 268.376 234.986 270.066 234.727C271.755 234.468 273.438 234.179 275.114 233.86C278.471 233.223 281.822 232.532 285.153 231.766L287.654 231.195C288.487 231.023 289.311 230.808 290.121 230.551C290.921 230.304 291.662 229.895 292.297 229.349C292.373 229.279 292.443 229.203 292.519 229.133C292.596 229.064 292.649 228.971 292.712 228.891C292.977 228.577 293.187 228.22 293.333 227.836C293.413 227.646 293.473 227.449 293.512 227.248C293.675 226.434 293.634 225.593 293.393 224.798C293.162 223.995 292.786 223.242 292.283 222.574C291.787 221.908 291.183 221.329 290.497 220.862C290.321 220.755 290.165 220.633 289.972 220.53L289.417 220.264L288.83 220.048C288.634 219.985 288.431 219.932 288.232 219.869C286.601 219.484 284.918 219.372 283.25 219.537C281.563 219.663 279.883 219.955 278.176 220.168C271.334 221.034 264.416 220.729 257.612 219.992C254.204 219.627 250.81 219.185 247.416 218.75C245.722 218.535 244.018 218.375 242.315 218.312C240.612 218.252 238.907 218.354 237.224 218.614H237.2Z" fill="black"/>
<path d="M241.667 245.784L232.162 258.221C229.642 261.521 227.044 266.052 229.363 269.507C231.023 271.963 234.401 272.465 237.356 272.352C242.883 272.126 248.27 270.552 253.048 267.768C255.974 266.058 258.644 263.904 261.706 262.457C264.878 260.943 268.681 259.981 270.477 256.953C272.088 254.231 271.44 250.756 270.381 247.775C269.322 244.794 267.877 241.8 268.023 238.657C268.126 236.446 268.87 233.807 267.226 232.323C266.653 231.871 265.995 231.54 265.29 231.351C261.637 230.109 250.574 225.788 247.638 229.957C246.599 231.434 247.336 235.308 246.768 237.15C245.782 240.313 243.666 243.168 241.667 245.784Z" fill="#55C6FF"/>
<path d="M241.694 245.807C238.227 250.384 234.746 254.975 231.399 259.622C230.605 260.796 229.937 262.05 229.406 263.363C229.149 264.014 228.961 264.691 228.845 265.381C228.74 266.06 228.74 266.75 228.845 267.429C228.982 268.094 229.24 268.729 229.605 269.301C229.982 269.87 230.47 270.357 231.04 270.732C232.232 271.46 233.582 271.894 234.976 271.997C236.39 272.124 237.813 272.118 239.226 271.977C240.651 271.855 242.066 271.643 243.464 271.343C244.862 271.039 246.24 270.649 247.589 270.174C248.937 269.691 250.251 269.12 251.524 268.465C254.092 267.183 256.386 265.434 258.831 263.904C260.051 263.132 261.325 262.448 262.643 261.859C263.972 261.272 265.3 260.741 266.555 260.083C267.811 259.426 269.006 258.61 269.837 257.484C270.671 256.363 271.141 255.014 271.185 253.617C271.221 252.208 271.033 250.802 270.627 249.451C270.249 248.09 269.701 246.769 269.192 245.418C268.644 244.07 268.218 242.676 267.917 241.252C267.773 240.527 267.699 239.789 267.695 239.048C267.695 238.302 267.781 237.581 267.847 236.868C267.926 236.173 267.954 235.475 267.93 234.776C267.916 234.12 267.714 233.482 267.346 232.937C266.94 232.423 266.386 232.045 265.758 231.855L263.733 231.142C261.053 230.15 258.302 229.363 255.503 228.788C254.118 228.507 252.703 228.404 251.292 228.483C250.608 228.532 249.935 228.688 249.299 228.944C248.674 229.196 248.14 229.633 247.768 230.196C246.646 232.682 247.855 235.928 246.373 238.554C245.188 241.213 243.448 243.536 241.694 245.807ZM241.641 245.764C243.361 243.476 245.095 241.143 246.171 238.484C246.308 238.152 246.431 237.82 246.539 237.488C246.657 237.156 246.739 236.812 246.785 236.463C246.86 235.755 246.887 235.043 246.868 234.332C246.868 233.615 246.848 232.894 246.885 232.167C246.9 231.8 246.94 231.434 247.004 231.072C247.031 230.889 247.087 230.707 247.131 230.524C247.191 230.338 247.269 230.158 247.363 229.987C247.762 229.325 248.356 228.805 249.063 228.496C249.748 228.192 250.479 228.004 251.225 227.942C252.686 227.83 254.156 227.91 255.596 228.177C257.024 228.423 258.436 228.756 259.824 229.173C261.212 229.575 262.584 230.036 263.942 230.501L265.984 231.215C266.346 231.345 266.693 231.512 267.02 231.713C267.36 231.93 267.656 232.208 267.894 232.532C268.341 233.183 268.592 233.948 268.615 234.737C268.643 235.474 268.611 236.212 268.518 236.944C268.449 237.661 268.356 238.368 268.356 239.058C268.353 239.756 268.418 240.451 268.548 241.136C268.833 242.527 269.239 243.889 269.76 245.209C270.252 246.537 270.803 247.891 271.175 249.305C271.58 250.718 271.756 252.186 271.696 253.654C271.652 254.395 271.504 255.127 271.258 255.828C271.005 256.529 270.641 257.185 270.179 257.77C269.721 258.35 269.182 258.861 268.578 259.287C267.985 259.711 267.358 260.088 266.705 260.412C265.406 261.076 264.048 261.567 262.74 262.128C261.42 262.687 260.148 263.353 258.937 264.12C256.499 265.623 254.185 267.356 251.631 268.684C249.068 270.019 246.352 271.039 243.544 271.721C242.137 272.057 240.711 272.302 239.273 272.455C237.829 272.635 236.37 272.67 234.919 272.561C233.433 272.46 231.992 272.005 230.718 271.233C230.081 270.819 229.534 270.28 229.11 269.65C228.699 269.011 228.416 268.299 228.277 267.552C228.17 266.808 228.178 266.053 228.3 265.311C228.433 264.586 228.64 263.876 228.918 263.194C229.484 261.852 230.206 260.581 231.067 259.406C231.913 258.228 232.827 257.122 233.723 255.987L236.38 252.601C238.137 250.321 239.881 248.041 241.641 245.764Z" fill="black"/>
<path d="M339.635 150.205C339.868 142.654 330.592 138.511 327.68 131.544C326.235 128.098 326.408 124.035 324.418 120.875C322.598 117.987 319.33 116.407 316.228 114.977C309.46 111.847 301.905 108.67 294.781 110.861C288.933 112.67 284.718 117.808 281.829 123.202C276.585 133.001 274.642 144.171 272.769 155.125L269.996 171.323C269.445 174.543 268.89 177.783 267.781 180.856C266.492 184.428 264.483 187.688 262.587 190.977C255.805 202.75 250.301 215.213 246.167 228.154C245.931 228.75 245.826 229.39 245.858 230.03C246.091 231.869 248.299 232.636 250.123 232.974C258.671 234.565 267.334 235.459 276.027 235.646C275.875 231.868 276.04 228.084 276.519 224.334C276.671 223.125 276.944 221.781 277.953 221.097C278.661 220.616 279.581 220.58 280.351 220.208C281.397 219.707 282.051 218.661 282.649 217.668C284.622 214.402 286.634 211.03 287.335 207.295C287.84 204.64 287.667 201.871 288.229 199.219C289.198 194.619 292.25 190.775 295.203 187.117C297.169 193.58 299.158 200.096 302.4 206.037C305.641 211.979 310.261 217.323 316.325 220.311C314.239 225.814 312.848 230.979 311.343 236.665C307.987 236.018 304.813 234.645 302.044 232.642C300.118 231.248 298.391 229.558 296.398 228.297C289.836 224.188 281.271 225.31 273.945 227.806C272.284 228.377 270.524 229.104 269.591 230.594C268.807 231.852 268.76 233.416 268.734 234.909L268.624 241.804C268.624 242.494 268.624 243.244 269.036 243.795C269.448 244.346 270.451 244.486 270.783 243.878C274.493 244.316 277.478 247.427 280.082 250.095C288.647 258.852 298.467 266.709 309.938 271.008C321.409 275.306 334.733 275.738 345.62 270.118C348.519 268.621 352.049 269.122 355.015 267.741C364.955 263.137 374.55 257.514 382.474 249.953C390.398 242.391 396.608 232.755 398.847 222.033C388.691 217.944 383.198 207.275 376.841 198.37C373.199 193.267 369.046 188.549 364.447 184.289C357.765 178.105 349.957 172.648 345.849 164.525C344.062 160.993 346.513 156.293 344.401 152.941C343.122 150.906 342.017 150.056 339.635 150.205Z" fill="black"/>
<path d="M449.433 222.256C447.918 227.661 447.103 233.239 447.009 238.853C446.955 242.069 447.258 245.578 449.433 247.951C452.94 251.778 459.087 250.676 464.185 251.669C471.385 253.073 477.21 259.731 477.642 267.051C472.328 270.038 465.64 267.96 460.236 265.145C454.833 262.331 449.443 258.719 443.352 258.696C444.532 259.027 445.601 259.671 446.445 260.559C447.289 261.447 447.877 262.546 448.148 263.741C445.026 264.03 441.838 264.316 438.796 263.516C435.754 262.716 432.881 260.604 432.064 257.577C431.635 255.984 433.801 249.445 433.807 247.795C433.841 240.373 430.297 227.331 430.486 219.912C430.818 206.967 430.486 207.332 433.548 200.225C433.88 199.425 434.292 198.598 435 198.084C435.84 197.473 436.952 197.42 437.989 197.394C441.688 197.314 448.646 203.737 451.429 206.465C454.65 209.625 450.413 218.83 449.433 222.256Z" fill="white"/>
<path d="M449.466 222.266C448.034 227.399 447.253 232.692 447.141 238.019C447.093 239.349 447.135 240.679 447.268 242.003C447.388 243.315 447.717 244.599 448.244 245.807C448.778 247.001 449.619 248.032 450.682 248.794C451.76 249.529 452.975 250.04 454.255 250.298C456.822 250.872 459.502 250.832 462.169 251.108C463.523 251.22 464.86 251.485 466.155 251.898C467.44 252.33 468.667 252.918 469.808 253.65C472.102 255.115 474.033 257.082 475.454 259.403C476.877 261.717 477.708 264.346 477.875 267.057V267.19L477.758 267.253C476.396 267.998 474.899 268.462 473.355 268.618C471.821 268.764 470.274 268.69 468.762 268.398C465.763 267.785 462.872 266.727 460.187 265.258C458.838 264.551 457.51 263.804 456.175 263.081C454.84 262.357 453.488 261.657 452.103 261.033C449.35 259.788 446.398 258.835 443.365 258.852L443.402 258.583C444.611 258.917 445.707 259.57 446.576 260.475C447.444 261.379 448.053 262.501 448.337 263.721L448.38 263.917L448.178 263.937C445.78 264.173 443.349 264.409 440.914 264.143C439.691 264.023 438.488 263.739 437.341 263.297C436.188 262.845 435.123 262.195 434.193 261.378C433.247 260.556 432.508 259.522 432.037 258.361C431.977 258.215 431.931 258.065 431.881 257.916L431.815 257.69C431.791 257.605 431.775 257.519 431.765 257.431C431.732 257.11 431.732 256.786 431.765 256.465C431.825 255.848 431.934 255.247 432.051 254.65C432.293 253.458 432.585 252.286 432.864 251.114C433.004 250.527 433.146 249.943 433.269 249.358C433.414 248.795 433.494 248.217 433.508 247.636C433.446 245.239 433.224 242.85 432.844 240.482C432.492 238.102 432.077 235.726 431.679 233.349C431.28 230.972 430.878 228.586 430.569 226.183C430.42 224.981 430.29 223.776 430.211 222.561C430.171 221.957 430.151 221.346 430.141 220.735C430.131 220.125 430.141 219.517 430.174 218.916C430.241 216.507 430.28 214.097 430.373 211.677C430.423 210.469 430.486 209.257 430.649 208.025C430.81 206.807 431.095 205.608 431.499 204.447C431.898 203.289 432.379 202.177 432.858 201.068C433.103 200.514 433.322 199.963 433.608 199.408C433.883 198.819 434.29 198.3 434.797 197.891C435.336 197.521 435.96 197.293 436.61 197.228C436.922 197.188 437.235 197.168 437.54 197.155H437.999C438.158 197.155 438.331 197.155 438.483 197.181C439.762 197.344 440.878 197.918 441.937 198.509C444.005 199.78 445.952 201.239 447.753 202.867C448.662 203.664 449.549 204.487 450.409 205.324C450.841 205.748 451.276 206.153 451.698 206.608C452.094 207.091 452.372 207.659 452.512 208.268C452.753 209.465 452.768 210.697 452.555 211.899C452.369 213.094 452.103 214.275 451.758 215.434C451.426 216.593 451.034 217.738 450.635 218.877C450.237 220.015 449.805 221.111 449.466 222.266ZM449.403 222.246C449.735 221.084 450.16 219.955 450.546 218.813C450.931 217.672 451.316 216.526 451.641 215.368C451.976 214.217 452.231 213.045 452.405 211.859C452.604 210.677 452.573 209.468 452.312 208.298C452.17 207.727 451.898 207.197 451.519 206.748C451.113 206.326 450.655 205.914 450.22 205.503C449.337 204.686 448.44 203.883 447.517 203.11C445.705 201.536 443.751 200.132 441.682 198.917C441.165 198.627 440.631 198.371 440.081 198.15C439.55 197.927 438.992 197.777 438.42 197.706C438.281 197.686 438.141 197.706 438.002 197.686H437.557C437.265 197.697 436.973 197.723 436.683 197.765C436.129 197.826 435.6 198.027 435.146 198.35C434.282 199.013 433.92 200.218 433.435 201.314C432.951 202.409 432.515 203.534 432.124 204.66C431.735 205.778 431.463 206.934 431.313 208.108C431.157 209.287 431.097 210.485 431.051 211.687C430.961 214.087 430.928 216.503 430.868 218.913C430.793 221.307 430.921 223.704 431.25 226.076C431.546 228.463 431.914 230.84 432.323 233.22C432.731 235.6 433.123 237.976 433.465 240.37C433.847 242.768 434.069 245.188 434.129 247.616C434.111 248.24 434.024 248.86 433.87 249.465C433.741 250.062 433.601 250.65 433.455 251.234C433.17 252.406 432.871 253.557 432.628 254.746C432.509 255.33 432.399 255.918 432.339 256.498C432.313 256.779 432.313 257.061 432.339 257.342C432.347 257.403 432.359 257.464 432.376 257.524L432.432 257.733C432.479 257.869 432.522 258.009 432.575 258.142C433.006 259.231 433.689 260.202 434.568 260.976C435.449 261.765 436.46 262.395 437.557 262.838C438.661 263.277 439.819 263.564 441.001 263.692C443.372 263.977 445.783 263.771 448.181 263.562L448.025 263.778C447.768 262.61 447.2 261.534 446.382 260.662C445.563 259.791 444.525 259.156 443.375 258.825L442.356 258.547H443.412C444.946 258.574 446.471 258.797 447.948 259.21C449.421 259.624 450.857 260.157 452.243 260.804C453.627 261.438 454.979 262.131 456.314 262.875C457.649 263.619 458.988 264.332 460.336 265.029C463.029 266.413 465.876 267.575 468.861 268.08C470.345 268.346 471.86 268.397 473.358 268.229C474.85 268.061 476.292 267.594 477.599 266.855L477.493 267.054C477.278 264.421 476.418 261.881 474.989 259.659C473.598 257.424 471.723 255.53 469.502 254.115C468.395 253.421 467.207 252.863 465.965 252.455C465.343 252.253 464.71 252.087 464.069 251.958C463.425 251.831 462.774 251.742 462.116 251.669C459.492 251.37 456.802 251.393 454.146 250.779C452.808 250.483 451.545 249.918 450.433 249.119C449.329 248.298 448.463 247.2 447.922 245.936C447.402 244.688 447.086 243.364 446.985 242.016C446.88 240.682 446.862 239.343 446.932 238.006C447.133 232.673 447.967 227.382 449.416 222.246H449.403Z" fill="black"/>
<path d="M423.92 87.5322C426.65 93.7394 429.566 100.584 427.617 107.08C426.621 110.399 424.472 113.208 422.247 115.846C415.51 123.848 407.789 130.968 399.268 137.037C396.691 138.873 393.576 140.689 390.54 139.792C387.957 139.032 386.326 136.536 385.057 134.15C380.716 126.026 377.894 117.179 376.731 108.043C376.496 106.207 376.333 104.318 376.775 102.519C377.253 100.567 378.405 98.8678 379.568 97.2081C383.536 91.6017 387.953 86.1579 393.659 82.334C396.708 80.2926 400.062 78.7524 403.4 77.2255C406.033 76.0206 417.76 68.8009 419.952 70.9386C420.762 71.7286 420.506 77.8329 420.878 79.2769C421.496 81.7398 423.92 85.1555 423.92 87.5322Z" fill="white"/>
<path d="M423.954 87.5254C424.751 89.2747 425.548 91.0506 426.249 92.853C426.974 94.6561 427.551 96.5157 427.972 98.4129C428.391 100.325 428.527 102.287 428.377 104.238C428.338 104.727 428.274 105.214 428.185 105.696C428.102 106.18 427.962 106.655 427.853 107.133C427.573 108.075 427.207 108.99 426.76 109.865C425.851 111.594 424.764 113.225 423.519 114.731C422.303 116.248 421.031 117.718 419.746 119.162C417.159 122.054 414.406 124.805 411.553 127.421C410.121 128.726 408.647 129.99 407.156 131.228C405.665 132.466 404.134 133.655 402.586 134.82C401.805 135.394 401.028 135.975 400.235 136.533C399.441 137.09 398.657 137.658 397.827 138.169C397.001 138.685 396.132 139.13 395.23 139.497C394.321 139.872 393.353 140.085 392.37 140.128C391.38 140.154 390.398 139.934 389.514 139.487C389.079 139.26 388.668 138.988 388.289 138.677C387.914 138.362 387.562 138.02 387.236 137.655C385.944 136.181 385.061 134.425 384.171 132.712C382.409 129.261 380.906 125.684 379.674 122.01C378.445 118.327 377.502 114.553 376.854 110.725C376.685 109.769 376.555 108.806 376.419 107.847C376.282 106.875 376.207 105.896 376.197 104.916C376.187 103.918 376.325 102.925 376.605 101.968C376.905 101.022 377.316 100.115 377.831 99.266C378.332 98.4163 378.89 97.6063 379.451 96.8263C380.013 96.0462 380.577 95.2463 381.155 94.4695C382.314 92.9127 383.516 91.3858 384.788 89.912C387.309 86.9342 390.212 84.3024 393.423 82.0849C396.674 79.9107 400.261 78.3141 403.745 76.7075C407.162 74.9317 410.547 72.9964 414.153 71.5226C415.057 71.1443 415.987 70.8315 416.936 70.5866C417.419 70.4606 417.913 70.3816 418.411 70.3509C418.946 70.2904 419.486 70.4145 419.942 70.7028C420.004 70.7448 420.061 70.7938 420.111 70.8488C420.163 70.9077 420.207 70.9736 420.241 71.0447C420.301 71.1646 420.349 71.2903 420.383 71.4197C420.449 71.662 420.499 71.9082 420.533 72.1567C420.603 72.6479 420.643 73.1326 420.676 73.6172C420.736 74.5898 420.759 75.5557 420.789 76.5216C420.805 77.0063 420.822 77.4876 420.848 77.9689C420.86 78.4426 420.918 78.914 421.021 79.3763C421.295 80.297 421.646 81.1931 422.071 82.055C422.472 82.9314 422.894 83.8077 423.253 84.7106C423.434 85.1613 423.591 85.621 423.725 86.0881C423.858 86.5562 423.935 87.0388 423.954 87.5254ZM423.887 87.542C423.813 86.578 423.56 85.6361 423.143 84.7637C422.768 83.8774 422.326 83.0177 421.901 82.148C421.451 81.2825 421.073 80.3809 420.772 79.4526C420.649 78.9748 420.578 78.4851 420.56 77.9921C420.523 77.5075 420.496 77.0229 420.473 76.5416C420.427 75.5723 420.387 74.6064 420.31 73.6504C420.271 73.1691 420.224 72.6911 420.148 72.223C420.112 71.9933 420.062 71.766 419.998 71.5426C419.969 71.4397 419.93 71.3396 419.882 71.2438C419.842 71.1634 419.778 71.0973 419.699 71.0546C419.324 70.8348 418.885 70.7494 418.454 70.8123C417.987 70.8489 417.524 70.9312 417.072 71.0579C416.151 71.3132 415.248 71.6304 414.369 72.0073C410.819 73.501 407.484 75.4528 404.074 77.2818C402.307 78.1382 400.557 78.9116 398.833 79.7879C397.114 80.6398 395.45 81.5988 393.852 82.6592C390.687 84.8513 387.819 87.4431 385.32 90.3701C384.054 91.8173 382.852 93.3277 381.693 94.8678C381.112 95.6346 380.547 96.418 379.983 97.1914C379.418 97.9648 378.867 98.7615 378.379 99.578C377.883 100.382 377.486 101.242 377.196 102.141C376.93 103.042 376.793 103.976 376.791 104.916C376.788 105.871 376.848 106.826 376.971 107.774C377.093 108.726 377.21 109.686 377.369 110.635C377.963 114.449 378.852 118.211 380.026 121.888C380.608 123.727 381.264 125.541 381.992 127.331C382.72 129.122 383.518 130.881 384.383 132.609C385.263 134.322 386.133 136.068 387.395 137.519C387.709 137.878 388.051 138.211 388.418 138.514C388.79 138.813 389.191 139.074 389.614 139.294C390.468 139.72 391.414 139.925 392.367 139.892C393.322 139.846 394.26 139.631 395.14 139.258C396.028 138.894 396.88 138.449 397.687 137.93C398.498 137.412 399.272 136.838 400.052 136.27C400.832 135.703 401.596 135.109 402.377 134.524C403.904 133.341 405.404 132.123 406.877 130.873C408.349 129.623 409.788 128.337 411.194 127.016C412.609 125.702 413.995 124.357 415.352 122.983C416.709 121.609 418.038 120.205 419.337 118.771C420.626 117.337 421.905 115.886 423.12 114.389C424.352 112.92 425.428 111.327 426.332 109.636C426.77 108.784 427.132 107.895 427.414 106.98C427.527 106.519 427.67 106.064 427.746 105.596C427.823 105.128 427.932 104.66 427.959 104.182C428.134 102.273 428.029 100.348 427.647 98.4694C426.879 94.7019 425.402 91.107 423.887 87.542Z" fill="black"/>
<path d="M399.753 126.2C402.953 122.16 407.144 119.017 411.918 117.075C416.634 115.163 422.37 114.054 424.831 109.599C422.861 111.073 422.672 113.895 422.629 116.351C422.24 138.339 419.507 160.213 416.777 182.035L412.772 214.064C412.589 215.521 412.397 217.014 411.719 218.319C410.318 221.024 407.216 222.302 404.353 223.341C401.65 224.337 398.886 225.293 396.014 225.422C389.933 225.698 384.267 222.153 380.073 217.755C375.878 213.357 372.726 208.062 368.804 203.408C360.502 193.553 348.968 186.898 340.243 177.408C339.373 176.462 338.49 175.386 338.426 174.088C338.363 172.883 339.041 171.765 339.695 170.769C348.689 156.843 358.306 143.344 368.549 130.272C371.896 126.004 378.565 113.974 384.4 113.237C387.047 112.942 399.514 126.505 399.753 126.2Z" fill="#55C6FF"/>
<path d="M379.415 67.6323C377.186 66.8058 374.666 67.4232 372.517 68.4455C370.368 69.4679 368.409 70.872 366.207 71.7417C364.965 72.2296 363.637 72.5516 362.537 73.3051C361.438 74.0586 360.601 75.4195 360.966 76.7008C357.134 75.5125 353.095 77.2319 349.23 78.3107C344.972 79.4673 340.558 79.9402 336.151 79.7115C334.7 79.6484 333.242 79.5157 331.801 79.6916C329.8 79.9441 327.918 80.7812 326.391 82.0981C325.903 81.3712 324.883 81.2948 324.006 81.2948L312.751 81.2749C310.725 81.2749 308.603 80.611 306.604 80.943C304.605 81.2749 302.619 82.2475 301.536 83.9636C299.985 86.4366 300.739 89.819 302.532 92.1127C304.326 94.4064 306.976 95.8636 309.54 97.2544L317.029 101.324C321.984 104.013 327.214 106.771 332.85 106.721C335.175 106.701 335.995 108.822 337.868 110.213C339.349 111.311 341.025 112.117 342.807 112.587C343.883 116.085 342.335 120.049 340.728 123.335C339.12 126.621 337.141 129.857 336.743 133.495C336.606 134.724 336.653 135.985 336.298 137.17C335.61 139.467 333.445 141.615 334.268 143.865L337.144 145.449C337.885 156.857 338.121 169.454 332.495 179.409C331.794 180.644 331 181.846 330.565 183.197C330.13 184.548 330.094 186.118 330.871 187.306C332.166 189.298 334.972 189.41 337.34 189.321L347.636 188.929C349.482 188.856 351.418 188.76 353.002 187.807C354.723 186.775 355.732 184.916 356.745 183.19C361.063 175.814 366.815 169.388 372.52 163.018C374.513 153.13 379.827 144.569 383.998 135.384C387.108 128.53 389.708 121.456 391.776 114.22C392.991 109.971 391.922 105.238 389.657 101.443C388.495 99.4917 386.95 97.759 386.004 95.6877C384.725 92.8629 384.675 89.6597 384.652 86.5594C384.626 83.0807 384.984 79.3464 384.128 75.9706C383.563 73.7001 382.357 71.6554 381.165 69.6339C380.67 68.7941 380.338 67.9775 379.415 67.6323Z" fill="#FF710F"/>
<path d="M422.257 75.4329C423.35 85.6234 424.309 96.5375 419.434 105.553C418.381 107.501 417.069 109.324 416.309 111.398C414.316 116.832 416.399 122.84 416.232 128.626C416.053 134.88 413.244 140.708 411.347 146.67C408.437 155.81 407.598 165.483 408.893 174.988C410.308 185.314 408.415 195.877 408.229 206.299C408.142 211.365 408.056 216.447 407.232 221.442C406.02 228.778 403.224 235.965 403.669 243.384C403.918 247.506 404.194 251.506 403.589 255.592C403.44 256.611 403.257 257.667 402.659 258.513C400.816 261.149 396.661 260.2 393.762 261.587C394.828 264.608 398.099 266.48 401.301 266.566C404.503 266.652 407.591 265.272 410.191 263.396C414.323 260.409 417.435 256.256 420.487 252.167C424.804 246.384 429.314 239.802 428.407 232.655C427.972 229.24 426.315 226.116 425.292 222.83C424.269 219.544 423.964 215.68 426.016 212.908C428.673 209.327 433.847 209.121 438.304 209.257L450.529 209.622C452.19 209.672 454.096 209.622 455.235 208.411C455.939 207.654 456.198 206.582 456.321 205.553C456.949 200.398 454.969 195.216 455.414 190.044C455.776 185.839 457.706 181.962 459.4 178.095C464.247 166.926 467.238 155.041 468.254 142.909C468.586 138.866 470.024 135.205 471.336 131.364C474.617 121.685 474.76 111.218 471.744 101.454C471.289 99.993 470.635 98.4096 469.24 97.8022C467.008 93.0422 461.9 90.3336 457.101 88.176C452.303 86.0184 447.168 84.2624 443.322 80.6775C441.197 78.6859 439.493 76.1831 436.943 74.7956C434.757 73.6039 432.194 73.3782 429.713 73.1757L419.71 72.3591C421.148 73.2023 422.074 73.7466 422.257 75.4329Z" fill="#FF710F"/>
<path d="M426.518 78.6096C426.568 80.2693 426.598 81.929 426.664 83.5886C426.73 85.2483 426.823 86.8748 426.963 88.5113L427.365 93.4273C427.49 95.0754 427.725 96.7133 428.069 98.33C428.401 99.9499 428.849 101.55 429.221 103.186C429.617 104.836 429.798 106.529 429.759 108.225C429.706 109.915 429.477 111.544 429.527 113.144C429.541 113.912 429.642 114.676 429.829 115.421C430.019 116.127 430.347 116.789 430.795 117.367L432.931 120.092L429.942 118.432C429.052 117.943 428.188 117.408 427.355 116.829C426.506 116.246 425.712 115.587 424.984 114.861C424.241 114.127 423.624 113.277 423.157 112.344C422.699 111.417 422.481 110.39 422.523 109.357H422.655L422.812 110.081C422.891 110.313 422.958 110.545 423.041 110.771C423.124 110.997 423.233 111.216 423.35 111.435C423.466 111.654 423.582 111.853 423.718 112.049C424.262 112.839 424.917 113.546 425.664 114.147C426.412 114.758 427.203 115.312 428.032 115.807C428.866 116.308 429.726 116.776 430.599 117.234L429.739 118.286L429.314 117.725C429.188 117.533 429.075 117.327 428.959 117.124C428.843 116.922 428.773 116.699 428.68 116.484C428.587 116.268 428.537 116.049 428.467 115.82C428.246 114.953 428.15 114.059 428.182 113.164C428.212 111.435 428.484 109.785 428.647 108.165C429.032 104.965 428.481 101.643 427.65 98.4362C427.258 96.823 426.827 95.2098 426.471 93.5733C426.106 91.9349 425.872 90.2699 425.771 88.5943C425.666 86.9242 425.659 85.2495 425.751 83.5787C425.833 81.9057 426.042 80.2413 426.375 78.5996L426.518 78.6096Z" fill="black"/>
<path d="M421.852 129.688C422.12 132.145 422.317 134.609 422.443 137.081C422.572 139.554 422.572 142.033 422.443 144.506C422.281 146.978 421.975 149.439 421.526 151.875C421.107 154.316 420.516 156.724 419.759 159.081C418.958 161.426 418.027 163.725 416.97 165.966C415.95 168.216 414.924 170.457 414.031 172.741C413.112 175.01 412.431 177.368 411.998 179.778C411.556 182.192 411.556 184.666 411.998 187.08H411.932C411.277 184.669 411.121 182.149 411.473 179.675C411.82 177.204 412.453 174.783 413.36 172.458C414.246 170.135 415.332 167.904 416.395 165.677C417.458 163.45 418.521 161.229 419.407 158.935C420.283 156.632 420.923 154.247 421.32 151.815C421.677 149.378 421.869 146.919 421.895 144.456C422.048 139.537 421.848 134.611 421.779 129.665L421.852 129.688Z" fill="black"/>
<path d="M170.992 260.16L149.192 257.999L149.787 259.629L149.162 259.858L148.458 257.926L131.451 256.243L127.506 243.297L125.898 242.633L92.0699 248.041H92.0035L75.7303 243.948L106.53 234.853L93.9098 229.771L60.3969 235.649L51.2075 228.533L87.882 227.344L55.5249 214.306L74.455 214.243L109.927 226.292L121.697 224.227L87.8223 214.243H100.133L124.045 223.819L126.592 223.371L124.58 217.804L134.669 220.154L134.148 218.734L135.606 220.374L143.228 222.149L150.102 222.681L148.076 223.278L158.541 225.718L140.873 226.289L144.357 230.209L163.805 235.925L183.821 232.735L201.207 241.239L204.106 243.709H207.231L207.068 246.222L212.681 251.001L206.869 249.289L206.328 257.67L201.459 256.445L192.333 260.097L172.832 249.249L157.963 245.511L170.992 260.16ZM175.332 249.893L192.389 259.38L200.36 256.183L175.332 249.893ZM148.936 257.312L169.368 259.333L156.831 245.239L152.47 244.144L144.108 244.107L148.936 257.312ZM131.953 255.632L148.203 257.239L143.397 244.104L129.389 244.044L128.296 243.603L131.953 255.632ZM202.519 256.04L205.727 256.844L206.228 249.109L189.928 244.31L175.1 244.243L203.541 255.629L202.519 256.04ZM173.104 248.641L201.436 255.765L201.768 255.629L173.306 244.237L165.117 244.2L173.104 248.641ZM206.939 248.641L209.898 249.511L207.039 247.078L206.939 248.641ZM192.326 244.326L206.275 248.439L206.398 246.53L203.874 244.376L192.326 244.326ZM157.203 244.658L170.613 248.031L163.742 244.207L156.768 244.177L157.203 244.658ZM78.231 243.878L92.0998 247.363L124.713 242.169L107.503 235.234L78.231 243.878ZM204.896 244.389L206.447 245.717L206.534 244.389H204.896ZM155.24 244.17L156.044 244.373L155.868 244.173L155.24 244.17ZM190.041 243.646L203.1 243.702L200.831 241.77L183.731 233.435L165.299 236.37L190.041 243.646ZM173.436 243.573L187.657 243.636L163.785 236.602L158.235 237.488L173.436 243.573ZM163.914 243.53L171.629 243.566L156.957 237.691L154.204 238.129L163.914 243.53ZM156.18 243.496L162.54 243.526L153.144 238.298L151.749 238.521L156.18 243.496ZM152.563 243.496H155.286L150.969 238.647L142.603 239.974L143.008 241.077L152.563 243.496ZM143.875 243.46L149.793 243.486L143.287 241.85L143.875 243.46ZM129.532 243.397L143.168 243.456L142.504 241.654L138.498 240.658L127.914 242.344L128.057 242.813L129.532 243.397ZM127.184 242.451L127.27 242.484L127.253 242.437L127.184 242.451ZM108.529 234.936L125.988 241.969L127.061 241.797L125.506 236.698L138.532 239.971L141.707 239.463L138.336 230.252L132.414 227.882L129.243 228.818L131.189 234.209L121.797 231.019L108.529 234.936ZM126.486 237.628L127.722 241.691L136.864 240.237L126.486 237.628ZM140.169 240.383L142.231 240.901L141.939 240.101L140.169 240.383ZM139.173 230.584L142.381 239.357L150.454 238.072L148.239 235.583L139.471 230.703L139.173 230.584ZM149.999 236.559L151.231 237.943L152.211 237.79L149.999 236.559ZM148.671 235.055L153.284 237.621L155.771 237.223L147.741 234.006L148.671 235.055ZM146.751 232.898L157.047 237.02L162.317 236.18L145.15 231.112L146.751 232.898ZM53.0474 229.12L60.5464 234.929L92.7208 229.286L89.3832 227.958L53.0474 229.12ZM95.1253 229.542L107.523 234.521L120.694 230.63L110.701 227.238L107.603 227.338L95.1253 229.542ZM144.32 232.655L146.881 234.079L146.329 233.459L144.32 232.655ZM122.889 230.69L130.083 233.133L128.602 228.991L122.889 230.69ZM139.737 230.103L145.34 232.347L143.945 230.776L138.654 229.22L138.781 229.572L139.737 230.103ZM112.587 227.192L121.8 230.322L128.366 228.383L127.758 226.7L112.587 227.192ZM138.369 228.443L143.111 229.84L139.963 226.305L137.615 226.382L138.369 228.443ZM137.575 228.901L137.907 229.08L137.874 228.984L137.575 228.901ZM91.0304 227.905L93.9596 229.084L102.887 227.52L91.0304 227.905ZM134.932 227.444L137.588 228.224L136.977 226.564L134.599 227.268L134.932 227.444ZM128.455 226.69L129.003 228.207L131.408 227.497L129.322 226.664L128.455 226.69ZM134.39 227.975L134.865 228.167L134.673 228.061L134.39 227.975ZM58.8958 214.96L89.5027 227.288L107.536 226.704L108.532 226.531L74.3255 214.913L58.8958 214.96ZM133.288 226.534L133.763 226.8L134.825 226.468L133.288 226.534ZM131.979 226.577H132.019H131.996H131.979ZM123.089 224.649L112.239 226.551L127.516 226.056L127.472 225.94L123.089 224.649ZM127.977 225.399L129.947 225.98L130.87 225.947L128.622 224.699L128.954 224.118L132.168 225.907L136.675 225.761L135.476 222.481L127.443 223.889L127.977 225.399ZM136.13 222.362L137.363 225.734L139.003 225.25L136.393 222.315L136.13 222.362ZM140.195 225.592L140.245 225.645L153.417 225.217L146.735 223.66L140.195 225.592ZM125.164 224.287L127.157 225.084L126.768 224.005L125.164 224.287ZM137.323 222.362L139.707 225.044L145.423 223.354L143.075 222.807L137.323 222.362ZM92.3688 214.907L121.066 223.361L99.9475 214.907H92.3688ZM125.579 218.727L127.217 223.255L135.244 221.817L134.912 220.871L125.579 218.727ZM136.702 221.648L138.811 221.811L136.333 221.233L136.702 221.648Z" fill="black"/>
<path d="M195.023 235.849C170.447 224.563 131.494 216.805 91.4059 211.949C47.5678 206.638 46.9036 215.6 46.9036 215.6C46.9036 215.6 41.5899 223.235 53.8779 234.521C65.1695 244.884 119.635 257.425 119.635 257.425C119.635 257.425 189.377 267.383 204.701 261.594C220.024 255.805 219.599 247.134 195.023 235.849ZM199.34 254.437C180.743 264.063 105.686 246.029 105.686 246.029C105.686 246.029 61.5163 237.176 55.2063 226.222C48.8963 215.268 67.4079 216.244 67.4079 216.244C67.4079 216.244 114.653 216.264 152.042 228.805C152.042 228.805 217.938 244.811 199.34 254.437Z" fill="black"/>
<path d="M66.285 216.221C66.9824 216.221 67.4075 216.244 67.4075 216.244C67.4075 216.244 114.653 216.264 152.042 228.805C152.042 228.805 217.938 244.811 199.34 254.437C195.421 256.465 188.998 257.265 181.3 257.265C152.45 257.265 105.683 246.029 105.683 246.029C105.683 246.029 61.5126 237.176 55.2026 226.222C49.849 216.928 62.3661 216.221 66.2816 216.221H66.285ZM66.2816 215.557C63.2694 215.557 56.0362 215.965 53.8609 219.726C52.8081 221.549 53.0671 223.842 54.628 226.551C61.0012 237.614 103.551 246.278 105.537 246.676C106.533 246.912 152.858 257.929 181.297 257.929C189.749 257.929 195.909 256.953 199.642 255.025C202.279 253.66 203.505 252.037 203.295 250.205C203.007 247.778 200.147 245.206 194.554 242.341C190.284 240.154 184.419 237.804 177.129 235.37C165.024 231.318 152.885 228.333 152.221 228.171C132.856 221.678 110.83 218.604 95.7627 217.167C79.7187 215.637 67.9389 215.59 67.4208 215.587C67.3311 215.587 66.916 215.564 66.2816 215.564V215.557Z" fill="#55C6FF"/>
<path d="M122.979 242.428C122.878 242.826 122.705 243.202 122.467 243.536C122.228 243.832 121.9 244.041 121.674 244.34C121.239 244.917 121.259 245.704 121.295 246.421C121.257 246.573 121.258 246.732 121.298 246.884C121.338 247.036 121.416 247.175 121.523 247.289C121.631 247.403 121.766 247.488 121.915 247.537C122.065 247.585 122.224 247.595 122.378 247.566L127.987 247.686C128.811 247.686 129.78 247.649 130.239 246.965C130.903 245.97 129.953 244.778 129.452 243.712C128.605 241.91 129.08 239.795 129.568 237.864L130.631 233.655C131.049 231.995 131.59 230.156 133.062 229.27C133.424 229.097 133.759 228.873 134.058 228.606C134.334 228.314 134.437 227.799 134.141 227.524C133.917 227.382 133.666 227.287 133.404 227.245C132.427 226.913 132.245 225.648 132.019 224.639C131.793 223.63 130.876 222.468 129.96 222.943C129.405 223.228 129.256 223.965 128.777 224.367C127.725 225.26 125.878 224.088 124.995 225.313C124.111 226.538 125.327 228.065 125.413 229.346C125.682 233.558 124.231 238.461 122.979 242.428Z" fill="#939393"/>
<path d="M332.515 182.848C333.046 182.608 333.603 182.43 334.175 182.317C334.804 182.246 335.438 182.406 335.959 182.765C336.48 183.124 336.854 183.659 337.011 184.272C337.123 184.894 336.987 185.536 336.632 186.059C336.277 186.583 335.732 186.947 335.112 187.074C334.321 187.19 333.451 186.898 332.757 187.312C332.286 187.598 332.053 188.142 331.85 188.64C330.409 192.234 328.97 195.83 327.533 199.428C327.311 200.117 326.945 200.75 326.46 201.287C325.942 201.785 325.112 202.041 324.468 201.689C323.823 201.337 323.624 200.52 323.744 199.82C323.92 199.127 324.208 198.468 324.597 197.868C325.424 196.364 326.037 194.752 326.417 193.078C326.63 192.146 326.749 191.14 326.397 190.257C326.061 189.578 325.584 188.979 324.999 188.498C323.837 187.402 323.551 184.388 325.544 183.06C326.869 183.402 328.981 184.162 332.515 182.848Z" fill="#939393"/>
<path d="M199.672 151.553L325.541 183.071V187.283L201.034 157.959L199.672 151.553Z" fill="#939393"/>
<path d="M202.993 160.83L324.212 196.016L333.302 194.369L199.672 155.188L202.993 160.83Z" fill="#C1C1C1"/>
<path d="M333.511 202.323L324.212 196.016L269.249 276.843L180.151 112.155C180.151 112.155 189.211 106.771 180.908 98.2138C172.606 89.6564 170.321 107.213 170.321 107.213L193.528 152.366L88.5827 252.943C88.5827 252.943 81.2764 250.288 78.9517 256.595L90.1536 274.264L262.607 288.451C262.607 288.451 265.679 294.143 271.447 292.623C277.216 291.103 273.898 285.131 273.898 285.131L333.511 202.323ZM258.993 281.324L96.0551 269.706L92.0699 260.744L195.564 163.154C195.813 162.919 196.112 162.745 196.44 162.644C196.767 162.543 197.113 162.519 197.451 162.574C197.788 162.629 198.109 162.76 198.388 162.959C198.667 163.157 198.896 163.417 199.058 163.718L261.467 277.457C261.694 277.868 261.806 278.332 261.79 278.801C261.775 279.271 261.633 279.727 261.379 280.122C261.126 280.517 260.77 280.836 260.35 281.046C259.93 281.256 259.462 281.348 258.993 281.314V281.324Z" fill="#C1C1C1"/>
<path d="M161.307 112.587C165.575 110.183 170.195 108.364 174.133 105.457C180.111 101.045 184.06 94.5027 187.859 88.1129C190.662 83.3994 193.575 78.1547 192.628 72.7475C192.509 72.0604 192.296 71.3401 191.768 70.8853C191.24 70.4305 190.613 70.3542 189.982 70.2546C185.548 69.5576 180.135 69.2322 177.491 72.857C175.93 74.998 175.914 77.8361 175.229 80.4119C173.967 85.1487 170.394 88.8697 166.953 92.3617L148.668 110.95C142.789 116.925 135.842 121.204 143.686 128.599C149.033 122.362 154.061 116.776 161.307 112.587Z" fill="#55C6FF"/>
<path d="M330.685 192.431C333.156 191.684 335.129 189.55 337.693 189.248C338.058 189.192 338.432 189.214 338.788 189.311C339.426 189.507 339.894 190.038 340.329 190.542C340.813 191.038 341.194 191.625 341.449 192.268C341.591 192.77 341.633 193.294 341.572 193.812C341.396 195.98 340.429 197.991 339.479 199.946C339.358 200.274 339.142 200.558 338.858 200.763C338.34 201.065 337.689 200.763 337.161 200.491C336.975 200.388 336.759 200.238 336.776 200.026C336.8 199.912 336.856 199.809 336.939 199.727C338.279 198.087 338.913 195.982 338.702 193.875C338.698 193.558 338.58 193.253 338.37 193.015C338.262 192.926 338.136 192.86 338.002 192.82C337.867 192.78 337.726 192.767 337.586 192.783C336.59 192.843 335.796 193.719 335.471 194.665C335.145 195.611 335.182 196.64 335.139 197.652C335.1 198.42 335.008 199.184 334.863 199.94C334.772 200.583 334.557 201.202 334.229 201.762C333.821 202.32 333.312 202.796 332.728 203.166C332.19 203.551 331.642 203.926 331.087 204.285C330.29 204.802 329.426 205.314 328.473 205.31C328.356 205.317 328.24 205.287 328.141 205.224C328.043 205.124 327.979 204.997 327.955 204.859C327.56 203.468 326.411 202.446 325.348 201.463C324.777 201.006 324.322 200.42 324.02 199.754C323.839 199.152 323.777 198.52 323.837 197.895L323.97 193.646C324.016 192.185 325.514 192.604 326.507 192.697C327.885 192.813 329.327 192.843 330.685 192.431Z" fill="#C1C1C1"/>
<path d="M452.406 199.724C454.362 199.017 456.437 198.127 458.45 198.658C459.609 202.393 458.234 206.705 455.311 209.304C452.389 211.903 448.125 212.796 444.322 211.879C441.38 211.172 438.656 209.47 435.631 209.397C434.15 209.36 432.433 209.642 431.39 208.587C430.947 208.083 430.663 207.461 430.573 206.797C429.53 201.44 433.313 201.247 436.966 201.533C442.28 201.948 447.291 201.569 452.406 199.724Z" fill="#FF710F"/>
<path d="M452.379 199.694C453.355 199.335 454.325 198.95 455.334 198.681C455.842 198.546 456.361 198.455 456.885 198.409C457.416 198.368 457.95 198.408 458.469 198.525L458.539 198.545L458.566 198.618C458.998 199.934 459.147 201.327 459.004 202.704C458.859 204.09 458.44 205.432 457.772 206.655C457.432 207.261 457.038 207.837 456.596 208.374C456.146 208.905 455.643 209.389 455.095 209.818C454.829 210.044 454.531 210.223 454.248 210.422C453.966 210.621 453.66 210.787 453.348 210.937C452.737 211.254 452.099 211.517 451.442 211.723C448.809 212.531 445.995 212.531 443.362 211.723C442.057 211.332 440.798 210.817 439.516 210.395C438.263 209.935 436.945 209.677 435.611 209.629C434.946 209.629 434.282 209.678 433.571 209.652C432.835 209.661 432.111 209.456 431.489 209.061C431.177 208.839 430.917 208.552 430.729 208.218C430.551 207.897 430.417 207.555 430.33 207.199C430.159 206.516 430.066 205.815 430.054 205.111C430.031 204.373 430.196 203.641 430.533 202.983C430.72 202.65 430.966 202.354 431.26 202.11C431.55 201.874 431.875 201.683 432.223 201.546C432.893 201.29 433.599 201.145 434.315 201.114C435.007 201.077 435.7 201.085 436.391 201.138C439.074 201.39 441.773 201.443 444.464 201.294C447.164 201.132 449.828 200.594 452.379 199.694ZM452.402 199.754C449.847 200.687 447.198 201.337 444.501 201.692C443.149 201.867 441.789 201.965 440.426 201.984C439.742 201.984 439.06 201.974 438.38 201.954C437.716 201.931 437.012 201.875 436.348 201.835C435.684 201.795 435.019 201.795 434.355 201.835C433.716 201.86 433.084 201.988 432.485 202.213C431.919 202.424 431.44 202.821 431.127 203.338C430.839 203.89 430.695 204.506 430.709 205.128C430.712 205.778 430.786 206.426 430.931 207.06C431.035 207.663 431.357 208.207 431.834 208.59C432.357 208.934 432.969 209.118 433.595 209.121C434.259 209.164 434.923 209.121 435.617 209.154C436.993 209.261 438.344 209.579 439.622 210.097C440.898 210.571 442.133 211.126 443.422 211.521C445.994 212.366 448.776 212.319 451.319 211.388C452.886 210.834 454.306 209.931 455.473 208.748C456.639 207.564 457.52 206.131 458.051 204.557C458.17 204.248 458.24 203.926 458.336 203.607C458.433 203.289 458.483 202.963 458.522 202.638C458.734 201.323 458.663 199.977 458.313 198.691L458.41 198.781C457.414 198.519 456.367 198.519 455.371 198.781C454.364 199.046 453.373 199.37 452.405 199.754H452.402Z" fill="black"/>
<path d="M441.25 141.107C441.755 146.683 442.057 152.296 441.658 157.929C441.463 160.754 441.034 163.557 440.376 166.311C440.039 167.692 439.63 169.055 439.151 170.394C438.661 171.732 438.091 173.04 437.444 174.31C436.155 176.843 434.584 179.153 433.658 181.706C433.535 182.038 433.432 182.337 433.326 182.669L433.034 183.664C432.844 184.328 432.638 184.992 432.456 185.656L431.921 187.674C431.745 188.338 431.589 189.025 431.423 189.702C430.751 192.399 430.32 195.149 430.134 197.921C430.068 199.31 430.098 200.702 430.224 202.087C430.382 203.479 430.468 204.878 430.483 206.279C430.407 204.879 430.151 203.508 429.945 202.12C429.724 200.728 429.613 199.321 429.613 197.911C429.613 195.08 430.038 192.268 430.566 189.52C430.709 188.833 430.838 188.142 430.998 187.455L431.486 185.404C431.649 184.74 431.838 184.046 432.011 183.366C432.183 182.685 432.343 182.005 432.582 181.311C433.515 178.566 435.036 176.149 436.275 173.7C436.887 172.471 437.425 171.206 437.886 169.912C438.361 168.62 438.768 167.304 439.104 165.969C439.773 163.285 440.248 160.556 440.526 157.803C441.147 152.306 441.114 146.706 441.25 141.107Z" fill="black"/>
<path d="M375.904 51.5565C376.067 54.3083 374.951 56.9804 374.832 59.7355C374.755 61.5047 375.091 63.264 375.426 65.0033L379.607 86.7884C380.727 92.6239 385.462 97.1582 388.086 102.489C388.717 103.774 389.415 105.082 390.514 105.991C391.234 106.571 392.09 106.958 393 107.116C393.911 107.275 394.848 107.2 395.721 106.897C400.112 105.321 404.15 102.688 407.986 100.033C411.822 97.3772 415.854 94.5226 418.145 90.4065C420.39 86.3835 421.284 82.44 421.622 77.8327C421.632 77.3409 421.704 76.8523 421.838 76.3788C422.057 75.8482 422.347 75.3492 422.698 74.8951C424.877 71.7284 425.973 67.8945 426.209 64.0573C426.288 62.7793 426.249 61.4018 425.525 60.3496C424.801 59.2973 423.157 58.7828 422.203 59.6392C420.785 57.3819 419.495 55.0469 418.338 52.6453C417.341 50.5375 416.382 48.3301 414.714 46.6704C413.047 45.0107 410.417 44.1045 408.321 45.1468C401.081 45.0804 393.377 44.9211 386.13 44.858C384.719 44.858 383.201 44.858 382.045 45.6746C380.717 46.614 380.116 48.4463 378.638 49.15C377.93 49.4819 377.097 49.5184 376.413 49.9101C375.728 50.3018 375.303 51.052 375.904 51.5565Z" fill="white"/>
<path d="M393.955 107.531C392.625 107.538 391.334 107.084 390.301 106.247C389.152 105.304 388.455 103.999 387.784 102.635C386.754 100.667 385.592 98.7706 384.307 96.959C382.188 93.8255 379.989 90.5858 379.279 86.8515L375.098 65.0664C374.765 63.3337 374.433 61.5379 374.5 59.7222C374.585 58.4926 374.767 57.2717 375.044 56.0709C375.337 54.6402 375.639 53.1598 375.576 51.7026C375.473 51.5966 375.393 51.4698 375.344 51.3306C375.294 51.1915 375.274 51.0432 375.287 50.896C375.337 50.6259 375.45 50.3714 375.616 50.1524C375.782 49.9335 375.997 49.7562 376.243 49.6346C376.646 49.4257 377.075 49.2727 377.519 49.1798C377.851 49.1063 378.176 49.0007 378.488 48.8645C379.226 48.5126 379.73 47.8355 380.268 47.1152C380.7 46.4683 381.233 45.8946 381.846 45.4157C383.038 44.5792 384.503 44.5227 386.127 44.5393C389.747 44.5725 393.549 44.629 397.226 44.6821C400.902 44.7352 404.645 44.7949 408.238 44.8248C410.563 43.7128 413.346 44.8779 414.94 46.4447C416.475 47.9516 417.408 49.9234 418.311 51.8254L418.643 52.4893C419.74 54.7739 420.96 56.9978 422.296 59.1512C422.723 58.9107 423.216 58.8163 423.701 58.8824C424.12 58.9385 424.522 59.0804 424.883 59.2992C425.245 59.5179 425.557 59.8088 425.8 60.1537C426.597 61.3122 426.624 62.7826 426.544 64.0672C426.288 68.243 425.053 72.0338 422.977 75.0743L422.851 75.2536C422.564 75.6263 422.33 76.0374 422.157 76.4751C422.042 76.8839 421.977 77.3053 421.964 77.7298V77.846C421.586 83.0176 420.536 86.8083 418.447 90.5592C416.066 94.8346 411.882 97.7324 408.189 100.292C404.599 102.778 400.391 105.566 395.844 107.196C395.238 107.416 394.599 107.529 393.955 107.531ZM385.768 45.2032C384.396 45.2032 383.184 45.2962 382.234 45.96C381.68 46.4014 381.198 46.9267 380.806 47.5168C380.245 48.267 379.667 49.0437 378.781 49.4686C378.43 49.6236 378.066 49.7426 377.691 49.8238C377.305 49.9054 376.931 50.0371 376.579 50.2155C376.427 50.2869 376.293 50.3904 376.185 50.5187C376.077 50.6471 375.998 50.7973 375.954 50.959C375.952 51.0239 375.965 51.0884 375.994 51.1465C376.023 51.2046 376.067 51.2543 376.12 51.291L376.23 51.3839V51.5266C376.323 53.1133 376.001 54.6834 375.692 56.2003C375.423 57.3643 375.244 58.5473 375.157 59.7388C375.084 61.4814 375.42 63.2341 375.745 64.9303L379.933 86.7187C380.624 90.3169 382.779 93.5002 384.861 96.5773C386.165 98.4133 387.341 100.336 388.382 102.333C389.023 103.631 389.68 104.866 390.726 105.725C391.401 106.27 392.203 106.633 393.057 106.782C393.911 106.93 394.789 106.859 395.608 106.575C400.079 104.969 404.243 102.21 407.797 99.7473C411.43 97.2312 415.548 94.3798 417.856 90.2406C419.892 86.5892 420.918 82.8682 421.29 77.8028V77.6867C421.307 77.2043 421.384 76.7259 421.519 76.2626C421.712 75.767 421.973 75.301 422.296 74.8785L422.419 74.7025C424.412 71.7748 425.624 68.0837 425.87 64.0307C425.943 62.859 425.926 61.5246 425.242 60.5321C425.053 60.2635 424.811 60.0366 424.53 59.8653C424.25 59.6941 423.937 59.5821 423.612 59.5363C423.4 59.5021 423.184 59.5141 422.977 59.5714C422.771 59.6287 422.58 59.73 422.416 59.8682L422.124 60.1305L421.915 59.7985C420.487 57.5317 419.19 55.1856 418.029 52.7714L417.697 52.1075C416.82 50.2553 415.91 48.34 414.462 46.916C413.014 45.492 410.513 44.4265 408.451 45.4522L408.378 45.4887H408.298C404.678 45.4555 400.876 45.399 397.203 45.3426C393.529 45.2862 389.727 45.2331 386.107 45.1999L385.768 45.2032Z" fill="black"/>
<path d="M374.692 64.4558C375.174 62.265 374.536 59.9281 375.194 57.7838C375.729 56.0279 377.011 54.8296 378.821 55.1283C380.544 55.4237 381.829 56.8212 383.341 57.7008C386.246 59.3937 389.876 59.0983 393.168 58.4145C396.459 57.7307 399.78 56.7083 403.131 57.1166C406.482 57.5249 409.906 58.6668 412.021 61.2692C415.1 65.0566 415.429 70.8323 419.294 73.8098C418.723 71.0547 418.298 68.2033 418.823 65.435C419.037 64.1278 419.568 62.8928 420.369 61.8375C421.17 60.7822 422.217 59.9387 423.419 59.3804C423.994 59.095 424.641 58.1987 425.003 57.6676C425.214 57.3068 425.34 56.9027 425.372 56.4859C426.239 50.4679 424.259 44.4399 422.303 38.6808C422.021 37.8476 421.842 37.0211 421.307 36.3273C417.523 31.5062 412.222 28.1037 406.261 26.6716C400.301 25.2395 394.031 25.8616 388.468 28.4372C386.306 28.3044 384.151 29.4064 382.411 30.7076C377.329 34.5382 373.161 39.7795 371.421 45.8971C369.681 52.0147 370.724 59.4999 374.692 64.4558Z" fill="black"/>
<path d="M396.309 74.4934C397.352 74.1615 398.169 73.3682 399.042 72.7109C400.427 71.6835 402.015 70.9629 403.7 70.5972C405.386 70.2314 407.13 70.2289 408.816 70.5898C407.729 69.8272 406.482 69.323 405.17 69.1159C403.859 68.9088 402.517 69.0042 401.248 69.3949C400.3 69.7257 399.383 70.1389 398.508 70.6297C397.392 71.2139 394.722 72.0139 393.988 73.0097C393.025 74.3142 395.353 74.7955 396.309 74.4934Z" fill="black"/>
<path d="M378.309 70.5898C377.78 70.1407 377.193 69.7635 376.565 69.4679C375.616 69.0828 374.573 69.136 373.537 69.1725C374.377 69.3849 374.865 70.2114 375.463 70.8554C376.721 72.2528 378.568 72.9333 380.338 73.5673C381.876 74.115 383.586 74.6627 385.101 74.0486C385.191 74.0219 385.274 73.9768 385.346 73.9163C385.418 73.8557 385.477 73.781 385.519 73.6968C385.545 73.5852 385.533 73.4681 385.484 73.3645C385.435 73.2608 385.353 73.1767 385.25 73.1258C384.433 72.6578 382.859 72.9964 381.866 72.6478C380.581 72.1485 379.382 71.4544 378.309 70.5898Z" fill="black"/>
<path d="M397.212 75.9706C397.645 75.8071 398.116 75.7748 398.567 75.8777C399.008 75.9738 399.442 76.1003 399.866 76.2561C400.653 76.5468 401.497 76.6481 402.33 76.5515C403.16 76.455 403.952 76.1526 404.635 75.6719C405.341 75.168 405.926 74.5138 406.349 73.7566C406.149 74.6613 405.66 75.4766 404.957 76.0802C404.604 76.392 404.205 76.6483 403.775 76.8403C403.339 77.0265 402.88 77.1516 402.41 77.212C401.94 77.2652 401.465 77.2518 400.998 77.1722C400.538 77.0888 400.091 76.9425 399.67 76.7374C398.86 76.3722 398.122 75.8943 397.212 75.9706Z" fill="black"/>
<path d="M385.274 76.9332C384.528 76.9272 383.783 76.9615 383.042 77.0361C382.311 77.1125 381.581 77.2121 380.847 77.3249C380.46 77.3919 380.069 77.4285 379.678 77.4345C379.236 77.431 378.81 77.2737 378.472 76.9897C378.162 76.711 377.94 76.3474 377.834 75.9441C377.73 75.5695 377.694 75.1794 377.728 74.7922C377.827 75.149 377.964 75.494 378.137 75.8212C378.291 76.1263 378.519 76.3877 378.801 76.5814C379.325 76.9399 380.013 76.7905 380.764 76.671C381.516 76.555 382.277 76.504 383.038 76.5183C383.802 76.5288 384.557 76.6691 385.274 76.9332Z" fill="black"/>
<path d="M388.697 75.4329C388.866 78.3849 388.992 81.3347 389.076 84.2823C389.134 85.0336 389.134 85.7882 389.076 86.5395C389.025 86.951 388.882 87.3458 388.657 87.6946C388.422 88.0131 388.145 88.2989 387.834 88.5444C387.576 88.7504 387.351 88.9957 387.17 89.2714C387.025 89.5265 386.987 89.8281 387.063 90.1111C387.161 90.4205 387.324 90.7057 387.54 90.9477C387.757 91.1897 388.022 91.3831 388.319 91.5153C388.946 91.8542 389.605 92.1331 390.285 92.3484C390.933 92.5694 391.629 92.6152 392.301 92.4812C392.942 92.3385 393.496 91.8837 394.081 91.4289L395.831 90.0746L397.588 88.7469C397.879 88.5477 398.155 88.3257 398.411 88.083C398.519 87.9644 398.6 87.8236 398.649 87.6706C398.697 87.5176 398.711 87.3559 398.69 87.1967C398.636 86.8538 398.488 86.5324 398.263 86.2677C398.038 86.0031 397.745 85.8054 397.415 85.6964C396.714 85.4834 395.981 85.3947 395.25 85.4342C395.989 85.3224 396.744 85.354 397.471 85.5271C397.853 85.6296 398.199 85.8354 398.471 86.1219C398.742 86.4083 398.93 86.7641 399.012 87.1503C399.049 87.3568 399.04 87.5688 398.987 87.7717C398.934 87.9745 398.837 88.1634 398.704 88.3253C398.447 88.6085 398.164 88.8673 397.86 89.0987L396.153 90.5128L394.443 91.9136C394.157 92.1459 393.871 92.3882 393.546 92.6073C393.215 92.8388 392.846 93.0117 392.457 93.1185C391.676 93.2941 390.862 93.2539 390.102 93.0023C389.737 92.8912 389.377 92.7604 389.026 92.6106C388.694 92.4613 388.339 92.3119 387.997 92.1227C387.641 91.9333 387.317 91.6891 387.037 91.3991C386.74 91.0886 386.532 90.7048 386.432 90.2871C386.323 89.8464 386.387 89.3807 386.612 88.9859C386.832 88.6441 387.11 88.344 387.435 88.0996C387.707 87.8915 387.953 87.6507 388.166 87.3826C388.342 87.1099 388.455 86.8015 388.498 86.4798C388.568 85.7617 388.593 85.04 388.571 84.3188C388.569 81.338 388.611 78.376 388.697 75.4329Z" fill="black"/>
<path d="M369.983 119.418C370.97 119.749 372.017 119.863 373.052 119.75C377.871 119.418 382.61 117.234 387.369 118.06C389.674 118.459 391.826 119.551 394.147 119.833C395.409 119.989 396.894 119.79 397.594 118.724C398.229 117.755 397.926 116.401 397.236 115.478C396.545 114.555 395.512 113.935 394.552 113.281C392.906 112.16 391.381 110.871 390.002 109.433C388.279 107.638 386.661 105.527 384.29 104.756C381.504 103.85 378.512 105.065 375.868 106.333C373.9 107.276 371.951 108.259 370.023 109.284C368.538 110.074 365.832 110.99 364.819 112.374C363.201 114.582 368.143 118.708 369.983 119.418Z" fill="white"/>
<path d="M369.986 119.402C370.773 119.669 371.604 119.782 372.434 119.734C373.263 119.697 374.089 119.613 374.908 119.481C376.546 119.209 378.16 118.817 379.784 118.442C381.407 118.048 383.064 117.806 384.732 117.719C385.573 117.692 386.415 117.745 387.246 117.878C388.072 118.018 388.886 118.221 389.68 118.485C391.264 118.987 392.825 119.597 394.469 119.75C395.284 119.852 396.111 119.705 396.84 119.329C397.19 119.122 397.474 118.822 397.661 118.462C397.835 118.094 397.91 117.687 397.88 117.28C397.807 116.457 397.447 115.685 396.864 115.1C396.275 114.519 395.621 114.007 394.914 113.576C393.516 112.668 392.195 111.646 390.966 110.519C389.73 109.397 388.671 108.099 387.472 106.967C386.882 106.396 386.228 105.895 385.522 105.473C384.819 105.064 384.045 104.79 383.241 104.667C381.623 104.438 379.976 104.823 378.442 105.394C377.671 105.686 376.914 106.021 376.167 106.39C375.42 106.758 374.682 107.133 373.938 107.505C372.451 108.248 370.986 109.002 369.478 109.739C368.718 110.087 367.954 110.403 367.217 110.781C366.474 111.119 365.787 111.567 365.178 112.109C364.882 112.369 364.68 112.719 364.603 113.105C364.553 113.504 364.606 113.91 364.756 114.283C365.074 115.045 365.524 115.745 366.084 116.351C366.632 116.974 367.236 117.546 367.888 118.061C368.525 118.597 369.231 119.048 369.986 119.402ZM369.986 119.431C369.225 119.089 368.513 118.649 367.868 118.12C367.21 117.608 366.596 117.043 366.031 116.431C365.446 115.826 364.973 115.122 364.633 114.353C364.464 113.955 364.398 113.521 364.44 113.091C364.509 112.658 364.72 112.259 365.041 111.96C365.65 111.372 366.348 110.885 367.11 110.519C367.854 110.131 368.618 109.795 369.362 109.437L373.806 107.18C374.55 106.808 375.287 106.423 376.037 106.058C376.788 105.693 377.552 105.357 378.342 105.062C379.906 104.491 381.61 104.099 383.324 104.351C384.165 104.484 384.974 104.777 385.705 105.215C386.428 105.655 387.096 106.179 387.698 106.775C388.9 107.943 389.933 109.248 391.142 110.379C392.339 111.529 393.637 112.569 395.021 113.486C395.731 113.926 396.389 114.446 396.98 115.037C397.577 115.643 397.95 116.434 398.036 117.28C398.07 117.707 397.992 118.135 397.81 118.522C397.618 118.908 397.32 119.23 396.95 119.451C396.584 119.67 396.179 119.816 395.758 119.88C395.341 119.95 394.918 119.972 394.496 119.943C392.809 119.816 391.221 119.232 389.64 118.754C388.856 118.5 388.053 118.304 387.239 118.17C386.426 118.051 385.604 117.997 384.782 118.011C383.128 118.088 381.484 118.304 379.867 118.655C378.236 118.987 376.609 119.338 374.961 119.571C374.137 119.69 373.306 119.764 372.474 119.793C371.626 119.838 370.777 119.715 369.976 119.431H369.986Z" fill="black"/>
<path d="M361.036 103.485C363.175 103.784 365.373 103.877 367.476 103.385C370.727 102.625 373.477 100.541 376.36 98.8645C379.242 97.1882 382.67 95.8538 385.871 96.7899C387.847 97.3675 389.903 96.1824 391.826 95.4621C393.749 94.7418 395.914 94.1344 397.824 94.8912C398.52 95.2022 399.174 95.6004 399.77 96.0762C400.716 96.7733 403.001 98.818 403.708 99.7574C404.416 100.697 406.179 102.569 405.95 103.721C405.798 104.665 405.821 105.629 406.017 106.565C406.067 106.854 406.028 107.152 405.906 107.419C405.784 107.685 405.585 107.909 405.333 108.06C405.082 108.211 404.79 108.283 404.497 108.265C404.205 108.248 403.924 108.143 403.692 107.963C402.795 107.236 402.078 106.333 401.998 105.543C401.945 105.029 401.998 104.471 401.736 104.023C401.37 103.409 400.577 103.399 399.932 103.083C399.019 102.635 398.119 101.092 397.94 100.096C395.947 100.119 395.615 100.096 393.041 100.703C395.622 103.608 396.432 106.818 396.694 110.662C396.847 113.358 396.196 116.04 394.821 118.366C393.852 120.049 393.055 122.532 391.095 123.468C390.145 123.919 389.053 123.939 388 123.949C387.093 123.949 386.157 123.949 385.313 123.617C384.47 123.285 383.736 122.505 383.726 121.599C383.763 120.999 383.974 120.422 384.333 119.939C384.944 118.973 385.662 118.077 386.15 117.035C386.638 115.992 386.814 114.751 386.323 113.715C385.35 111.724 382.311 111.425 381.378 109.4C379.985 111.799 377.924 113.74 375.446 114.987C372.032 116.693 368.083 116.955 364.264 116.842C360.445 116.729 356.626 116.278 352.823 116.683C348.091 116.235 343.079 116.892 338.36 117.466C331.386 118.316 324.372 118.794 317.354 119.172C309.862 119.571 301.974 119.77 295.302 116.341C293.074 115.199 290.493 114.565 288.275 113.41C287.176 112.902 286.155 112.24 285.243 111.445C283.489 109.785 282.835 107.282 282.317 104.916C281.782 102.459 281.321 99.857 282.128 97.4803C283.101 94.609 285.694 92.6506 288.152 90.8748L293.532 86.9878C294.684 86.1086 295.906 85.3249 297.185 84.6443C298.676 83.9 300.294 83.4428 301.954 83.2966C305.74 82.9647 309.46 82.3373 313.07 83.5356C316.421 84.6509 318.862 87.4624 321.339 89.9785C324.993 93.6896 329.795 95.8007 334.753 97.3807C337.207 98.1641 339.761 98.5857 342.269 99.1831C348.529 100.697 354.653 102.595 361.036 103.485Z" fill="white"/>
<path d="M361.043 103.452C362.441 103.661 363.856 103.73 365.267 103.658C365.973 103.616 366.674 103.517 367.363 103.362C368.049 103.202 368.722 102.989 369.375 102.725C372.006 101.666 374.291 99.9532 376.758 98.5591C377.988 97.8431 379.295 97.2686 380.654 96.8463C382.022 96.4095 383.47 96.277 384.895 96.4579C385.25 96.5095 385.602 96.5849 385.948 96.6837C386.279 96.7718 386.621 96.8153 386.964 96.8131C387.658 96.7919 388.345 96.6585 388.996 96.4181C389.661 96.1924 390.301 95.9102 390.956 95.6314C391.61 95.3526 392.284 95.097 392.948 94.8779C394.3 94.4464 395.775 94.1543 397.223 94.4895C397.938 94.6688 398.614 94.9807 399.215 95.409C399.809 95.8096 400.379 96.2441 400.922 96.7102C401.467 97.1716 401.995 97.6463 402.513 98.1342C403.044 98.6204 403.537 99.1464 403.988 99.7076C404.423 100.252 404.894 100.793 405.316 101.367C405.531 101.663 405.724 101.973 405.894 102.297C406.079 102.641 406.193 103.019 406.226 103.409C406.231 103.52 406.225 103.631 406.206 103.741C406.189 103.83 406.173 103.907 406.163 103.993C406.137 104.159 406.122 104.326 406.116 104.494C406.1 104.836 406.109 105.179 406.143 105.52C406.176 105.852 406.229 106.184 406.286 106.559C406.346 106.977 406.249 107.403 406.013 107.754C405.776 108.103 405.424 108.358 405.017 108.474C404.604 108.588 404.162 108.538 403.785 108.335C403.692 108.287 403.604 108.229 403.523 108.162L403.31 107.986C403.174 107.867 403.038 107.744 402.908 107.611C402.643 107.349 402.404 107.063 402.194 106.755C401.97 106.431 401.814 106.065 401.736 105.679C401.676 105.278 401.696 104.936 401.643 104.62C401.633 104.48 401.593 104.344 401.527 104.221C401.461 104.097 401.369 103.989 401.258 103.903C400.98 103.738 400.679 103.614 400.364 103.538C400.182 103.484 400.003 103.417 399.83 103.339C399.65 103.249 399.481 103.137 399.328 103.007C399.039 102.76 398.782 102.476 398.564 102.164C398.121 101.556 397.808 100.863 397.644 100.129L397.94 100.371C397.126 100.361 396.312 100.397 395.502 100.481C394.709 100.591 393.905 100.783 393.104 100.966L393.254 100.491C394.657 102.06 395.679 103.931 396.243 105.958C396.516 106.962 396.712 107.985 396.831 109.018C396.89 109.533 396.937 110.047 396.974 110.562C397.002 111.085 397.002 111.609 396.974 112.132C396.844 114.228 396.25 116.269 395.233 118.107C394.709 118.993 394.3 119.906 393.799 120.826C393.324 121.779 392.643 122.616 391.806 123.275C391.366 123.59 390.868 123.816 390.341 123.939C389.827 124.058 389.302 124.121 388.774 124.128C388.256 124.128 387.748 124.128 387.226 124.128C386.697 124.127 386.171 124.059 385.659 123.926C385.129 123.793 384.643 123.522 384.251 123.142C383.835 122.762 383.581 122.237 383.54 121.675C383.538 121.126 383.7 120.589 384.005 120.132C384.274 119.68 384.569 119.262 384.862 118.841C385.481 118.04 385.963 117.143 386.29 116.185C386.432 115.71 386.482 115.212 386.439 114.718C386.396 114.228 386.22 113.758 385.931 113.36C385.346 112.557 384.413 112.076 383.533 111.558C383.079 111.305 382.646 111.016 382.238 110.695C381.817 110.366 381.476 109.946 381.242 109.467H381.451C380.123 111.74 378.198 113.607 375.885 114.864C373.56 116.115 370.966 116.683 368.372 116.889C365.779 117.095 363.162 116.942 360.571 116.809C357.981 116.676 355.38 116.563 352.81 116.842H352.78C349.193 116.51 345.58 116.809 341.997 117.217L336.616 117.881C334.82 118.094 333.02 118.28 331.22 118.449C327.616 118.781 324.01 119.05 320.4 119.272C316.79 119.494 313.18 119.737 309.546 119.687C305.913 119.637 302.24 119.252 298.763 118.137C297.891 117.858 297.035 117.531 296.199 117.158C295.784 116.975 295.365 116.763 294.967 116.567C294.568 116.371 294.163 116.188 293.751 116.016C292.091 115.329 290.364 114.801 288.697 114.024C288.275 113.828 287.873 113.616 287.475 113.403C287.076 113.191 286.668 112.965 286.276 112.713C285.468 112.22 284.76 111.579 284.19 110.824C283.051 109.297 282.53 107.472 282.101 105.712C281.673 103.953 281.307 102.147 281.314 100.279C281.313 99.3388 281.454 98.4043 281.733 97.5069C282.026 96.6116 282.465 95.7705 283.031 95.0173C284.14 93.5037 285.595 92.3419 287.046 91.2565L291.443 88.0765L293.642 86.4898C294.376 85.9621 295.123 85.4343 295.91 84.9629C297.494 83.992 299.257 83.3507 301.094 83.0775C301.556 83.0078 302.018 82.9779 302.459 82.9348L303.808 82.8086C304.708 82.7223 305.614 82.6427 306.524 82.5929C308.357 82.4507 310.201 82.5771 311.997 82.968C312.901 83.1774 313.776 83.4974 314.601 83.9206C315.423 84.3463 316.202 84.851 316.926 85.4276C318.333 86.5937 319.658 87.8559 320.891 89.2051C321.516 89.869 322.14 90.493 322.817 91.0806C323.495 91.6666 324.206 92.213 324.946 92.717C326.434 93.7237 328.009 94.5957 329.652 95.3227C331.299 96.0544 332.984 96.6971 334.7 97.2479C336.422 97.7795 338.17 98.2227 339.938 98.5757C346.985 100.139 353.876 102.429 361.043 103.452ZM361.043 103.518C357.464 102.982 353.916 102.253 350.415 101.334C346.908 100.458 343.421 99.4985 339.881 98.7848C338.102 98.4464 336.34 98.0188 334.604 97.5035C332.871 96.9695 331.169 96.3434 329.503 95.6281C327.83 94.9124 326.224 94.0505 324.704 93.0523C323.945 92.5478 323.215 92.0003 322.519 91.4125C321.821 90.825 321.167 90.1777 320.526 89.5337C319.299 88.2233 317.987 86.9957 316.597 85.8592C315.903 85.3079 315.155 84.8276 314.365 84.4252C313.578 84.0296 312.745 83.733 311.884 83.5422C310.139 83.1733 308.349 83.0614 306.571 83.2103C305.677 83.2634 304.784 83.353 303.884 83.4427L302.536 83.5821C302.081 83.6252 301.639 83.665 301.207 83.7281C299.458 83.9915 297.779 84.6045 296.272 85.5305C295.512 85.9886 294.778 86.5031 294.047 87.0309L291.852 88.6209L287.468 91.8009C286.037 92.8697 284.635 94.0049 283.602 95.419C283.081 96.1134 282.678 96.8881 282.407 97.7127C282.152 98.544 282.024 99.4091 282.028 100.279C282.028 102.034 282.41 103.794 282.802 105.546C283.194 107.299 283.719 109.015 284.751 110.406C285.784 111.797 287.408 112.613 288.996 113.413C290.583 114.213 292.317 114.708 294.017 115.405C294.436 115.584 294.857 115.767 295.269 115.976C295.681 116.185 296.066 116.381 296.475 116.56C297.289 116.927 298.122 117.249 298.972 117.523C302.373 118.625 305.98 119.003 309.57 119.08C313.16 119.156 316.776 118.933 320.383 118.748C323.99 118.562 327.596 118.313 331.193 118.001C332.993 117.846 334.79 117.671 336.583 117.476L341.97 116.856C345.563 116.467 349.2 116.192 352.823 116.524H352.793C355.394 116.255 358.007 116.381 360.601 116.524C363.195 116.666 365.785 116.856 368.369 116.64C370.953 116.424 373.53 115.906 375.798 114.648C378.071 113.401 379.959 111.556 381.258 109.314L381.374 109.111L381.471 109.324C381.69 109.768 382.007 110.157 382.397 110.462C382.796 110.775 383.219 111.055 383.663 111.299C384.536 111.81 385.503 112.295 386.147 113.164C386.464 113.599 386.66 114.11 386.715 114.645C386.764 115.175 386.716 115.709 386.572 116.222C386.245 117.212 385.757 118.142 385.127 118.973C384.838 119.398 384.546 119.82 384.294 120.251C384.028 120.654 383.887 121.126 383.888 121.609C383.931 122.08 384.151 122.518 384.503 122.834C384.856 123.168 385.29 123.403 385.762 123.518C386.708 123.766 387.754 123.687 388.751 123.67C389.747 123.654 390.763 123.461 391.544 122.87C392.316 122.24 392.939 121.446 393.367 120.547C393.842 119.66 394.267 118.701 394.778 117.818C395.743 116.042 396.298 114.074 396.402 112.056C396.434 111.047 396.379 110.038 396.24 109.038C396.125 108.029 395.932 107.03 395.662 106.051C395.12 104.11 394.139 102.319 392.796 100.816L392.464 100.451L392.942 100.338C393.749 100.152 394.556 99.9566 395.396 99.8371C396.23 99.7467 397.068 99.7067 397.907 99.7176H398.152L398.202 99.9665C398.355 100.615 398.632 101.227 399.019 101.769C399.209 102.04 399.432 102.287 399.684 102.503C399.799 102.603 399.926 102.689 400.062 102.758C400.211 102.825 400.364 102.883 400.52 102.931C400.895 103.024 401.251 103.178 401.576 103.385C401.756 103.515 401.902 103.684 402.005 103.88C402.097 104.067 402.159 104.268 402.188 104.474C402.244 104.859 402.224 105.228 402.271 105.526C402.336 105.836 402.462 106.13 402.643 106.39C402.829 106.668 403.042 106.927 403.28 107.163C403.4 107.286 403.526 107.402 403.652 107.515L403.848 107.677C403.905 107.721 403.965 107.761 404.027 107.797C404.286 107.93 404.584 107.962 404.865 107.888C405.146 107.814 405.389 107.638 405.549 107.395C405.714 107.154 405.782 106.858 405.738 106.569C405.688 106.237 405.632 105.865 405.602 105.507C405.566 105.143 405.557 104.776 405.575 104.411C405.584 104.226 405.603 104.04 405.632 103.857C405.632 103.767 405.665 103.671 405.678 103.585C405.685 103.516 405.685 103.447 405.678 103.379C405.645 103.063 405.548 102.757 405.392 102.479C405.234 102.176 405.056 101.885 404.858 101.606C404.459 101.039 404.008 100.504 403.566 99.9466C403.135 99.4001 402.663 98.8874 402.154 98.413C401.646 97.9251 401.128 97.4471 400.597 96.989C400.068 96.5277 399.514 96.0966 398.936 95.6978C398.385 95.2905 397.762 94.9899 397.1 94.8115C395.771 94.4796 394.347 94.7319 393.018 95.1435C392.354 95.3493 391.69 95.5949 391.025 95.8638C390.361 96.1326 389.717 96.4115 389.033 96.6339C388.351 96.875 387.634 97.0051 386.911 97.0189C386.545 97.0164 386.181 96.965 385.828 96.8662C385.494 96.7661 385.153 96.6884 384.808 96.6339C383.416 96.4417 381.998 96.555 380.654 96.9658C379.301 97.3707 377.999 97.9275 376.771 98.6255C374.311 100.003 372.012 101.713 369.362 102.768C368.701 103.029 368.022 103.241 367.33 103.402C366.635 103.553 365.93 103.649 365.221 103.691C363.823 103.769 362.42 103.712 361.033 103.518H361.043Z" fill="black"/>
<path d="M454.421 321.02L429.968 316.194L439.104 283.246L426.71 288.002L401.367 313.602L377.326 306.252L426.342 287.435L436.079 277.6L375.483 302.541L375.23 301.927L436.886 276.551L412.41 279.87L368.95 297.655L359.435 286.369L412.24 279.206L431.689 271.24L357.23 281.672L354.646 267.582L358.964 263.728L357.615 263.691L370.05 249.952L378.05 246.719L386.738 238.979L390.122 239.944L398.827 234.633L401.55 236.16L412.509 232.791L416.883 231.022L422.31 233.75L421.739 232.685L448.257 228.4L449.426 245.992L453.807 230.189L471.408 231.772L473.604 228.605L474.148 228.981L472.156 231.839L481.455 232.675L461.073 253.255L463.87 254.659L490.03 234.633L504.284 241.123L500.421 243.115L510.471 239.002L520.434 242.852L514.708 245.209L524.888 250.284L495.247 261.69L529.454 256.897L531.779 263.678L505.131 267.293L536.392 268.192L534.143 281.745L496.19 270.918L529.696 287.767L524.253 297.227L489.15 285.36L516.884 300.931L501.205 308.593L501.049 308.493L453.734 278.579L487.243 316.705L469.12 320.994L452.359 289.745L454.421 321.02ZM452.236 288.139L469.446 320.23L485.998 316.313L452.435 278.141L451.588 278.473L452.236 288.139ZM430.798 315.689L453.714 320.21L451.595 288.344L447.205 280.159L439.898 282.967L430.798 315.689ZM379.365 306.189L401.178 312.855L425.202 288.59L379.365 306.189ZM453.561 277.702L501.245 307.836L515.456 300.895L485.739 284.222L459.612 275.389L453.561 277.702ZM360.724 286.877L369.143 296.855L409.786 280.238L360.724 286.877ZM486.011 283.591L523.951 296.417L528.77 288.039L492.776 269.948L490.451 269.284L467.277 272.428L466.58 272.697L486.011 283.591ZM437.656 276.952L427.846 286.857L439.327 282.449L441.12 275.976L439.49 276.195L437.656 276.952ZM447.816 279.9L451.469 286.725L450.934 278.702L447.816 279.9ZM460.585 274.997L482.6 282.443L465.786 273.002L460.585 274.997ZM441.838 275.877L440.097 282.154L446.872 279.551L444.697 275.488L441.838 275.877ZM355.364 267.851L357.765 280.949L434.176 270.244L438.032 268.667L436.019 267.396L431.406 265.836L359.93 263.781L355.364 267.851ZM493.019 269.321L533.612 280.902L535.605 268.836L501.066 267.841L492.391 269.016L493.019 269.321ZM445.398 275.395L447.5 279.312L450.894 278.008L450.811 276.743L448.098 275.027L445.398 275.395ZM434.352 270.891L414.857 278.858L437.922 275.727L442.269 271.336L440.244 270.055L434.352 270.891ZM451.505 277.198L451.545 277.775L451.967 277.613L451.728 277.337L451.505 277.198ZM452.17 276.829L452.867 277.271L458.636 275.054L455.597 274.028L451.339 274.605L451.432 275.99L452.17 276.829ZM442.11 272.468L439.018 275.591L439.33 275.548L441.502 274.655L442.11 272.468ZM449.137 274.891L450.19 275.555L449.556 274.831L449.137 274.891ZM442.057 275.147V275.18L444.382 274.848L444.083 274.297L442.057 275.147ZM450.36 274.725L450.735 275.153L450.705 274.678L450.36 274.725ZM444.714 274.061L445.096 274.775L447.258 274.479L445.853 273.593L444.714 274.061ZM457.105 273.815L459.632 274.669L464.454 272.816L457.105 273.815ZM446.607 273.284L448.267 274.34L449.034 274.237L447.769 272.8L446.607 273.284ZM442.917 272.113L442.299 274.34L443.781 273.729L442.917 272.113ZM448.433 272.531L449.838 274.131L450.662 274.018L450.549 272.298L449.699 272.01L448.433 272.531ZM451.23 272.531L451.323 273.932L454.209 273.54L451.23 272.531ZM443.751 272.265L444.415 273.477L445.182 273.162L443.751 272.265ZM451.18 271.814L455.69 273.341L464.325 272.169L457.981 268.607L451.157 271.416L451.18 271.814ZM443.355 271.233L445.919 272.853L447.317 272.275L445.989 270.762L444.368 270.214L443.355 271.233ZM458.715 268.289L465.357 272.023L467.098 271.787L479.007 267.213L463.767 266.775L461.654 267.074L458.715 268.289ZM447.198 271.19L447.922 272.013L448.692 271.681L447.198 271.19ZM480.741 267.263L469.97 271.399L488.857 268.836L483.637 267.349L480.741 267.263ZM446.321 270.191L449.642 271.309L450.426 270.977L450.273 268.654L445.923 269.265L445.69 269.44L446.321 270.191ZM450.921 268.577L451.06 270.718L457.194 268.196L456.487 267.797L450.921 268.577ZM441.25 269.932L441.914 270.36L441.652 269.875L441.25 269.932ZM442.366 269.776L442.671 270.347L442.844 269.716L442.366 269.776ZM443.475 269.928L443.402 270.201L443.621 269.978L443.475 269.928ZM438.706 269.112L436.83 269.882L439.363 269.527L438.706 269.112ZM444.84 269.689L445.066 269.766L444.923 269.606L444.84 269.689ZM439.463 268.803L440.38 269.384L441.33 269.251L441.3 269.195L439.772 268.677L439.463 268.803ZM441.761 268.65L442.89 269.032L443.04 269.012L443.372 267.834L442.964 267.373L441.419 268.003L441.761 268.65ZM443.89 268.431L443.757 268.909L444.252 268.843L443.89 268.431ZM444.103 267.668L444.953 268.634L447.278 266.31L445.703 266.267L444.375 266.818L444.103 267.668ZM489.392 267.512L491.351 268.508L496.997 267.741L489.392 267.512ZM449.705 266.373L446.979 268.458L450.217 268.007L450.107 266.383L449.705 266.373ZM438.679 268.309L438.772 268.368H438.812L438.679 268.309ZM486.327 267.426L489.588 268.355L487.824 267.469L486.327 267.426ZM440.722 268.289L440.855 268.332L440.811 268.252L440.722 268.289ZM436.305 266.795L439.762 267.963L440.496 267.661L439.646 266.075L434.956 265.942L436.305 266.795ZM450.788 266.397L450.888 267.907L455.537 267.243L454.614 266.725L454.166 266.885L453.989 266.476L450.788 266.397ZM457.583 267.638L457.988 267.867L459.034 267.436L457.583 267.638ZM440.41 266.098L441.114 267.409L442.509 266.838L441.897 266.141L440.41 266.098ZM488.004 266.802L501.056 267.177L530.882 263.13L529.006 257.633L492.497 262.749L485.38 265.48L488.004 266.802ZM455.617 266.536L456.613 267.104L459.805 266.656L455.617 266.536ZM448.287 266.324L447.842 266.964L448.666 266.334L448.287 266.324ZM483.75 266.679L486.436 266.758L484.54 265.802L482.879 266.436L483.75 266.679ZM467.725 266.217L480.641 266.589L480.8 266.529L475.766 265.092L467.725 266.217ZM442.817 266.168L443.173 266.573L443.817 266.31L443.847 266.197L442.817 266.168ZM477.403 264.866L481.847 266.131L483.753 265.401L481.534 264.285L477.403 264.866ZM456.945 265.909L462.378 266.065L469.26 263.233L466.56 262.463L456.945 265.909ZM470.289 263.525L464.162 266.048L474.205 264.644L470.289 263.525ZM454.385 265.849H454.787L463.225 261.514L459.732 260.518L454.677 262.586L452.1 264.558L454.385 265.849ZM450.758 265.743L452.953 265.806L451.525 265.006L450.748 265.603L450.758 265.743ZM448.835 265.69L449.499 265.71L450.044 265.291L449.991 264.505L448.835 265.69ZM447.231 265.643L447.929 265.663L448.038 265.55L448.271 265.218L447.231 265.643ZM444.714 265.57L445.59 265.597L448.965 264.216L449.297 263.748L445.776 261.756L444.714 265.57ZM442.22 265.497L444.03 265.55L445.169 261.437L434.79 255.609L436.783 259.3L442.22 265.497ZM440.061 265.437L441.31 265.474L438.155 261.879L440.061 265.437ZM433.867 265.258L439.297 265.414L436.218 259.681L430.549 253.229L426.833 251.141L398.936 243.174L433.867 265.258ZM431.542 265.192L432.569 265.222L396.678 242.537L392.925 241.468L381.252 246.188L379.143 247.476L431.542 265.192ZM360.671 263.154L429.277 265.125L377.934 247.768L360.671 263.154ZM482.693 264.149L484.593 265.105L489.598 263.183L482.693 264.149ZM450.678 264.541L450.698 264.82L450.901 264.664L450.678 264.541ZM464.165 261.803L458.759 264.581L465.467 262.174L464.165 261.803ZM471.286 263.13L475.829 264.428L480.478 263.764L475.63 261.328L471.286 263.13ZM451.16 264.037L451.492 264.212L452.349 263.549L451.16 264.037ZM476.46 261.003L481.651 263.612L492.348 262.115L523.297 250.231L513.948 245.584L476.46 261.003ZM455.225 259.24L451.203 263.3L454.345 262.015L457.224 259.811L455.225 259.24ZM445.952 261.112L449.669 263.2L449.905 262.868L449.556 257.627L447.115 256.93L445.952 261.112ZM359.09 263.104L359.704 263.12L376.595 248.067L370.458 250.547L359.09 263.104ZM467.632 262.088L470.256 262.835L474.862 260.94L473.202 260.096L467.632 262.088ZM453.551 258.769L450.735 262.838L454.494 259.038L453.551 258.769ZM450.23 257.823L450.506 261.995L452.874 258.579L450.23 257.823ZM465.025 261.318L466.533 261.75L472.365 259.658L470.286 258.613L465.025 261.318ZM460.708 260.09L464.072 261.049L469.535 258.244L467.599 257.272L460.708 260.09ZM458.001 260.007L456.673 261.026L458.682 260.203L458.001 260.007ZM434.189 254.49L445.335 260.747L446.454 256.714L433.382 252.986L434.189 254.49ZM474.042 259.761L475.666 260.578L502.108 249.693L474.042 259.761ZM458.669 259.506L459.688 259.794L466.825 256.873L463.979 255.443L458.669 259.506ZM471.017 258.238L473.222 259.35L513.875 244.768L513.965 244.814L518.687 242.869L510.514 239.712L493.577 246.636L471.017 258.238ZM455.74 258.672L457.865 259.28L463.308 255.111L460.612 253.753L455.74 258.672ZM453.936 258.158L455.012 258.463L459.994 253.441L457.928 252.402L453.936 258.158ZM450.17 257.082L453.259 257.965L457.324 252.1L449.579 248.206L450.17 257.082ZM468.416 256.936L470.269 257.869L486.443 249.571L468.416 256.936ZM432.283 254.178L434.824 257.069L433.698 254.975L432.283 254.178ZM447.274 256.256L449.493 256.89L449.028 249.919L447.274 256.256ZM464.544 254.995L467.622 256.541L493.298 246.036L502.779 241.163L490.146 235.427L464.544 254.995ZM432.937 252.17L446.627 256.073L448.885 247.928V247.861L423.887 235.291L432.937 252.17ZM430.945 252.674L433.097 253.886L432.479 252.731L430.486 252.166L430.945 252.674ZM458.287 251.851L460.462 252.943L480 233.209L471.721 232.463L458.287 251.851ZM429.686 251.244L432.041 251.908L422.848 234.763L416.87 231.775L413.705 233.053L429.686 251.244ZM449.679 247.523L457.689 251.549L470.973 232.396L454.305 230.896L449.679 247.523ZM427.059 250.51L428.507 250.922L413.047 233.329L412.715 233.429L403.37 237.206L427.059 250.51ZM396.944 241.91L424.329 249.723L402.616 237.531L394.931 240.638L396.944 241.91ZM423.359 234.275L448.848 247.091L447.66 229.166L422.781 233.183L423.359 234.275ZM386.907 239.742L379.877 246.006L380.936 245.577L389.352 240.439L386.907 239.742ZM390.228 240.688L384.715 244.054L391.879 241.159L390.228 240.688ZM393.918 241.05L394.679 241.266L394.174 240.934L393.918 241.05ZM390.999 240.217L392.882 240.754L393.483 240.509L392.028 239.589L390.999 240.217ZM393.091 239.48L394.24 240.203L401.879 237.12L401.49 236.901L393.091 239.48ZM398.853 235.423L393.606 238.627L400.683 236.449L398.853 235.423ZM402.36 236.632L402.662 236.798L405.362 235.709L402.36 236.632Z" fill="black"/>
<path d="M441.549 279.518C441.566 279.655 441.551 279.795 441.505 279.925C441.459 280.055 441.383 280.173 441.283 280.268C441.052 280.363 440.799 280.391 440.552 280.348C439.712 280.348 439.048 281.211 439.061 282.048C439.094 282.467 439.226 282.872 439.444 283.231C439.663 283.591 439.963 283.893 440.32 284.116C441.038 284.556 441.823 284.877 442.645 285.065C443.702 285.421 444.804 285.625 445.919 285.669C447.304 285.669 448.636 285.168 449.934 284.673C450.57 284.479 451.164 284.167 451.685 283.754C451.943 283.543 452.138 283.265 452.248 282.95C452.357 282.636 452.377 282.297 452.306 281.971C451.668 282.137 451.01 281.639 450.761 281.025C450.564 280.393 450.512 279.725 450.609 279.07C450.833 275.636 450.709 272.189 450.24 268.78C450.232 268.563 450.153 268.356 450.014 268.189C449.813 268.042 449.564 267.976 449.317 268.003C447.427 267.987 443.176 267.788 441.937 269.663C440.699 271.538 441.609 277.251 441.549 279.518Z" fill="#939393"/>
<path d="M540.666 266.583C523.808 223.145 439.852 225.439 439.852 225.439C382.63 230.133 350.575 259.821 350.575 259.821C341.897 321.804 430.32 323.978 448.918 324.31C467.516 324.642 557.517 310.037 540.666 266.583ZM526.797 282.984C518.827 299.249 493.255 310.203 465.026 312.194C436.796 314.186 395.947 316.509 366.058 285.639C366.058 285.639 344.68 255.506 411.493 239.37C411.493 239.37 453.415 229.615 488.446 239.37C523.476 249.126 534.768 266.719 526.797 282.984Z" fill="black"/>
<path d="M452.927 235.035C464.328 235.035 476.768 236.118 488.462 239.371C523.476 249.126 534.768 266.719 526.797 282.984C518.826 299.249 493.254 310.203 465.025 312.194C457.862 312.699 449.878 313.227 441.476 313.227C416.763 313.227 388.362 308.673 366.057 285.639C366.057 285.639 344.68 255.506 411.493 239.371C411.493 239.371 430.127 235.035 452.927 235.035ZM452.927 234.04C430.27 234.04 411.453 238.355 411.264 238.401C396.409 241.99 384.695 246.57 376.472 252.011C369.717 256.485 365.231 261.577 363.145 267.144C359.239 277.56 364.995 285.852 365.241 286.2L365.287 286.263L365.337 286.317C370.656 291.825 376.687 296.598 383.271 300.51C389.35 304.088 395.828 306.94 402.573 309.008C413.864 312.506 426.6 314.209 441.479 314.209C449.738 314.209 457.676 313.698 465.098 313.174C479.405 312.178 492.833 308.935 503.928 303.833C515.552 298.489 523.765 291.425 527.694 283.409C530.852 276.966 531.055 270.294 528.282 264.117C525.9 258.806 521.427 253.949 514.977 249.661C508.209 245.153 499.368 241.362 488.718 238.398C478.299 235.497 466.261 234.026 452.933 234.026L452.927 234.04Z" fill="#55C6FF"/>
<path d="M440.526 255.572C438.968 256.767 437.706 258.317 436.119 259.476C434.531 260.634 432.761 261.335 431.257 262.513C429.752 263.691 428.533 265.554 428.912 267.429C429.291 269.304 431.147 270.556 432.834 271.548C435.069 272.876 437.391 274.204 439.971 274.486C441.449 274.592 442.935 274.499 444.388 274.21C448.49 273.55 452.54 272.597 456.507 271.359C458.386 270.775 460.286 270.104 461.844 268.899C462.84 268.129 463.733 266.908 463.365 265.706C463.169 265.066 462.654 264.581 462.159 264.13L457.613 259.98C455.652 257.913 453.145 256.445 450.383 255.745C446.65 254.517 444.069 252.913 440.526 255.572Z" fill="#C1C1C1"/>
<path d="M274.24 302.767C282.362 299.531 290.682 296.814 299.148 294.631C299.613 294.343 299.195 293.636 298.74 293.304C298.285 292.972 297.744 292.451 298.076 292.006C298.21 291.858 298.388 291.757 298.584 291.717C301.514 290.774 304.569 290.277 307.647 290.243C307.653 290.387 307.628 290.531 307.571 290.664C307.515 290.797 307.429 290.916 307.321 291.011C307.213 291.107 307.084 291.177 306.945 291.216C306.806 291.256 306.66 291.263 306.518 291.239C308.26 292.097 310.182 292.522 312.124 292.48L312.907 290.489C313.757 290.456 314.592 290.711 315.277 291.214C315.961 291.717 316.455 292.437 316.677 293.257C316.88 294.112 316.798 295.009 316.444 295.813C316.09 296.616 315.482 297.282 314.714 297.708C313.651 298.266 312.389 298.306 311.2 298.236C309.589 298.14 307.994 297.868 306.441 297.426C305.289 297.094 304.137 296.666 302.938 296.676C301.158 296.696 299.547 297.672 297.996 298.545C290.461 302.787 282.087 305.327 273.463 305.984C272.975 304.975 273.589 303.697 274.24 302.767Z" fill="#C1C1C1"/>
<path d="M324.212 310.87C324.463 311.432 324.814 311.944 325.248 312.38C326.676 313.658 329.087 312.918 330.303 311.434C331.518 309.95 331.904 307.985 332.465 306.153C332.891 304.783 333.429 303.451 334.076 302.17C334.766 300.802 335.653 299.428 337.038 298.771C337.852 298.379 338.768 298.276 339.645 298.047C340.522 297.818 341.415 297.416 341.883 296.643C342.352 295.87 342.159 294.651 341.319 294.319C340.133 295.73 337.998 295.68 336.151 295.508C335.886 295.51 335.626 295.433 335.404 295.289C335.009 294.957 335.095 294.293 335.447 293.961C335.833 293.632 336.302 293.416 336.802 293.337L334.81 293.755C333.667 293.997 332.425 294.3 331.721 295.232C331.017 296.165 331.389 297.888 332.568 297.967C330.974 297.865 328.144 304.57 327.125 305.632C325.288 307.544 322.385 307.328 324.212 310.87Z" fill="#C1C1C1"/>
<path d="M183.25 304.716L210.964 308.543L214.135 309.184L213.621 310.203L209.303 309.871L183.25 306.794V304.716Z" fill="#C1C1C1"/>
<path d="M161.516 300.245C160.652 301.085 160.121 302.21 160.024 303.411C159.926 304.612 160.268 305.808 160.985 306.777C161.16 307.019 161.387 307.219 161.649 307.361C161.915 307.465 162.197 307.521 162.483 307.527L173.715 308.397C176.408 308.606 179.204 308.799 181.725 307.826L181.539 309.028L182.512 309.157C183.147 309.24 183.794 309.091 184.432 309.054L184.648 304.908C184.701 304.504 184.656 304.093 184.515 303.71C184.053 302.714 182.652 302.747 181.572 302.937L181.529 303.839C180.549 303.7 179.782 302.97 178.932 302.462C177.468 301.589 175.714 301.38 174.017 301.187C169.872 300.716 165.678 300.716 161.516 300.245Z" fill="#FF710F"/>
</g>
<defs>
<clipPath id="clip0">
<rect width="591" height="360" fill="white"/>
</clipPath>
</defs>
</svg>
