<svg width="122" height="134" viewBox="0 0 122 134" fill="none" xmlns="http://www.w3.org/2000/svg">
<g clip-path="url(#clip0)">
<path d="M61.3999 132.6C94.537 132.6 121.4 105.737 121.4 72.6C121.4 39.4629 94.537 12.6 61.3999 12.6C28.2628 12.6 1.3999 39.4629 1.3999 72.6C1.3999 105.737 28.2628 132.6 61.3999 132.6Z" fill="white"/>
<mask id="mask0" mask-type="alpha" maskUnits="userSpaceOnUse" x="1" y="12" width="121" height="121">
<path d="M61.3999 132.6C94.537 132.6 121.4 105.737 121.4 72.6C121.4 39.4629 94.537 12.6 61.3999 12.6C28.2628 12.6 1.3999 39.4629 1.3999 72.6C1.3999 105.737 28.2628 132.6 61.3999 132.6Z" fill="white"/>
</mask>
<g mask="url(#mask0)">
<path d="M44.9 103.2C44.9 103.2 40.9 124.1 44.3 133.6H91.7C91.7 133.6 94.6 105.5 83.9 99.2L44.9 103.2Z" fill="#FF710F"/>
</g>
<path d="M47.4002 21.3C47.3002 23 47.6002 24.6 47.8002 26.2C49.2002 34.5 51.5002 42.5 54.4002 50.3C55.4002 52.8 57.1002 55.7 59.8002 55.5C60.9002 55.4 61.9002 54.6 62.6002 53.8C66.3002 49.8 65.4002 43.5 63.9002 38.2C61.8002 31 58.7002 24 54.8002 17.5C53.7002 15.8 51.5002 12.9 49.1002 14.6C47.8002 15.8 47.5002 19.6 47.4002 21.3Z" fill="black"/>
<path d="M58.5998 44C56.4998 46.4 51.4998 45.1 50.0998 48C49.1998 49.8 50.5998 51.9 50.8998 53.9C51.2998 56.9 49.3998 59.9 50.1998 62.9C51.0998 66.3 55.2998 67.8 58.7998 67.1C62.1998 66.5 65.2998 64.4 68.4998 63C71.7998 61.6 75.2998 60.8 78.3998 59C81.4998 57.2 84.0998 54 83.7998 50.4C83.2998 45.2 77.3998 42.7 73.7998 38.9C68.9998 33.9 72.2998 28.8 71.7998 21.9C70.8998 26.7 59.9998 25 59.1998 30.1C58.5998 34.3 61.8998 40.2 58.5998 44Z" fill="white"/>
<path d="M58.7001 44C58.0001 44.8 57.0001 45.3 56.0001 45.5C55.0001 45.8 54.0001 45.9 52.9001 46.2C51.9001 46.5 50.9001 47 50.5001 47.9C50.0001 48.8 50.2001 49.8 50.5001 50.8C50.8001 51.8 51.2001 52.8 51.4001 53.9C51.6001 55 51.5001 56.1 51.3001 57.2C51.1001 58.3 50.9001 59.3 50.7001 60.3C50.6001 61.3 50.6001 62.3 50.9001 63.2C51.2001 64.1 51.8001 64.8 52.6001 65.4C53.4001 66 54.3001 66.4 55.2001 66.6C56.1001 66.9 57.2001 66.9 58.1001 66.9C59.1001 66.8 60.1001 66.6 61.0001 66.3C63.0001 65.7 64.8001 64.7 66.7001 63.8C67.6001 63.4 68.6001 62.9 69.6001 62.6C70.6001 62.2 71.6001 61.9 72.6001 61.6C74.6001 60.9 76.6001 60.2 78.3001 59.1C80.0001 58 81.6001 56.5 82.6001 54.8C83.1001 53.9 83.4001 52.9 83.5001 51.9C83.6001 50.9 83.4001 49.9 83.0001 49C82.2001 47.2 80.7001 45.7 79.1001 44.4C77.5001 43.1 75.7001 41.9 74.2001 40.5C73.4001 39.8 72.6001 39 72.0001 38C71.4001 37.1 70.9001 36 70.7001 34.9C70.2001 32.7 70.6001 30.5 70.8001 28.4C70.9001 27.4 71.1001 26.3 71.1001 25.3C71.2001 24.3 71.2001 23.3 71.1001 22.2L72.4001 22.3C72.3001 23.1 71.9001 23.7 71.3001 24.3C70.8001 24.8 70.2001 25.2 69.6001 25.4C68.4001 26 67.1001 26.3 65.9001 26.6C64.7001 26.9 63.5001 27.2 62.4001 27.6C61.3001 28 60.2001 28.7 59.8001 29.7C59.6001 30.2 59.5001 30.8 59.5001 31.4C59.5001 32 59.5001 32.6 59.6001 33.2C59.7001 34.4 59.9001 35.7 60.1001 36.9C60.3001 38.1 60.4001 39.4 60.2001 40.7C60.0001 41.8 59.6001 43 58.7001 44ZM58.6001 43.9C59.4001 43 59.9001 41.7 60.0001 40.5C60.1001 39.3 60.0001 38 59.7001 36.8C59.5001 35.6 59.2001 34.3 59.0001 33.1C58.9001 32.5 58.8001 31.8 58.8001 31.2C58.8001 30.9 58.8001 30.6 58.8001 30.2C58.8001 29.9 58.9001 29.5 59.0001 29.2C59.3001 28.6 59.7001 28 60.2001 27.5C60.7001 27.1 61.3001 26.7 61.9001 26.5C63.1001 25.9 64.3001 25.6 65.5001 25.3C66.7001 25 67.9001 24.6 68.9001 24.1C70.0001 23.6 70.8001 22.9 70.9001 21.9L71.8001 16.5L72.3001 22C72.5001 24.2 72.3001 26.3 72.0001 28.4C71.7001 30.5 71.4001 32.5 71.8001 34.4C72.0001 35.3 72.4001 36.3 72.9001 37.1C73.4001 38 74.1001 38.7 74.9001 39.4C76.4001 40.8 78.1001 42 79.7001 43.4C80.5001 44.1 81.3001 44.8 82.0001 45.7C82.7001 46.6 83.3001 47.5 83.7001 48.5C84.1001 49.6 84.3001 50.7 84.1001 51.8C84.0001 52.9 83.6001 53.9 83.1001 54.9C82.5001 55.8 81.9001 56.7 81.1001 57.4C80.3001 58.1 79.5001 58.8 78.5001 59.3C76.7001 60.4 74.7001 61.1 72.7001 61.8C70.7001 62.5 68.8001 63.2 66.9001 64.2C65.1001 65.2 63.2001 66.2 61.2001 67C60.2001 67.4 59.2001 67.7 58.1001 67.9C57.0001 68 55.9001 68 54.8001 67.7C53.7001 67.4 52.7001 67 51.7001 66.3C51.2001 66 50.8001 65.5 50.5001 65.1C50.2001 64.6 49.9001 64.1 49.7001 63.6C49.3001 62.5 49.4001 61.3 49.5001 60.2C49.7001 59.1 50.0001 58.1 50.2001 57.1C50.4001 56.1 50.6001 55.1 50.5001 54.1C50.4001 53.1 50.0001 52.1 49.8001 51.1C49.7001 50.6 49.6001 50 49.6001 49.5C49.6001 48.9 49.8001 48.4 50.1001 47.9C50.4001 47.4 50.8001 47 51.3001 46.8C51.8001 46.5 52.3001 46.4 52.8001 46.2C53.8001 45.9 54.9001 45.8 55.9001 45.6C56.9001 45.1 57.9001 44.7 58.6001 43.9Z" fill="black"/>
<path d="M56.1 51.1C56.7 54.8 58.6 58.7 62.3 60.2C67.2 62.2 73.1 59 75.4 54.5C77.7 50 77.3 44.8 76.6 39.9C78.8 40.1 80.9 40.3 83.2 40.6C83.5 45.5 81.2 50.1 80.8 54.9C80.3 59.7 83 65.5 88.2 66C86.5 68.4 86.6 71.4 86.8 74.3C87.1 79.5 87.4 84.6 87.7 89.8C88 94 88 98.6 85.2 101.9C83.2 104.2 80.2 105.4 77.2 106.3C68.1 109 58.1 109.3 48.8 107.1C47.8 106.8 46.7 106.5 46 105.8C45.3 105.1 45.1 104.1 44.9 103.2C43.8 97 45.6 90.8 46.2 84.6C46.9 76.5 45.9 74.9 45.8 66.8C45.8 64.7 45.9 60.3 46.5 58.3C47.5 54.8 48.7 54.4 49.9 51C50.7 48.9 52.3 47 52.3 44.8C52.3 43.6 52 42.3 52.5 41.1C53.9 37.4 55.3 41.3 55.5 42.8C55.9 45.6 55.7 48.3 56.1 51.1Z" fill="#55C6FF"/>
<path d="M48.4002 73C49.2002 77.8 49.2002 82.6 48.4002 87.3C47.8002 90.7 46.7002 94.3 43.5002 96.6C42.9002 97 42.3002 97.4 41.5002 97.3C40.2002 97.2 39.6002 96 39.3002 95.1C38.7002 93.1 38.7002 91.1 38.7002 89C38.7002 78.2 38.8002 67.5 39.4002 56.7C39.5002 54.5 39.7002 52.2 40.8002 50.2C41.9002 48.2 44.3002 46.6 47.2002 46.5C47.4002 46.5 46.6002 46.4 46.7002 46.3C47.7002 46.1 48.5002 46.9 49.0002 47.6C49.5002 48.4 49.6002 49.2 49.6002 50C50.3002 58 47.1002 65 48.4002 73Z" fill="white"/>
<path d="M48.5 73C49.2 77.6 49.4 82.4 48.8 87C48.5 89.3 47.9 91.7 46.6 93.8C46 94.8 45.2 95.8 44.2 96.5C43.7 96.9 43.2 97.2 42.6 97.4C42 97.6 41.2 97.6 40.6 97.2C40 96.9 39.6 96.3 39.3 95.8C39.2 95.5 39.1 95.2 39 94.9C38.9 94.6 38.9 94.3 38.8 94C38.6 92.8 38.5 91.6 38.5 90.5C38.5 89.3 38.5 88.2 38.5 87V83.5C38.6 78.8 38.5 74.1 38.6 69.5C38.6 64.8 38.7 60.1 39 55.4C39.1 54.2 39.3 53 39.6 51.9C39.9 50.8 40.5 49.6 41.4 48.7C42.3 47.8 43.3 47.1 44.5 46.7C45.1 46.5 45.7 46.4 46.3 46.3C46.5 46.3 46.6 46.3 46.8 46.3H47H47.1C46.4 46.8 47.4 47.4 47.1 47.2H47H46.8H46.7C46.7 47.2 46.7 47.2 46.6 47.2C46.4 47.5 46.4 46.2 46.7 46.4C46.8 46.4 46.8 46.4 46.8 46.4H46.9C47 46.4 47.1 46.4 47.2 46.4C47.6 46.4 48 46.5 48.3 46.7C48.6 46.9 48.9 47.1 49.1 47.3C49.3 47.6 49.5 47.8 49.7 48.1C49.9 48.4 50 48.7 50.1 49C50.3 49.6 50.3 50.2 50.4 50.8C50.4 51.4 50.4 52 50.4 52.6C50.4 55 50.1 57.3 49.7 59.6C49.3 61.9 48.8 64.2 48.6 66.5C48.1 68.3 48.1 70.7 48.5 73ZM48.4 73C48 70.7 48 68.3 48.1 66C48.2 63.7 48.6 61.3 48.9 59C49.2 56.7 49.4 54.4 49.4 52.1C49.4 51.5 49.4 51 49.3 50.4C49.3 49.8 49.2 49.3 49.1 48.7C49 48.4 48.9 48.2 48.8 48C48.7 47.8 48.5 47.6 48.3 47.4C48 47 47.5 46.8 47.1 46.8C47.1 46.8 47 46.8 46.9 46.8C47.2 47 47.2 45.8 47 46H47.2H47.3H47.4C47.1 45.7 48.1 46.4 47.4 46.9C47.3 46.9 47.3 46.9 47.3 46.9H47.2H47C46.9 46.9 46.7 46.9 46.6 46.9C46 47 45.5 47.1 45 47.3C44 47.7 43 48.3 42.3 49.1C41.5 49.9 41 50.9 40.6 52C40.3 53.1 40.1 54.2 40 55.4C39.7 60.1 39.4 64.8 39.2 69.5C39 74.2 38.9 78.9 38.9 83.5C38.9 85.8 38.9 88.2 39 90.5C39 91.6 39.1 92.8 39.4 93.9C39.5 94.5 39.7 95 39.9 95.5C40.2 96 40.5 96.4 40.9 96.6C41.3 96.8 41.8 96.9 42.3 96.7C42.8 96.5 43.2 96.2 43.7 95.9C44.6 95.2 45.3 94.3 46 93.4C46.6 92.5 47.1 91.4 47.4 90.3C47.7 89.2 48 88.1 48.3 86.9C49 82.4 49.2 77.6 48.4 73Z" fill="black"/>
<path d="M80.9002 51.1C81.5002 48.4 82.3002 45.6 84.1002 43.5C86.0002 41.4 89.3002 40.4 91.6002 42.1C93.1002 43.2 93.7002 45.2 93.7002 47C93.7002 48.8 93.1002 50.6 92.6002 52.4C91.7002 55.5 91.2002 58.7 90.9002 61.9C90.6002 65.7 90.6002 69.6 89.6002 73.2C88.2002 78.4 85.0002 82.9 81.8002 87.2C80.8002 88.6 79.4002 90.2 77.6002 89.9C76.4002 89.7 75.6002 88.7 75.0002 87.6C73.6002 84.9 73.3002 81.6 73.8002 78.5C74.5002 74 76.4002 69.7 77.4002 65.3C78.6002 60.6 79.7002 55.9 80.9002 51.1Z" fill="white"/>
<path d="M80.7998 51.1C81.0998 50 81.3998 48.8 81.6998 47.7C81.9998 46.6 82.4998 45.5 83.0998 44.5C84.1998 42.5 86.4998 40.9 88.9998 40.8C89.5998 40.8 90.2998 40.9 90.8998 41.1C91.4998 41.3 91.9998 41.7 92.4998 42.2C92.9998 42.7 93.2998 43.2 93.5998 43.8C93.8998 44.4 93.9998 45 94.1998 45.6C94.3998 46.8 94.2998 48.1 93.9998 49.3C93.7998 50.5 93.3998 51.6 93.0998 52.7C92.4998 54.9 91.8998 57.1 91.4998 59.4C91.2998 60.5 91.1998 61.7 90.9998 62.8C90.8998 63.9 90.7998 65.1 90.6998 66.2C90.4998 68.5 90.2998 70.8 89.7998 73.1C89.1998 75.4 88.3998 77.6 87.1998 79.6C86.0998 81.6 84.8998 83.6 83.4998 85.6L82.4998 87C82.1998 87.5 81.7998 88 81.3998 88.4C80.9998 88.9 80.4998 89.3 79.9998 89.7C79.4998 90.1 78.7998 90.4 78.0998 90.4C77.3998 90.4 76.6998 90.2 76.0998 89.8C75.4998 89.4 75.0998 88.9 74.6998 88.4C73.9998 87.3 73.5998 86.2 73.2998 85C72.6998 82.6 72.6998 80.1 73.1998 77.8C74.0998 73.1 75.9998 68.9 77.1998 64.4C78.4998 60.1 79.6998 55.6 80.7998 51.1ZM80.9998 51.1C79.8998 55.6 78.9998 60.2 78.0998 64.7C77.6998 67 76.9998 69.3 76.3998 71.5C75.7998 73.7 75.0998 75.9 74.6998 78.1C74.2998 80.3 74.2998 82.6 74.7998 84.7C75.0998 85.8 75.4998 86.8 75.9998 87.7C76.5998 88.6 77.3998 89.3 78.2998 89.2C79.1998 89.2 79.9998 88.5 80.7998 87.7C81.1998 87.3 81.4998 86.8 81.8998 86.4L82.9998 85C84.3998 83.1 85.6998 81.3 86.8998 79.3C87.9998 77.3 89.0998 75.2 89.6998 73C90.2998 70.8 90.4998 68.5 90.6998 66.1C90.7998 63.8 90.8998 61.5 91.1998 59.2C91.4998 56.9 91.8998 54.6 92.3998 52.3C92.6998 51.2 92.9998 50 93.1998 49C93.3998 47.9 93.4998 46.8 93.3998 45.8C93.1998 44.7 92.7998 43.7 92.1998 42.9C91.8998 42.5 91.3998 42.2 90.9998 42C90.4998 41.8 89.9998 41.7 89.4998 41.7C88.3998 41.7 87.2998 42 86.3998 42.5C85.3998 43.1 84.5998 43.8 83.8998 44.8C82.0998 46.6 81.4998 48.9 80.9998 51.1Z" fill="black"/>
<path d="M26.4998 56.5C26.1998 56 25.6998 55.7 25.2998 55.4C24.7998 55 24.3998 54.5 23.7998 54.3C23.1998 54 22.6998 53.8 22.0998 54.1C21.1998 54.5 20.8998 55.9 20.9998 57C21.1998 58.2 21.5998 60.3 22.7998 59.7C24.0998 59 25.3998 57.4 26.4998 56.5Z" fill="white"/>
<path d="M26.4999 56.5C26.0999 55.9 25.3999 55.6 24.7999 55.2C24.1999 54.7 23.6999 54.3 23.0999 54.1C22.7999 54 22.4999 54 22.1999 54.1C21.8999 54.2 21.5999 54.5 21.4999 54.8C21.1999 55.4 21.0999 56.2 21.1999 56.8C21.2999 57.5 21.4999 58.2 21.7999 58.8C21.8999 59.1 22.0999 59.4 22.3999 59.4C22.4999 59.4 22.6999 59.4 22.7999 59.3C22.8999 59.2 23.0999 59.1 23.1999 59C24.3999 58.5 25.2999 57.3 26.4999 56.5ZM26.5999 56.5C25.9999 57 25.5999 57.5 25.0999 58.1C24.5999 58.6 24.0999 59.1 23.3999 59.5C23.1999 59.6 23.0999 59.7 22.8999 59.8C22.6999 59.9 22.4999 60 22.1999 59.9C21.9999 59.9 21.7999 59.7 21.5999 59.6C21.4999 59.4 21.3999 59.3 21.2999 59.1C20.9999 58.4 20.8999 57.7 20.8999 56.9C20.8999 56.2 20.9999 55.4 21.2999 54.8C21.4999 54.5 21.6999 54.2 21.9999 53.9C22.2999 53.7 22.7999 53.6 23.0999 53.7C23.4999 53.8 23.7999 54 24.0999 54.2C24.3999 54.4 24.6999 54.7 24.8999 54.9C25.5999 55.5 26.1999 55.9 26.5999 56.5Z" fill="black"/>
<path d="M21.7998 54.4C21.8998 54.3 22.0998 54.3 22.2998 54.3C22.4998 54.3 22.5998 54.4 22.6998 54.5C22.9998 54.7 23.1998 54.8 23.3998 55.1C23.7998 55.5 24.0998 56 24.2998 56.6C23.8998 56.2 23.4998 55.7 23.0998 55.4C22.8998 55.2 22.6998 55 22.4998 54.8C22.1998 54.6 22.0998 54.4 21.7998 54.4Z" fill="black"/>
<path d="M21.6998 72.9C22.0998 73.5 22.5998 74.1 23.2998 74.5C23.9998 74.8 24.6998 74.8 25.4998 74.8C26.3998 74.8 27.1998 74.8 28.0998 74.8C28.4998 74.8 28.8998 74.8 29.1998 75C29.7998 75.4 29.8998 76.3 29.7998 77C29.6998 77.7 29.4998 78.5 29.8998 79.1C30.3998 79.8 31.2998 80 32.1998 80C32.7998 80 33.4998 80 34.1998 80.1C34.5998 80.1 35.0998 80.1 35.3998 79.8C35.5998 79.5 35.6998 79.2 35.6998 78.9C35.6998 78 35.7998 77.2 35.8998 76.3C35.8998 76.1 35.8998 75.9 35.9998 75.7C36.0998 75.5 36.3998 75.4 36.5998 75.4C37.6998 75.1 38.8998 74.8 39.9998 74.7C39.9998 75.7 39.8998 76.7 39.8998 77.7C39.8998 77.8 39.8998 78 39.9998 78.1C40.0998 78.2 40.2998 78.2 40.3998 78.2C41.2998 78.2 42.2998 78.2 43.1998 77.9C43.4998 77.9 43.7998 77.8 43.9998 77.5C44.3998 77.1 44.1998 76.4 44.1998 75.8C44.1998 74.3 45.3998 73.2 46.1998 71.9C46.7998 71 47.0998 69.9 47.1998 68.9C47.7998 64.7 45.7998 60.3 42.3998 57.9C38.0998 54.9 32.4998 55.2 27.5998 56C23.5998 56.7 20.6998 60.8 19.9998 64.6C19.4998 67.5 20.0998 70.5 21.6998 72.9Z" fill="white"/>
<path d="M21.7 72.9C22 73.4 22.3 73.8 22.8 74.1C23.2 74.4 23.8 74.6 24.3 74.7C25.4 74.7 26.5 74.7 27.7 74.6C28 74.6 28.3 74.6 28.6 74.6C28.9 74.6 29.2 74.7 29.5 74.9C29.8 75.1 29.9 75.4 30 75.7C30.1 76 30.1 76.3 30.1 76.6C30.1 77.2 29.9 77.7 30 78.3C30 78.8 30.3 79.2 30.7 79.4C31.1 79.6 31.7 79.7 32.2 79.7H33.9C34.2 79.7 34.5 79.7 34.7 79.7C35 79.7 35.1 79.6 35.2 79.5C35.4 79.3 35.4 78.6 35.4 78.1L35.5 76.4C35.5 76.3 35.5 76.1 35.5 76C35.5 75.8 35.5 75.6 35.7 75.4C35.8 75.2 36 75.1 36.2 75.1C36.4 75.1 36.5 75 36.6 75C37.7 74.7 38.8 74.5 40 74.4H40.3V74.7L40.2 76.7V77.7C40.2 77.8 40.2 77.8 40.2 77.9C40.2 77.9 40.2 77.9 40.3 78C40.4 78 40.6 78 40.7 78C41.4 78 42.1 78 42.7 77.9C43 77.9 43.4 77.8 43.7 77.7C44 77.6 44.2 77.4 44.2 77C44.2 76.7 44.2 76.4 44.2 76C44.2 75.7 44.2 75.3 44.3 74.9C44.5 74.2 44.9 73.6 45.3 73.1C45.7 72.5 46.1 72 46.4 71.4C46.7 70.8 46.9 70.2 47 69.5C47.5 66.9 46.9 64.1 45.5 61.8C44.8 60.7 43.9 59.6 42.9 58.8C41.9 58 40.7 57.4 39.5 56.9C37 56 34.3 55.9 31.6 56.1C30.3 56.2 28.9 56.4 27.6 56.6C26.3 56.9 25.2 57.5 24.2 58.3C22.2 60 20.8 62.5 20.3 65.1C19.6 67.7 20.2 70.6 21.7 72.9ZM21.6 72.9C20.1 70.6 19.4 67.8 19.7 65C20 62.2 21.3 59.6 23.4 57.6C23.9 57.1 24.5 56.7 25.1 56.4C25.7 56.1 26.4 55.8 27.1 55.7C28.5 55.4 29.8 55.2 31.2 55.1C34 54.9 36.8 55.1 39.5 56C40.8 56.5 42.1 57.2 43.2 58.1C44.3 59 45.2 60.1 45.9 61.3C46.6 62.5 47 63.9 47.3 65.3C47.6 66.7 47.5 68.1 47.2 69.5C47.1 70.2 46.8 70.9 46.5 71.5C46.2 72.1 45.7 72.7 45.4 73.2C45 73.8 44.6 74.3 44.4 74.9C44.3 75.2 44.3 75.5 44.3 75.9C44.3 76.2 44.4 76.6 44.3 77C44.3 77.2 44.2 77.4 44.1 77.6C44 77.8 43.8 77.9 43.6 77.9C43.3 78 42.9 78.1 42.6 78.2C41.9 78.3 41.2 78.4 40.5 78.4C40.3 78.4 40.2 78.4 39.9 78.4C39.8 78.4 39.6 78.3 39.6 78.1C39.6 78 39.5 77.8 39.5 77.8V76.8V74.8L39.8 75.1C38.7 75.3 37.6 75.5 36.6 75.8C36.3 75.9 36.1 76 36 76.1C36 76.1 35.9 76.4 35.9 76.7L35.8 78.4V79.3C35.8 79.6 35.7 80 35.5 80.3C35.2 80.6 34.8 80.7 34.5 80.7C34.2 80.7 33.9 80.7 33.6 80.7L31.9 80.6C31.3 80.6 30.7 80.5 30.2 80.2C29.9 80 29.6 79.8 29.5 79.5C29.3 79.2 29.2 78.9 29.2 78.6C29.2 78 29.4 77.4 29.4 76.9C29.4 76.4 29.4 75.8 29 75.5C28.7 75.2 28.1 75.2 27.5 75.2H25.8C25.2 75.2 24.7 75.2 24.1 75.2C23.5 75.2 23 74.9 22.5 74.6C22.3 73.8 21.9 73.4 21.6 72.9Z" fill="black"/>
<path d="M45.8999 95.3C44.4999 98.1 40.2999 98.5 37.5999 96.8C34.9999 95.1 33.6999 91.9 33.0999 88.8C32.7999 87.4 32.6999 85.9 31.9999 84.7C30.2999 81.4 25.9999 80.2 23.9999 77.1C23.4999 76.3 23.1999 75.2 23.8999 74.5C24.3999 74 25.1999 74.1 25.7999 74.3C28.8999 75.2 31.3999 78.3 34.5999 78.5C35.6999 78.6 36.6999 78.3 37.6999 78.3C41.1999 78.3 41.2999 82.2 42.7999 84.6C44.7999 87.5 47.6999 91.7 45.8999 95.3Z" fill="white"/>
<path d="M45.9999 95.3C45.2999 96.7 43.8999 97.6 42.3999 97.8C40.8999 98.1 39.2999 97.9 37.8999 97.1C36.4999 96.3 35.3999 95.1 34.6999 93.8C33.8999 92.4 33.3999 91 33.0999 89.5C32.7999 88 32.6999 86.5 32.1999 85.1C31.6999 83.7 30.6999 82.6 29.4999 81.7C28.3999 80.8 26.9999 80 25.8999 79C25.2999 78.5 24.7999 78 24.2999 77.3C23.9999 77 23.7999 76.7 23.6999 76.3C23.5999 75.9 23.3999 75.5 23.4999 75.1C23.4999 74.7 23.7999 74.2 24.1999 74C24.5999 73.8 25.0999 73.7 25.4999 73.8C26.2999 73.9 26.9999 74.2 27.6999 74.5C29.0999 75.2 30.2999 76.1 31.5999 76.8C32.1999 77.1 32.8999 77.5 33.5999 77.7C34.2999 77.9 34.9999 78 35.6999 78C36.3999 78 37.1999 77.8 37.9999 77.8C38.7999 77.8 39.6999 78 40.3999 78.5C41.0999 79 41.4999 79.7 41.8999 80.5C42.1999 81.2 42.4999 81.9 42.7999 82.6C43.0999 83.3 43.3999 84 43.6999 84.6C44.0999 85.2 44.4999 85.9 44.7999 86.6C45.0999 87.3 45.4999 88 45.7999 88.6C46.0999 89.3 46.3999 90 46.4999 90.8C46.6999 91.5 46.7999 92.3 46.7999 93.1C46.4999 93.8 46.2999 94.6 45.9999 95.3ZM45.8999 95.2C46.1999 94.5 46.3999 93.8 46.3999 93C46.3999 92.2 46.2999 91.5 46.0999 90.8C45.6999 89.4 44.8999 88.1 44.0999 86.8C43.6999 86.2 43.2999 85.6 42.8999 84.9C42.6999 84.6 42.4999 84.2 42.2999 83.9C42.0999 83.6 41.9999 83.2 41.7999 82.8C41.4999 82.1 41.1999 81.4 40.8999 80.8C40.5999 80.2 40.1999 79.6 39.6999 79.2C39.1999 78.8 38.5999 78.6 37.8999 78.7C37.1999 78.7 36.4999 78.8 35.5999 78.9C34.7999 78.9 33.9999 78.8 33.1999 78.6C32.3999 78.4 31.7999 78 31.0999 77.6C29.7999 76.8 28.5999 75.9 27.2999 75.2C26.9999 75 26.6999 74.9 26.2999 74.7C25.9999 74.6 25.5999 74.4 25.2999 74.4C24.9999 74.4 24.5999 74.4 24.3999 74.5C24.1999 74.6 23.8999 74.9 23.8999 75.2C23.8999 75.5 23.8999 75.9 23.9999 76.2C24.0999 76.5 24.2999 76.8 24.4999 77.1C24.8999 77.7 25.3999 78.2 25.9999 78.7C27.0999 79.7 28.3999 80.5 29.5999 81.4C30.1999 81.9 30.7999 82.4 31.2999 82.9C31.7999 83.5 32.2999 84.1 32.5999 84.8C33.1999 86.2 33.3999 87.8 33.6999 89.2C33.9999 90.6 34.5999 92.1 35.2999 93.3C35.9999 94.6 36.9999 95.7 38.1999 96.5C39.3999 97.3 40.8999 97.6 42.3999 97.4C43.0999 97.3 43.7999 97.1 44.4999 96.7C44.9999 96.5 45.4999 95.9 45.8999 95.2Z" fill="black"/>
<path d="M49.9 18.5C50.1 20.8 50.6 23.1 51.5 25.3C53.3 29.4 56.8 32.6 60.2 35.6C60.6 35.9 61 36.3 61.4 36.5C62.8 37.1 64.5 36.3 65.7 35.3C69.6 32.1 71.7 27 71.8 22C71.9 17 70 12 67 7.89999C58.1 -4.30001 48.9 7.89999 49.9 18.5Z" fill="white"/>
<path d="M50.0001 18.5C50.2001 20.3 50.5001 22.1 51.1001 23.8C51.4001 24.7 51.8001 25.5 52.2001 26.2C52.7001 27 53.1001 27.7 53.7001 28.4C54.8001 29.8 56.1001 31 57.4001 32.3L59.4001 34.1L60.4001 35C60.7001 35.3 61.0001 35.6 61.4001 35.8C62.0001 36.2 62.8001 36.3 63.6001 36C64.4001 35.7 65.1001 35.3 65.8001 34.7C67.2001 33.6 68.4001 32.2 69.3001 30.7C69.8001 29.9 70.2001 29.1 70.4001 28.3C70.7001 27.4 71.0001 26.6 71.2001 25.7C71.6001 24 71.6001 22.2 71.5001 20.4C71.2001 16.9 69.9001 13.5 68.1001 10.4C67.2001 8.90002 66.1001 7.40002 64.9001 6.20002C64.6001 5.90002 64.3001 5.60002 64.0001 5.30002L63.5001 4.90002C63.3001 4.80002 63.2001 4.60002 63.0001 4.60002C62.7001 4.30002 62.3001 4.20002 61.9001 4.00002L61.3001 3.70002C61.1001 3.60002 60.9001 3.60002 60.7001 3.50002C59.9001 3.30002 59.1001 3.20002 58.3001 3.40002C57.5001 3.50002 56.7001 3.90002 56.0001 4.30002C55.3001 4.80002 54.6001 5.30002 54.0001 6.00002C53.4001 6.60002 52.9001 7.40002 52.4001 8.10002C50.6001 11.3 49.6001 14.9 50.0001 18.5ZM49.8001 18.6C49.7001 17.7 49.7001 16.8 49.8001 15.9C49.8001 15.4 49.8001 15 49.9001 14.5C50.0001 14 50.0001 13.6 50.1001 13.1C50.2001 12.2 50.5001 11.3 50.7001 10.4C51.0001 9.50002 51.3001 8.70002 51.7001 7.80002C52.1001 7.00002 52.6001 6.20002 53.2001 5.40002C53.8001 4.70002 54.5001 4.00002 55.3001 3.40002C56.1001 3.00002 57.0001 2.50002 58.0001 2.30002C59.0001 2.10002 60.0001 2.10002 61.0001 2.30002C61.5001 2.40002 61.9001 2.60002 62.4001 2.80002C62.8001 3.00002 63.3001 3.20002 63.7001 3.50002C64.5001 4.00002 65.2001 4.60002 65.9001 5.30002C67.2001 6.70002 68.2001 8.20002 69.2001 9.80002C71.0001 13 72.2001 16.7 72.3001 20.4C72.4001 24.1 71.5001 27.8 69.7001 31C69.2001 31.8 68.8001 32.6 68.2001 33.3C67.6001 34 67.0001 34.7 66.3001 35.3C65.6001 35.9 64.9001 36.5 63.9001 36.9C63.4001 37.1 62.9001 37.2 62.4001 37.2C61.9001 37.2 61.3001 37.1 60.9001 36.8C60.4001 36.5 60.1001 36.2 59.8001 35.9C59.5001 35.6 59.1001 35.3 58.8001 35C58.1001 34.4 57.4001 33.8 56.8001 33.1C55.5001 31.8 54.3001 30.4 53.3001 28.9C52.3001 27.4 51.5001 25.7 51.0001 23.9C50.3001 22.1 50.0001 20.4 49.8001 18.6Z" fill="black"/>
<path d="M62.4001 11.2C63.9001 11.3 65.7001 11.3 66.8001 12.5C68.2001 14 67.5001 16.5 67.9001 18.5C68.5001 21.3 71.4001 23.2 72.0001 26C72.6001 28.6 71.1001 31.2 70.9001 33.8C70.5001 38.1 73.4001 42 74.3001 46.3C75.1001 50 74.3001 53.8 74.3001 57.5C74.3001 61.2 75.3001 65.4 78.4001 67.4C79.1001 67.9 79.9001 68.2 80.7001 68C82.7001 67.4 82.4001 64.4 83.8001 62.9C85.7001 61.1 89.7001 62.8 91.2001 60.5C92.4001 58.5 90.2001 56.3 89.7001 54C88.8001 50.5 92.5001 46.8 91.2001 43.4C90.3001 40.8 87.2001 39.9 85.1001 38.1C82.5001 35.8 81.6001 32.1 81.6001 28.6C81.6001 25.2 82.2001 21.7 81.9001 18.2C81.4001 12.9 78.7001 7.79999 74.4001 4.49999C70.6001 1.49999 62.1001 -1.80001 57.3001 1.09999C51.5001 4.59999 57.5001 10.7 62.4001 11.2Z" fill="black"/>
<path d="M49.2998 21.5C49.1998 22.7 49.0998 24.2 47.9998 24.7C46.3998 22.2 46.9998 18.9 47.5998 16C47.7998 14.9 48.0998 13.7 48.2998 12.6C48.8998 9.89998 49.3998 7.09998 51.1998 4.89998C52.8998 2.79998 55.8998 1.49998 58.3998 2.79998C56.2998 5.09998 55.1998 8.39998 53.2998 11C51.0998 14.1 49.4998 17.5 49.2998 21.5Z" fill="black"/>
<path d="M36.5999 50.2C38.8999 50.2 40.6999 48.4 40.6999 46.1C40.6999 43.8 38.8999 42 36.5999 42C34.2999 42 32.4999 43.8 32.4999 46.1C32.3999 48.4 34.2999 50.2 36.5999 50.2Z" fill="#FF710F"/>
<path d="M54.3002 56.9C53.8002 56 53.1002 55.4 52.3002 54.7C48.1002 51 49.9002 45.7 41.5002 47C38.2002 47.5 38.0002 45.7 37.9002 45.2C36.6002 40.3 49.9002 35.7 52.8002 37.7C53.4002 38.1 53.9002 38.8 54.2002 39.4C54.6002 40.1 55.0002 40.8 55.4002 41.4C56.3002 42.9 57.3002 44.6 57.5002 46.3C57.6002 47.1 57.5002 47.9 57.7002 48.7C57.9002 49.7 58.4002 50.6 59.0002 51.4C62.8002 57.5 67.3002 63.2 72.3002 68.5C76.5002 72.9 81.3002 77.4 82.2002 83.4C82.6002 85.8 81.9002 88.8 79.7002 89.8C78.3002 90.4 76.6002 90.1 75.3002 89.4C74.0002 88.7 72.9002 87.5 71.9002 86.4L54.3002 56.9Z" fill="white"/>
<path d="M54.1999 57C53.5999 56 52.6999 55.3 51.7999 54.4C50.8999 53.5 50.2999 52.6 49.6999 51.5C49.0999 50.5 48.5999 49.4 47.8999 48.6C47.0999 47.7 46.0999 47.3 44.9999 47.2C43.8999 47.1 42.6999 47.2 41.5999 47.4C40.9999 47.5 40.3999 47.6 39.6999 47.5C39.3999 47.5 39.0999 47.4 38.6999 47.2C38.3999 47 38.0999 46.8 37.7999 46.5C37.5999 46.2 37.4999 45.9 37.3999 45.5V45.3C37.3999 45.2 37.3999 45.1 37.3999 45C37.3999 44.8 37.3999 44.7 37.3999 44.5C37.3999 43.8 37.5999 43.1 37.9999 42.6C38.6999 41.5 39.6999 40.7 40.5999 40C41.5999 39.3 42.6999 38.8 43.7999 38.3C44.8999 37.8 46.0999 37.4 47.1999 37.2C48.3999 36.9 49.5999 36.7 50.7999 36.8C51.3999 36.8 52.0999 36.9 52.6999 37.2C53.3999 37.5 53.7999 38.1 54.0999 38.6C54.3999 39.1 54.6999 39.6 54.9999 40.1L55.8999 41.6C56.4999 42.6 56.9999 43.7 57.4999 44.8C57.6999 45.4 57.7999 45.9 57.8999 46.6C57.8999 47.2 57.8999 47.8 57.9999 48.3C58.0999 49.4 58.6999 50.5 59.2999 51.5C61.7999 55.5 64.4999 59.3 67.5999 62.8C69.0999 64.6 70.6999 66.3 72.2999 68C73.9999 69.7 75.5999 71.3 77.1999 73.1C78.7999 74.8 80.2999 76.8 81.3999 78.9C81.9999 80 82.3999 81.1 82.6999 82.3C82.7999 82.9 82.9999 83.5 82.9999 84.1C82.9999 84.7 82.9999 85.4 82.9999 86C82.7999 87.2 82.3999 88.6 81.4999 89.6C80.9999 90.1 80.3999 90.5 79.7999 90.7C78.9999 91 78.2999 91 77.6999 91C76.3999 90.9 75.0999 90.3 74.0999 89.6C73.0999 88.8 72.2999 87.9 71.4999 87C69.9999 84.5 68.5999 82.1 67.0999 79.5C65.6999 77 64.2999 74.5 62.7999 72L58.4999 64.5L56.2999 60.8L54.1999 57ZM54.2999 56.9L56.5999 60.6L58.8999 64.3L63.4999 71.6C64.9999 74 66.5999 76.5 68.0999 78.9C69.5999 81.3 71.0999 83.8 72.5999 86.3L72.4999 86C73.2999 86.9 73.9999 87.7 74.8999 88.3C75.7999 88.9 76.6999 89.4 77.6999 89.4C78.1999 89.4 78.6999 89.4 79.0999 89.2C79.5999 89 79.9999 88.8 80.2999 88.4C80.9999 87.7 81.3999 86.7 81.4999 85.6C81.5999 85 81.5999 84.5 81.4999 84C81.4999 83.4 81.3999 82.9 81.1999 82.3C80.8999 81.2 80.5999 80.1 80.0999 79.1C79.0999 77.1 77.6999 75.2 76.1999 73.4C74.6999 71.7 73.0999 70 71.3999 68.2C69.7999 66.5 68.2999 64.7 66.7999 62.8C63.8999 59.1 61.0999 55.3 58.5999 51.3C57.9999 50.3 57.3999 49.2 57.1999 48C57.0999 47.4 57.0999 46.8 57.0999 46.3C56.9999 45.7 56.8999 45.2 56.6999 44.6C56.2999 43.5 55.6999 42.6 55.0999 41.5L54.1999 40C53.8999 39.5 53.5999 39 53.2999 38.6C52.9999 38.2 52.5999 37.7 52.1999 37.6C51.7999 37.4 51.1999 37.4 50.6999 37.4C49.5999 37.4 48.3999 37.6 47.2999 37.9C45.0999 38.5 42.8999 39.3 40.9999 40.6C40.0999 41.2 39.1999 42 38.5999 42.8C38.2999 43.2 38.0999 43.7 38.0999 44.2C38.0999 44.3 38.0999 44.5 38.0999 44.5V44.7V44.9C38.0999 45.2 38.1999 45.4 38.3999 45.6C38.5999 46 38.9999 46.2 39.5999 46.3C40.0999 46.4 40.6999 46.4 41.1999 46.3C42.3999 46.2 43.5999 46.1 44.7999 46.3C45.3999 46.4 45.9999 46.6 46.4999 46.9C47.0999 47.2 47.4999 47.6 47.8999 48C48.6999 48.9 49.0999 50.1 49.5999 51.1C50.1999 52.1 50.6999 53.1 51.5999 54C52.7999 55.1 53.7999 55.8 54.2999 56.9Z" fill="black"/>
<path d="M31.7998 54.8C32.5998 54.2 33.5998 53.6 34.5998 53.7C35.7998 53.9 36.4998 55.1 36.8998 56.2C37.2998 57.3 37.4998 58.5 37.5998 59.7" fill="white"/>
<path d="M31.7998 54.8C32.3998 54.2 33.1998 53.7 34.0998 53.6C34.5998 53.6 34.9998 53.6 35.4998 53.9C35.8998 54.1 36.1998 54.5 36.4998 54.8C36.9998 55.5 37.2998 56.4 37.4998 57.2C37.6998 58.1 37.7998 58.9 37.6998 59.8C37.5998 58.9 37.3998 58.1 37.0998 57.3C36.7998 56.5 36.5998 55.7 36.0998 55C35.5998 54.3 34.9998 53.8 34.0998 53.9C33.2998 54 32.5998 54.4 31.7998 54.8Z" fill="black"/>
<path d="M33 59.1C33.8 59.9 34.1 61 34 62.1C34.2 61.2 34.4 60.2 34.5 59.2C34.6 58.1 34.7 56.8 34.1 55.8C33.8 55.3 33.4 54.9 32.9 54.9C32.5 54.9 32 55 31.7 55.2C31.1 55.6 29.6 56.9 30 57.7C30.4 58.3 32.3 58.3 33 59.1Z" fill="white"/>
<path d="M33 59.1C33.8 59.9 34.1 61 34.1 62.1H34C34.3 60.8 34.4 59.5 34.4 58.2C34.4 57.6 34.3 56.9 34.1 56.3C33.9 55.7 33.5 55.2 32.9 55.1C32.6 55 32.3 55.1 32 55.2C31.7 55.3 31.4 55.5 31.2 55.7C30.7 56.1 30.2 56.6 30 57.1C29.9 57.4 30 57.7 30.3 57.9C30.6 58.1 30.9 58.2 31.2 58.3C31.5 58.4 31.8 58.5 32.1 58.6C32.4 58.7 32.8 58.8 33 59.1ZM33 59.1C32.7 58.8 32.4 58.7 32.1 58.6C31.8 58.5 31.5 58.4 31.2 58.3C30.9 58.2 30.6 58.1 30.3 58C30 57.8 29.8 57.4 29.9 57.1C30 56.8 30.2 56.5 30.4 56.2C30.6 55.9 30.8 55.7 31.1 55.5C31.4 55.3 31.6 55.1 32 54.9C32.3 54.8 32.7 54.6 33.1 54.7C33.5 54.8 33.8 55 34 55.3C34.2 55.6 34.4 55.9 34.6 56.2C34.9 56.8 34.9 57.6 34.9 58.2C34.8 59.6 34.6 60.8 34.2 62.2H34.1C34.1 61 33.8 59.9 33 59.1Z" fill="black"/>
<path d="M21.3002 71.4C23.0002 71.4 24.4002 69.8 24.4002 67.7C24.4002 65.7 23.0002 64 21.3002 64C19.6002 64 18.2002 65.6 18.2002 67.7C18.2002 69.8 19.6002 71.4 21.3002 71.4Z" fill="#55C6FF"/>
<path d="M19.9001 68.4C20.1001 68.4 20.2001 68.1 20.2001 67.6C20.2001 67.2 20.1001 66.8 19.9001 66.8C19.7001 66.8 19.6001 67.1 19.6001 67.6C19.6001 68.1 19.7001 68.4 19.9001 68.4Z" fill="black"/>
<path d="M22.0002 68.4C22.2002 68.4 22.3002 68.1 22.3002 67.6C22.3002 67.2 22.2002 66.8 22.0002 66.8C21.8002 66.8 21.7002 67.1 21.7002 67.6C21.7002 68.1 21.8002 68.4 22.0002 68.4Z" fill="black"/>
<path d="M23.5 62.3C23.8 62.3 24 61.7 24 61.1C24 60.4 23.8 59.9 23.5 59.9C23.2 59.9 23 60.5 23 61.1C23 61.8 23.2 62.3 23.5 62.3Z" fill="black"/>
<path d="M27.2998 62.3C27.5998 62.3 27.7998 61.7 27.7998 61.1C27.7998 60.4 27.5998 59.9 27.2998 59.9C26.9998 59.9 26.7998 60.5 26.7998 61.1C26.7998 61.8 26.9998 62.3 27.2998 62.3Z" fill="black"/>
<path d="M42.4002 64.9C42.0002 64.4 41.5002 64.1 41.0002 64C40.7002 64 40.5002 64 40.3002 64.3C40.1002 64.5 40.0002 64.9 40.0002 65.2C40.1002 65.7 40.6002 65.8 40.9002 65.9C41.4002 66 41.9002 66.3 42.3002 66.6C42.5002 66.8 42.7002 66.9 42.9002 67.2C43.0002 67.4 43.0002 67.7 43.1002 67.9C43.1002 68.9 42.7002 69.9 42.0002 70.3C41.4002 70.7 40.7002 70.8 40.0002 70.7C39.7002 70.7 39.3002 70.6 39.1002 70.3C38.8002 70 38.7002 69.4 38.8002 69C38.8002 68.9 38.9002 68.7 39.1002 68.7C39.1002 68.7 39.2002 68.7 39.3002 68.7C39.6002 68.8 39.8002 68.9 40.1002 69C40.4002 69.1 40.7002 69.2 40.9002 69.1C41.2002 69.1 41.5002 68.8 41.6002 68.4C41.7002 67.9 41.4002 67.4 41.2002 67.1C40.9002 66.8 40.6002 66.7 40.3002 66.6C39.7002 66.3 39.0002 65.8 38.9002 64.9C38.9002 64.4 39.0002 63.9 39.3002 63.5C39.6002 63.1 39.9002 62.9 40.2002 62.7C40.9002 62.3 41.8002 62 42.5002 62.6C42.6002 62.7 42.7002 62.7 42.7002 62.9C42.8002 63.1 42.7002 63.4 42.7002 63.6C42.7002 63.9 42.6002 64.3 42.7002 64.7" fill="#EFEFEF"/>
<path d="M41.1998 61.4C41.1998 64.5 41.2998 67.6 41.3998 70.7C41.3998 71.3 41.4998 72.1 41.0998 72.2C40.7998 72.3 40.5998 72 40.4998 71.6C40.3998 71.2 40.3998 70.8 40.3998 70.4C40.3998 67.5 40.2998 64.5 40.2998 61.5C40.6998 61.7 40.7998 61.5 41.1998 61.4Z" fill="#EFEFEF"/>
<path d="M52.1001 20.7C52.5001 20.9 53.0001 20.9 53.3001 20.9C53.7001 20.9 54.0001 20.8 54.4001 20.6C54.7001 20.4 55.0001 20.2 55.3001 19.9C55.4001 19.7 55.5001 19.6 55.6001 19.4C55.7001 19.2 55.9001 18.9 56.1001 18.9C56.0001 19.1 56.0001 19.3 56.0001 19.5C56.0001 19.7 56.0001 20 55.9001 20.2C55.7001 20.7 55.3001 21.1 54.9001 21.3C54.4001 21.6 53.9001 21.6 53.4001 21.5C52.7001 21.5 52.3001 21.1 52.1001 20.7Z" fill="black"/>
<path d="M60.3999 17.3C60.7999 17.7 61.2999 17.8 61.7999 17.7C62.1999 17.7 62.5999 17.4 62.9999 17.1C63.2999 16.8 63.6999 16.4 64.0999 16C64.3999 15.6 64.7999 15.2 64.8999 14.7C64.9999 15 64.9999 15.3 64.8999 15.6C64.7999 15.9 64.6999 16.2 64.5999 16.4C64.2999 16.9 63.9999 17.3 63.5999 17.8C63.3999 18 63.0999 18.2 62.7999 18.3C62.4999 18.4 62.1999 18.5 61.7999 18.5C61.4999 18.5 61.1999 18.4 60.8999 18.2C60.5999 17.9 60.3999 17.6 60.3999 17.3Z" fill="black"/>
<path d="M58.2002 17.7C58.4002 18.6 58.7002 19.5 58.9002 20.5C59.0002 21 59.1002 21.4 59.1002 21.9C59.1002 22.4 59.2002 22.8 59.1002 23.3C59.1002 23.7 59.0002 24.2 58.9002 24.6C58.9002 24.7 58.8002 24.9 58.9002 25.2C59.0002 25.5 59.2002 25.6 59.3002 25.6C59.5002 25.7 59.6002 25.7 59.7002 25.7C59.8002 25.7 60.0002 25.7 60.1002 25.8C61.1002 26 62.1002 25.7 62.9002 25.2C62.0002 25.5 61.0002 25.5 60.2002 25.2C60.1002 25.2 60.0002 25.2 59.9002 25.1C59.8002 25.1 59.7002 25 59.6002 25C59.5002 25 59.5002 24.9 59.6002 25C59.6002 25 59.6002 25 59.6002 24.9C59.8002 24.4 59.9002 23.9 59.9002 23.4C59.9002 22.4 59.8002 21.4 59.4002 20.5C59.1002 19.4 58.7002 18.5 58.2002 17.7Z" fill="black"/>
<path d="M60.2 29.7C60.7 29.7 61.1 29.7 61.6 29.6C62.1 29.5 62.5 29.4 62.9 29.2C63.3 29 63.7 28.8 64.1 28.6C64.3 28.5 64.5 28.3 64.7 28.3C64.8 28.3 64.9 28.2 65 28.1C65 28.1 65.1 28 65.1 27.9C65.1 27.8 65.1 27.7 65.1 27.6L64.8 27.2V27.7C64.8 27.9 64.8 28.1 64.8 28.3C64.8 28.5 64.8 28.6 64.7 28.9C64.6 29.2 64.5 29.6 64.4 29.9L64.6 29.7C64.3 29.9 64 30 63.6 30C63.3 30.1 62.9 30.1 62.5 30.1C61.8 30.1 61.1 30 60.3 29.7C60.6 30 60.9 30.3 61.2 30.5C61.6 30.7 62 30.8 62.4 30.8C62.8 30.8 63.3 30.8 63.7 30.7C64.1 30.6 64.6 30.4 64.9 30.1L65 30V29.9C65.1 29.5 65.1 29.1 65.1 28.7C65.1 28.5 65.1 28.3 65 28.1C65 27.9 65 27.7 64.9 27.5L64.6 27.6C64.6 27.6 64.6 27.6 64.6 27.7C64.6 27.7 64.5 27.8 64.3 27.8C64.1 27.9 63.9 27.9 63.7 28C63.3 28.1 62.8 28.2 62.4 28.3C62 28.5 61.6 28.6 61.2 28.8C60.8 29 60.4 29.2 60 29.4V29.7H60.2Z" fill="#FF710F"/>
</g>
<defs>
<clipPath id="clip0">
<rect width="121.4" height="133.6" fill="white"/>
</clipPath>
</defs>
</svg>
